<svg width="213" height="30" viewBox="0 0 213 30" fill="none" xmlns="http://www.w3.org/2000/svg">
<g clip-path="url(#clip0_18468_38765)">
<path d="M14.0874 0.259827H20.4105L34.6369 29.7402H28.3703L26.0183 24.7797H8.83757L6.56066 29.7402H0.275391L14.0874 0.259827ZM23.6659 19.8566L17.3056 6.46514L11.1145 19.8566H23.6659Z" fill="#0D0D0D"/>
<path d="M64.168 0.259827H79.6742C81.9324 0.259827 83.8895 0.505142 85.5454 0.995306C87.2014 1.48547 88.5753 2.19291 89.6666 3.11717C90.758 4.04143 91.5701 5.16988 92.1034 6.50253C92.6368 7.83564 92.9034 9.33837 92.9034 11.0103C92.9034 12.5821 92.64 14.0344 92.1132 15.3671C91.5864 16.7002 90.7799 17.8539 89.6951 18.8281C88.6098 19.8028 87.2391 20.5635 85.5832 21.1103C83.9273 21.6574 81.9702 21.9308 79.7119 21.9308L70.1334 21.9121V29.7393H64.168V0.259827ZM79.8247 16.7446C80.9539 16.7446 81.9417 16.6095 82.7884 16.339C83.635 16.0684 84.3436 15.6853 84.9147 15.1886C85.4853 14.6919 85.9119 14.0886 86.1944 13.3779C86.4764 12.6677 86.6177 11.8784 86.6177 11.0107C86.6177 9.26314 86.0499 7.90199 84.9147 6.92727C83.779 5.95302 82.0825 5.46566 79.8243 5.46566H70.133V16.7446H79.8243H79.8247Z" fill="#0D0D0D"/>
<path d="M124.375 0.259827H149.422V5.50351H130.34V11.3883H147.239V16.3109H130.34V24.5157H149.817V29.7402H124.375V0.259827Z" fill="#0D0D0D"/>
<path d="M191.581 8.54869L183.313 0.259827H174.506L187.177 12.9625L191.581 8.54869Z" fill="#0D0D0D"/>
<path d="M200.048 12.9634L212.725 0.259827H203.916L195.645 8.54916L200.048 12.9634Z" fill="#0D0D0D"/>
<path d="M193.614 10.5859L174.5 29.7402H183.308L193.613 19.414L203.913 29.7402H212.72L193.614 10.5859Z" fill="#00DB96"/>
</g>
<defs>
<clipPath id="clip0_18468_38765">
<rect width="213" height="30" fill="white"/>
</clipPath>
</defs>
</svg>
