<svg width="48" height="48" viewBox="0 0 48 48" fill="none" xmlns="http://www.w3.org/2000/svg">
<mask id="mask0_18805_2149" style="mask-type:alpha" maskUnits="userSpaceOnUse" x="0" y="0" width="48" height="48">
<rect width="48" height="48" fill="#D9D9D9"/>
</mask>
<g mask="url(#mask0_18805_2149)">
<path d="M12 24.1016C12 24.6349 12.0333 25.1599 12.1 25.6766C12.1667 26.1932 12.2833 26.7016 12.45 27.2016C12.6167 27.7682 12.6 28.3099 12.4 28.8266C12.2 29.3432 11.85 29.7182 11.35 29.9516C10.8167 30.2182 10.2917 30.2432 9.775 30.0266C9.25833 29.8099 8.91667 29.4182 8.75 28.8516C8.48333 28.0849 8.29167 27.3016 8.175 26.5016C8.05833 25.7016 8 24.9016 8 24.1016C8 19.6349 9.55 15.8349 12.65 12.7016C15.75 9.56823 19.5333 8.00156 24 8.00156H24.35L22.55 6.20156C22.1833 5.8349 22 5.36823 22 4.80156C22 4.2349 22.1833 3.76823 22.55 3.40156C22.9167 3.0349 23.3833 2.85156 23.95 2.85156C24.5167 2.85156 24.9833 3.0349 25.35 3.40156L30.55 8.60156C30.95 9.00156 31.15 9.46823 31.15 10.0016C31.15 10.5349 30.95 11.0016 30.55 11.4016L25.35 16.6016C24.9833 16.9682 24.5167 17.1516 23.95 17.1516C23.3833 17.1516 22.9167 16.9682 22.55 16.6016C22.1833 16.2349 22 15.7682 22 15.2016C22 14.6349 22.1833 14.1682 22.55 13.8016L24.35 12.0016H24C20.6667 12.0016 17.8333 13.1766 15.5 15.5266C13.1667 17.8766 12 20.7349 12 24.1016ZM36 23.9016C36 23.3682 35.9667 22.8432 35.9 22.3266C35.8333 21.8099 35.7167 21.3016 35.55 20.8016C35.3833 20.2349 35.4 19.6932 35.6 19.1766C35.8 18.6599 36.15 18.2849 36.65 18.0516C37.1833 17.7849 37.7083 17.7599 38.225 17.9766C38.7417 18.1932 39.0833 18.5849 39.25 19.1516C39.5167 19.9182 39.7083 20.7016 39.825 21.5016C39.9417 22.3016 40 23.1016 40 23.9016C40 28.3682 38.45 32.1682 35.35 35.3016C32.25 38.4349 28.4667 40.0016 24 40.0016H23.65L25.45 41.8016C25.8167 42.1682 26 42.6349 26 43.2016C26 43.7682 25.8167 44.2349 25.45 44.6016C25.0833 44.9682 24.6167 45.1516 24.05 45.1516C23.4833 45.1516 23.0167 44.9682 22.65 44.6016L17.45 39.4016C17.05 39.0016 16.85 38.5349 16.85 38.0016C16.85 37.4682 17.05 37.0016 17.45 36.6016L22.65 31.4016C23.0167 31.0349 23.4833 30.8516 24.05 30.8516C24.6167 30.8516 25.0833 31.0349 25.45 31.4016C25.8167 31.7682 26 32.2349 26 32.8016C26 33.3682 25.8167 33.8349 25.45 34.2016L23.65 36.0016H24C27.3333 36.0016 30.1667 34.8266 32.5 32.4766C34.8333 30.1266 36 27.2682 36 23.9016Z" fill="#FFAB13"/>
</g>
</svg>
