<svg width="48" height="48" viewBox="0 0 48 48" fill="none" xmlns="http://www.w3.org/2000/svg">
<mask id="mask0_18468_33909" style="mask-type:alpha" maskUnits="userSpaceOnUse" x="0" y="0" width="48" height="48">
<rect width="48" height="48" fill="#D9D9D9"/>
</mask>
<g mask="url(#mask0_18468_33909)">
<path d="M42 26.0001H38C37.4333 26.0001 36.9583 25.8084 36.575 25.4251C36.1917 25.0418 36 24.5668 36 24.0001C36 23.4334 36.1917 22.9584 36.575 22.5751C36.9583 22.1918 37.4333 22.0001 38 22.0001H42C42.5667 22.0001 43.0417 22.1918 43.425 22.5751C43.8083 22.9584 44 23.4334 44 24.0001C44 24.5668 43.8083 25.0418 43.425 25.4251C43.0417 25.8084 42.5667 26.0001 42 26.0001ZM33.2 33.6001C33.5333 33.1334 33.9667 32.8668 34.5 32.8001C35.0333 32.7334 35.5333 32.8668 36 33.2001L39.2 35.6001C39.6667 35.9334 39.9333 36.3668 40 36.9001C40.0667 37.4334 39.9333 37.9334 39.6 38.4001C39.2667 38.8668 38.8333 39.1334 38.3 39.2001C37.7667 39.2668 37.2667 39.1334 36.8 38.8001L33.6 36.4001C33.1333 36.0668 32.8667 35.6334 32.8 35.1001C32.7333 34.5668 32.8667 34.0668 33.2 33.6001ZM39.2 12.4001L36 14.8001C35.5333 15.1334 35.0333 15.2668 34.5 15.2001C33.9667 15.1334 33.5333 14.8668 33.2 14.4001C32.8667 13.9334 32.7333 13.4334 32.8 12.9001C32.8667 12.3668 33.1333 11.9334 33.6 11.6001L36.8 9.20011C37.2667 8.86678 37.7667 8.73345 38.3 8.80011C38.8333 8.86678 39.2667 9.13345 39.6 9.60011C39.9333 10.0668 40.0667 10.5668 40 11.1001C39.9333 11.6334 39.6667 12.0668 39.2 12.4001ZM10 30.0001H8C6.9 30.0001 5.95833 29.6084 5.175 28.8251C4.39167 28.0418 4 27.1001 4 26.0001V22.0001C4 20.9001 4.39167 19.9584 5.175 19.1751C5.95833 18.3918 6.9 18.0001 8 18.0001H16L22.95 13.8001C23.6167 13.4001 24.2917 13.4001 24.975 13.8001C25.6583 14.2001 26 14.7834 26 15.5501V32.4501C26 33.2168 25.6583 33.8001 24.975 34.2001C24.2917 34.6001 23.6167 34.6001 22.95 34.2001L16 30.0001H14V36.0001C14 36.5668 13.8083 37.0418 13.425 37.4251C13.0417 37.8084 12.5667 38.0001 12 38.0001C11.4333 38.0001 10.9583 37.8084 10.575 37.4251C10.1917 37.0418 10 36.5668 10 36.0001V30.0001ZM28 30.7001V17.3001C28.9 18.1001 29.625 19.0751 30.175 20.2251C30.725 21.3751 31 22.6334 31 24.0001C31 25.3668 30.725 26.6251 30.175 27.7751C29.625 28.9251 28.9 29.9001 28 30.7001Z" fill="#FFAB13"/>
</g>
</svg>
