<svg width="48" height="48" viewBox="0 0 48 48" fill="none" xmlns="http://www.w3.org/2000/svg">
<mask id="mask0_18805_2347" style="mask-type:alpha" maskUnits="userSpaceOnUse" x="0" y="0" width="48" height="48">
<rect width="48" height="48" fill="#D9D9D9"/>
</mask>
<g mask="url(#mask0_18805_2347)">
<path d="M22.0001 29L10.1501 27.5C9.31676 27.4 8.77509 26.95 8.52509 26.15C8.27509 25.35 8.45009 24.6667 9.05009 24.1L29.5001 4.5C29.6668 4.33333 29.8668 4.20833 30.1001 4.125C30.3334 4.04167 30.6501 4 31.0501 4C31.7168 4 32.2251 4.28333 32.5751 4.85C32.9251 5.41667 32.9334 6 32.6001 6.6L26.0001 19L37.8501 20.5C38.6834 20.6 39.2251 21.05 39.4751 21.85C39.7251 22.65 39.5501 23.3333 38.9501 23.9L18.5001 43.5C18.3334 43.6667 18.1334 43.7917 17.9001 43.875C17.6668 43.9583 17.3501 44 16.9501 44C16.2834 44 15.7751 43.7167 15.4251 43.15C15.0751 42.5833 15.0668 42 15.4001 41.4L22.0001 29Z" fill="#FFAB13"/>
</g>
</svg>
