<svg width="32" height="32" viewBox="0 0 32 32" fill="none" xmlns="http://www.w3.org/2000/svg">
<rect width="32" height="32" fill="#10172A"/>
<g clip-path="url(#clip0_18010_4)">
<path d="M15.3766 19.2808C16.1651 19.2806 16.9381 19.0788 17.6092 18.6979C18.2802 18.317 18.8231 17.7721 19.1771 17.1239H16.4137V16.2696H19.5161C19.5879 15.9903 19.625 15.7044 19.6269 15.4174H16.4137V14.5714H19.6203V13.709H16.4137V12.8548H19.6203V12.0026H16.4137V11.1463H19.6203V10.29H16.4137V9.43987H19.6203C19.6154 9.15269 19.576 8.86689 19.5028 8.58768H16.4137V7.73141H19.1549C18.7222 6.95086 18.0164 6.32704 17.1514 5.96039C16.2864 5.59374 15.3124 5.50561 14.3863 5.7102C13.4602 5.91478 12.6359 6.40017 12.0462 7.0882C11.4564 7.77623 11.1355 8.62684 11.1352 9.50307V15.3869C11.141 16.4194 11.59 17.4079 12.3844 18.1373C13.1789 18.8666 14.2543 19.2776 15.3766 19.2808Z" fill="#FFAB13"/>
<path d="M22.2205 15.5758V13.7898C22.0731 13.7896 21.9272 13.8161 21.791 13.8678C21.6548 13.9196 21.5311 13.9955 21.4269 14.0914C21.3227 14.1872 21.2402 14.3011 21.1839 14.4264C21.1277 14.5516 21.0989 14.6859 21.0992 14.8214V15.3862C21.0945 16.7813 20.4898 18.118 19.4173 19.1044C18.3448 20.0907 16.8916 20.6464 15.3752 20.6502C13.858 20.6475 12.4036 20.0922 11.3302 19.1058C10.2567 18.1194 9.65146 16.782 9.64678 15.3862V14.8214C9.6468 14.55 9.53049 14.2894 9.32308 14.0963C9.11566 13.9032 8.83385 13.7931 8.53877 13.7898V15.5758C8.54455 17.1261 9.16951 18.6204 10.2948 19.7744C11.42 20.9284 12.9671 21.6617 14.6417 21.8347V24.1099H10.4024C10.2561 24.1183 10.1187 24.1777 10.0183 24.276C9.9179 24.3743 9.86199 24.5041 9.86199 24.639C9.86199 24.7739 9.9179 24.9037 10.0183 25.002C10.1187 25.1003 10.2561 25.1597 10.4024 25.168H20.3302C20.4111 25.1726 20.4921 25.1619 20.5684 25.1365C20.6446 25.1112 20.7144 25.0717 20.7734 25.0206C20.8324 24.9695 20.8795 24.9079 20.9116 24.8394C20.9438 24.771 20.9604 24.6972 20.9604 24.6227C20.9604 24.5481 20.9438 24.4743 20.9116 24.4059C20.8795 24.3375 20.8324 24.2758 20.7734 24.2247C20.7144 24.1736 20.6446 24.1342 20.5684 24.1088C20.4921 24.0835 20.4111 24.0728 20.3302 24.0773H16.0599V21.8347C17.7449 21.6738 19.3059 20.9459 20.443 19.7906C21.5801 18.6353 22.2131 17.1343 22.2205 15.5758Z" fill="#FFAB13"/>
</g>
<defs>
<clipPath id="clip0_18010_4">
<rect width="15" height="21" fill="white" transform="translate(8 5)"/>
</clipPath>
</defs>
</svg>
