<svg width="99" height="48" viewBox="0 0 99 48" fill="none" xmlns="http://www.w3.org/2000/svg">
<g clip-path="url(#clip0_18468_40581)">
<path d="M49.7881 48H97.8938V-3.8147e-06H49.7881V48Z" fill="white"/>
<path d="M50.2607 47.5278H97.4213V0.468056H50.2607V47.5278Z" fill="#0C151D"/>
<path d="M55.4629 36.559H55.9968L56.7377 39.9633H56.7479L57.54 36.559H58.1876L58.9023 39.9633H58.9126L59.7133 36.559H60.2385L59.197 40.4873H58.5858L57.8405 37.08H57.8288L57.0309 40.4873H56.4212L55.4629 36.559Z" fill="white"/>
<path d="M60.6171 39.2558C60.6171 40.0214 60.8228 40.1757 61.1714 40.1757C61.4762 40.1757 61.6338 39.9312 61.6498 39.6532H62.1414C62.1355 40.263 61.7592 40.5396 61.183 40.5396C60.5981 40.5396 60.1357 40.3634 60.1357 39.1539C60.1357 38.3476 60.2262 37.6854 61.183 37.6854C61.9663 37.6854 62.1618 38.1147 62.1618 39.0215V39.2558H60.6171ZM61.6877 38.9182C61.6877 38.1162 61.4646 38.0201 61.1378 38.0201C60.8534 38.0201 60.62 38.1584 60.6171 38.9182H61.6877Z" fill="white"/>
<path d="M64.7256 36.559H65.3645L66.6452 40.4873H66.0822L65.8007 39.55H64.2778L63.9847 40.4873H63.4785L64.7256 36.559ZM65.032 37.0218H65.0203L64.4018 39.1148H65.6635L65.032 37.0218Z" fill="white"/>
<path d="M67.4722 38.1498H67.4839C67.6677 37.7321 67.8967 37.6855 68.3328 37.6855V38.1469L68.2132 38.1309L68.0936 38.1163C67.5977 38.1163 67.4722 38.4933 67.4722 38.8645V40.4873H67.0244V37.7394H67.4722V38.1498Z" fill="white"/>
<path d="M68.933 39.2558C68.933 40.0214 69.1416 40.1757 69.4902 40.1757C69.7951 40.1757 69.9541 39.9312 69.9686 39.6532H70.4587C70.4544 40.263 70.0795 40.5396 69.5004 40.5396C68.917 40.5396 68.4531 40.3634 68.4531 39.1539C68.4531 38.3476 68.5465 37.6854 69.5004 37.6854C70.2866 37.6854 70.4821 38.1147 70.4821 39.0215V39.2558H68.933ZM70.0066 38.9182C70.0066 38.1162 69.7849 38.0201 69.4567 38.0201C69.1737 38.0201 68.9388 38.1584 68.933 38.9182H70.0066Z" fill="white"/>
<path d="M71.9863 40.4873V36.559H73.2655C73.8125 36.559 73.9963 36.7409 74.1436 36.9607C74.2808 37.1732 74.3026 37.4061 74.3026 37.4832C74.3026 37.9708 74.1334 38.3012 73.6258 38.4133V38.4409C74.1874 38.5079 74.4339 38.8426 74.4339 39.3811C74.4339 40.3898 73.6973 40.4873 73.2495 40.4873H71.9863ZM72.4866 38.2124H73.2174C73.6098 38.2066 73.8009 37.965 73.8009 37.5865C73.8009 37.262 73.6156 36.9927 73.1955 36.9927H72.4866V38.2124ZM72.4866 40.0507H73.1955C73.7309 40.0507 73.9205 39.6722 73.9205 39.3811C73.9205 38.7553 73.5325 38.6476 73.022 38.6476H72.4866V40.0507Z" fill="white"/>
<path d="M76.3087 40.0889H76.2971C76.1614 40.4047 75.9485 40.5415 75.6057 40.5415C75.0237 40.5415 74.8545 40.166 74.8545 39.6391C74.8545 38.8051 75.6713 38.7673 76.2971 38.7847C76.3087 38.4194 76.316 38.0221 75.8347 38.0221C75.5357 38.0221 75.3767 38.2244 75.4044 38.5126H74.9187C74.9406 37.8969 75.2673 37.6859 75.8507 37.6859C76.5596 37.6859 76.7434 38.0512 76.7434 38.5126V39.8341C76.7434 40.0525 76.7668 40.2752 76.8003 40.4891H76.3087V40.0889ZM75.3008 39.6726C75.3008 39.9375 75.4321 40.1776 75.7311 40.1776C76.0039 40.1776 76.3423 40.0073 76.2971 39.1224C75.8741 39.1268 75.3008 39.0889 75.3008 39.6726Z" fill="white"/>
<path d="M78.1034 40.5396C77.5083 40.5396 77.1378 40.279 77.1538 39.6473H77.6614C77.6614 39.806 77.6658 40.1757 78.1194 40.1757C78.3864 40.1757 78.595 40.0374 78.595 39.7551C78.595 39.2675 77.2209 39.2558 77.2209 38.4349C77.2209 38.1468 77.396 37.6854 78.169 37.6854C78.6591 37.6854 79.0792 37.9182 79.0413 38.4611H78.5454C78.5497 38.1759 78.3966 38.0201 78.1136 38.0201C77.8744 38.0201 77.6877 38.1497 77.6877 38.3913C77.6877 38.873 79.0632 38.8643 79.0632 39.7041C79.0632 40.3067 78.6504 40.5396 78.1034 40.5396Z" fill="white"/>
<path d="M79.9395 40.4873H79.4932V36.559H79.9395V38.9256H79.9512L80.7899 37.7379H81.3354L80.4194 38.9169L81.5002 40.4873H80.9328L79.9512 38.946H79.9395V40.4873Z" fill="white"/>
<path d="M82.0238 39.2558C82.0238 40.0214 82.231 40.1757 82.5796 40.1757C82.883 40.1757 83.0434 39.9283 83.0595 39.6532H83.5496C83.5437 40.263 83.1674 40.5396 82.5898 40.5396C82.0063 40.5396 81.5439 40.3634 81.5439 39.1525C81.5439 38.3476 81.6358 37.6854 82.5898 37.6854C83.3731 37.6854 83.5714 38.1147 83.5714 39.0215V39.2558H82.0238ZM83.0974 38.9167C83.0974 38.1162 82.8728 38.0201 82.546 38.0201C82.2616 38.0201 82.0282 38.1584 82.0238 38.9167H83.0974Z" fill="white"/>
<path d="M84.1431 37.7381V37.2127L84.5894 37.0104V37.7381H85.1904V38.0758H84.5894V39.7554C84.5894 39.9301 84.5894 40.1557 85.0008 40.1557L85.2021 40.1309V40.4744C85.0533 40.4875 84.9074 40.5181 84.7601 40.5181C84.3356 40.5181 84.1431 40.3463 84.1431 40.029V38.0758H83.6924V37.7381H84.1431Z" fill="white"/>
<path d="M86.0957 40.4872H85.6465V36.5588H86.0957V38.0158H86.1118C86.2649 37.7974 86.4546 37.6854 86.7157 37.6854C87.6054 37.6854 87.6258 38.4742 87.6258 39.1598C87.6258 40.3634 87.1795 40.5396 86.739 40.5396C86.4487 40.5396 86.2591 40.4158 86.106 40.1597H86.0957V40.4872ZM86.5975 40.1771C87.1576 40.1771 87.1576 39.5746 87.1576 39.1641C87.1576 38.4291 87.092 38.0492 86.6121 38.0492C86.1176 38.0492 86.0957 38.6372 86.0957 39.0011C86.0957 39.4203 86.0447 40.1771 86.5975 40.1771Z" fill="white"/>
<path d="M89.4264 40.0889H89.4162C89.2791 40.4047 89.0676 40.5415 88.7234 40.5415C88.1399 40.5415 87.9707 40.166 87.9707 39.6391C87.9707 38.8051 88.7905 38.7673 89.4162 38.7847C89.4264 38.4194 89.4323 38.0221 88.9509 38.0221C88.6533 38.0221 88.4944 38.2244 88.5221 38.5126H88.0363C88.0582 37.8969 88.385 37.6859 88.9699 37.6859C89.6788 37.6859 89.864 38.0512 89.864 38.5126V39.8341C89.864 40.0525 89.8844 40.2752 89.918 40.4891H89.4264V40.0889ZM88.417 39.6726C88.417 39.9375 88.5498 40.1776 88.8503 40.1776C89.1216 40.1776 89.46 40.0073 89.4162 39.1224C88.9903 39.1268 88.417 39.0889 88.417 39.6726Z" fill="white"/>
<path d="M90.5059 40.4873H90.9536V36.5589H90.5059V40.4873Z" fill="white"/>
<path d="M91.6074 40.4873H92.0552V36.5589H91.6074V40.4873Z" fill="white"/>
<path d="M61.2537 10.2824V13.2457H65.2707V15.8743H61.2537V21.6816H58.4414V8.54455C58.4414 7.83137 58.7185 7.55629 59.4304 7.55629H66.0846V10.2824H61.2537Z" fill="white"/>
<path d="M67.0322 21.6816V8.54455C67.0322 7.83283 67.3123 7.55629 68.0241 7.55629H69.8445V21.6816H67.0322Z" fill="white"/>
<path d="M76.893 11.6631C76.893 12.81 76.2206 13.382 75.2492 13.382H74.021V9.94276H75.2492C76.2206 9.94276 76.893 10.5177 76.893 11.6631ZM79.7636 17.6495C79.7636 15.7326 78.7338 14.8259 77.9812 14.5668C78.6536 14.2539 79.6644 13.4621 79.6644 11.2876C79.6644 9.31254 78.3181 7.55434 75.4461 7.55434H72.2604C71.5472 7.55434 71.2686 7.83087 71.2686 8.5426V21.6797H75.5657C77.9812 21.6797 79.7636 20.3348 79.7636 17.6495ZM76.931 17.4938C76.931 18.6785 76.2396 19.252 75.2681 19.252H74.021V15.7326H75.2681C76.2396 15.7326 76.931 16.3061 76.931 17.4938Z" fill="white"/>
<path d="M86.3963 14.2937H83.7839V11.3885C83.7839 10.7947 83.9808 9.78753 85.0909 9.78753C86.1994 9.78753 86.3963 10.7947 86.3963 11.3885V14.2937ZM89.2086 21.6816V11.0713C89.2086 9.98547 88.6149 7.24045 85.0909 7.24045C81.5639 7.24045 80.9717 9.98547 80.9717 11.0713V21.6816H83.7839V16.9208H86.3963V21.6816H89.2086Z" fill="white"/>
<path d="M0.282227 48H48.3879V-3.8147e-06H0.282227V48Z" fill="white"/>
<path d="M0.753906 47.5278H47.9144V0.468056H0.753906V47.5278Z" fill="#151922"/>
<mask id="mask0_18468_40581" style="mask-type:luminance" maskUnits="userSpaceOnUse" x="23" y="10" width="15" height="23">
<path d="M24.6337 23.0864C25.064 25.4996 26.1288 28.6972 26.1288 28.6972C26.1288 28.6972 26.0836 29.1936 26.9048 30.4045C27.7275 31.6184 28.4072 31.8265 28.4072 31.8265C28.2292 31.9269 28.4072 31.8876 28.4072 31.8876L28.4641 31.8658L28.9979 32.2209C30.1663 32.7376 31.2209 32.4713 32.8283 32.3912C34.4386 32.3126 37.1809 30.8542 37.1809 30.8542L37.2377 30.4976C33.9748 32.0448 33.3724 31.9313 32.6781 32.1133C31.9969 32.2967 30.3603 32.5411 28.7689 31.745L29.0621 31.6314L30.5499 29.4133L31.7985 26.9768C31.7985 26.9768 33.298 24.0819 34.2782 20.8813C35.2321 17.7754 35.4684 15.499 35.4684 15.499C35.4684 15.499 35.6668 13.5181 35.6274 13.3231C35.588 13.1222 35.6478 11.2228 35.448 10.6698L34.9915 10.2142C35.2132 11.6158 35.2102 11.5954 35.2321 12.4891C35.2496 13.3828 35.2103 14.5689 35.0323 16.2122C34.8543 17.8539 34.001 20.6848 34.001 20.6848C34.001 20.6848 32.573 24.9581 31.641 26.4442C30.7074 27.9273 30.0919 29.473 30.0919 29.473C30.0919 29.473 29.0154 31.0857 28.5749 31.6431C27.0434 30.7728 26.7546 29.1819 26.7546 29.1819C25.5745 27.6347 23.7906 17.036 23.7906 17.036L23.4668 17.0956L24.2194 21.1695L24.6337 23.0864Z" fill="white"/>
</mask>
<g mask="url(#mask0_18468_40581)">
<path d="M24.6332 23.0857C25.0635 25.5003 26.1283 28.698 26.1283 28.698C26.1283 28.698 26.0831 29.1943 26.9043 30.4052C27.7255 31.6191 28.4067 31.8272 28.4067 31.8272C28.2287 31.9262 28.4067 31.8869 28.4067 31.8869L28.4636 31.8651L28.9974 32.2202C30.1658 32.7384 31.2189 32.4705 32.8278 32.392C34.4367 32.3119 37.1804 30.855 37.1804 30.855L37.2358 30.4969C33.9743 32.0441 33.3719 31.9306 32.6776 32.1125C31.9964 32.2959 30.3598 32.5404 28.7684 31.7443L29.0602 31.6307L30.548 29.4126L31.798 26.9776C31.798 26.9776 33.296 24.0812 34.2762 20.8821C35.2302 17.7747 35.4679 15.4997 35.4679 15.4997C35.4679 15.4997 35.6663 13.5174 35.6269 13.3224C35.5875 13.123 35.6459 11.2236 35.4475 10.669L34.991 10.2149C35.2127 11.6151 35.2098 11.5962 35.2302 12.4898C35.2491 13.382 35.2098 14.5697 35.0318 16.2115C34.8539 17.8547 33.9991 20.6856 33.9991 20.6856C33.9991 20.6856 32.5711 24.9574 31.6405 26.4449C30.707 27.928 30.0914 29.4723 30.0914 29.4723C30.0914 29.4723 29.0135 31.0849 28.573 31.6424C27.0414 30.7735 26.7541 29.1812 26.7541 29.1812C25.574 27.634 23.7901 17.0367 23.7901 17.0367L23.4648 17.0949L24.219 21.1703L24.6332 23.0857Z" fill="#6B6969"/>
<path d="M24.6337 23.0864C25.064 25.4996 26.1288 28.6972 26.1288 28.6972C26.1288 28.6972 26.0836 29.1936 26.9048 30.4045C27.7275 31.6184 28.4072 31.8265 28.4072 31.8265C28.2292 31.9269 28.4072 31.8876 28.4072 31.8876L28.4641 31.8658L28.9979 32.2209C30.1663 32.7376 31.2209 32.4713 32.8283 32.3912C34.4386 32.3126 37.1809 30.8542 37.1809 30.8542L37.2377 30.4976C33.9748 32.0448 33.3724 31.9313 32.6781 32.1133C31.9969 32.2967 30.3603 32.5411 28.7689 31.745L29.0621 31.6314L30.5499 29.4133L31.7985 26.9768C31.7985 26.9768 33.298 24.0819 34.2782 20.8813C35.2321 17.7754 35.4684 15.499 35.4684 15.499C35.4684 15.499 35.6668 13.5181 35.6274 13.3231C35.588 13.1222 35.6478 11.2228 35.448 10.6698L34.9915 10.2142C35.2132 11.6158 35.2102 11.5954 35.2321 12.4891C35.2496 13.3828 35.2103 14.5689 35.0323 16.2122C34.8543 17.8539 34.001 20.6848 34.001 20.6848C34.001 20.6848 32.573 24.9581 31.641 26.4442C30.7074 27.9273 30.0919 29.473 30.0919 29.473C30.0919 29.473 29.0154 31.0857 28.5749 31.6431C27.0434 30.7728 26.7546 29.1819 26.7546 29.1819C25.5745 27.6347 23.7906 17.036 23.7906 17.036L23.4668 17.0956L24.2194 21.1695L24.6337 23.0864Z" fill="url(#paint0_radial_18468_40581)"/>
</g>
<mask id="mask1_18468_40581" style="mask-type:luminance" maskUnits="userSpaceOnUse" x="10" y="15" width="28" height="23">
<path d="M37.1817 36.9488C36.1971 37.0142 33.4884 36.2487 33.4884 36.2487C33.4884 36.2487 31.7483 35.4962 31.4522 35.454C31.1561 35.4147 28.0142 33.7729 28.0142 33.7729H26.6095L26.1923 32.9651C26.1923 32.9651 25.1013 31.4995 24.3443 31.2171C23.5901 30.9348 21.5553 29.3061 21.5553 29.3061L21.2169 28.7282C21.2169 28.7282 19.2492 26.9919 18.5593 26.6571C17.8708 26.3195 13.5168 21.154 13.5168 21.154C13.5168 21.154 12.3587 18.9067 11.8598 18.5851C11.3931 18.2823 10.2349 15.613 10.0832 15.2608L10.0671 15.2229L10.0117 15.907L10.7556 17.4672L11.7665 19.1876C11.7665 19.1876 12.98 20.7247 13.4249 21.5048C13.8698 22.2849 17.1722 25.8232 17.1722 25.8232L21.3643 29.5884L23.4545 31.1095L24.1138 31.8488L25.7752 33.8923L28.1746 34.2168L30.79 35.5078L33.5278 36.6257L36.0235 37.2296L36.9527 37.4043C36.9527 37.4043 38.1663 36.8833 37.1817 36.9488Z" fill="white"/>
</mask>
<g mask="url(#mask1_18468_40581)">
<path d="M37.1817 36.9492C36.1956 37.0147 33.4884 36.2492 33.4884 36.2492C33.4884 36.2492 31.7483 35.4967 31.4507 35.4545C31.1546 35.4152 28.0142 33.7734 28.0142 33.7734H26.608L26.1909 32.9656C26.1909 32.9656 25.1013 31.4999 24.3428 31.2176C23.5887 30.9352 21.5539 29.3066 21.5539 29.3066L21.2169 28.7302C21.2169 28.7302 19.2478 26.9924 18.5593 26.6576C17.8708 26.3199 13.5168 21.1545 13.5168 21.1545C13.5168 21.1545 12.3587 18.9072 11.8598 18.5855C11.3916 18.2828 10.2334 15.6135 10.0817 15.2612L10.0657 15.2234L10.0117 15.9089L10.7542 17.4677L11.765 19.1881C11.765 19.1881 12.9786 20.7251 13.4235 21.5052C13.8698 22.2854 17.1707 25.8236 17.1707 25.8236L21.3643 29.5889L23.4545 31.1099L24.1138 31.8493L25.7752 33.8927L28.1746 34.2173L30.7899 35.5083L33.5278 36.6261L36.0235 37.2301L36.9512 37.4062C36.9512 37.4062 38.1663 36.8837 37.1817 36.9492Z" fill="#6B6969"/>
<path d="M37.1817 36.9488C36.1971 37.0142 33.4884 36.2487 33.4884 36.2487C33.4884 36.2487 31.7483 35.4962 31.4522 35.454C31.1561 35.4147 28.0142 33.7729 28.0142 33.7729H26.6095L26.1923 32.9651C26.1923 32.9651 25.1013 31.4995 24.3443 31.2171C23.5901 30.9348 21.5553 29.3061 21.5553 29.3061L21.2169 28.7282C21.2169 28.7282 19.2492 26.9919 18.5593 26.6571C17.8708 26.3195 13.5168 21.154 13.5168 21.154C13.5168 21.154 12.3587 18.9067 11.8598 18.5851C11.3931 18.2823 10.2349 15.613 10.0832 15.2608L10.0671 15.2229L10.0117 15.907L10.7556 17.4672L11.7665 19.1876C11.7665 19.1876 12.98 20.7247 13.4249 21.5048C13.8698 22.2849 17.1722 25.8232 17.1722 25.8232L21.3643 29.5884L23.4545 31.1095L24.1138 31.8488L25.7752 33.8923L28.1746 34.2168L30.79 35.5078L33.5278 36.6257L36.0235 37.2296L36.9527 37.4043C36.9527 37.4043 38.1663 36.8833 37.1817 36.9488Z" fill="url(#paint1_radial_18468_40581)"/>
</g>
<mask id="mask2_18468_40581" style="mask-type:luminance" maskUnits="userSpaceOnUse" x="15" y="33" width="11" height="2">
<path d="M17.1805 33.2808C16.266 32.914 15.665 33.3302 15.665 33.3302L16.5577 33.6635L19.7725 34.0769L22.8269 34.285C22.8269 34.285 24.1003 34.3695 24.4941 34.5864C24.888 34.8061 25.0849 34.2283 25.0849 34.2283L22.595 33.8935C22.595 33.8935 18.0922 33.6519 17.1805 33.2808Z" fill="white"/>
</mask>
<g mask="url(#mask2_18468_40581)">
<path d="M17.1806 33.2817C16.266 32.9149 15.665 33.3297 15.665 33.3297L16.5577 33.663L19.7725 34.0764L22.8269 34.2859C22.8269 34.2859 24.1003 34.3689 24.4941 34.5858C24.888 34.807 25.0849 34.2292 25.0849 34.2292L22.595 33.8944C22.595 33.8944 18.0922 33.6514 17.1806 33.2817Z" fill="#6B6969"/>
<path d="M17.1805 33.2808C16.266 32.914 15.665 33.3302 15.665 33.3302L16.5577 33.6635L19.7725 34.0769L22.8269 34.285C22.8269 34.285 24.1003 34.3695 24.4941 34.5864C24.888 34.8061 25.0849 34.2283 25.0849 34.2283L22.595 33.8935C22.595 33.8935 18.0922 33.6519 17.1805 33.2808Z" fill="url(#paint2_radial_18468_40581)"/>
</g>
<mask id="mask3_18468_40581" style="mask-type:luminance" maskUnits="userSpaceOnUse" x="23" y="10" width="15" height="23">
<path d="M24.5248 22.9861C24.9551 25.3964 26.0199 28.5969 26.0199 28.5969C26.0199 28.5969 25.9732 29.0918 26.7959 30.3043C27.6157 31.5181 28.2968 31.7262 28.2968 31.7262C28.1203 31.8252 28.2968 31.7859 28.2968 31.7859L28.3537 31.7627L28.8876 32.1177C30.0574 32.6373 31.112 32.3724 32.718 32.2924C34.3283 32.2094 37.0691 30.7554 37.0691 30.7554L37.1274 30.3974C33.863 31.9431 33.2635 31.8281 32.5692 32.013C31.888 32.1949 30.2514 32.438 28.6586 31.6433L28.9518 31.5283L30.4396 29.3102L31.6882 26.8766C31.6882 26.8766 33.1876 23.9802 34.1678 20.7826C35.1203 17.6722 35.3581 15.3973 35.3581 15.3973C35.3581 15.3973 35.5594 13.4178 35.5185 13.2199C35.4777 13.0219 35.5404 11.1211 35.3391 10.5666L34.8826 10.1125C35.1014 11.5127 35.0999 11.4937 35.1203 12.3888C35.1407 13.2781 35.0999 14.4673 34.9219 16.1091C34.7425 17.7523 33.8922 20.5831 33.8922 20.5831C33.8922 20.5831 32.4627 24.8593 31.5306 26.3439C30.5971 27.827 29.983 29.3698 29.983 29.3698C29.983 29.3698 28.9051 30.9839 28.4646 31.5414C26.9345 30.6754 26.6442 29.0802 26.6442 29.0802C25.4627 27.533 23.6788 16.9342 23.6788 16.9342L23.3564 16.9925L24.1106 21.0678L24.5248 22.9861Z" fill="white"/>
</mask>
<g mask="url(#mask3_18468_40581)">
<path d="M24.5243 22.9861C24.9546 25.3978 26.0194 28.5969 26.0194 28.5969C26.0194 28.5969 25.9727 29.0918 26.7954 30.3042C27.6152 31.5181 28.2949 31.7262 28.2949 31.7262C28.1184 31.8252 28.2949 31.7859 28.2949 31.7859L28.3532 31.764L28.8871 32.1177C30.0569 32.6373 31.1115 32.3724 32.7175 32.2924C34.3278 32.2094 37.0686 30.7554 37.0686 30.7554L37.1269 30.3974C33.8625 31.9431 33.263 31.8295 32.5687 32.0144C31.8875 32.1949 30.2509 32.4394 28.6566 31.6432L28.9513 31.5297L30.4391 29.3101L31.6877 26.8766C31.6877 26.8766 33.1857 23.9802 34.1673 20.7825C35.1198 17.6736 35.3576 15.3987 35.3576 15.3987C35.3576 15.3987 35.5574 13.4193 35.518 13.2199C35.4772 13.0219 35.5399 11.1226 35.3386 10.568L34.8821 10.1125C35.1009 11.5141 35.0979 11.4937 35.1198 12.3903C35.1402 13.2781 35.0994 14.4672 34.9215 16.109C34.742 17.7522 33.8902 20.5846 33.8902 20.5846C33.8902 20.5846 32.4622 24.8593 31.5301 26.3439C30.5966 27.827 29.9825 29.3698 29.9825 29.3698C29.9825 29.3698 28.9046 30.9839 28.4641 31.5414C26.934 30.6754 26.6437 29.0802 26.6437 29.0802C25.4622 27.533 23.6783 16.9342 23.6783 16.9342L23.3545 16.9925L24.1086 21.0678L24.5243 22.9861Z" fill="#939192"/>
<path d="M24.5248 22.9861C24.9551 25.3964 26.0199 28.5969 26.0199 28.5969C26.0199 28.5969 25.9732 29.0918 26.7959 30.3043C27.6157 31.5181 28.2968 31.7262 28.2968 31.7262C28.1203 31.8252 28.2968 31.7859 28.2968 31.7859L28.3537 31.7627L28.8876 32.1177C30.0574 32.6373 31.112 32.3724 32.718 32.2924C34.3283 32.2094 37.0691 30.7554 37.0691 30.7554L37.1274 30.3974C33.863 31.9431 33.2635 31.8281 32.5692 32.013C31.888 32.1949 30.2514 32.438 28.6586 31.6433L28.9518 31.5283L30.4396 29.3102L31.6882 26.8766C31.6882 26.8766 33.1876 23.9802 34.1678 20.7826C35.1203 17.6722 35.3581 15.3973 35.3581 15.3973C35.3581 15.3973 35.5594 13.4178 35.5185 13.2199C35.4777 13.0219 35.5404 11.1211 35.3391 10.5666L34.8826 10.1125C35.1014 11.5127 35.0999 11.4937 35.1203 12.3888C35.1407 13.2781 35.0999 14.4673 34.9219 16.1091C34.7425 17.7523 33.8922 20.5831 33.8922 20.5831C33.8922 20.5831 32.4627 24.8593 31.5306 26.3439C30.5971 27.827 29.983 29.3698 29.983 29.3698C29.983 29.3698 28.9051 30.9839 28.4646 31.5414C26.9345 30.6754 26.6442 29.0802 26.6442 29.0802C25.4627 27.533 23.6788 16.9342 23.6788 16.9342L23.3564 16.9925L24.1106 21.0678L24.5248 22.9861Z" fill="url(#paint3_radial_18468_40581)"/>
</g>
<mask id="mask4_18468_40581" style="mask-type:luminance" maskUnits="userSpaceOnUse" x="9" y="15" width="29" height="23">
<path d="M37.0704 36.8472C36.0872 36.9156 33.3771 36.1471 33.3771 36.1471C33.3771 36.1471 31.6384 35.3932 31.3408 35.3539C31.0447 35.3131 27.9029 33.6728 27.9029 33.6728H26.5011L26.0825 32.865C26.0825 32.865 24.99 31.3979 24.2329 31.1156C23.4788 30.8332 21.4426 29.206 21.4426 29.206L21.1042 28.6267C21.1042 28.6267 19.1379 26.8903 18.4495 26.5541C17.7624 26.2164 13.4084 21.0509 13.4084 21.0509C13.4084 21.0509 12.2473 18.8066 11.7485 18.4821C11.2846 18.1822 10.125 15.5114 9.97188 15.1592L9.95584 15.1199L9.90332 15.8069L10.6443 17.3657L11.6551 19.089C11.6551 19.089 12.8673 20.6216 13.3136 21.4031C13.7585 22.1818 17.0623 25.7187 17.0623 25.7187L21.2544 29.4869L23.3446 31.0078L24.0054 31.7472L25.6638 33.7936L28.0648 34.1152L30.6786 35.4077L33.4179 36.5226L35.9107 37.1295L36.8428 37.3057C36.8428 37.3057 38.0564 36.7773 37.0704 36.8472Z" fill="white"/>
</mask>
<g mask="url(#mask4_18468_40581)">
<path d="M37.0699 36.8467C36.0867 36.9136 33.3766 36.1466 33.3766 36.1466C33.3766 36.1466 31.6379 35.3927 31.3404 35.3534C31.0443 35.3126 27.9024 33.6723 27.9024 33.6723H26.4992L26.082 32.8645C26.082 32.8645 24.988 31.3974 24.2324 31.115C23.4783 30.8327 21.4421 29.2055 21.4421 29.2055L21.1037 28.6262C21.1037 28.6262 19.1374 26.8898 18.4475 26.5536C17.7619 26.2159 13.4065 21.0505 13.4065 21.0505C13.4065 21.0505 12.2468 18.8061 11.748 18.4816C11.2827 18.1817 10.1245 15.5109 9.97138 15.1587L9.95533 15.1194L9.90137 15.8064L10.6424 17.3652L11.6546 19.0885C11.6546 19.0885 12.8668 20.6211 13.3131 21.4027C13.758 22.1814 17.0618 25.7182 17.0618 25.7182L21.2539 29.4864L23.3427 31.0073L24.0049 31.7467L25.6634 33.7931L28.0643 34.1148L30.6781 35.4072L33.4174 36.5221L35.9103 37.1291L36.8409 37.3037C36.8409 37.3037 38.0544 36.7768 37.0699 36.8467Z" fill="#939192"/>
<path d="M37.0704 36.8472C36.0872 36.9156 33.3771 36.1471 33.3771 36.1471C33.3771 36.1471 31.6384 35.3932 31.3408 35.3539C31.0447 35.3131 27.9029 33.6728 27.9029 33.6728H26.5011L26.0825 32.865C26.0825 32.865 24.99 31.3979 24.2329 31.1156C23.4788 30.8332 21.4426 29.206 21.4426 29.206L21.1042 28.6267C21.1042 28.6267 19.1379 26.8903 18.4495 26.5541C17.7624 26.2164 13.4084 21.0509 13.4084 21.0509C13.4084 21.0509 12.2473 18.8066 11.7485 18.4821C11.2846 18.1822 10.125 15.5114 9.97188 15.1592L9.95584 15.1199L9.90332 15.8069L10.6443 17.3657L11.6551 19.089C11.6551 19.089 12.8673 20.6216 13.3136 21.4031C13.7585 22.1818 17.0623 25.7187 17.0623 25.7187L21.2544 29.4869L23.3446 31.0078L24.0054 31.7472L25.6638 33.7936L28.0648 34.1152L30.6786 35.4077L33.4179 36.5226L35.9107 37.1295L36.8428 37.3057C36.8428 37.3057 38.0564 36.7773 37.0704 36.8472Z" fill="url(#paint4_radial_18468_40581)"/>
</g>
<mask id="mask5_18468_40581" style="mask-type:luminance" maskUnits="userSpaceOnUse" x="15" y="33" width="10" height="2">
<path d="M17.0688 33.1773C16.1556 32.8061 15.5547 33.2224 15.5547 33.2224L16.4459 33.5556L19.6607 33.9719L22.7166 34.1816C22.7166 34.1816 23.987 34.2631 24.3809 34.4814C24.7762 34.6983 24.976 34.1233 24.976 34.1233L22.4847 33.7886C22.4847 33.7886 17.9833 33.5455 17.0688 33.1773Z" fill="white"/>
</mask>
<g mask="url(#mask5_18468_40581)">
<path d="M17.0683 33.1774C16.1551 32.8062 15.5527 33.2225 15.5527 33.2225L16.444 33.5558L19.6602 33.9721L22.7161 34.1802C22.7161 34.1802 23.9865 34.2632 24.3804 34.4815C24.7757 34.6983 24.974 34.122 24.974 34.122L22.4827 33.7887C22.4827 33.7887 17.9828 33.5456 17.0683 33.1774Z" fill="#939192"/>
<path d="M17.0688 33.1773C16.1556 32.8061 15.5547 33.2224 15.5547 33.2224L16.4459 33.5556L19.6607 33.9719L22.7166 34.1816C22.7166 34.1816 23.987 34.2631 24.3809 34.4814C24.7762 34.6983 24.976 34.1233 24.976 34.1233L22.4847 33.7886C22.4847 33.7886 17.9833 33.5455 17.0688 33.1773Z" fill="url(#paint5_radial_18468_40581)"/>
</g>
<mask id="mask6_18468_40581" style="mask-type:luminance" maskUnits="userSpaceOnUse" x="11" y="4" width="9" height="5">
<path fill-rule="evenodd" clip-rule="evenodd" d="M19.7011 4.61508C19.7011 4.61508 16.7065 5.25837 13.7397 7.07626C13.7397 7.07626 11.9441 8.55648 11.7705 8.75879C11.7705 8.75879 14.9795 6.41699 18.2162 6.08077L18.3665 6.09818L19.7011 4.61508Z" fill="white"/>
</mask>
<g mask="url(#mask6_18468_40581)">
<mask id="mask7_18468_40581" style="mask-type:luminance" maskUnits="userSpaceOnUse" x="-108" y="-85" width="974" height="1281">
<path d="M-107.315 -84.7705H865.591V1195.81H-107.315V-84.7705Z" fill="white"/>
</mask>
<g mask="url(#mask7_18468_40581)">
<path d="M19.704 4.61213C19.704 4.61213 16.7109 5.25545 13.7441 7.07188C13.7441 7.07188 11.9485 8.55355 11.7734 8.75586C11.7734 8.75586 14.9839 6.41401 18.2191 6.07634L18.3694 6.09526L19.704 4.61213Z" fill="#31B06B"/>
<path d="M-107.315 -84.7705H865.591V1195.81H-107.315V-84.7705Z" fill="url(#paint6_linear_18468_40581)"/>
</g>
</g>
<mask id="mask8_18468_40581" style="mask-type:luminance" maskUnits="userSpaceOnUse" x="9" y="4" width="28" height="16">
<path fill-rule="evenodd" clip-rule="evenodd" d="M24.8506 16.0283L26.4814 14.6586L28.1296 13.2221L29.8843 11.9049L32.1919 10.6576L34.4309 9.61686L36.7735 8.90947C36.7735 8.90947 36.1827 7.92272 35.681 8.00859C35.1763 8.09738 33.528 8.54711 33.528 8.54711C33.528 8.54711 31.3225 9.55139 29.5372 9.14968C27.7474 8.7567 30.09 7.45551 30.09 7.45551L30.5655 7.38124L31.642 6.45123L32.7987 6.74963L33.4697 7.05087L33.6564 7.07414L33.6841 7.06837C33.6841 7.06837 33.0306 5.94329 32.1846 5.60126C31.343 5.26213 30.09 5.48624 29.0792 6.04223C28.0669 6.59386 26.9481 6.43373 26.9481 6.43373C26.9481 6.43373 25.8921 6.17175 26.3588 5.91413C26.827 5.6536 28.7904 5.10058 28.7904 5.10058V4.99718C28.7904 4.99718 28.026 4.13556 26.2728 4.16613C26.2728 4.16613 25.5974 4.11806 24.7791 4.5809L23.7187 5.10778L23.0156 5.53285C23.0156 5.53285 21.9567 6.32164 21.4038 6.08585C20.8467 5.85298 21.2128 5.10058 21.2128 5.10058C21.2128 5.10058 21.5585 4.5096 22.0267 4.34513L21.7029 4.23746L21.6022 4.25932L20.7256 4.32772L19.9977 4.50237C19.9977 4.50237 19.4245 4.57225 18.8935 5.10058C18.367 5.62746 17.9483 6.60699 17.6698 7.33327C17.3941 8.06101 16.4212 9.81919 15.3899 10.234C14.3557 10.6503 13.9138 10.0928 13.9138 10.0928C13.9138 10.0928 13.8 9.94868 13.6877 9.63721C13.5754 9.32428 13.2457 8.86582 12.8461 8.84835C12.4449 8.83089 11.3364 8.6417 10.537 9.83664L9.60059 11.0039C9.60059 11.0039 11.1176 10.9966 12.1517 12.9193C12.1517 12.9193 12.9423 15.8113 13.0823 16.149C13.218 16.4867 13.4631 17.475 14.3907 18.2624C15.3199 19.0498 17.4728 19.4209 19.0336 19.1123C20.5958 18.7994 22.1244 18.0892 24.8506 16.0283Z" fill="white"/>
</mask>
<g mask="url(#mask8_18468_40581)">
<mask id="mask9_18468_40581" style="mask-type:luminance" maskUnits="userSpaceOnUse" x="-108" y="-85" width="974" height="1281">
<path d="M-107.315 -84.7715H865.591V1195.81H-107.315V-84.7715Z" fill="white"/>
</mask>
<g mask="url(#mask9_18468_40581)">
<path d="M24.8545 16.0267L26.4867 14.6571L28.135 13.2206L29.8882 11.9034L32.1958 10.656L34.4348 9.61538L36.7774 8.90802C36.7774 8.90802 36.1866 7.92121 35.6849 8.00708C35.1802 8.09587 33.5319 8.54561 33.5319 8.54561C33.5319 8.54561 31.3279 9.54988 29.5411 9.14817C27.7513 8.7552 30.0939 7.45401 30.0939 7.45401L30.5694 7.37978L31.6459 6.44973L32.8026 6.7481L33.4736 7.04938L33.6603 7.07267L33.688 7.06685C33.688 7.06685 33.0345 5.94177 32.1885 5.59974C31.3469 5.26061 30.0939 5.48475 29.0831 6.04074C28.0708 6.59237 26.952 6.43226 26.952 6.43226C26.952 6.43226 25.896 6.17028 26.3642 5.91266C26.8309 5.65213 28.7943 5.09905 28.7943 5.09905V4.99571C28.7943 4.99571 28.0299 4.13407 26.2767 4.16464C26.2767 4.16464 25.6013 4.11661 24.7845 4.57945L23.7226 5.10633L23.0195 5.53133C23.0195 5.53133 21.9606 6.32019 21.4078 6.08441C20.8506 5.85153 21.2167 5.09905 21.2167 5.09905C21.2167 5.09905 21.5638 4.50813 22.0306 4.34366L21.7068 4.23596L21.6061 4.25779L20.7295 4.3262L20.0016 4.50085C20.0016 4.50085 19.4284 4.57072 18.8974 5.09905C18.3709 5.62593 17.9522 6.60546 17.6751 7.33175C17.398 8.05948 16.4251 9.81769 15.3938 10.2325C14.3596 10.6488 13.9177 10.0913 13.9177 10.0913C13.9177 10.0913 13.8039 9.94723 13.6916 9.63576C13.5793 9.32429 13.2496 8.86436 12.8514 8.84689C12.4503 8.82943 11.3403 8.64021 10.5424 9.83516L9.60449 11.0024C9.60449 11.0024 11.1215 10.9952 12.1556 12.9178C12.1556 12.9178 12.9462 15.8099 13.0862 16.1475C13.2219 16.4852 13.467 17.4735 14.3961 18.2609C15.3238 19.0483 17.4767 19.4194 19.0375 19.1109C20.5997 18.798 22.1283 18.0877 24.8545 16.0267Z" fill="#FFAB13"/>
<path d="M-107.315 -84.7715H865.591V1195.81H-107.315V-84.7715Z" fill="url(#paint7_linear_18468_40581)"/>
</g>
</g>
<mask id="mask10_18468_40581" style="mask-type:luminance" maskUnits="userSpaceOnUse" x="23" y="5" width="22" height="27">
<path d="M43.1467 30.7699C43.1467 30.7699 41.6268 31.8134 40.4847 31.1294C39.3441 30.4468 37.5952 28.4353 33.6773 27.7148C33.6773 27.7148 32.5191 27.4907 32.4783 26.9173C32.4141 26.0236 33.6583 25.341 34.6662 25.1707C35.6727 25.0004 37.0234 25.306 37.4231 25.421C37.8227 25.5316 40.7312 26.5577 40.8829 24.8301C41.0361 23.1039 40.4278 20.6165 34.799 17.9821C29.1686 15.3433 24.2997 14.2415 24.2997 14.2415C24.2997 14.2415 22.9111 13.9402 23.4056 13.0466C23.9015 12.1558 27.0799 12.61 33.581 14.6593L37.2903 16.0448C37.2903 16.0448 37.8023 16.3272 37.9934 15.9313C38.1815 15.5325 37.5368 15.0756 37.0992 14.7917C36.6631 14.5065 34.8938 13.6535 32.4593 12.7992C30.0263 11.9463 24.2822 10.4849 24.2822 10.4849C24.2822 10.4849 22.8353 10.1633 23.1022 9.66987C23.3691 9.17501 23.9015 8.66271 28.257 9.57384C32.6125 10.485 34.7596 11.2825 38.3741 13.0087C38.3741 13.0087 38.5958 13.1004 38.676 12.9592C38.7563 12.8239 38.641 12.6361 38.5024 12.5459C38.3639 12.4513 34.8004 10.076 31.6279 9.10666C28.4583 8.13585 27.6954 7.93785 27.6954 7.93785C27.6954 7.93785 26.4921 7.62644 26.6204 7.03698C26.7473 6.45042 28.979 6.92345 28.979 6.92345C28.979 6.92345 31.1786 7.21159 35.61 9.23324C35.61 9.23324 37.566 10.2113 38.4543 10.9653C38.4543 10.9653 38.7169 11.0628 38.5141 10.8168C38.5141 10.8168 36.4078 9.1634 35.5297 8.59577C34.6487 8.03104 33.0982 6.87686 31.0736 6.50717C31.0736 6.50717 30.3326 6.28736 30.6579 6.11416C30.9803 5.94242 31.2691 5.94244 31.2691 5.94244C31.2691 5.94244 31.5375 5.95259 32.0918 6.08067C32.6475 6.20584 35.7135 7.51144 37.8548 9.26674C39.9946 11.0206 41.4066 13.4119 42.2176 14.7829C42.645 15.5121 43.2342 16.7115 43.631 17.9879C43.984 19.1217 44.1561 20.3065 44.2772 21.3777C44.531 23.6526 44.5499 27.0599 43.7331 29.3289C43.7331 29.3289 43.4457 30.3594 43.1467 30.7699Z" fill="white"/>
</mask>
<g mask="url(#mask10_18468_40581)">
<path d="M43.1467 30.7699C43.1467 30.7699 41.6268 31.8134 40.4847 31.1294C39.3441 30.4467 37.5952 28.4367 33.6773 27.7148C33.6773 27.7148 32.5191 27.4907 32.4783 26.9187C32.4141 26.0236 33.6583 25.341 34.6662 25.1707C35.6727 25.0018 37.0234 25.306 37.4231 25.421C37.8227 25.5316 40.7312 26.5577 40.8829 24.8301C41.0361 23.1039 40.4278 20.6165 34.799 17.9821C29.1687 15.3433 24.2997 14.2415 24.2997 14.2415C24.2997 14.2415 22.9111 13.9402 23.4056 13.0466C23.9015 12.1558 27.0799 12.6099 33.581 14.6592L37.2903 16.0449C37.2903 16.0449 37.8023 16.3287 37.9934 15.9313C38.1815 15.5325 37.5368 15.0755 37.0992 14.7917C36.6631 14.5079 34.8938 13.6535 32.4593 12.7992C30.0263 11.9462 24.2822 10.485 24.2822 10.485C24.2822 10.485 22.8353 10.1633 23.1022 9.66989C23.3691 9.17503 23.9015 8.66416 28.257 9.57383C32.6125 10.485 34.7596 11.2826 38.3741 13.0087C38.3741 13.0087 38.5958 13.1004 38.676 12.9593C38.7562 12.8239 38.641 12.6361 38.5024 12.5459C38.3639 12.4513 34.8004 10.076 31.6279 9.10662C28.4583 8.13582 27.6954 7.93933 27.6954 7.93933C27.6954 7.93933 26.4921 7.62641 26.6204 7.03694C26.7473 6.45039 28.979 6.92341 28.979 6.92341C28.979 6.92341 31.1786 7.2116 35.61 9.23325C35.61 9.23325 37.566 10.2113 38.4543 10.9653C38.4543 10.9653 38.7169 11.0628 38.5141 10.8183C38.5141 10.8183 36.4078 9.16339 35.5297 8.59721C34.6487 8.03103 33.0982 6.87684 31.0736 6.5086C31.0736 6.5086 30.3326 6.28737 30.6579 6.11417C30.9817 5.94243 31.2691 5.94243 31.2691 5.94243C31.2691 5.94243 31.5375 5.95262 32.0918 6.0807C32.6475 6.20587 35.7135 7.51288 37.8548 9.26818C39.9946 11.0206 41.4066 13.4119 42.2176 14.7844C42.645 15.5136 43.2342 16.7115 43.631 17.9879C43.984 19.1217 44.1561 20.3065 44.2772 21.3777C44.531 23.6526 44.5499 27.0599 43.7331 29.3289C43.7331 29.3289 43.4458 30.3594 43.1467 30.7699Z" fill="#F36471"/>
<path d="M43.1467 30.7703C43.1467 30.7703 41.6268 31.8139 40.4847 31.1299C39.3441 30.4472 37.5952 28.4358 33.6773 27.7153C33.6773 27.7153 32.5191 27.4912 32.4783 26.9177C32.4141 26.0241 33.6583 25.3415 34.6662 25.1712C35.6727 25.0009 37.0234 25.3065 37.4231 25.4215C37.8227 25.5321 40.7312 26.5582 40.8829 24.8306C41.0361 23.1044 40.4278 20.617 34.799 17.9826C29.1686 15.3438 24.2997 14.242 24.2997 14.242C24.2997 14.242 22.9111 13.9407 23.4056 13.0471C23.9015 12.1563 27.0799 12.6105 33.581 14.6598L37.2903 16.0453C37.2903 16.0453 37.8023 16.3277 37.9934 15.9318C38.1815 15.533 37.5368 15.076 37.0992 14.7922C36.6631 14.507 34.8938 13.654 32.4593 12.7997C30.0263 11.9467 24.2822 10.4854 24.2822 10.4854C24.2822 10.4854 22.8353 10.1638 23.1022 9.67036C23.3691 9.1755 23.9015 8.6632 28.257 9.57433C32.6125 10.4855 34.7596 11.283 38.3741 13.0092C38.3741 13.0092 38.5958 13.1009 38.676 12.9597C38.7563 12.8244 38.641 12.6366 38.5024 12.5464C38.3639 12.4518 34.8004 10.0765 31.6279 9.10714C28.4583 8.13634 27.6954 7.93834 27.6954 7.93834C27.6954 7.93834 26.4921 7.62693 26.6204 7.03747C26.7473 6.45091 28.979 6.92393 28.979 6.92393C28.979 6.92393 31.1786 7.21208 35.61 9.23373C35.61 9.23373 37.566 10.2118 38.4543 10.9657C38.4543 10.9657 38.7169 11.0633 38.5141 10.8173C38.5141 10.8173 36.4078 9.16389 35.5297 8.59625C34.6487 8.03153 33.0982 6.87734 31.0736 6.50765C31.0736 6.50765 30.3326 6.28785 30.6579 6.11465C30.9803 5.9429 31.2691 5.94293 31.2691 5.94293C31.2691 5.94293 31.5375 5.95308 32.0918 6.08116C32.6475 6.20633 35.7135 7.51192 37.8548 9.26722C39.9946 11.0211 41.4066 13.4124 42.2176 14.7834C42.645 15.5126 43.2342 16.712 43.631 17.9884C43.984 19.1222 44.1561 20.307 44.2772 21.3782C44.531 23.6531 44.5499 27.0604 43.7331 29.3294C43.7331 29.3294 43.4457 30.3599 43.1467 30.7703Z" fill="url(#paint8_linear_18468_40581)"/>
</g>
<mask id="mask11_18468_40581" style="mask-type:luminance" maskUnits="userSpaceOnUse" x="20" y="4" width="7" height="3">
<path fill-rule="evenodd" clip-rule="evenodd" d="M24.9851 6.54746C24.9851 6.54746 25.6911 7.13692 26.4656 6.90404C27.2401 6.67699 26.823 5.85468 26.6509 5.65964C26.4773 5.4617 25.217 3.95961 22.5404 4.12262C22.5404 4.12262 21.6623 4.16343 20.7959 4.32499C20.7959 4.32499 22.3202 4.08915 23.4681 5.07014C24.6131 6.05112 24.9851 6.54746 24.9851 6.54746Z" fill="white"/>
</mask>
<g mask="url(#mask11_18468_40581)">
<mask id="mask12_18468_40581" style="mask-type:luminance" maskUnits="userSpaceOnUse" x="-108" y="-85" width="974" height="1281">
<path d="M-107.315 -84.7729H865.591V1195.81H-107.315V-84.7729Z" fill="white"/>
</mask>
<g mask="url(#mask12_18468_40581)">
<path d="M24.988 6.54416C24.988 6.54416 25.694 7.13363 26.47 6.90221C27.2431 6.6737 26.8274 5.85136 26.6538 5.65633C26.4802 5.45838 25.2199 3.95779 22.5448 4.1208C22.5448 4.1208 21.6667 4.1601 20.7988 4.32311C20.7988 4.32311 22.3246 4.08587 23.471 5.06686C24.6175 6.04785 24.988 6.54416 24.988 6.54416Z" fill="#FCCB06"/>
<path d="M-107.315 -84.7729H865.591V1195.81H-107.315V-84.7729Z" fill="url(#paint9_linear_18468_40581)"/>
</g>
</g>
<mask id="mask13_18468_40581" style="mask-type:luminance" maskUnits="userSpaceOnUse" x="26" y="4" width="7" height="4">
<path fill-rule="evenodd" clip-rule="evenodd" d="M26.8652 4.19061C27.9227 4.22409 29.2968 4.6243 29.2968 4.6243C30.9173 4.98526 31.5066 6.01278 31.8523 6.43778C32.2009 6.86569 32.4999 7.82339 31.7035 7.89325C30.9057 7.96311 30.3047 6.87734 30.3047 6.87734L30.013 6.39274C28.9175 4.54284 27.4151 4.24299 26.8798 4.19496L26.8652 4.19061Z" fill="white"/>
</mask>
<g mask="url(#mask13_18468_40581)">
<mask id="mask14_18468_40581" style="mask-type:luminance" maskUnits="userSpaceOnUse" x="-108" y="-85" width="974" height="1281">
<path d="M-107.314 -84.7715H865.592V1195.81H-107.314V-84.7715Z" fill="white"/>
</mask>
<g mask="url(#mask14_18468_40581)">
<path d="M26.8672 4.18907C27.9247 4.22254 29.2987 4.62425 29.2987 4.62425C30.9193 4.98375 31.51 6.01132 31.8543 6.43632C32.2043 6.86568 32.5033 7.82338 31.7055 7.89179C30.9076 7.96165 30.3066 6.87587 30.3066 6.87587L30.0164 6.39265C28.9209 4.54275 27.4171 4.24146 26.8818 4.19343L26.8672 4.18907Z" fill="#FCCB06"/>
<path d="M-107.314 -84.7715H865.592V1195.81H-107.314V-84.7715Z" fill="url(#paint10_linear_18468_40581)"/>
</g>
</g>
<mask id="mask15_18468_40581" style="mask-type:luminance" maskUnits="userSpaceOnUse" x="32" y="5" width="4" height="4">
<path fill-rule="evenodd" clip-rule="evenodd" d="M34.1243 7.82402C34.1243 7.82402 34.5473 8.79486 35.1483 8.78904C35.7507 8.78467 35.4663 8.10787 35.195 7.64067C34.9237 7.17346 34.489 6.77458 33.9814 6.46893C33.4709 6.16183 32.4425 5.68736 32.4425 5.68736L32.1348 5.56077C32.1348 5.56077 32.8816 5.94355 33.2856 6.51264C33.6926 7.0861 34.1243 7.82402 34.1243 7.82402Z" fill="white"/>
</mask>
<g mask="url(#mask15_18468_40581)">
<mask id="mask16_18468_40581" style="mask-type:luminance" maskUnits="userSpaceOnUse" x="-108" y="-85" width="974" height="1281">
<path d="M-107.316 -84.7715H865.59V1195.81H-107.316V-84.7715Z" fill="white"/>
</mask>
<g mask="url(#mask16_18468_40581)">
<path d="M34.1263 7.82259C34.1263 7.82259 34.5493 8.79339 35.1503 8.78757C35.7527 8.78321 35.4668 8.10496 35.1969 7.63775C34.9242 7.172 34.491 6.77174 33.9819 6.46755C33.4728 6.15899 32.4445 5.68596 32.4445 5.68596L32.1367 5.55788C32.1367 5.55788 32.8835 5.94067 33.2876 6.51121C33.6945 7.08467 34.1263 7.82259 34.1263 7.82259Z" fill="#FCCB06"/>
<path d="M-107.316 -84.7715H865.59V1195.81H-107.316V-84.7715Z" fill="url(#paint11_linear_18468_40581)"/>
</g>
</g>
<mask id="mask17_18468_40581" style="mask-type:luminance" maskUnits="userSpaceOnUse" x="5" y="31" width="14" height="13">
<path fill-rule="evenodd" clip-rule="evenodd" d="M5.58008 31.0197C5.58008 31.0197 6.33419 33.6118 8.80949 36.6392C11.2848 39.6666 12.071 39.7496 12.071 39.7496C12.071 39.7496 12.3175 40.1236 12.9637 40.6025C13.4946 40.9983 14.3187 41.4495 15.3515 41.9677C17.6298 43.1146 18.9543 43.1655 18.9543 43.1655L18.7967 41.8338L12.0389 35.5942L8.51922 33.5492L6.63613 31.6091L5.58008 31.0197Z" fill="white"/>
</mask>
<g mask="url(#mask17_18468_40581)">
<mask id="mask18_18468_40581" style="mask-type:luminance" maskUnits="userSpaceOnUse" x="-108" y="-85" width="974" height="1281">
<path d="M-107.314 -84.7729H865.592V1195.81H-107.314V-84.7729Z" fill="white"/>
</mask>
<g mask="url(#mask18_18468_40581)">
<path d="M5.58203 31.0177C5.58203 31.0177 6.33614 33.6099 8.81144 36.6358C11.2867 39.6632 12.0729 39.7461 12.0729 39.7461C12.0729 39.7461 12.3195 40.1216 12.9656 40.6005C13.4966 40.9949 14.3207 41.4461 15.3534 41.9657C17.6318 43.1126 18.9562 43.1636 18.9562 43.1636L18.8002 41.8318L12.0409 35.5922L8.52118 33.5473L6.63808 31.6057L5.58203 31.0177Z" fill="#4F4C4D"/>
<path d="M-107.314 -84.7729H865.592V1195.81H-107.314V-84.7729Z" fill="url(#paint12_linear_18468_40581)"/>
</g>
</g>
<mask id="mask19_18468_40581" style="mask-type:luminance" maskUnits="userSpaceOnUse" x="5" y="23" width="25" height="21">
<path fill-rule="evenodd" clip-rule="evenodd" d="M6.88309 26.9688L8.26733 25.0534C8.26733 25.0534 8.71367 23.4014 9.65158 23.9603C10.5924 24.5178 11.1058 26.3677 9.11625 29.2204C9.11625 29.2204 7.84432 30.5565 8.44674 31.849C9.05061 33.1429 9.51883 33.9376 10.8389 33.5795C12.159 33.2215 12.8795 33.0774 14.3221 32.2638L19.1823 28.7416L22.1448 26.3735C22.1448 26.3735 23.1162 25.4623 23.9476 26.1217C24.782 26.7796 23.5203 27.944 23.1848 28.2918C22.8507 28.6382 18.892 32.3904 16.8076 33.8459L15.8143 34.6974C15.8143 34.6974 15.3752 35.0918 15.7224 35.6478C15.7224 35.6478 16.1396 36.0378 16.7405 35.6084C16.7405 35.6084 21.8764 32.3104 23.2665 30.9364C24.6551 29.561 25.9401 28.5 25.9401 28.5C25.9401 28.5 26.843 27.5757 27.6307 28.187C28.4169 28.7998 27.4673 29.6876 27.3521 29.8157L24.5865 32.795C24.5865 32.795 20.8816 36.1906 20.4411 36.3973C20.0035 36.604 19.563 38.2793 20.9749 37.5399C22.3869 36.8005 24.7484 35.0452 25.3275 34.4339C25.9051 33.8226 28.1616 31.5943 28.1616 31.5943C28.1616 31.5943 28.7538 30.8535 29.5021 31.3047C30.2577 31.7559 29.2964 33.0265 29.2964 33.0265L27.0633 35.5881L25.0154 37.5399C25.0154 37.5399 22.6976 39.4116 21.6926 40.0011C20.6847 40.5876 22.0631 40.969 22.2702 40.9574C22.4773 40.9457 22.4773 40.9457 22.4773 40.9457C22.4773 40.9457 22.8712 40.8642 23.3015 40.6444C23.7288 40.4261 25.8147 39.0186 25.8147 39.0186L27.9778 37.1469C27.9778 37.1469 28.7392 36.0277 29.575 36.3726C30.405 36.7205 29.6669 37.7466 29.435 38.0595C29.2031 38.3724 28.0333 39.6867 28.0333 39.6867L23.4634 42.6093C23.4634 42.6093 22.2439 43.6616 19.9889 43.3953C17.7339 43.1304 16.0112 41.2921 16.0112 41.2921L12.5615 37.4467C12.5615 37.4467 11.1058 36.0378 10.4465 35.7031C9.78577 35.3698 8.17836 34.4106 7.21712 33.383C6.25734 32.3555 5.66659 31.2581 5.66659 31.2581C5.66659 31.2581 5.1123 29.9642 5.46967 29.2612C5.82849 28.5597 6.88309 26.9688 6.88309 26.9688Z" fill="white"/>
</mask>
<g mask="url(#mask19_18468_40581)">
<mask id="mask20_18468_40581" style="mask-type:luminance" maskUnits="userSpaceOnUse" x="-108" y="-85" width="974" height="1281">
<path d="M-107.314 -84.7744H865.592V1195.81H-107.314V-84.7744Z" fill="white"/>
</mask>
<g mask="url(#mask20_18468_40581)">
<path d="M6.88565 26.9673L8.26843 25.0504C8.26843 25.0504 8.71623 23.3999 9.65413 23.9588C10.5935 24.5162 11.1069 26.3661 9.11881 29.2174C9.11881 29.2174 7.84543 30.555 8.4493 31.8475C9.05172 33.1399 9.51994 33.9361 10.84 33.578C12.1601 33.22 12.8806 33.0759 14.3232 32.2623L19.1834 28.7386L22.1459 26.372C22.1459 26.372 23.1173 25.4594 23.9487 26.1202C24.7845 26.778 23.5228 27.941 23.1859 28.2888C22.8518 28.6367 18.8946 32.3889 16.8102 33.8444L15.8154 34.6958C15.8154 34.6958 15.3778 35.0888 15.7235 35.6448C15.7235 35.6448 16.1407 36.0363 16.7416 35.6069C16.7416 35.6069 21.8789 32.3088 23.2675 30.9334C24.6576 29.5594 25.9412 28.497 25.9412 28.497C25.9412 28.497 26.8441 27.5742 27.6332 28.184C28.418 28.7982 27.4699 29.6846 27.3532 29.8142L24.5876 32.7935C24.5876 32.7935 20.8827 36.1877 20.4436 36.3943C20.0046 36.6025 19.5641 38.2777 20.9775 37.5369C22.3895 36.799 24.751 35.0437 25.3301 34.4324C25.9077 33.8196 28.1627 31.5927 28.1627 31.5927C28.1627 31.5927 28.7549 30.8519 29.5047 31.3031C30.2588 31.7543 29.2975 33.0235 29.2975 33.0235L27.0658 35.5866L25.0179 37.5369C25.0179 37.5369 22.7001 39.4101 21.6937 39.9981C20.6858 40.5861 22.0656 40.966 22.2728 40.9558C22.4784 40.9427 22.4784 40.9427 22.4784 40.9427C22.4784 40.9427 22.8723 40.8612 23.304 40.6429C23.7299 40.4245 25.8158 39.0156 25.8158 39.0156L27.9789 37.1439C27.9789 37.1439 28.7418 36.0247 29.5761 36.3711C30.4076 36.7175 29.668 37.745 29.4361 38.0579C29.2056 38.3709 28.0344 39.6852 28.0344 39.6852L23.4645 42.6078C23.4645 42.6078 22.245 43.6586 19.9915 43.3937C17.7364 43.1288 16.0123 41.2891 16.0123 41.2891L12.5641 37.4452C12.5641 37.4452 11.1069 36.0363 10.4476 35.7015C9.78833 35.3682 8.17945 34.4091 7.21967 33.3815C6.25843 32.3525 5.66915 31.2551 5.66915 31.2551C5.66915 31.2551 5.11341 29.9626 5.47223 29.2596C5.8296 28.5566 6.88565 26.9673 6.88565 26.9673Z" fill="#302C2D"/>
<path d="M-107.314 -84.7744H865.592V1195.81H-107.314V-84.7744Z" fill="url(#paint13_linear_18468_40581)"/>
</g>
</g>
<mask id="mask21_18468_40581" style="mask-type:luminance" maskUnits="userSpaceOnUse" x="4" y="7" width="22" height="27">
<path fill-rule="evenodd" clip-rule="evenodd" d="M13.8509 7.01992C13.8509 7.01992 13.0749 7.43614 11.7125 8.50009C10.3502 9.56549 8.80404 11.331 8.1287 12.2829C7.45043 13.2347 4.97804 16.3364 4.38876 22.4668C4.38876 22.4668 4.16267 24.6122 4.50982 26.4315C4.50982 26.4315 4.71987 28.6468 5.70736 29.5332C5.70736 29.5332 9.4896 32.3742 14.2287 33.1703C14.2287 33.1703 15.187 33.2577 15.2702 32.4004C15.3518 31.5461 14.0099 31.0177 14.0099 31.0177C14.0099 31.0177 10.8724 29.9203 10.5602 29.6525C10.2481 29.389 9.80904 29.4341 8.1987 28.1184C6.59129 26.8012 6.52128 25.8552 6.81301 25.4287C7.10036 25.0023 7.61088 25.2439 8.10827 25.4404C8.60567 25.6354 11.0007 26.548 11.0007 26.548L17.6302 28.4066C17.6302 28.4066 20.3272 29.3177 20.7546 28.1665C21.1835 27.0094 19.967 26.5246 19.506 26.3529C19.0436 26.1782 14.0901 24.5612 11.2079 23.3503C8.32707 22.1393 8.06743 22.1393 8.241 20.924C8.241 20.924 8.37957 20.1468 10.41 20.5617C12.5906 21.0085 17.0249 21.8774 17.0249 21.8774L23.1497 23.1421C23.1497 23.1421 24.8184 23.5409 25.078 22.5701C25.3376 21.6022 24.2947 21.0303 23.5654 20.7683C22.8361 20.5107 16.2941 18.6564 16.2941 18.6564L12.3354 17.6376C12.3354 17.6376 8.74423 17.2213 9.88926 15.6945C9.88926 15.6945 10.2364 15.1764 12.8751 15.4005C15.5138 15.6261 20.1989 16.5271 21.64 16.9433C23.0797 17.3567 24.7484 17.6376 25.0255 16.5954C25.3041 15.5577 24.2787 15.0875 22.7325 14.6218C21.1878 14.1546 18.0649 13.3731 15.2527 13.0805C12.4419 12.785 10.7411 12.7515 10.7411 12.7515C10.7411 12.7515 9.48814 12.7458 9.43271 12.4168C9.43271 12.4168 9.29997 11.9889 9.69964 11.1928C10.0993 10.3966 11.1247 9.3268 11.5959 8.93964L13.8509 7.01992Z" fill="white"/>
</mask>
<g mask="url(#mask21_18468_40581)">
<mask id="mask22_18468_40581" style="mask-type:luminance" maskUnits="userSpaceOnUse" x="-108" y="-85" width="974" height="1281">
<path d="M-107.314 -84.7744H865.592V1195.81H-107.314V-84.7744Z" fill="white"/>
</mask>
<g mask="url(#mask22_18468_40581)">
<path d="M13.8524 7.0194C13.8524 7.0194 13.0764 7.43567 11.7126 8.49962C10.3516 9.56502 8.8055 11.3305 8.12869 12.2824C7.45043 13.2343 4.97804 16.3359 4.38876 22.4663C4.38876 22.4663 4.16267 24.6117 4.50982 26.431C4.50982 26.431 4.72132 28.6463 5.70882 29.5326C5.70882 29.5326 9.49106 32.3737 14.2302 33.1699C14.2302 33.1699 15.1885 33.2572 15.2716 32.3999C15.3533 31.5456 14.0099 31.0172 14.0099 31.0172C14.0099 31.0172 10.8738 29.9198 10.5602 29.652C10.2481 29.3885 9.8105 29.4337 8.20017 28.1179C6.59129 26.8007 6.52274 25.8547 6.813 25.4282C7.10181 25.0003 7.61234 25.2434 8.10973 25.4399C8.60712 25.6349 11.0007 26.5475 11.0007 26.5475L17.6317 28.4061C17.6317 28.4061 20.3272 29.3172 20.7546 28.166C21.1835 27.0089 19.967 26.5242 19.506 26.3524C19.0436 26.1778 14.0916 24.5607 11.2093 23.3498C8.32853 22.1388 8.06889 22.1388 8.24101 20.9235C8.24101 20.9235 8.38104 20.1463 10.4115 20.5611C12.5921 21.0079 17.0249 21.8769 17.0249 21.8769L23.1497 23.1417C23.1497 23.1417 24.8198 23.5405 25.078 22.5697C25.3376 21.6018 24.2962 21.0298 23.5669 20.7678C22.8361 20.5102 16.2956 18.6559 16.2956 18.6559L12.3354 17.6371C12.3354 17.6371 8.74569 17.2208 9.89072 15.694C9.89072 15.694 10.2379 15.1759 12.8765 15.4C15.5152 15.6256 20.2003 16.5265 21.6415 16.9428C23.0811 17.3562 24.7498 17.6371 25.027 16.5949C25.3041 15.5572 24.2787 15.0871 22.7325 14.6213C21.1878 14.1541 18.0664 13.3725 15.2541 13.08C12.4419 12.7845 10.7426 12.751 10.7426 12.751C10.7426 12.751 9.48814 12.7452 9.43271 12.4163C9.43271 12.4163 9.30143 11.9884 9.7011 11.1922C10.0993 10.3961 11.1247 9.32633 11.5973 8.93917L13.8524 7.0194Z" fill="#00A650"/>
<path d="M-107.314 -84.7744H865.592V1195.81H-107.314V-84.7744Z" fill="url(#paint14_radial_18468_40581)"/>
</g>
</g>
<path fill-rule="evenodd" clip-rule="evenodd" d="M23.6206 42.5168L26.1557 40.7775L28.154 39.5767C28.154 39.5767 29.8971 38.4531 31.6402 38.1722C33.3788 37.8913 33.5845 37.6351 33.5845 37.6351C33.5845 37.6351 37.1188 36.7662 37.4776 36.4591C37.8379 36.152 38.8356 35.922 38.8356 35.922C38.8356 35.922 40.3744 35.4505 41.4874 33.0518L42.294 31.4843C42.294 31.4843 42.4501 32.4114 42.2065 33.1042C41.9644 33.797 41.4407 34.6456 41.4407 34.6456L41.1213 35.27L40.4955 36.0137C40.4955 36.0137 39.5168 37.4692 38.0567 37.8403C36.601 38.2115 32.0121 43.767 25.8567 43.6273C19.6983 43.489 23.6206 42.5168 23.6206 42.5168Z" fill="#0C74B5"/>
<mask id="mask23_18468_40581" style="mask-type:luminance" maskUnits="userSpaceOnUse" x="18" y="24" width="22" height="21">
<path fill-rule="evenodd" clip-rule="evenodd" d="M18.5466 36.2508C18.5466 36.2508 18.4766 35.1403 19.2511 34.9234C20.0256 34.7007 20.4297 35.28 20.6178 35.9845C20.8001 36.6889 21.4376 38.6625 21.4376 38.6625C21.4376 38.6625 22.3186 41.2838 23.7524 42.2663C25.1877 43.2487 25.8733 42.5442 25.7201 41.6418C25.5699 40.754 24.5518 36.2857 24.5518 36.2857L23.6139 31.2178C23.6139 31.2178 23.0129 29.1495 24.3665 28.7696C24.3665 28.7696 25.3744 28.3651 25.8485 29.8438L26.7514 32.9134L27.8497 36.619L28.4623 38.744C28.4623 38.744 28.8897 41.2139 29.9443 41.0538C30.9974 40.8908 30.7422 39.3102 30.732 38.3859C30.7189 37.4617 30.2448 32.8319 30.2448 32.8319L29.7255 29.3576L29.2967 26.3769C29.2967 26.3769 28.9029 24.9345 30.1617 24.7162C31.4263 24.4964 31.8653 26.3652 31.8653 26.3652L32.8353 30.5468L33.5661 34.5188C33.5661 34.5188 33.9249 37.2202 33.9249 37.5535C33.9249 37.8911 34.1204 39.5533 34.8045 39.5169C35.4857 39.482 36.0181 38.1196 36.0181 38.1196C36.0181 38.1196 36.4921 36.376 36.4805 35.2567C36.4702 34.1389 36.638 32.2716 36.3258 29.397C36.0137 26.5239 35.3019 25.9984 36.3536 25.6389C37.4067 25.2809 37.8939 26.7699 37.8939 26.7699C37.8939 26.7699 38.702 28.8948 38.9572 30.7433C39.2139 32.5903 39.1789 35.2116 39.0622 35.8345C38.947 36.4604 38.8084 38.6043 35.8912 40.4644C32.9768 42.3216 30.8005 43.1788 29.3084 43.4772C27.8162 43.7784 24.1944 44.4349 21.3223 43.8469C21.3223 43.8469 21.0335 43.745 20.9402 43.5703C20.7506 43.2138 18.4984 38.4791 18.5466 36.2508Z" fill="white"/>
</mask>
<g mask="url(#mask23_18468_40581)">
<mask id="mask24_18468_40581" style="mask-type:luminance" maskUnits="userSpaceOnUse" x="-108" y="-85" width="974" height="1281">
<path d="M-107.314 -84.771H865.592V1195.81H-107.314V-84.771Z" fill="white"/>
</mask>
<g mask="url(#mask24_18468_40581)">
<path d="M18.5485 36.2503C18.5485 36.2503 18.4785 35.1398 19.253 34.9229C20.029 34.7002 20.4331 35.2795 20.6198 35.9839C20.8036 36.6884 21.441 38.662 21.441 38.662C21.441 38.662 22.3205 41.2833 23.7544 42.2658C25.1911 43.2482 25.8767 42.5437 25.7235 41.6414C25.5733 40.7535 24.5552 36.2852 24.5552 36.2852L23.6158 31.2173C23.6158 31.2173 23.0149 29.149 24.3699 28.7692C24.3699 28.7692 25.3764 28.3645 25.8519 29.8433L26.7533 32.9143L27.8517 36.6185L28.4643 38.7435C28.4643 38.7435 28.8931 41.2134 29.9463 41.0533C31.0009 40.8903 30.7456 39.3097 30.7339 38.3855C30.7208 37.4612 30.2482 32.8314 30.2482 32.8314L29.7275 29.3572L29.2986 26.3764C29.2986 26.3764 28.9048 24.934 30.1651 24.7157C31.4297 24.4959 31.8688 26.3647 31.8688 26.3647L32.8387 30.5463L33.5681 34.5183C33.5681 34.5183 33.9269 37.2196 33.9269 37.5544C33.9269 37.8906 34.1223 39.5528 34.8079 39.5164C35.4891 39.4814 36.0215 38.1191 36.0215 38.1191C36.0215 38.1191 36.4941 36.3755 36.4839 35.2562C36.4722 34.1384 36.6399 32.271 36.3278 29.3965C36.0171 26.5234 35.3038 25.9979 36.357 25.6399C37.4086 25.2804 37.8958 26.7693 37.8958 26.7693C37.8958 26.7693 38.7039 28.8943 38.9592 30.7428C39.2159 32.5898 39.1809 35.2111 39.0642 35.834C38.949 36.4599 38.8104 38.6038 35.8931 40.4639C32.9802 42.3211 30.8025 43.1783 29.3103 43.4767C27.8181 43.778 24.1963 44.4344 21.3258 43.8464C21.3258 43.8464 21.0369 43.7445 20.9436 43.5699C20.7525 43.2133 18.5004 38.4786 18.5485 36.2503Z" fill="#08335B"/>
<path d="M-107.314 -84.771H865.592V1195.81H-107.314V-84.771Z" fill="url(#paint15_linear_18468_40581)"/>
</g>
</g>
<mask id="mask25_18468_40581" style="mask-type:luminance" maskUnits="userSpaceOnUse" x="41" y="29" width="3" height="6">
<path fill-rule="evenodd" clip-rule="evenodd" d="M43.7494 29.306C42.2309 29.7804 42.0501 30.9681 42.1361 32.2402C42.1945 33.0931 41.8677 33.8674 41.6533 34.2822C41.8867 33.8849 42.3082 33.1601 42.7181 32.249C43.3089 30.942 43.7494 29.306 43.7494 29.306Z" fill="white"/>
</mask>
<g mask="url(#mask25_18468_40581)">
<mask id="mask26_18468_40581" style="mask-type:luminance" maskUnits="userSpaceOnUse" x="-108" y="-85" width="974" height="1281">
<path d="M-107.315 -84.7705H865.591V1195.81H-107.315V-84.7705Z" fill="white"/>
</mask>
<g mask="url(#mask26_18468_40581)">
<path d="M43.7523 29.303C42.2339 29.7775 42.053 30.9652 42.1391 32.2373C42.1974 33.0902 41.8707 33.8645 41.6562 34.2793C41.8896 33.882 42.3112 33.1571 42.7211 32.246C43.3118 30.9375 43.7523 29.303 43.7523 29.303Z" fill="#043051"/>
<path d="M-107.315 -84.7705H865.591V1195.81H-107.315V-84.7705Z" fill="url(#paint16_linear_18468_40581)"/>
</g>
</g>
<mask id="mask27_18468_40581" style="mask-type:luminance" maskUnits="userSpaceOnUse" x="4" y="4" width="41" height="40">
<path d="M22.0025 11.9496C19.4966 15.4151 20.945 22.0492 20.945 22.0492C23.7412 36.8848 28.5211 43.628 28.5211 43.628C29.1629 43.9206 29.3861 43.4621 29.3861 43.4621C29.0637 43.5028 28.9252 43.3617 28.9252 43.3617C28.9252 43.3617 24.3144 37.1322 21.5197 22.301C21.5197 22.301 20.1048 15.6902 22.5626 12.2116L22.5874 12.2248C24.9008 13.6016 27.6459 15.5301 30.8899 18.23C30.8899 18.23 35.3884 22.1292 37.1708 24.8088C37.1708 24.8088 42.4948 31.0222 41.0843 35.0641C41.0843 35.0641 41.1179 35.1645 40.0998 36.505C40.0998 36.505 41.3381 35.6272 41.5467 34.5065C41.7568 33.3873 41.8472 32.4878 40.9326 30.0149C40.0195 27.545 36.2227 22.1321 32.3355 18.6666C29.3044 15.9653 26.5943 13.7573 22.971 11.7531L22.9739 11.7503C23.9089 10.6936 25.4915 10.3312 26.5505 10.0721C27.6095 9.81013 32.3121 9.17267 37.2583 11.5262C42.206 13.8797 43.1075 16.9128 43.4371 17.6915C43.7682 18.4687 44.0337 19.6797 44.0337 19.6797C44.0103 18.786 43.5596 17.4659 43.5596 17.4659C43.2212 16.664 42.2892 13.5405 37.1971 11.1142C32.1006 8.68942 27.2579 9.35167 26.1669 9.61657C25.0758 9.88438 23.448 10.2613 22.4824 11.3471L22.3992 11.4432C21.8406 11.1477 21.2586 10.8552 20.6533 10.5641C23.9031 7.09424 26.5243 5.80321 28.7253 5.2283C28.7253 5.2283 30.5545 4.75531 32.0919 5.51506L32.8051 5.83958C32.8226 5.83958 31.9577 5.10897 30.7732 4.90521C29.5874 4.7029 28.5415 4.91534 28.333 4.96046C28.1506 5.00267 24.3144 5.8774 20.0873 10.2977C19.9429 10.2307 19.7985 10.1653 19.6497 10.0983C19.2019 9.89747 18.7643 9.71845 18.3355 9.5598C18.846 9.0009 19.3697 8.18145 19.6628 7.73753C19.9589 7.29507 20.398 6.20496 20.5191 5.18904C20.643 4.17021 20.7218 4.32156 20.7218 4.32156L20.7306 4.32885L20.7977 4.32156L20.7947 4.30993C20.7685 4.16875 20.5584 4.17747 20.5584 4.17747C20.2813 4.20804 20.3076 4.25171 20.2813 4.26044L19.9706 5.53398C19.498 7.4814 18.3544 8.73019 17.7622 9.35895C13.3076 7.86418 10.1759 8.72575 9.65808 10.4534C9.65808 10.4534 10.542 9.26722 11.7308 9.09111C12.358 9.00087 14.0559 8.54819 17.4268 9.73294L17.402 9.77807C17.2619 10.0881 13.8779 12.5828 13.8779 12.5828L10.3539 15.1459C10.3539 15.1459 8.04629 16.958 6.58766 18.5051C5.13049 20.0537 4.41429 22.2413 4.41429 22.2413C4.41429 22.2413 4.10798 23.5454 4.11235 24.4522C4.11673 25.3589 4.45222 26.107 4.45222 26.107L4.44784 26.0328C3.43117 21.3447 7.93106 17.7366 7.93106 17.7366C8.34677 17.3276 9.81707 16.1021 9.81707 16.1021L12.113 14.4225L14.1434 13.0034C14.1434 13.0034 15.8106 11.8041 16.5457 11.2365C17.011 10.8784 17.6003 10.3049 17.9708 9.9338C18.5149 10.1419 19.0984 10.3908 19.7241 10.6877C19.218 11.2394 18.7031 11.8405 18.194 12.5013C13.2872 18.8515 11.6681 24.3241 11.6681 24.3241C11.6681 24.3241 8.39344 32.2316 10.9344 38.4363C10.9344 38.4363 11.6622 40.2528 13.6416 41.046L12.8715 40.5482L12.1378 39.8525L11.3588 38.7245L11.1517 38.1802L10.8819 37.1861C10.2328 34.115 10.4662 32.776 10.4662 32.776C10.4662 32.776 10.4968 30.8562 11.2976 27.6498C11.6316 26.3093 13.0815 20.2589 17.7316 14.0717C18.6228 12.8841 19.4732 11.8551 20.2857 10.9614C20.8356 11.2365 21.422 11.5509 22.0346 11.9031L22.0025 11.9496Z" fill="white"/>
</mask>
<g mask="url(#mask27_18468_40581)">
<path d="M22.002 11.949C19.4961 15.4145 20.9445 22.0485 20.9445 22.0485C23.7392 36.8842 28.5206 43.6288 28.5206 43.6288C29.1624 43.9199 29.3856 43.4614 29.3856 43.4614C29.0632 43.5036 28.9247 43.361 28.9247 43.361C28.9247 43.361 24.3139 37.1331 21.5192 22.3003C21.5192 22.3003 20.1043 15.6896 22.5606 12.2125L22.5854 12.2241C24.9003 13.601 27.6454 15.5295 30.8894 18.2294C30.8894 18.2294 35.3879 22.1286 37.1703 24.8081C37.1703 24.8081 42.4943 31.0215 41.0838 35.0634C41.0838 35.0634 41.1174 35.1653 40.0992 36.5043C40.0992 36.5043 41.3376 35.6266 41.5462 34.5059C41.7563 33.3867 41.8467 32.4872 40.9321 30.0158C40.019 27.5444 36.2222 22.1315 32.3349 18.6675C29.3024 15.9661 26.5938 13.7582 22.9705 11.754L22.9734 11.7511C23.9084 10.693 25.491 10.3305 26.55 10.0715C27.609 9.80948 32.3101 9.17199 37.2578 11.5255C42.2055 13.879 43.1069 16.9122 43.4366 17.6909C43.7677 18.4681 44.0332 19.679 44.0332 19.679C44.0098 18.7854 43.5591 17.4653 43.5591 17.4653C43.2207 16.6648 42.2887 13.5413 37.1966 11.115C32.1001 8.69022 27.2574 9.35101 26.1664 9.6159C25.0753 9.88371 23.4475 10.2607 22.4819 11.3465L22.3987 11.4425C21.8401 11.1471 21.2581 10.8545 20.6528 10.5634C23.9026 7.09357 26.5238 5.80257 28.7234 5.22766C28.7234 5.22766 30.554 4.75463 32.0914 5.51439L32.8046 5.83895C32.8221 5.83895 31.9572 5.10831 30.7727 4.90454C29.5869 4.70223 28.5396 4.91473 28.331 4.9613C28.1487 5.00206 24.3139 5.8768 20.0868 10.2985C19.9409 10.2301 19.798 10.1646 19.6492 10.0991C19.2014 9.89681 18.7638 9.71779 18.335 9.55914C18.8455 9.00024 19.3692 8.18226 19.6623 7.73689C19.9584 7.29588 20.3975 6.20428 20.5186 5.18836C20.6411 4.17099 20.7213 4.32235 20.7213 4.32235L20.7286 4.32817L20.7972 4.32235L20.7928 4.30925C20.768 4.16807 20.5579 4.17681 20.5579 4.17681C20.2808 4.20737 20.3071 4.25103 20.2808 4.25977L19.9701 5.53476C19.4975 7.48073 18.3539 8.72952 17.7617 9.35828C13.3071 7.86352 10.1754 8.72515 9.65758 10.4528C9.65758 10.4528 10.5415 9.26659 11.7303 9.09193C12.3575 9.00024 14.0539 8.54759 17.4263 9.73234L17.4015 9.77746C17.2614 10.0875 13.8774 12.5822 13.8774 12.5822L10.3533 15.1452C10.3533 15.1452 8.04579 16.9573 6.58716 18.5045C5.12998 20.0531 4.41233 22.2407 4.41233 22.2407C4.41233 22.2407 4.10602 23.5448 4.1104 24.4515C4.11623 25.3583 4.45172 26.1064 4.45172 26.1064L4.44588 26.0322C3.43067 21.3441 7.93056 17.736 7.93056 17.736C8.34627 17.327 9.81657 16.1029 9.81657 16.1029L12.1125 14.4233L14.1429 13.0042C14.1429 13.0042 15.8086 11.8035 16.5438 11.2373C17.0105 10.8793 17.5984 10.3043 17.9703 9.9332C18.5129 10.1413 19.0979 10.3902 19.7236 10.6871C19.2175 11.2388 18.7026 11.8399 18.1935 12.5006C13.2852 18.8509 11.6676 24.3234 11.6676 24.3234C11.6676 24.3234 8.39294 32.231 10.9339 38.4372C10.9339 38.4372 11.6617 40.2536 13.6411 41.0468L12.8709 40.5476L12.1373 39.8519L11.3583 38.7239L11.1512 38.1795L10.8799 37.1854C10.2323 34.1144 10.4642 32.7754 10.4642 32.7754C10.4642 32.7754 10.4963 30.8571 11.2971 27.6507C11.6311 26.3102 13.0795 20.2583 17.7311 14.0711C18.6223 12.8834 19.4727 11.8544 20.2852 10.9622C20.8351 11.2373 21.4215 11.5502 22.0341 11.9025L22.002 11.949Z" fill="#E9E8E8"/>
<path d="M22.0025 11.9496C19.4966 15.4151 20.945 22.0492 20.945 22.0492C23.7412 36.8848 28.5211 43.628 28.5211 43.628C29.1629 43.9206 29.3861 43.4621 29.3861 43.4621C29.0637 43.5028 28.9252 43.3617 28.9252 43.3617C28.9252 43.3617 24.3144 37.1322 21.5197 22.301C21.5197 22.301 20.1048 15.6902 22.5626 12.2116L22.5874 12.2248C24.9008 13.6016 27.6459 15.5301 30.8899 18.23C30.8899 18.23 35.3884 22.1292 37.1708 24.8088C37.1708 24.8088 42.4948 31.0222 41.0843 35.0641C41.0843 35.0641 41.1179 35.1645 40.0998 36.505C40.0998 36.505 41.3381 35.6272 41.5467 34.5065C41.7568 33.3873 41.8472 32.4878 40.9326 30.0149C40.0195 27.545 36.2227 22.1321 32.3355 18.6666C29.3044 15.9653 26.5943 13.7573 22.971 11.7531L22.9739 11.7503C23.9089 10.6936 25.4915 10.3312 26.5505 10.0721C27.6095 9.81013 32.3121 9.17267 37.2583 11.5262C42.206 13.8797 43.1075 16.9128 43.4371 17.6915C43.7682 18.4687 44.0337 19.6797 44.0337 19.6797C44.0103 18.786 43.5596 17.4659 43.5596 17.4659C43.2212 16.664 42.2892 13.5405 37.1971 11.1142C32.1006 8.68942 27.2579 9.35167 26.1669 9.61657C25.0758 9.88438 23.448 10.2613 22.4824 11.3471L22.3992 11.4432C21.8406 11.1477 21.2586 10.8552 20.6533 10.5641C23.9031 7.09424 26.5243 5.80321 28.7253 5.2283C28.7253 5.2283 30.5545 4.75531 32.0919 5.51506L32.8051 5.83958C32.8226 5.83958 31.9577 5.10897 30.7732 4.90521C29.5874 4.7029 28.5415 4.91534 28.333 4.96046C28.1506 5.00267 24.3144 5.8774 20.0873 10.2977C19.9429 10.2307 19.7985 10.1653 19.6497 10.0983C19.2019 9.89747 18.7643 9.71845 18.3355 9.5598C18.846 9.0009 19.3697 8.18145 19.6628 7.73753C19.9589 7.29507 20.398 6.20496 20.5191 5.18904C20.643 4.17021 20.7218 4.32156 20.7218 4.32156L20.7306 4.32885L20.7977 4.32156L20.7947 4.30993C20.7685 4.16875 20.5584 4.17747 20.5584 4.17747C20.2813 4.20804 20.3076 4.25171 20.2813 4.26044L19.9706 5.53398C19.498 7.4814 18.3544 8.73019 17.7622 9.35895C13.3076 7.86418 10.1759 8.72575 9.65808 10.4534C9.65808 10.4534 10.542 9.26722 11.7308 9.09111C12.358 9.00087 14.0559 8.54819 17.4268 9.73294L17.402 9.77807C17.2619 10.0881 13.8779 12.5828 13.8779 12.5828L10.3539 15.1459C10.3539 15.1459 8.04629 16.958 6.58766 18.5051C5.13049 20.0537 4.41429 22.2413 4.41429 22.2413C4.41429 22.2413 4.10798 23.5454 4.11235 24.4522C4.11673 25.3589 4.45222 26.107 4.45222 26.107L4.44784 26.0328C3.43117 21.3447 7.93106 17.7366 7.93106 17.7366C8.34677 17.3276 9.81707 16.1021 9.81707 16.1021L12.113 14.4225L14.1434 13.0034C14.1434 13.0034 15.8106 11.8041 16.5457 11.2365C17.011 10.8784 17.6003 10.3049 17.9708 9.9338C18.5149 10.1419 19.0984 10.3908 19.7241 10.6877C19.218 11.2394 18.7031 11.8405 18.194 12.5013C13.2872 18.8515 11.6681 24.3241 11.6681 24.3241C11.6681 24.3241 8.39344 32.2316 10.9344 38.4363C10.9344 38.4363 11.6622 40.2528 13.6416 41.046L12.8715 40.5482L12.1378 39.8525L11.3588 38.7245L11.1517 38.1802L10.8819 37.1861C10.2328 34.115 10.4662 32.776 10.4662 32.776C10.4662 32.776 10.4968 30.8562 11.2976 27.6498C11.6316 26.3093 13.0815 20.2589 17.7316 14.0717C18.6228 12.8841 19.4732 11.8551 20.2857 10.9614C20.8356 11.2365 21.422 11.5509 22.0346 11.9031L22.0025 11.9496Z" fill="url(#paint17_radial_18468_40581)"/>
</g>
<path d="M29.4216 43.4649C29.1007 43.5056 28.9665 43.3601 28.9665 43.3601C28.9665 43.3601 24.3514 37.135 21.5552 22.3023C21.5552 22.3023 20.1403 15.693 22.5865 12.2246L22.4887 12.1606C20.0426 15.629 21.4604 22.2368 21.4604 22.2368C24.2537 37.071 28.863 43.3004 28.863 43.3004L28.9271 43.3877C28.9271 43.3877 29.0497 43.5391 29.4216 43.4649Z" fill="#918F90"/>
<path d="M32.7896 5.85599L32.0763 5.53288C30.5375 4.77021 28.7098 5.24469 28.7098 5.24469C26.5146 5.81961 23.9022 7.10333 20.6567 10.563L20.5312 10.5004C23.7825 7.03056 26.3979 5.74538 28.596 5.17047C28.596 5.17047 30.4281 4.69453 31.9684 5.45574L32.7065 5.79777L32.8056 5.83853L32.7896 5.85599Z" fill="#918F90"/>
<path d="M37.2605 11.5265C37.8935 11.8263 38.5105 12.1553 39.2107 12.6094C38.6141 12.2149 37.9125 11.8438 37.1307 11.4697C32.1844 9.11479 27.4789 9.75374 26.4199 10.0143C25.3639 10.2748 23.8002 10.6197 22.8623 11.6779L22.9761 11.7565C23.914 10.7042 25.4762 10.3476 26.5337 10.087C27.5941 9.82797 32.3142 9.17155 37.2605 11.5265Z" fill="#918F90"/>
<path d="M20.709 4.33103L20.518 5.2145C20.3954 6.23187 19.9433 7.31038 19.6486 7.75575C19.3584 8.19094 18.842 9.00018 18.3344 9.55908L18.2002 9.50814C18.7136 8.94778 19.2417 8.12253 19.5363 7.68152C19.8295 7.23615 20.2656 6.14455 20.3809 5.13445L20.4873 4.45474C20.4873 4.45474 20.5121 4.15055 20.7659 4.32084L20.709 4.33103Z" fill="#918F90"/>
<path d="M10.0245 9.97734C10.3804 9.61929 10.8355 9.18265 11.6012 9.03565C12.2241 8.91484 14.062 8.53933 17.4343 9.72263L17.4168 9.74883C14.132 8.62375 12.332 9.01527 11.7136 9.10842C11.7136 9.10842 10.7509 9.20594 9.69043 10.4009L10.0245 9.97734Z" fill="#918F90"/>
<path d="M20.311 10.9761C19.4985 11.8727 18.6496 12.9017 17.7554 14.0879C13.1039 20.2766 11.6554 26.3255 11.3229 27.666C10.5206 30.8739 10.49 32.7922 10.49 32.7922C10.49 32.7922 10.2581 34.1312 10.9057 37.2022C11.3243 39.1904 12.4869 40.2675 13.2526 40.7812C12.4942 40.3009 11.2324 39.2181 10.7934 37.128C10.1443 34.057 10.3762 32.7194 10.3762 32.7194C10.3762 32.7194 10.4098 30.8011 11.2076 27.5918C11.5431 26.2513 12.9916 20.2023 17.6417 14.0151C18.5344 12.826 19.3935 11.7912 20.2045 10.8975C20.7573 11.1726 21.4618 11.5496 22.0438 11.8858L22.0336 11.9061L20.3081 10.979" fill="#918F90"/>
<path d="M4.23369 25.4141C3.74796 20.9269 7.81026 17.6812 7.81026 17.6812C8.22742 17.2693 9.69627 16.0452 9.69627 16.0452L11.9922 14.3656L14.024 12.948C14.024 12.948 15.6898 11.7458 16.4249 11.1796C16.8902 10.8216 17.481 10.2481 17.85 9.87404C18.3941 10.0822 19.0986 10.3878 19.7244 10.6862L19.7112 10.7022C19.1322 10.4286 18.4699 10.1418 17.9638 9.94973C17.5948 10.3223 17.004 10.8943 16.5387 11.2524C15.8036 11.82 14.1378 13.0208 14.1378 13.0208L12.1059 14.4413L9.8115 16.118C9.8115 16.118 8.3412 17.3435 7.92257 17.7525C7.92257 17.7525 3.62835 21.0695 4.42623 25.9526C4.42623 25.9526 4.25557 25.5669 4.23369 25.4141Z" fill="#918F90"/>
</g>
<defs>
<radialGradient id="paint0_radial_18468_40581" cx="0" cy="0" r="1" gradientUnits="userSpaceOnUse" gradientTransform="translate(25.2711 30.9459) scale(17.2833 17.2459)">
<stop stop-color="#939192"/>
<stop offset="1" stop-color="#6B6969"/>
</radialGradient>
<radialGradient id="paint1_radial_18468_40581" cx="0" cy="0" r="1" gradientUnits="userSpaceOnUse" gradientTransform="translate(25.0604 31.0759) scale(17.0981 17.061)">
<stop stop-color="#939192"/>
<stop offset="1" stop-color="#6B6969"/>
</radialGradient>
<radialGradient id="paint2_radial_18468_40581" cx="0" cy="0" r="1" gradientUnits="userSpaceOnUse" gradientTransform="translate(25.2716 31.409) scale(15.4863 15.4532)">
<stop stop-color="#939192"/>
<stop offset="1" stop-color="#6B6969"/>
</radialGradient>
<radialGradient id="paint3_radial_18468_40581" cx="0" cy="0" r="1" gradientUnits="userSpaceOnUse" gradientTransform="translate(25.1608 30.8471) scale(17.2833 17.2458)">
<stop stop-color="#CAC9CA"/>
<stop offset="1" stop-color="#939192"/>
</radialGradient>
<radialGradient id="paint4_radial_18468_40581" cx="0" cy="0" r="1" gradientUnits="userSpaceOnUse" gradientTransform="translate(24.9506 30.9758) scale(17.0966 17.0596)">
<stop stop-color="#CAC9CA"/>
<stop offset="1" stop-color="#939192"/>
</radialGradient>
<radialGradient id="paint5_radial_18468_40581" cx="0" cy="0" r="1" gradientUnits="userSpaceOnUse" gradientTransform="translate(25.1612 31.307) scale(15.4688 15.4352)">
<stop stop-color="#CAC9CA"/>
<stop offset="1" stop-color="#939192"/>
</radialGradient>
<linearGradient id="paint6_linear_18468_40581" x1="12.6819" y1="1.23037" x2="19.4468" y2="0.391662" gradientUnits="userSpaceOnUse">
<stop stop-color="#31B06B"/>
<stop offset="1" stop-color="#00A650"/>
</linearGradient>
<linearGradient id="paint7_linear_18468_40581" x1="6.93345" y1="23.4559" x2="2.92276" y2="5.02167" gradientUnits="userSpaceOnUse">
<stop stop-color="#FAB10B"/>
<stop offset="0.494383" stop-color="#E9A60A"/>
<stop offset="1" stop-color="#714F04"/>
</linearGradient>
<linearGradient id="paint8_linear_18468_40581" x1="23.1022" y1="3.03197" x2="44.2772" y2="3.03197" gradientUnits="userSpaceOnUse">
<stop stop-color="#F36471"/>
<stop offset="0.55618" stop-color="#ED1C24"/>
<stop offset="1" stop-color="#AC1318"/>
</linearGradient>
<linearGradient id="paint9_linear_18468_40581" x1="22.7669" y1="14.3287" x2="17.2906" y2="9.5057" gradientUnits="userSpaceOnUse">
<stop stop-color="#FCCB06"/>
<stop offset="1" stop-color="#714F04"/>
</linearGradient>
<linearGradient id="paint10_linear_18468_40581" x1="28.4769" y1="14.8439" x2="22.8921" y2="9.92533" gradientUnits="userSpaceOnUse">
<stop stop-color="#FCCB06"/>
<stop offset="1" stop-color="#714F04"/>
</linearGradient>
<linearGradient id="paint11_linear_18468_40581" x1="32.2966" y1="14.4043" x2="28.2573" y2="10.8469" gradientUnits="userSpaceOnUse">
<stop stop-color="#FCCB06"/>
<stop offset="1" stop-color="#714F04"/>
</linearGradient>
<linearGradient id="paint12_linear_18468_40581" x1="23.4447" y1="44.3564" x2="15.0389" y2="53.5827" gradientUnits="userSpaceOnUse">
<stop stop-color="#4F4C4D"/>
<stop offset="1" stop-color="#E7E6E7"/>
</linearGradient>
<linearGradient id="paint13_linear_18468_40581" x1="-1.48189" y1="22.6889" x2="27.9076" y2="5.04426" gradientUnits="userSpaceOnUse">
<stop stop-color="#302C2D"/>
<stop offset="1" stop-color="#E7E6E7"/>
</linearGradient>
<radialGradient id="paint14_radial_18468_40581" cx="0" cy="0" r="1" gradientUnits="userSpaceOnUse" gradientTransform="translate(18.5233 13.6636) scale(17.2133 17.176)">
<stop stop-color="#9BD8AA"/>
<stop offset="1" stop-color="#00A650"/>
</radialGradient>
<linearGradient id="paint15_linear_18468_40581" x1="15.4281" y1="46.9987" x2="8.28521" y2="28.2769" gradientUnits="userSpaceOnUse">
<stop stop-color="#08335B"/>
<stop offset="0.08427" stop-color="#0B4172"/>
<stop offset="0.55618" stop-color="#519ED7"/>
<stop offset="1" stop-color="#0E88D3"/>
</linearGradient>
<linearGradient id="paint16_linear_18468_40581" x1="41.6577" y1="26.3926" x2="43.753" y2="26.3926" gradientUnits="userSpaceOnUse">
<stop stop-color="#043051"/>
<stop offset="1" stop-color="#0B6CAA"/>
</linearGradient>
<radialGradient id="paint17_radial_18468_40581" cx="0" cy="0" r="1" gradientUnits="userSpaceOnUse" gradientTransform="translate(18.6958 11.7721) scale(16.5642 16.5283)">
<stop stop-color="white"/>
<stop offset="1" stop-color="#E9E8E8"/>
</radialGradient>
<clipPath id="clip0_18468_40581">
<rect width="98.172" height="48" fill="white"/>
</clipPath>
</defs>
</svg>
