<svg width="48" height="48" viewBox="0 0 48 48" fill="none" xmlns="http://www.w3.org/2000/svg">
<path d="M21.8999 25.4002L18.9999 22.5502C18.6332 22.1836 18.1749 22.0002 17.6249 22.0002C17.0749 22.0002 16.5999 22.2002 16.1999 22.6002C15.8332 22.9669 15.6499 23.4336 15.6499 24.0002C15.6499 24.5669 15.8332 25.0336 16.1999 25.4002L20.4999 29.7002C20.8999 30.1002 21.3666 30.3002 21.8999 30.3002C22.4332 30.3002 22.8999 30.1002 23.2999 29.7002L31.7999 21.2002C32.1999 20.8002 32.3916 20.3336 32.3749 19.8002C32.3582 19.2669 32.1666 18.8002 31.7999 18.4002C31.3999 18.0002 30.9249 17.7919 30.3749 17.7752C29.8249 17.7586 29.3499 17.9502 28.9499 18.3502L21.8999 25.4002ZM16.2999 43.5002L13.3999 38.6002L7.8999 37.4002C7.3999 37.3002 6.9999 37.0419 6.6999 36.6252C6.3999 36.2086 6.28324 35.7502 6.3499 35.2502L6.8999 29.6002L3.1499 25.3002C2.81657 24.9336 2.6499 24.5002 2.6499 24.0002C2.6499 23.5002 2.81657 23.0669 3.1499 22.7002L6.8999 18.4002L6.3499 12.7502C6.28324 12.2502 6.3999 11.7919 6.6999 11.3752C6.9999 10.9586 7.3999 10.7002 7.8999 10.6002L13.3999 9.40024L16.2999 4.50024C16.5666 4.0669 16.9332 3.77524 17.3999 3.62524C17.8666 3.47524 18.3332 3.50024 18.7999 3.70024L23.9999 5.90024L29.1999 3.70024C29.6666 3.50024 30.1332 3.47524 30.5999 3.62524C31.0666 3.77524 31.4332 4.0669 31.6999 4.50024L34.5999 9.40024L40.0999 10.6002C40.5999 10.7002 40.9999 10.9586 41.2999 11.3752C41.5999 11.7919 41.7166 12.2502 41.6499 12.7502L41.0999 18.4002L44.8499 22.7002C45.1832 23.0669 45.3499 23.5002 45.3499 24.0002C45.3499 24.5002 45.1832 24.9336 44.8499 25.3002L41.0999 29.6002L41.6499 35.2502C41.7166 35.7502 41.5999 36.2086 41.2999 36.6252C40.9999 37.0419 40.5999 37.3002 40.0999 37.4002L34.5999 38.6002L31.6999 43.5002C31.4332 43.9336 31.0666 44.2252 30.5999 44.3752C30.1332 44.5252 29.6666 44.5002 29.1999 44.3002L23.9999 42.1002L18.7999 44.3002C18.3332 44.5002 17.8666 44.5252 17.3999 44.3752C16.9332 44.2252 16.5666 43.9336 16.2999 43.5002Z" fill="#FFAB13"/>
</svg>
