<svg width="24" height="24" viewBox="0 0 24 24" fill="none" xmlns="http://www.w3.org/2000/svg">
<g clip-path="url(#clip0_18468_41038)">
<path d="M1.65332 12.0001C1.65332 16.5032 4.54082 20.3188 8.52832 21.7282V2.27197C4.54082 3.68135 1.65332 7.49697 1.65332 12.0001Z" fill="#428BC1"/>
<path d="M22.2783 12.0001C22.2783 7.49697 19.4252 3.68135 15.4033 2.27197V21.7282C19.4252 20.3188 22.2783 16.5032 22.2783 12.0001Z" fill="#ED4C5C"/>
<path d="M8.52832 21.7281C9.59395 22.1062 10.7627 22.3125 11.9658 22.3125C13.1689 22.3125 14.3377 22.1062 15.4033 21.7281V2.27188C14.3377 1.89375 13.2033 1.6875 11.9658 1.6875C10.7283 1.6875 9.59395 1.89375 8.52832 2.27188V21.7281Z" fill="white"/>
</g>
<rect x="1" y="1" width="22" height="22" rx="11" stroke="white" stroke-width="2"/>
<defs>
<clipPath id="clip0_18468_41038">
<rect x="1" y="1" width="22" height="22" rx="11" fill="white"/>
</clipPath>
</defs>
</svg>
