<svg width="24" height="24" viewBox="0 0 24 24" fill="none" xmlns="http://www.w3.org/2000/svg">
<g clip-path="url(#clip0_18468_41031)">
<path d="M11.9654 1.6875C7.4623 1.6875 3.64668 4.575 2.2373 8.5625H21.6936C20.2842 4.575 16.4686 1.6875 11.9654 1.6875Z" fill="#3E4347"/>
<path d="M11.9654 22.3125C16.4686 22.3125 20.2842 19.4594 21.6936 15.4375H2.2373C3.64668 19.4594 7.4623 22.3125 11.9654 22.3125Z" fill="#FFE62E"/>
<path d="M2.2377 8.5625C1.85957 9.62812 1.65332 10.7969 1.65332 12C1.65332 13.2031 1.85957 14.3719 2.2377 15.4375H21.6939C22.0721 14.3719 22.2783 13.2031 22.2783 12C22.2783 10.7969 22.0721 9.62812 21.6939 8.5625H2.2377Z" fill="#ED4C5C"/>
</g>
<rect x="1" y="1" width="22" height="22" rx="11" stroke="white" stroke-width="2"/>
<defs>
<clipPath id="clip0_18468_41031">
<rect x="1" y="1" width="22" height="22" rx="11" fill="white"/>
</clipPath>
</defs>
</svg>
