<svg width="375" height="342" viewBox="0 0 375 342" fill="none" xmlns="http://www.w3.org/2000/svg">
<path d="M471.999 290.511C467.881 291.341 463.74 292.072 459.648 293.017C445.591 296.262 432.024 300.863 419.376 307.923C411.869 312.114 404.941 317.075 399.121 323.465C395.002 327.987 391.705 333.019 389.781 338.873C389.494 339.746 389.307 340.652 389.074 341.542C388.889 341.542 388.704 341.542 388.519 341.542C388.569 341.271 388.601 340.995 388.671 340.729C390.183 335.005 393.043 329.99 396.743 325.419C397.165 324.898 397.595 324.383 398.021 323.865C397.456 323.838 397.044 323.995 396.652 324.191C386.911 329.056 377.169 333.919 367.434 338.796C365.666 339.682 363.925 340.625 362.171 341.542C361.802 341.542 361.432 341.542 361.062 341.542C361.445 341.299 361.809 341.019 362.212 340.818C374.11 334.865 386.006 328.91 397.92 322.99C399.189 322.36 400.217 321.506 401.218 320.527C405.901 315.948 411.157 312.113 416.797 308.802C418.629 307.727 420.491 306.697 422.377 305.722C423.097 305.35 423.376 304.906 423.352 304.102C423.299 302.362 423.336 300.62 423.336 298.702C422.802 298.886 422.46 298.968 422.15 299.117C409.66 305.097 396.524 309.087 382.99 311.866C372.881 313.941 362.671 315.257 352.38 315.931C342.595 316.572 332.804 316.623 323.006 316.087C314.739 315.633 306.515 314.801 298.347 313.471C282.137 310.83 266.395 306.58 251.463 299.605C250.629 299.215 249.82 298.77 249.004 298.341C248.938 298.306 248.913 298.192 248.769 297.94C273.689 285.441 298.634 273.017 323.743 260.429C323.18 260.11 322.837 259.894 322.476 259.714C298.473 247.707 274.464 235.709 250.475 223.674C249.579 223.225 248.94 223.414 248.166 223.802C236.273 229.763 224.373 235.711 212.473 241.66C190.574 252.606 168.672 263.547 146.774 274.497C123.594 286.087 100.417 297.684 77.2389 309.279C76.7468 309.525 76.2585 309.779 75.5144 310.159C76.1022 310.499 76.501 310.759 76.9238 310.971C84.5667 314.794 92.2125 318.611 99.8575 322.43C103.784 324.391 107.735 326.304 111.622 328.339C113.059 329.092 114.573 329.362 116.115 329.636C129.575 332.025 142.693 335.597 155.286 340.979C155.663 341.14 156.017 341.353 156.383 341.542C155.92 341.542 155.458 341.542 154.996 341.542C153.306 340.816 151.638 340.031 149.922 339.372C136.235 334.116 122.051 330.833 107.56 328.809C98.3121 327.517 89.012 326.826 79.678 326.642C63.562 326.323 47.5637 327.543 31.709 330.485C20.7951 332.51 10.1043 335.363 -0.267464 339.346C-1.97687 340.002 -3.6297 340.806 -5.30859 341.542C-5.77079 341.542 -6.23312 341.542 -6.69531 341.542C-4.84418 340.729 -3.02799 339.822 -1.13429 339.124C2.46188 337.798 6.13501 336.679 9.71288 335.308C12.0764 334.403 14.3581 333.266 16.6269 332.134C35.3112 322.811 53.9841 313.465 72.6594 304.124C73.0668 303.92 73.4629 303.694 74.0635 303.371C73.5224 303.065 73.1472 302.831 72.7536 302.634C57.9615 295.235 43.1667 287.841 28.3745 280.443C14.161 273.334 -0.0489197 266.218 -14.2623 259.109C-28.0216 252.228 -41.7831 245.35 -55.5439 238.472C-68.5608 231.965 -81.5775 225.458 -94.5978 218.958C-95.0462 218.735 -95.5318 218.586 -96 218.402C-96 218.217 -96 218.032 -96 217.847C-95.5291 218.021 -95.0365 218.151 -94.5904 218.374C-76.4914 227.418 -58.3977 236.474 -40.3009 245.523C-29.1453 251.101 -17.981 256.662 -6.83828 262.266C-5.98933 262.693 -5.34382 262.619 -4.53689 262.214C14.9548 252.444 34.457 242.695 53.9587 232.945C72.3861 223.731 90.8103 214.512 109.255 205.333C110.303 204.812 110.717 204.248 110.709 203.038C110.652 194.119 110.68 185.199 110.681 176.28C110.681 175.779 110.681 175.277 110.681 174.776C110.6 174.76 110.52 174.745 110.44 174.729C110.334 175.006 110.203 175.276 110.127 175.561C108.402 181.996 105.018 187.5 100.647 192.446C95.3279 198.463 89.0013 203.235 82.1268 207.311C70.8346 214.005 58.6711 218.574 46.0422 221.984C37.2011 224.371 28.2257 226.082 19.1492 227.294C4.95644 229.188 -9.29582 229.776 -23.5887 229.123C-41.0483 228.326 -58.2443 225.785 -75.0499 220.869C-81.7508 218.909 -88.3138 216.566 -94.6979 213.73C-95.0999 213.551 -95.5643 213.513 -95.9997 213.41C-95.9997 213.132 -95.9997 212.855 -95.9997 212.578C-83.9944 218.015 -71.4629 221.781 -58.5593 224.368C-51.2631 225.831 -43.912 226.903 -36.5064 227.643C-27.2991 228.563 -18.0737 228.921 -8.82503 228.8C0.00766754 228.684 8.8104 228.097 17.5703 226.979C32.8297 225.031 47.768 221.713 62.179 216.233C71.7164 212.606 80.8093 208.12 89.0917 202.105C95.0406 197.785 100.351 192.815 104.45 186.654C107.456 182.136 109.571 177.252 110.355 171.848C111.402 164.632 109.929 157.882 106.503 151.515C102.755 144.549 97.3751 139.008 91.1865 134.202C82.6084 127.54 73.0311 122.689 62.9454 118.789C51.6642 114.426 40.0117 111.424 28.1068 109.343C13.7732 106.837 -0.671417 105.767 -15.2117 105.907C-24.4603 105.996 -33.6798 106.596 -42.8528 107.776C-56.9989 109.596 -70.8857 112.58 -84.3183 117.448C-88.2636 118.878 -92.1089 120.584 -96 122.164C-96 121.887 -96 121.609 -96 121.332C-95.6071 121.24 -95.1877 121.209 -94.8255 121.048C-83.8461 116.183 -72.4178 112.741 -60.6866 110.258C-59.1964 109.943 -57.7039 109.631 -56.2014 109.384C-54.8596 109.163 -53.6476 108.655 -52.4409 108.049C-39.8944 101.752 -27.3359 95.4781 -14.7814 89.1965C-14.3347 88.973 -13.8951 88.7352 -13.2353 88.3907C-13.8362 88.0497 -14.2494 87.7897 -14.6839 87.5725C-28.6857 80.5721 -42.6907 73.5778 -56.6932 66.5785C-69.3323 60.2606 -81.9688 53.9373 -94.6083 47.6203C-95.0616 47.3937 -95.5356 47.2084 -96 47.0039C-96 46.819 -96 46.634 -96 46.4492C-95.6157 46.6012 -95.2176 46.7251 -94.8494 46.909C-82.9485 52.8543 -71.0503 58.8048 -59.152 64.7552C-44.1551 72.2553 -29.1587 79.7562 -14.1603 87.2529C-13.7677 87.4491 -13.3528 87.6007 -12.7773 87.846C-12.7773 85.683 -12.7967 83.7467 -12.7722 81.811C-12.7439 79.5731 -13.1275 80.0704 -11.0472 79.0287C5.26748 70.859 21.5825 62.6894 37.9272 54.5799C39.5797 53.76 40.9255 52.8744 41.378 50.9751C41.5142 50.4037 41.8848 49.8903 42.1242 49.3401C42.2398 49.0742 42.3002 48.7843 42.4404 48.326C41.6804 48.4983 41.1037 48.623 40.5302 48.7604C34.553 50.1926 28.5184 51.3278 22.4388 52.2192C13.883 53.4736 5.28288 54.227 -3.35942 54.5677C-13.4884 54.9669 -23.5987 54.7008 -33.6912 53.8326C-42.8566 53.0441 -51.9465 51.7161 -60.9491 49.7931C-72.5451 47.3163 -83.8406 43.9071 -94.7012 39.113C-95.1164 38.9297 -95.5662 38.8249 -96 38.6836C-96 38.4987 -96 38.3137 -96 38.1289C-95.6073 38.2429 -95.1947 38.3125 -94.8248 38.4774C-83.5564 43.5002 -71.8122 47.0121 -59.7512 49.5083C-47.2404 52.0976 -34.5938 53.526 -21.8283 54.0304C-13.0904 54.3755 -4.36674 54.233 4.3492 53.636C16.9963 52.7697 29.5012 50.9362 41.8213 47.9068C42.571 47.7225 43.1458 47.469 43.5766 46.745C47.3664 40.378 52.5079 35.2444 58.3204 30.7335C58.7941 30.3659 59.2628 29.9918 59.7255 29.6106C59.7861 29.5606 59.7965 29.4498 59.867 29.2768C59.4745 29.0674 59.079 28.845 58.674 28.6419C54.9168 26.7593 51.156 24.8842 47.4019 22.9958C46.8275 22.7069 46.2816 22.3619 45.7224 22.043C46.1846 22.043 46.647 22.043 47.1092 22.043C47.4754 22.2991 47.8178 22.6015 48.2119 22.8034C50.0548 23.7479 51.9112 24.6659 53.7641 25.5909C56.026 26.7201 58.2892 27.8469 60.5442 28.971C60.7547 28.8641 60.9243 28.7934 61.0784 28.6977C64.3212 26.6817 67.5638 24.6654 70.8005 22.6395C71.0612 22.4763 71.2782 22.2435 71.5155 22.043C71.8853 22.043 72.2551 22.043 72.6249 22.043C72.1043 22.398 71.6086 22.7978 71.0596 23.1013C63.7022 27.1687 56.8366 31.9006 50.9825 37.9895C46.5819 42.5668 42.9691 47.676 40.8352 53.7071C37.3347 63.6008 38.7045 72.9868 43.9762 81.912C47.6504 88.1326 52.647 93.1609 58.2987 97.5738C66.0795 103.649 74.7204 108.212 83.8212 111.943C95.9693 116.923 108.579 120.261 121.496 122.521C129.559 123.932 137.674 124.902 145.837 125.438C155.667 126.084 165.504 126.147 175.347 125.607C184.723 125.092 194.038 124.076 203.279 122.432C217.655 119.875 231.643 115.993 244.986 109.967C246.038 109.492 247.072 108.978 248.111 108.474C248.229 108.416 248.32 108.301 248.514 108.134C248.185 107.918 247.913 107.699 247.607 107.546C233.065 100.275 218.517 93.0121 203.974 85.7417C188.811 78.1614 173.651 70.5737 158.489 62.9909C141.386 54.4369 124.281 45.8849 107.177 37.3319C97.5919 32.539 88.0061 27.7481 78.4266 22.9443C77.9428 22.7017 77.5157 22.3461 77.0622 22.043C77.4321 22.043 77.8018 22.043 78.1716 22.043C78.339 22.1913 78.4839 22.3845 78.6771 22.4816C82.3333 24.317 86.0016 26.1287 89.6496 27.9803C90.2273 28.2736 90.6761 28.1696 91.1995 27.9059C94.6893 26.1474 98.1898 24.4102 101.681 22.6542C102.001 22.4931 102.28 22.2486 102.578 22.043C102.948 22.043 103.318 22.043 103.687 22.043C103.319 22.2977 102.974 22.5999 102.578 22.7997C99.2386 24.4848 95.8887 26.1501 92.5437 27.8247C92.1335 28.0301 91.7334 28.2557 91.0919 28.5984C91.6495 28.9155 92.0459 29.1656 92.4627 29.3744C99.4824 32.89 106.505 36.4001 113.527 39.9122C137.03 51.6691 160.533 63.4288 184.038 75.1828C205.312 85.821 226.589 96.4531 247.865 107.088C248.113 107.212 248.351 107.363 248.611 107.454C249.42 107.739 249.715 108.28 249.69 109.145C249.637 110.992 249.674 112.841 249.674 114.69C249.674 117 249.669 119.311 249.678 121.622C249.679 122.068 249.732 122.514 249.762 122.971C250.89 122.749 333.259 81.707 335.773 80.1417C335.549 79.5532 334.95 79.4608 334.491 79.2309C327.598 75.7708 320.695 72.3296 313.796 68.881C286.405 55.1898 259.015 41.4976 231.625 27.8055C228.279 26.1327 224.931 24.462 221.591 22.7772C221.189 22.5745 220.829 22.2898 220.449 22.0431C220.911 22.0431 221.373 22.0431 221.836 22.0431C222.228 22.3277 222.589 22.6738 223.016 22.888C235.357 29.0714 247.708 35.2327 260.04 41.4329C260.881 41.856 261.53 41.8311 262.352 41.4186C274.729 35.2033 287.121 29.0187 299.505 22.8159C299.9 22.6179 300.237 22.3034 300.601 22.0432C301.063 22.0432 301.526 22.0432 301.988 22.0432C301.557 22.3026 301.142 22.5916 300.694 22.8165C295.868 25.2396 291.038 27.6542 286.207 30.0683C278.61 33.8653 271.01 37.6564 263.419 41.4648C262.965 41.6927 262.378 41.7949 262.135 42.3604C264.891 44.075 299.184 61.062 300.324 61.2448C300.324 60.7258 300.324 60.2255 300.324 59.7252C300.324 56.0308 300.279 52.3355 300.345 48.6423C300.378 46.7554 300.48 44.8513 300.777 42.991C301.752 36.8867 304.4 31.4937 308.07 26.5781C309.227 25.0279 310.484 23.5525 311.695 22.043C311.88 22.043 312.065 22.043 312.249 22.043C312.007 22.4147 311.806 22.8236 311.516 23.153C307.534 27.6686 304.292 32.6229 302.426 38.3985C299.667 46.9409 300.6 55.1644 304.541 63.139C304.859 63.7837 305.376 64.0839 305.96 64.3751C311.745 67.2648 317.528 70.1597 323.311 73.0528C327.484 75.1399 331.642 77.2554 335.84 79.2907C336.732 79.723 337.011 80.2546 336.995 81.2042C336.943 84.2536 337.015 87.3053 336.954 90.3543C336.934 91.3318 337.269 91.823 338.147 92.2438C347.553 96.7545 357.354 100.157 367.443 102.756C377.928 105.457 388.568 107.276 399.34 108.379C411.501 109.624 423.688 110.011 435.888 109.342C442.158 108.998 448.407 108.285 454.663 107.705C455.29 107.647 455.938 107.447 456.505 107.167C461.678 104.603 466.836 102.008 471.999 99.4218C471.999 99.6066 471.999 99.7916 471.999 99.9764C471.553 100.219 471.113 100.475 470.659 100.702C455.786 108.139 440.912 115.573 426.039 123.011C425.673 123.193 425.325 123.411 424.963 123.617C425.054 123.754 425.086 123.861 425.154 123.897C425.808 124.24 426.458 124.59 427.126 124.901C437.808 129.875 448.961 133.449 460.444 136.009C464.272 136.862 468.146 137.509 471.999 138.25C471.999 138.435 471.999 138.62 471.999 138.805C471.769 138.781 471.537 138.773 471.31 138.733C464.765 137.572 458.272 136.184 451.86 134.42C442.852 131.94 434.081 128.825 425.646 124.789C425.263 124.606 424.854 124.479 424.383 124.298C424.383 136.549 424.383 148.582 424.383 160.681C424.831 160.718 425.188 160.771 425.546 160.775C438.353 160.923 451.09 161.902 463.72 164.079C466.491 164.557 469.24 165.161 471.999 165.707C471.999 165.892 471.999 166.077 471.999 166.262C469.286 165.713 466.585 165.092 463.857 164.627C449.609 162.201 435.249 161.146 420.802 161.336C412.02 161.451 403.265 162.043 394.543 163.122C381.213 164.772 368.127 167.508 355.379 171.772C345.579 175.05 336.156 179.165 327.395 184.694C320.753 188.887 314.684 193.76 309.72 199.907C306.44 203.97 303.82 208.408 302.282 213.422C299.624 222.095 300.688 230.404 304.875 238.369C308.221 244.731 312.978 249.92 318.484 254.451C320.407 256.035 322.478 257.439 324.447 258.969C325.128 259.498 325.698 259.498 326.451 259.109C329.322 257.624 332.237 256.223 335.109 254.739C335.914 254.323 336.571 254.277 337.417 254.702C351.864 261.958 366.328 269.179 380.788 276.408C384.382 278.205 387.972 280.011 391.578 281.785C392.104 282.043 392.699 282.233 393.28 282.299C397.181 282.739 401.08 283.214 404.992 283.532C414.305 284.291 423.639 284.433 432.973 284.105C446.11 283.642 459.128 282.124 471.999 279.417C471.999 279.602 471.999 279.787 471.999 279.972C466.722 280.876 461.464 281.908 456.165 282.654C447.285 283.903 438.35 284.549 429.38 284.722C418.001 284.941 406.659 284.469 395.358 283.098C395.164 283.074 394.964 283.095 394.767 283.095C395.177 283.58 395.648 283.844 396.131 284.086C405.01 288.527 413.884 292.978 422.781 297.384C423.62 297.8 423.927 298.298 423.89 299.198C423.831 300.628 423.862 302.062 423.873 303.494C423.877 303.886 423.947 304.277 423.997 304.774C424.476 304.582 424.818 304.468 425.141 304.312C436.543 298.78 448.523 294.942 460.869 292.203C464.563 291.383 468.288 290.701 471.999 289.957C471.999 290.141 471.999 290.326 471.999 290.511ZM-5.05815 263.078C-4.30766 263.475 -3.86723 263.719 -3.41724 263.944C6.78677 269.047 16.9883 274.154 27.2039 279.234C27.9345 279.597 28.7542 279.829 29.559 279.987C40.2726 282.093 51.084 283.384 61.9897 283.951C73.8713 284.568 85.7338 284.349 97.5746 283.246C106.918 282.376 116.183 280.956 125.34 278.881C138.77 275.837 151.776 271.589 164.018 265.198C170.801 261.656 177.175 257.502 182.849 252.334C187.884 247.749 192.156 242.575 194.981 236.318C198.52 228.477 199.009 220.476 196.171 212.31C194.338 207.035 191.384 202.431 187.719 198.27C180.737 190.343 172.113 184.62 162.809 179.817C162.303 179.556 161.884 179.55 161.385 179.82C160.369 180.368 159.326 180.866 158.293 181.382C132.557 194.251 106.821 207.12 81.0837 219.987C52.9497 234.053 24.8151 248.117 -3.31893 262.183C-3.80317 262.425 -4.28201 262.678 -5.05815 263.078ZM249.138 108.663C248.396 108.987 247.983 109.175 247.565 109.349C243.087 111.206 238.672 113.238 234.119 114.886C217.286 120.981 199.837 124.216 182.042 125.686C173.195 126.417 164.331 126.661 155.448 126.401C143.325 126.047 131.293 124.876 119.365 122.679C106.38 120.286 93.7131 116.789 81.5596 111.569C72.4342 107.65 63.8016 102.881 56.1303 96.5041C50.5732 91.8848 45.7652 86.6265 42.3971 80.1648C40.1711 75.8944 38.7675 71.3851 38.4641 66.5556C38.239 62.9723 38.587 59.4553 39.5575 55.9945C39.7051 55.4684 40.0639 54.9259 39.8062 54.306C36.7906 55.4501 -10.8338 79.4271 -11.5821 80.1974C-11.0755 80.4619 -10.5921 80.7237 -10.1007 80.9693C3.98865 88.0132 18.0798 95.0535 32.1684 102.099C48.5303 110.281 64.8885 118.47 81.2514 126.65C103.068 137.556 124.887 148.457 146.705 159.361C151.54 161.777 156.38 164.183 161.201 166.626C161.848 166.954 162.367 166.999 163.003 166.633C163.842 166.149 164.736 165.761 165.604 165.328C182.957 156.653 200.311 147.979 217.663 139.303C227.744 134.262 237.818 129.206 247.913 124.194C248.826 123.741 249.177 123.215 249.162 122.19C249.105 118.263 249.139 114.334 249.138 110.405C249.138 109.909 249.138 109.412 249.138 108.663ZM336.041 173.175C335.33 172.805 334.93 172.58 334.516 172.383C327.371 168.976 319.97 166.24 312.384 163.994C302.489 161.064 292.415 158.986 282.193 157.578C273.348 156.359 264.467 155.564 255.543 155.455C249.261 155.378 242.968 155.436 236.695 155.734C230.932 156.009 225.174 156.558 219.44 157.215C210.99 158.185 202.64 159.77 194.384 161.828C184.048 164.405 173.999 167.798 164.36 172.361C163.919 172.57 163.5 172.825 162.883 173.161C163.453 173.484 163.83 173.72 164.226 173.918C191.824 187.722 219.434 201.503 246.999 215.373C248.824 216.291 250.159 216.22 251.935 215.327C279.422 201.509 306.947 187.767 334.462 174.005C334.902 173.785 335.334 173.547 336.041 173.175ZM249.734 298.113C250.314 298.421 250.708 298.649 251.116 298.845C256.244 301.309 261.517 303.418 266.904 305.236C286.093 311.713 305.881 314.845 326.059 315.713C337.617 316.211 349.158 315.876 360.674 314.703C373.064 313.442 385.277 311.257 397.264 307.857C405.545 305.508 413.614 302.591 421.39 298.886C421.825 298.679 422.244 298.438 422.857 298.114C422.204 297.753 421.775 297.495 421.33 297.272C417.282 295.244 413.231 293.224 409.182 291.199C385.301 279.256 361.418 267.319 337.55 255.351C336.615 254.882 335.907 254.923 334.988 255.385C324.386 260.729 313.76 266.028 303.141 271.338C285.787 280.015 268.432 288.692 251.079 297.372C250.678 297.573 250.292 297.805 249.734 298.113ZM423.228 135.509C422.657 135.211 422.261 134.988 421.852 134.793C413.363 130.74 404.525 127.647 395.455 125.188C386.572 122.78 377.558 121.036 368.436 119.826C361.331 118.883 354.199 118.277 347.04 117.962C332.735 117.333 318.49 118 304.304 119.919C292.838 121.47 281.559 123.879 270.525 127.388C264.002 129.462 257.624 131.905 251.453 134.877C251.073 135.059 250.717 135.292 250.202 135.585C250.705 135.875 250.975 136.049 251.261 136.192C266.837 143.981 282.415 151.77 297.997 159.548C298.529 159.813 299.104 160.028 299.683 160.157C308.036 162.017 316.256 164.34 324.231 167.449C328.186 168.991 332.032 170.811 335.943 172.469C336.748 172.811 337.041 173.311 336.992 174.166C336.932 175.225 336.971 176.291 336.985 177.354C336.989 177.705 337.045 178.056 337.079 178.414C338.307 178.182 421.117 136.941 423.228 135.509ZM336.35 117.219C336.35 104.925 336.35 92.8533 336.35 80.5957C335.659 80.9193 335.12 81.1576 334.594 81.4207C323.725 86.8502 312.857 92.2798 301.991 97.715C281.169 108.13 260.351 118.554 239.527 128.966C214.447 141.507 189.361 154.036 164.285 166.584C162.012 167.721 162.419 167.059 162.401 169.667C162.395 170.605 162.296 171.558 162.525 172.597C163.015 172.391 163.354 172.264 163.678 172.108C171.143 168.501 178.897 165.648 186.844 163.322C195.321 160.841 203.935 158.968 212.666 157.623C220.528 156.412 228.426 155.56 236.37 155.186C240.108 155.01 243.852 154.961 247.594 154.847C248.079 154.832 248.563 154.774 249.15 154.728C249.15 154.028 249.15 153.481 249.15 152.933C249.15 147.526 249.171 142.118 249.131 136.71C249.123 135.746 249.414 135.192 250.32 134.806C253.166 133.592 255.946 132.221 258.812 131.061C276.254 124.003 294.47 120.21 313.128 118.348C320.35 117.628 327.596 117.261 334.857 117.219C335.311 117.216 335.765 117.219 336.35 117.219ZM111.21 204.302C113.35 203.242 115.167 202.348 116.978 201.442C131.437 194.216 145.889 186.977 160.364 179.783C161.45 179.243 161.95 178.665 161.896 177.382C161.782 174.661 161.795 171.929 161.893 169.206C161.937 167.965 161.535 167.338 160.409 166.78C147.872 160.565 135.367 154.286 122.85 148.029C111.491 142.35 100.129 136.676 88.7665 131.002C88.3519 130.795 87.9215 130.62 87.4984 130.43C87.4536 130.521 87.4088 130.612 87.3639 130.702C87.8423 131.054 88.3171 131.41 88.7995 131.755C93.7799 135.323 98.3481 139.339 102.204 144.123C108.175 151.533 111.455 159.827 111.258 169.517C111.035 180.51 111.209 191.511 111.21 202.508C111.21 203.002 111.21 203.496 111.21 204.302ZM162.4 173.684C162.4 175.217 162.455 176.508 162.381 177.791C162.328 178.707 162.649 179.195 163.481 179.608C167.376 181.541 171.105 183.767 174.692 186.227C180.867 190.463 186.457 195.336 190.915 201.403C195.899 208.187 198.709 215.68 198.554 224.228C198.42 231.574 198.528 238.925 198.53 246.274C198.53 246.761 198.53 247.248 198.53 247.969C199.265 247.63 199.761 247.417 200.243 247.176C212.887 240.855 225.53 234.531 238.173 228.208C241.52 226.534 244.858 224.841 248.221 223.201C248.902 222.869 249.199 222.467 249.154 221.711C249.102 220.836 249.162 219.955 249.142 219.078C249.087 216.617 249.552 217.182 247.201 216.002C235.556 210.163 223.898 204.348 212.246 198.522C196.131 190.466 180.017 182.407 163.902 174.352C163.498 174.15 163.075 173.984 162.4 173.684ZM300.318 247.957C300.318 247.168 300.318 246.663 300.318 246.159C300.319 238.535 300.35 230.911 300.311 223.288C300.286 218.159 301.399 213.303 303.565 208.674C306.513 202.372 310.884 197.164 316.017 192.553C321.62 187.52 327.895 183.472 334.543 179.975C335.152 179.654 335.758 179.326 336.447 178.957C336.447 177.511 336.452 176.084 336.443 174.658C336.441 174.396 336.38 174.134 336.331 173.753C335.869 173.948 335.489 174.084 335.13 174.263C331.492 176.073 327.855 177.888 324.221 179.706C304.974 189.332 285.729 198.962 266.482 208.588C261.237 211.212 255.995 213.843 250.733 216.434C249.972 216.809 249.602 217.253 249.662 218.126C249.729 219.091 249.776 220.077 249.657 221.033C249.49 222.364 250.105 222.967 251.236 223.529C267.116 231.423 282.973 239.364 298.837 247.29C299.236 247.49 299.651 247.658 300.318 247.957ZM423.777 135.086C423.777 134.359 423.777 133.905 423.777 133.452C423.778 130.817 423.762 128.183 423.784 125.549C423.803 123.265 423.421 123.734 425.564 122.66C434.401 118.23 443.247 113.818 452.088 109.397C452.519 109.181 452.935 108.937 453.357 108.706C452.76 108.5 452.227 108.54 451.695 108.589C448.614 108.877 445.535 109.198 442.45 109.451C432.21 110.289 421.956 110.403 411.699 109.869C400.058 109.263 388.509 107.887 377.084 105.526C363.647 102.749 350.601 98.781 338.201 92.8303C337.886 92.679 337.542 92.5873 337.201 92.4642C336.857 93.9372 336.9 116.078 337.261 117.217C337.728 117.217 338.232 117.205 338.735 117.218C342.384 117.32 346.038 117.345 349.682 117.545C361.275 118.181 372.779 119.567 384.152 121.943C396.667 124.558 408.85 128.225 420.495 133.567C421.494 134.025 422.489 134.489 423.777 135.086ZM149.26 272.67C110.584 286.019 71.1292 287.766 31.0217 281.014C31.4008 281.312 31.8149 281.559 32.2448 281.774C41.577 286.445 50.9106 291.113 60.2446 295.78C64.7051 298.01 69.1505 300.272 73.6398 302.442C74.6961 302.953 75.2021 303.534 75.0953 304.746C74.9863 305.983 75.0647 307.238 75.0785 308.486C75.0823 308.829 75.149 309.171 75.2068 309.696C99.9909 297.304 124.626 284.987 149.26 272.67ZM-12.1827 105.246C-11.7095 105.286 -11.3093 105.344 -10.9083 105.35C-3.19357 105.467 4.50659 105.825 12.1855 106.618C20.3667 107.462 28.4842 108.698 36.5226 110.441C44.2443 112.115 51.8513 114.198 59.2916 116.871C59.6788 117.01 60.0863 117.093 60.4845 117.202C58.854 115.841 -11.1815 80.958 -12.1827 80.818C-12.1827 88.9332 -12.1827 97.0435 -12.1827 105.246ZM351.027 172.362C351.063 172.463 351.099 172.564 351.135 172.666C374.576 164.29 398.85 160.977 423.693 160.759C423.693 152.494 423.693 144.392 423.693 136.027C399.355 148.197 375.191 160.279 351.027 172.362ZM74.4802 303.805C54.7042 313.693 35.1687 323.462 15.6332 333.231C15.6695 333.344 15.7058 333.457 15.7423 333.571C34.9612 328.399 54.5612 326.181 74.4803 326.035C74.4802 318.601 74.4802 311.366 74.4802 303.805ZM295.508 159.265C295.535 159.155 295.563 159.044 295.59 158.934C280.381 151.33 265.172 143.727 249.919 136.102C249.554 137.736 249.628 153.784 249.998 154.84C265.28 154.84 280.468 156.293 295.508 159.265ZM-12.8521 89.0297C-14.6566 89.5783 -50.7898 107.733 -51.6106 108.537C-38.7068 106.384 -25.8471 105.437 -12.8521 105.335C-12.8521 99.8123 -12.8521 94.472 -12.8521 89.0297ZM75.1498 326.041C87.0567 326.127 98.7915 326.959 110.461 328.683C110.486 328.577 110.511 328.47 110.536 328.363C98.798 322.495 87.0599 316.627 75.1498 310.672C75.1498 315.892 75.1498 320.857 75.1498 326.041ZM300.905 230.053C300.883 230.278 300.844 230.503 300.843 230.728C300.839 236.268 300.865 241.807 300.813 247.346C300.804 248.255 301.293 248.535 301.931 248.854C309.032 252.396 316.129 255.947 323.23 259.491C323.622 259.687 324.038 259.837 324.443 260.009C324.491 259.926 324.539 259.843 324.587 259.76C324.243 259.5 323.898 259.239 323.555 258.979C321.717 257.584 319.829 256.251 318.052 254.783C312.67 250.337 308.027 245.248 304.651 239.081C303.092 236.233 301.971 233.217 300.905 230.053ZM197.963 230.084C197.892 230.087 197.822 230.089 197.751 230.091C197.661 230.348 197.551 230.601 197.482 230.864C195.967 236.691 193.037 241.773 189.252 246.393C185.065 251.504 180.078 255.73 174.652 259.461C174.38 259.648 174.14 259.88 173.885 260.091C173.931 260.156 173.977 260.221 174.023 260.286C182.007 256.294 189.992 252.301 197.963 248.316C197.963 242.159 197.963 236.122 197.963 230.084ZM301.026 55.5164C300.967 55.5218 300.909 55.5273 300.851 55.5327C300.851 57.4558 300.843 59.3791 300.862 61.302C300.864 61.5056 300.97 61.8108 301.122 61.8932C301.972 62.3523 302.759 62.9881 303.768 63.0727C302.835 60.5001 301.93 58.0083 301.026 55.5164Z" fill="url(#paint0_linear_18468_42891)" fill-opacity="0.2"/>
<path d="M132.6 10.1412C132.687 10.0407 132.781 9.98481 132.862 9.83317C134.503 6.76157 136.143 3.68101 137.781 0.592197C137.861 0.441967 137.928 0.199522 138.002 0C138.106 0 138.211 0 138.316 0C138.049 0.536421 137.786 1.09654 137.516 1.60525C135.985 4.48924 134.453 7.36438 132.92 10.2291C132.82 10.4143 132.707 10.4876 132.6 10.6129C132.6 10.4557 132.6 10.2984 132.6 10.1412Z" fill="white" fill-opacity="0.03"/>
<defs>
<linearGradient id="paint0_linear_18468_42891" x1="187.999" y1="61.2647" x2="188.149" y2="321.006" gradientUnits="userSpaceOnUse">
<stop stop-color="white" stop-opacity="0"/>
<stop offset="1" stop-color="#DDDDDD"/>
</linearGradient>
</defs>
</svg>
