<svg width="53" height="52" viewBox="0 0 53 52" fill="none" xmlns="http://www.w3.org/2000/svg">
<path d="M0 52H52.1145V-3.8147e-06H0V52Z" fill="white"/>
<path d="M0.511719 51.4893H51.6023V0.507896H0.511719V51.4893Z" fill="#0C151D"/>
<path d="M6.14648 39.6052H6.72483L7.52757 43.2932H7.53863L8.39667 39.6052H9.09827L9.87256 43.2932H9.88362L10.7511 39.6052H11.32L10.1918 43.8608H9.52966L8.72219 40.1696H8.70955L7.84518 43.8608H7.18467L6.14648 39.6052Z" fill="white"/>
<path d="M11.7295 42.5269C11.7295 43.3563 11.9523 43.5234 12.3299 43.5234C12.6602 43.5234 12.8309 43.2585 12.8482 42.9574H13.3808C13.3744 43.618 12.9668 43.9176 12.3426 43.9176C11.7089 43.9176 11.208 43.7268 11.208 42.4165C11.208 41.543 11.306 40.8256 12.3426 40.8256C13.1911 40.8256 13.4029 41.2907 13.4029 42.273V42.5269H11.7295ZM12.8893 42.1611C12.8893 41.2923 12.6476 41.1882 12.2936 41.1882C11.9855 41.1882 11.7326 41.338 11.7295 42.1611H12.8893Z" fill="white"/>
<path d="M16.1792 39.6052H16.8713L18.2587 43.8608H17.6488L17.3438 42.8454H15.6941L15.3764 43.8608H14.8281L16.1792 39.6052ZM16.511 40.1066H16.4984L15.8284 42.374H17.1952L16.511 40.1066Z" fill="white"/>
<path d="M19.156 41.3286H19.1687C19.3678 40.876 19.6158 40.8256 20.0883 40.8256V41.3254L19.9587 41.3081L19.8292 41.2923C19.2919 41.2923 19.156 41.7007 19.156 42.1028V43.8608H18.6709V40.8839H19.156V41.3286Z" fill="white"/>
<path d="M20.7377 42.5269C20.7377 43.3563 20.9636 43.5234 21.3413 43.5234C21.6715 43.5234 21.8438 43.2585 21.8596 42.9574H22.3905C22.3858 43.618 21.9797 43.9176 21.3523 43.9176C20.7203 43.9176 20.2178 43.7268 20.2178 42.4165C20.2178 41.543 20.3189 40.8256 21.3523 40.8256C22.2041 40.8256 22.4158 41.2907 22.4158 42.273V42.5269H20.7377ZM21.9007 42.1611C21.9007 41.2923 21.6605 41.1882 21.3049 41.1882C20.9984 41.1882 20.744 41.338 20.7377 42.1611H21.9007Z" fill="white"/>
<path d="M24.0469 43.8608V39.6052H25.4327C26.0253 39.6052 26.2244 39.8023 26.384 40.0403C26.5325 40.2706 26.5562 40.5228 26.5562 40.6064C26.5562 41.1346 26.3729 41.4925 25.823 41.614V41.6439C26.4314 41.7164 26.6984 42.0791 26.6984 42.6625C26.6984 43.7552 25.9004 43.8608 25.4153 43.8608H24.0469ZM24.5889 41.3964H25.3806C25.8056 41.3901 26.0126 41.1283 26.0126 40.7184C26.0126 40.3667 25.8119 40.075 25.3568 40.075H24.5889V41.3964ZM24.5889 43.3878H25.3568C25.9368 43.3878 26.1422 42.9779 26.1422 42.6625C26.1422 41.9845 25.7219 41.8678 25.1688 41.8678H24.5889V43.3878Z" fill="white"/>
<path d="M28.7288 43.4289H28.7161C28.5692 43.771 28.3385 43.9193 27.9671 43.9193C27.3366 43.9193 27.1533 43.5124 27.1533 42.9417C27.1533 42.0382 28.0382 41.9972 28.7161 42.0161C28.7288 41.6203 28.7367 41.1899 28.2152 41.1899C27.8913 41.1899 27.719 41.409 27.7491 41.7212H27.2228C27.2466 41.0543 27.6005 40.8256 28.2326 40.8256C29.0006 40.8256 29.1997 41.2214 29.1997 41.7212V43.1529C29.1997 43.3895 29.2249 43.6307 29.2613 43.8625H28.7288V43.4289ZM27.6369 42.9779C27.6369 43.2649 27.7791 43.5251 28.103 43.5251C28.3985 43.5251 28.7651 43.3406 28.7161 42.3819C28.2579 42.3866 27.6369 42.3456 27.6369 42.9779Z" fill="white"/>
<path d="M30.6728 43.9178C30.0281 43.9178 29.6267 43.6355 29.6441 42.9512H30.194C30.194 43.1231 30.1987 43.5236 30.6902 43.5236C30.9794 43.5236 31.2053 43.3738 31.2053 43.0679C31.2053 42.5397 29.7168 42.5271 29.7168 41.6378C29.7168 41.3256 29.9064 40.8258 30.7439 40.8258C31.2748 40.8258 31.7299 41.078 31.6889 41.6662H31.1516C31.1563 41.3571 30.9904 41.1884 30.6839 41.1884C30.4247 41.1884 30.2224 41.3287 30.2224 41.5905C30.2224 42.1124 31.7126 42.1029 31.7126 43.0127C31.7126 43.6655 31.2654 43.9178 30.6728 43.9178Z" fill="white"/>
<path d="M32.6622 43.8608H32.1787V39.6052H32.6622V42.169H32.6749L33.5835 40.8823H34.1745L33.1821 42.1595L34.353 43.8608H33.7384L32.6749 42.191H32.6622V43.8608Z" fill="white"/>
<path d="M34.9203 42.5269C34.9203 43.3563 35.1447 43.5234 35.5223 43.5234C35.851 43.5234 36.0248 43.2554 36.0422 42.9574H36.5731C36.5668 43.618 36.1591 43.9176 35.5334 43.9176C34.9013 43.9176 34.4004 43.7268 34.4004 42.4149C34.4004 41.543 34.4999 40.8256 35.5334 40.8256C36.3819 40.8256 36.5968 41.2907 36.5968 42.273V42.5269H34.9203ZM36.0833 42.1595C36.0833 41.2923 35.8399 41.1882 35.486 41.1882C35.1778 41.1882 34.925 41.338 34.9203 42.1595H36.0833Z" fill="white"/>
<path d="M37.2158 40.8822V40.313L37.6994 40.0939V40.8822H38.3504V41.2481H37.6994V43.0676C37.6994 43.2568 37.6994 43.5012 38.145 43.5012L38.363 43.4744V43.8466C38.2019 43.8607 38.0438 43.8939 37.8842 43.8939C37.4244 43.8939 37.2158 43.7078 37.2158 43.3641V41.2481H36.7275V40.8822H37.2158Z" fill="white"/>
<path d="M39.3314 43.861H38.8447V39.6053H39.3314V41.1837H39.3488C39.5147 40.9472 39.7201 40.8258 40.003 40.8258C40.9669 40.8258 40.989 41.6804 40.989 42.423C40.989 43.727 40.5055 43.9178 40.0283 43.9178C39.7138 43.9178 39.5084 43.7838 39.3425 43.5063H39.3314V43.861ZM39.875 43.5252C40.4818 43.5252 40.4818 42.8724 40.4818 42.4277C40.4818 41.6315 40.4107 41.2199 39.8908 41.2199C39.3551 41.2199 39.3314 41.857 39.3314 42.2511C39.3314 42.7053 39.2761 43.5252 39.875 43.5252Z" fill="white"/>
<path d="M42.9393 43.4289H42.9283C42.7797 43.771 42.5506 43.9193 42.1777 43.9193C41.5456 43.9193 41.3623 43.5124 41.3623 42.9417C41.3623 42.0382 42.2504 41.9972 42.9283 42.0161C42.9393 41.6203 42.9457 41.1899 42.4242 41.1899C42.1018 41.1899 41.9296 41.409 41.9596 41.7212H41.4334C41.4571 41.0543 41.8111 40.8256 42.4447 40.8256C43.2127 40.8256 43.4134 41.2214 43.4134 41.7212V43.1529C43.4134 43.3895 43.4355 43.6307 43.4719 43.8625H42.9393V43.4289ZM41.8458 42.9779C41.8458 43.2649 41.9896 43.5251 42.3152 43.5251C42.6091 43.5251 42.9757 43.3406 42.9283 42.3819C42.4669 42.3866 41.8458 42.3456 41.8458 42.9779Z" fill="white"/>
<path d="M44.1094 43.8608H44.5945V39.6051H44.1094V43.8608Z" fill="white"/>
<path d="M45.3018 43.8608H45.7869V39.6051H45.3018V43.8608Z" fill="white"/>
<path d="M12.4187 11.1384V14.3487H16.7705V17.1963H12.4187V23.4876H9.37207V9.25577C9.37207 8.48315 9.67231 8.18515 10.4434 8.18515H17.6522V11.1384H12.4187Z" fill="white"/>
<path d="M18.6787 23.4876V9.25577C18.6787 8.48473 18.9821 8.18515 19.7532 8.18515H21.7253V23.4876H18.6787Z" fill="white"/>
<path d="M29.3627 12.6347C29.3627 13.8772 28.6343 14.4968 27.5819 14.4968H26.2513V10.771H27.5819C28.6343 10.771 29.3627 11.3938 29.3627 12.6347ZM32.4725 19.1199C32.4725 17.0433 31.3569 16.061 30.5415 15.7803C31.27 15.4413 32.3651 14.5836 32.3651 12.2279C32.3651 10.0882 30.9066 8.1835 27.7952 8.1835H24.3441C23.5713 8.1835 23.2695 8.48308 23.2695 9.25412V23.486H27.9248C30.5415 23.486 32.4725 22.029 32.4725 19.1199ZM29.4038 18.9512C29.4038 20.2347 28.6548 20.8559 27.6024 20.8559H26.2513V17.0433H27.6024C28.6548 17.0433 29.4038 17.6646 29.4038 18.9512Z" fill="white"/>
<path d="M39.657 15.484H36.8269V12.3368C36.8269 11.6934 37.0402 10.6023 38.2427 10.6023C39.4437 10.6023 39.657 11.6934 39.657 12.3368V15.484ZM42.7036 23.4876V11.993C42.7036 10.8168 42.0604 7.84298 38.2427 7.84298C34.4218 7.84298 33.7803 10.8168 33.7803 11.993V23.4876H36.8269V18.33H39.657V23.4876H42.7036Z" fill="white"/>
</svg>
