<svg width="696" height="794" viewBox="0 0 696 794" fill="none" xmlns="http://www.w3.org/2000/svg">
<path d="M1265 629.031C1251.7 631.708 1238.33 634.071 1225.12 637.12C1179.73 647.599 1135.93 662.457 1095.09 685.253C1070.85 698.785 1048.48 714.802 1029.68 735.434C1016.39 750.034 1005.74 766.284 999.526 785.186C998.6 788.005 997.996 790.928 997.243 793.804C996.646 793.804 996.049 793.804 995.452 793.804C995.613 792.928 995.717 792.036 995.944 791.178C1000.83 772.695 1010.06 756.504 1022.01 741.744C1023.37 740.061 1024.76 738.398 1026.13 736.726C1024.31 736.639 1022.98 737.146 1021.71 737.779C990.259 753.485 958.806 769.19 927.373 784.937C921.661 787.799 916.041 790.843 910.379 793.803C909.185 793.803 907.991 793.803 906.797 793.803C908.032 793.018 909.208 792.115 910.509 791.464C948.926 772.244 987.339 753.015 1025.81 733.902C1029.9 731.867 1033.22 729.108 1036.46 725.948C1051.58 711.162 1068.55 698.781 1086.76 688.091C1092.67 684.619 1098.68 681.293 1104.78 678.144C1107.1 676.942 1108 675.51 1107.92 672.913C1107.75 667.296 1107.87 661.669 1107.87 655.477C1106.15 656.073 1105.04 656.338 1104.04 656.817C1063.71 676.126 1021.3 689.011 977.599 697.981C944.959 704.682 911.992 708.933 878.765 711.108C847.169 713.177 815.554 713.343 783.92 711.61C757.227 710.147 730.671 707.459 704.298 703.164C651.958 694.639 601.127 680.913 552.915 658.392C550.221 657.134 547.609 655.698 544.976 654.312C544.761 654.199 544.681 653.83 544.215 653.016C624.681 612.659 705.224 572.544 786.297 531.898C784.48 530.868 783.372 530.171 782.208 529.589C704.703 490.821 627.183 452.082 549.725 413.221C546.833 411.771 544.769 412.383 542.271 413.635C503.868 432.883 465.445 452.089 427.022 471.295C356.312 506.64 285.593 541.968 214.887 577.322C140.041 614.746 65.206 652.192 -9.63293 689.63C-11.222 690.425 -12.7986 691.245 -15.2012 692.471C-13.3032 693.569 -12.0154 694.408 -10.6503 695.091C14.0277 707.436 38.7151 719.761 63.3997 732.091C76.0765 738.424 88.8348 744.601 101.386 751.173C106.026 753.603 110.915 754.476 115.894 755.36C159.355 763.074 201.709 774.607 242.37 791.985C243.587 792.506 244.733 793.194 245.912 793.803C244.42 793.803 242.927 793.803 241.435 793.803C235.978 791.458 230.593 788.923 225.053 786.796C180.859 769.825 135.06 759.225 88.2689 752.688C58.41 748.517 28.3809 746.286 -1.75739 745.691C-53.794 744.664 -105.45 748.603 -156.643 758.101C-191.883 764.639 -226.402 773.85 -259.891 786.712C-265.411 788.832 -270.748 791.428 -276.169 793.803C-277.661 793.803 -279.154 793.803 -280.646 793.803C-274.669 791.179 -268.805 788.248 -262.69 785.994C-251.079 781.715 -239.219 778.1 -227.666 773.674C-220.035 770.75 -212.667 767.081 -205.342 763.426C-145.012 733.323 -84.7199 703.146 -24.4196 672.986C-23.1041 672.327 -21.8253 671.596 -19.886 670.552C-21.6332 669.565 -22.8444 668.809 -24.1155 668.173C-71.8774 644.283 -119.648 620.41 -167.41 596.522C-213.304 573.568 -259.186 550.592 -305.079 527.638C-349.506 505.417 -393.94 483.211 -438.372 461.001C-480.402 439.992 -522.431 418.982 -564.472 397.995C-565.92 397.274 -567.488 396.793 -569 396.199C-569 395.602 -569 395.005 -569 394.408C-567.479 394.968 -565.889 395.388 -564.449 396.107C-506.009 425.311 -447.587 454.55 -389.154 483.769C-353.134 501.781 -317.086 519.736 -281.108 537.831C-278.367 539.209 -276.282 538.969 -273.677 537.663C-210.741 506.116 -147.77 474.638 -84.8018 443.155C-25.3021 413.407 34.1873 383.639 93.7417 354.001C97.1259 352.317 98.4633 350.496 98.4382 346.591C98.2542 317.792 98.3429 288.992 98.346 260.192C98.346 258.573 98.346 256.955 98.346 255.337C98.0867 255.285 97.8275 255.235 97.5687 255.184C97.2279 256.079 96.8052 256.952 96.5585 257.872C90.9898 278.649 80.062 296.421 65.9474 312.389C48.7743 331.818 28.3464 347.228 6.14948 360.386C-30.3116 382.002 -69.5863 396.755 -110.363 407.765C-138.91 415.473 -167.891 420.997 -197.197 424.909C-243.024 431.025 -289.043 432.923 -335.193 430.817C-391.568 428.244 -447.091 420.038 -501.355 404.166C-522.991 397.837 -544.182 390.272 -564.796 381.114C-566.094 380.537 -567.593 380.414 -568.999 380.079C-568.999 379.184 -568.999 378.288 -568.999 377.393C-530.235 394.951 -489.773 407.109 -448.109 415.464C-424.55 420.187 -400.814 423.647 -376.902 426.037C-347.173 429.009 -317.386 430.165 -287.523 429.772C-259.003 429.398 -230.58 427.502 -202.296 423.892C-153.025 417.603 -104.791 406.891 -58.2595 389.195C-27.4643 377.484 1.89539 362.998 28.6384 343.578C47.8466 329.629 64.9946 313.583 78.2293 293.688C87.934 279.099 94.7631 263.332 97.2951 245.88C100.676 222.581 95.9205 200.786 84.8583 180.229C72.7542 157.735 55.3845 139.847 35.4021 124.328C7.70453 102.817 -23.2196 87.1517 -55.7847 74.5591C-92.2104 60.4737 -129.835 50.7798 -168.274 44.0599C-214.556 35.969 -261.196 32.5141 -308.145 32.9659C-338.007 33.2529 -367.776 35.1926 -397.394 39.0025C-443.07 44.8775 -487.909 54.5136 -531.281 70.2307C-544.02 74.8479 -556.436 80.3575 -569 85.4579C-569 84.5624 -569 83.6669 -569 82.7714C-567.732 82.4758 -566.377 82.3746 -565.208 81.8561C-529.757 66.1463 -492.856 55.0326 -454.977 47.0151C-450.166 45.9965 -445.347 44.9894 -440.495 44.1915C-436.163 43.4792 -432.249 41.8386 -428.353 39.8828C-387.842 19.549 -347.292 -0.707397 -306.755 -20.9897C-305.313 -21.7115 -303.894 -22.4794 -301.763 -23.5916C-303.703 -24.6927 -305.038 -25.5322 -306.44 -26.2334C-351.65 -48.8369 -396.871 -71.4207 -442.083 -94.0206C-482.893 -114.42 -523.695 -134.837 -564.506 -155.234C-565.97 -155.966 -567.5 -156.564 -569 -157.225C-569 -157.821 -569 -158.419 -569 -159.016C-567.759 -158.525 -566.474 -158.125 -565.285 -157.531C-526.858 -138.334 -488.441 -119.121 -450.022 -99.9077C-401.599 -75.6909 -353.178 -51.4715 -304.75 -27.2655C-303.482 -26.6319 -302.142 -26.1425 -300.284 -25.3504C-300.284 -32.3345 -300.347 -38.5865 -300.268 -44.8367C-300.176 -52.0625 -301.415 -50.4569 -294.698 -53.8204C-242.02 -80.1994 -189.341 -106.578 -136.566 -132.763C-131.23 -135.41 -126.884 -138.269 -125.423 -144.402C-124.984 -146.247 -123.787 -147.905 -123.014 -149.681C-122.641 -150.54 -122.446 -151.476 -121.993 -152.956C-124.447 -152.399 -126.309 -151.997 -128.161 -151.553C-147.46 -146.929 -166.945 -143.263 -186.576 -140.385C-214.201 -136.335 -241.97 -133.902 -269.875 -132.802C-302.58 -131.513 -335.225 -132.372 -367.813 -135.175C-397.406 -137.721 -426.757 -142.01 -455.825 -148.219C-493.267 -156.216 -529.739 -167.224 -564.806 -182.703C-566.147 -183.295 -567.599 -183.634 -569 -184.09C-569 -184.687 -569 -185.284 -569 -185.881C-567.732 -185.513 -566.4 -185.288 -565.205 -184.756C-528.821 -168.538 -490.901 -157.198 -451.957 -149.138C-411.561 -140.778 -370.727 -136.165 -329.509 -134.537C-301.295 -133.423 -273.128 -133.883 -244.985 -135.81C-204.149 -138.607 -163.772 -144.528 -123.992 -154.309C-121.571 -154.904 -119.715 -155.723 -118.324 -158.061C-106.088 -178.619 -89.4862 -195.195 -70.7186 -209.76C-69.1891 -210.947 -67.6757 -212.155 -66.1815 -213.385C-65.9859 -213.547 -65.9523 -213.904 -65.7249 -214.463C-66.992 -215.139 -68.269 -215.858 -69.5769 -216.513C-81.7083 -222.592 -93.8514 -228.646 -105.973 -234.744C-107.828 -235.676 -109.59 -236.79 -111.396 -237.82C-109.903 -237.82 -108.411 -237.82 -106.918 -237.82C-105.736 -236.993 -104.63 -236.017 -103.358 -235.365C-97.407 -232.315 -91.4129 -229.351 -85.4301 -226.365C-78.1267 -222.718 -70.8194 -219.08 -63.538 -215.451C-62.8583 -215.796 -62.3107 -216.024 -61.8133 -216.333C-51.3426 -222.843 -40.8727 -229.353 -30.4217 -235.894C-29.58 -236.421 -28.8792 -237.173 -28.1131 -237.82C-26.9189 -237.82 -25.7252 -237.82 -24.5311 -237.82C-26.2119 -236.674 -27.8126 -235.383 -29.5853 -234.403C-53.3413 -221.27 -75.5096 -205.991 -94.4115 -186.331C-108.621 -171.551 -120.286 -155.054 -127.176 -135.581C-138.479 -103.635 -134.056 -73.329 -117.034 -44.5107C-105.171 -24.4249 -89.0371 -8.18936 -70.7885 6.05951C-45.6655 25.6756 -17.7651 40.4103 11.6205 52.4562C50.8452 68.5355 91.5602 79.3142 133.267 86.6104C159.304 91.1654 185.506 94.2992 211.861 96.0307C243.602 98.1163 275.363 98.32 307.147 96.5738C337.42 94.9109 367.497 91.6324 397.336 86.3247C443.755 78.0681 488.919 65.5328 532 46.0748C535.397 44.5408 538.738 42.8832 542.091 41.2543C542.474 41.0685 542.766 40.6951 543.393 40.1573C542.33 39.4606 541.452 38.7523 540.466 38.2593C493.509 14.7804 446.538 -8.6698 399.579 -32.1451C350.619 -56.6207 301.67 -81.1204 252.714 -105.604C197.489 -133.224 142.259 -160.838 87.0326 -188.454C56.0843 -203.93 25.1329 -219.399 -5.79791 -234.91C-7.36017 -235.693 -8.73926 -236.842 -10.2034 -237.82C-9.00922 -237.82 -7.81549 -237.82 -6.62134 -237.82C-6.08093 -237.341 -5.61298 -236.717 -4.98926 -236.404C6.81616 -230.478 18.6606 -224.628 30.4396 -218.649C32.305 -217.702 33.754 -218.038 35.4442 -218.89C46.7124 -224.568 58.015 -230.177 69.2872 -235.847C70.322 -236.367 71.2215 -237.156 72.1837 -237.82C73.3779 -237.82 74.5716 -237.82 75.7657 -237.82C74.576 -236.998 73.4639 -236.022 72.1851 -235.377C61.4014 -229.936 50.585 -224.559 39.7843 -219.152C38.4598 -218.489 37.168 -217.76 35.0967 -216.654C36.8972 -215.63 38.1769 -214.822 39.5228 -214.148C62.1885 -202.797 84.8636 -191.463 107.535 -180.123C183.426 -142.161 259.313 -104.19 335.208 -66.2384C403.9 -31.889 472.601 2.44077 541.298 36.7794C542.099 37.1797 542.868 37.6673 543.706 37.9624C546.32 38.883 547.271 40.6292 547.191 43.4214C547.019 49.385 547.139 55.3568 547.139 61.3253C547.139 68.7858 547.123 76.2467 547.15 83.7072C547.156 85.1476 547.326 86.5871 547.422 88.0647C551.066 87.3461 817.024 -45.1725 825.142 -50.2267C824.418 -52.127 822.483 -52.4252 821.004 -53.1676C798.746 -64.3399 776.457 -75.4509 754.18 -86.5861C665.74 -130.793 577.3 -175.004 488.861 -219.214C478.055 -224.615 467.247 -230.01 456.462 -235.449C455.164 -236.104 454 -237.023 452.774 -237.82C454.267 -237.82 455.76 -237.82 457.252 -237.82C458.518 -236.901 459.685 -235.783 461.065 -235.092C500.91 -215.126 540.79 -195.232 580.608 -175.213C583.325 -173.847 585.42 -173.927 588.073 -175.259C628.037 -195.327 668.051 -215.297 708.036 -235.325C709.312 -235.964 710.4 -236.979 711.576 -237.819C713.068 -237.819 714.561 -237.819 716.054 -237.819C714.663 -236.982 713.321 -236.049 711.875 -235.323C696.293 -227.499 680.697 -219.702 665.1 -211.907C640.57 -199.648 616.031 -187.406 591.52 -175.11C590.053 -174.374 588.16 -174.044 587.374 -172.218C596.273 -166.682 707 -111.833 710.681 -111.243C710.681 -112.918 710.681 -114.534 710.681 -116.149C710.682 -128.078 710.536 -140.009 710.748 -151.934C710.857 -158.027 711.187 -164.175 712.145 -170.182C715.291 -189.892 723.842 -207.305 735.691 -223.177C739.427 -228.182 743.485 -232.946 747.396 -237.82C747.993 -237.82 748.59 -237.82 749.187 -237.82C748.404 -236.62 747.756 -235.3 746.818 -234.236C733.96 -219.656 723.492 -203.659 717.468 -185.01C708.559 -157.428 711.572 -130.875 724.296 -105.126C725.325 -103.045 726.995 -102.075 728.878 -101.135C747.557 -91.8047 766.229 -82.4574 784.904 -73.1159C798.376 -66.3768 811.804 -59.5463 825.358 -52.9746C828.238 -51.5785 829.141 -49.8623 829.088 -46.796C828.92 -36.9499 829.152 -27.0962 828.954 -17.2514C828.89 -14.0952 829.973 -12.5093 832.806 -11.1504C863.178 3.41417 894.823 14.4007 927.399 22.7912C961.255 31.5121 995.611 37.3875 1030.39 40.9485C1069.66 44.9688 1109.01 46.2163 1148.4 44.0568C1168.65 42.9472 1188.82 40.6436 1209.02 38.7733C1211.05 38.5857 1213.14 37.9391 1214.97 37.0333C1231.68 28.757 1248.33 20.3764 1265 12.0263C1265 12.6231 1265 13.2204 1265 13.8173C1263.56 14.6004 1262.14 15.4265 1260.67 16.1599C1212.65 40.1739 1164.62 64.1771 1116.6 88.1919C1115.42 88.782 1114.3 89.4859 1113.13 90.1486C1113.42 90.5932 1113.52 90.9375 1113.74 91.0539C1115.85 92.1599 1117.95 93.2914 1120.11 94.2961C1154.6 110.356 1190.61 121.897 1227.69 130.161C1240.05 132.915 1252.56 135.004 1265 137.397C1265 137.994 1265 138.591 1265 139.188C1264.26 139.114 1263.51 139.087 1262.78 138.957C1241.64 135.208 1220.68 130.728 1199.97 125.03C1170.89 117.024 1142.57 106.964 1115.33 93.9334C1114.09 93.3424 1112.77 92.934 1111.25 92.3484C1111.25 131.906 1111.25 170.757 1111.25 209.824C1112.7 209.945 1113.85 210.115 1115.01 210.128C1156.36 210.605 1197.49 213.767 1238.27 220.797C1247.21 222.339 1256.09 224.29 1265 226.053C1265 226.649 1265 227.247 1265 227.844C1256.24 226.071 1247.52 224.066 1238.71 222.566C1192.7 214.732 1146.34 211.326 1099.69 211.939C1071.33 212.312 1043.07 214.221 1014.9 217.707C971.862 223.034 929.608 231.868 888.447 245.636C856.803 256.221 826.379 269.508 798.091 287.361C776.643 300.898 757.048 316.634 741.021 336.482C730.429 349.599 721.968 363.929 717.005 380.12C708.42 408.122 711.856 434.953 725.377 460.669C736.178 481.213 751.538 497.967 769.316 512.597C775.528 517.71 782.213 522.243 788.57 527.184C790.769 528.893 792.612 528.894 795.041 527.638C804.312 522.842 813.723 518.317 822.997 513.526C825.598 512.182 827.718 512.034 830.451 513.407C877.097 536.835 923.799 560.152 970.489 583.493C982.095 589.295 993.686 595.128 1005.33 600.854C1007.03 601.689 1008.95 602.302 1010.82 602.513C1023.42 603.934 1036.01 605.468 1048.64 606.497C1078.71 608.946 1108.85 609.405 1138.99 608.345C1181.41 606.852 1223.44 601.949 1265 593.21C1265 593.807 1265 594.404 1265 595.001C1247.96 597.919 1230.98 601.253 1213.87 603.66C1185.2 607.693 1156.35 609.78 1127.39 610.337C1090.65 611.044 1054.02 609.522 1017.54 605.094C1016.91 605.017 1016.26 605.084 1015.62 605.084C1016.95 606.652 1018.47 607.504 1020.03 608.283C1048.7 622.624 1077.35 636.997 1106.08 651.222C1108.79 652.564 1109.78 654.173 1109.66 657.08C1109.47 661.696 1109.57 666.326 1109.61 670.95C1109.62 672.215 1109.84 673.48 1110.01 675.085C1111.55 674.464 1112.66 674.096 1113.7 673.591C1150.52 655.73 1189.2 643.336 1229.06 634.492C1240.99 631.846 1253.02 629.645 1265 627.24C1265 627.837 1265 628.434 1265 629.031ZM-275.36 540.451C-272.937 541.733 -271.515 542.522 -270.062 543.249C-237.114 559.725 -204.175 576.217 -171.19 592.616C-168.831 593.789 -166.184 594.539 -163.585 595.05C-128.992 601.85 -94.0838 606.018 -58.8706 607.847C-20.5067 609.841 17.796 609.132 56.0284 605.572C86.1967 602.762 116.112 598.178 145.681 591.477C189.043 581.651 231.037 567.934 270.566 547.296C292.467 535.862 313.048 522.447 331.37 505.762C347.627 490.957 361.421 474.25 370.541 454.047C381.969 428.73 383.549 402.896 374.384 376.528C368.465 359.495 358.926 344.631 347.094 331.196C324.551 305.601 296.704 287.119 266.662 271.612C265.028 270.768 263.675 270.752 262.064 271.622C258.784 273.392 255.416 274.999 252.081 276.666C168.982 318.217 85.8828 359.769 2.78149 401.317C-88.0597 446.733 -178.903 492.145 -269.744 537.562C-271.308 538.343 -272.854 539.16 -275.36 540.451ZM545.409 41.8664C543.011 42.9128 541.679 43.5186 540.328 44.0792C525.87 50.0773 511.615 56.636 496.913 61.9593C442.562 81.6376 386.222 92.0842 328.763 96.8299C300.198 99.1891 271.576 99.979 242.896 99.1403C203.75 97.9959 164.901 94.2155 126.388 87.1199C84.4594 79.3953 43.5602 68.1038 4.31818 51.2495C-25.1467 38.5946 -53.0203 23.195 -77.79 2.60555C-95.7333 -12.3096 -111.258 -29.288 -122.133 -50.1519C-129.32 -63.9405 -133.852 -78.5006 -134.832 -94.0945C-135.559 -105.664 -134.435 -117.02 -131.301 -128.195C-130.825 -129.894 -129.666 -131.645 -130.499 -133.647C-140.236 -129.953 -294.009 -52.534 -296.425 -50.0467C-294.789 -49.1929 -293.229 -48.3475 -291.642 -47.5545C-246.149 -24.8104 -200.65 -2.07841 -155.16 20.6697C-102.33 47.0881 -49.5108 73.5302 3.32281 99.9427C73.7656 135.159 144.218 170.356 214.666 205.562C230.276 213.364 245.904 221.131 261.469 229.021C263.558 230.08 265.237 230.224 267.288 229.042C269.998 227.481 272.883 226.229 275.686 224.828C331.718 196.82 387.751 168.813 443.78 140.798C476.33 124.522 508.855 108.194 541.454 92.0134C544.401 90.5506 545.534 88.851 545.486 85.5429C545.301 72.8608 545.41 60.1746 545.409 47.4897C545.409 45.8872 545.409 44.2847 545.409 41.8664ZM826.008 250.167C823.712 248.971 822.419 248.246 821.084 247.61C798.012 236.607 774.115 227.775 749.621 220.522C717.671 211.062 685.145 204.35 652.14 199.805C623.579 195.871 594.903 193.302 566.087 192.951C545.806 192.703 525.487 192.888 505.232 193.853C486.624 194.738 468.031 196.511 449.516 198.635C422.233 201.765 395.271 206.882 368.613 213.528C335.241 221.849 302.793 232.805 271.671 247.539C270.247 248.213 268.894 249.037 266.901 250.122C268.743 251.165 269.959 251.927 271.237 252.566C360.347 297.138 449.497 341.633 538.5 386.418C544.393 389.384 548.705 389.152 554.439 386.27C643.191 341.654 732.065 297.281 820.908 252.847C822.331 252.135 823.726 251.368 826.008 250.167ZM547.333 653.575C549.206 654.571 550.477 655.306 551.796 655.94C568.352 663.895 585.378 670.704 602.772 676.576C664.73 697.488 728.625 707.601 793.776 710.405C831.095 712.011 868.361 710.929 905.544 707.144C945.549 703.071 984.982 696.017 1023.69 685.037C1050.43 677.452 1076.48 668.033 1101.59 656.073C1102.99 655.403 1104.35 654.625 1106.32 653.579C1104.22 652.412 1102.83 651.582 1101.39 650.861C1088.33 644.314 1075.24 637.789 1062.17 631.251C985.062 592.69 907.946 554.145 830.879 515.501C827.862 513.988 825.573 514.119 822.608 515.614C788.373 532.867 754.065 549.976 719.776 567.122C663.742 595.141 607.707 623.158 551.677 651.184C550.38 651.832 549.133 652.58 547.333 653.575ZM1107.52 128.547C1105.68 127.585 1104.4 126.867 1103.08 126.236C1075.67 113.148 1047.13 103.161 1017.85 95.2234C989.165 87.4486 960.061 81.8167 930.605 77.9079C907.664 74.8631 884.638 72.9069 861.522 71.89C815.333 69.8586 769.338 72.0132 723.532 78.2101C686.51 83.2187 650.092 90.9962 614.464 102.326C593.402 109.023 572.807 116.912 552.883 126.505C551.657 127.095 550.508 127.845 548.844 128.794C550.468 129.728 551.34 130.29 552.262 130.751C602.557 155.903 652.854 181.053 703.169 206.166C704.885 207.023 706.742 207.715 708.612 208.132C735.582 214.137 762.125 221.638 787.874 231.677C800.645 236.656 813.062 242.534 825.69 247.888C828.291 248.991 829.235 250.607 829.078 253.365C828.883 256.786 829.011 260.227 829.054 263.66C829.068 264.794 829.25 265.927 829.358 267.084C833.325 266.333 1100.71 133.17 1107.52 128.547ZM827.003 69.4901C827.003 29.7967 827.003 -9.1825 827.003 -48.7608C824.774 -47.7157 823.034 -46.9465 821.334 -46.0971C786.241 -28.5658 751.148 -11.0344 716.064 6.51532C648.832 40.1457 581.613 73.8006 514.376 107.422C433.396 147.915 352.396 188.369 271.427 228.885C264.09 232.557 265.403 230.419 265.345 238.84C265.324 241.869 265.005 244.946 265.744 248.301C267.326 247.633 268.422 247.226 269.47 246.72C293.573 235.075 318.609 225.862 344.269 218.352C371.639 210.342 399.452 204.294 427.646 199.951C453.03 196.041 478.53 193.291 504.182 192.083C516.252 191.514 528.341 191.356 540.421 190.989C541.988 190.941 543.551 190.753 545.448 190.604C545.448 188.344 545.448 186.576 545.448 184.808C545.448 167.348 545.515 149.887 545.384 132.427C545.361 129.312 546.299 127.525 549.225 126.277C558.414 122.359 567.39 117.93 576.645 114.185C632.963 91.396 691.779 79.1481 752.022 73.1379C775.342 70.8114 798.74 69.6266 822.183 69.491C823.649 69.4829 825.115 69.4901 827.003 69.4901ZM100.055 350.673C106.964 347.248 112.831 344.362 118.679 341.439C165.365 318.107 212.031 294.732 258.769 271.503C262.275 269.76 263.888 267.892 263.715 263.75C263.348 254.963 263.388 246.142 263.703 237.35C263.846 233.345 262.548 231.319 258.914 229.517C218.433 209.449 178.054 189.176 137.641 168.972C100.962 150.636 64.2759 132.314 27.5884 113.996C26.2496 113.327 24.8598 112.761 23.4937 112.147C23.3491 112.44 23.2044 112.734 23.0593 113.027C24.6041 114.162 26.1372 115.311 27.6949 116.427C43.776 127.947 58.5259 140.913 70.9761 156.362C90.256 180.287 100.846 207.066 100.21 238.356C99.4896 273.85 100.052 309.37 100.056 344.878C100.055 346.473 100.055 348.068 100.055 350.673ZM265.341 251.811C265.341 256.76 265.52 260.928 265.281 265.072C265.111 268.028 266.146 269.605 268.831 270.937C281.409 277.178 293.451 284.366 305.03 292.31C324.97 305.989 343.019 321.722 357.412 341.312C373.507 363.217 382.58 387.409 382.078 415.009C381.646 438.73 381.996 462.466 382 486.196C382 487.768 382 489.34 382 491.668C384.374 490.572 385.975 489.885 387.531 489.107C428.359 468.697 469.182 448.279 510.005 427.861C520.812 422.456 531.588 416.991 542.448 411.695C544.645 410.624 545.604 409.324 545.459 406.885C545.291 404.059 545.485 401.215 545.421 398.38C545.242 390.435 546.744 392.258 539.152 388.451C501.552 369.595 463.912 350.82 426.288 332.009C374.256 305.995 322.226 279.975 270.191 253.967C268.885 253.315 267.523 252.777 265.341 251.811ZM710.663 491.627C710.663 489.08 710.663 487.451 710.663 485.823C710.666 461.206 710.764 436.589 710.64 411.974C710.557 395.413 714.152 379.734 721.145 364.787C730.663 344.44 744.778 327.625 761.353 312.735C779.443 296.484 799.706 283.414 821.169 272.123C823.138 271.087 825.093 270.026 827.319 268.835C827.319 264.168 827.335 259.561 827.304 254.954C827.298 254.108 827.101 253.264 826.943 252.033C825.453 252.661 824.225 253.102 823.066 253.678C811.318 259.523 799.577 265.383 787.841 271.253C725.696 302.337 663.556 333.428 601.411 364.511C584.474 372.982 567.548 381.477 550.559 389.844C548.1 391.055 546.906 392.49 547.101 395.306C547.318 398.424 547.468 401.608 547.083 404.692C546.545 408.991 548.53 410.939 552.183 412.755C603.458 438.243 654.657 463.882 705.879 489.476C707.168 490.121 708.508 490.663 710.663 491.627ZM1109.3 127.181C1109.3 124.834 1109.3 123.37 1109.3 121.905C1109.3 113.399 1109.25 104.893 1109.32 96.388C1109.38 89.0131 1108.15 90.5269 1115.06 87.0586C1143.6 72.7569 1172.16 58.5107 1200.71 44.2341C1202.1 43.5387 1203.44 42.7493 1204.81 42.0034C1202.88 41.3385 1201.16 41.4669 1199.44 41.6273C1189.49 42.5568 1179.55 43.5938 1169.59 44.4091C1136.53 47.1167 1103.42 47.4825 1070.3 45.7582C1032.71 43.8011 995.42 39.3581 958.531 31.735C915.143 22.7688 873.02 9.9572 832.982 -9.25681C831.964 -9.7453 830.854 -10.0413 829.753 -10.4389C828.643 -5.68285 828.781 65.8069 829.946 69.4834C831.455 69.4834 833.082 69.4449 834.706 69.4896C846.489 69.816 858.285 69.8993 870.051 70.5446C907.485 72.5984 944.63 77.0728 981.35 84.7451C1021.76 93.1884 1061.1 105.03 1098.7 122.276C1101.92 123.755 1105.14 125.255 1109.3 127.181ZM222.916 571.422C98.0339 614.525 -29.3605 620.166 -158.863 598.364C-157.638 599.328 -156.301 600.124 -154.913 600.819C-124.781 615.901 -94.6439 630.972 -64.5056 646.042C-50.1031 653.244 -35.7496 660.546 -21.254 667.554C-17.8434 669.203 -16.2095 671.078 -16.5543 674.992C-16.9062 678.989 -16.6533 683.041 -16.6085 687.067C-16.5964 688.175 -16.381 689.281 -16.1943 690.977C63.8304 650.965 143.373 611.193 222.916 571.422ZM-298.364 30.8324C-296.836 30.9609 -295.544 31.1476 -294.249 31.1673C-269.34 31.5452 -244.477 32.7013 -219.682 35.2611C-193.266 37.9879 -167.056 41.9783 -141.101 47.6048C-116.168 53.0096 -91.6064 59.7357 -67.5826 68.368C-66.3325 68.8171 -65.0165 69.0835 -63.731 69.435C-68.9957 65.0421 -295.131 -47.5908 -298.364 -48.043C-298.364 -21.84 -298.364 4.34727 -298.364 30.8324ZM874.396 247.541C874.512 247.868 874.627 248.195 874.742 248.522C950.431 221.477 1028.81 210.781 1109.03 210.076C1109.03 183.391 1109.03 157.231 1109.03 130.22C1030.44 169.515 952.417 208.528 874.396 247.541ZM-18.5405 671.953C-82.3947 703.883 -145.472 735.425 -208.55 766.966C-208.433 767.332 -208.316 767.698 -208.198 768.064C-146.142 751.365 -82.8564 744.203 -18.5401 743.733C-18.5406 719.728 -18.5405 696.369 -18.5405 671.953ZM695.13 205.253C695.219 204.896 695.308 204.54 695.397 204.183C646.288 179.633 597.179 155.083 547.931 130.463C546.75 135.738 546.989 187.556 548.183 190.964C597.528 190.965 646.568 195.658 695.13 205.253ZM-300.526 -21.5284C-306.352 -19.7571 -423.022 38.8611 -425.672 41.458C-384.007 34.5062 -342.485 31.4498 -300.526 31.1189C-300.526 13.2871 -300.526 -3.95586 -300.526 -21.5284ZM-16.3784 743.75C22.0676 744.029 59.9578 746.714 97.6376 752.284C97.7183 751.939 97.7988 751.594 97.8795 751.249C59.9789 732.301 22.0779 713.354 -16.3784 694.128C-16.3784 710.983 -16.3784 727.014 -16.3784 743.75ZM712.556 433.818C712.487 434.545 712.359 435.272 712.358 435.999C712.345 453.885 712.429 471.772 712.26 489.656C712.232 492.59 713.809 493.495 715.871 494.524C738.8 505.961 761.714 517.428 784.64 528.869C785.908 529.502 787.25 529.988 788.557 530.542C788.712 530.274 788.868 530.007 789.023 529.739C787.912 528.898 786.8 528.058 785.69 527.216C779.757 522.712 773.66 518.408 767.922 513.668C750.544 499.312 735.553 482.881 724.651 462.968C719.618 453.772 715.998 444.034 712.556 433.818ZM380.171 433.92C379.942 433.927 379.714 433.933 379.486 433.941C379.194 434.772 378.84 435.587 378.618 436.437C373.724 455.253 364.263 471.662 352.043 486.578C338.524 503.081 322.421 516.725 304.901 528.775C304.025 529.377 303.249 530.126 302.426 530.807C302.574 531.018 302.722 531.228 302.87 531.439C328.651 518.547 354.432 505.655 380.17 492.786C380.171 472.907 380.171 453.413 380.171 433.92ZM712.947 -129.739C712.759 -129.721 712.57 -129.703 712.382 -129.686C712.382 -123.477 712.356 -117.267 712.419 -111.058C712.426 -110.4 712.767 -109.415 713.26 -109.149C716.001 -107.666 718.544 -105.613 721.802 -105.34C718.788 -113.647 715.867 -121.693 712.947 -129.739Z" fill="url(#paint0_linear_18468_42012)" fill-opacity="0.2"/>
<defs>
<linearGradient id="paint0_linear_18468_42012" x1="347.999" y1="-111.178" x2="348.482" y2="727.493" gradientUnits="userSpaceOnUse">
<stop stop-color="white" stop-opacity="0"/>
<stop offset="1" stop-color="#DDDDDD"/>
</linearGradient>
</defs>
</svg>
