<svg width="103" height="40" viewBox="0 0 103 40" fill="none" xmlns="http://www.w3.org/2000/svg">
<g clip-path="url(#clip0_18468_40804)">
<path d="M2.14983 0.248047H100.248C101.338 0.248047 102.224 1.13204 102.224 2.22404V37.776C102.224 38.866 101.34 39.752 100.248 39.752H2.14983C1.05983 39.752 0.173828 38.868 0.173828 37.776V2.22404C0.175828 1.13404 1.05983 0.248047 2.14983 0.248047Z" fill="black"/>
<path d="M2.14983 0.248047H100.248C101.338 0.248047 102.224 1.13204 102.224 2.22404V37.776C102.224 38.866 101.34 39.752 100.248 39.752H2.14983C1.05983 39.752 0.173828 38.868 0.173828 37.776V2.22404C0.175828 1.13404 1.05983 0.248047 2.14983 0.248047Z" fill="black"/>
<path d="M100.25 39.9262H2.15C0.964 39.9262 0.002 38.9642 0 37.7762V2.22422C0.002 1.03622 0.964 0.0742188 2.15 0.0742188H100.248C101.436 0.0762188 102.398 1.03822 102.398 2.22422V37.7762C102.398 38.9642 101.436 39.9262 100.25 39.9262ZM2.15 0.424219C1.156 0.426219 0.352 1.23022 0.35 2.22422V37.7762C0.352 38.7702 1.156 39.5742 2.15 39.5762H100.248C101.242 39.5742 102.046 38.7702 102.048 37.7762V2.22422C102.046 1.23022 101.242 0.426219 100.248 0.424219H2.15Z" fill="white"/>
<path d="M41.8127 18.6161C41.8127 19.6301 42.6667 19.5861 42.6667 19.5861V19.7441H39.6287V19.5861C39.6287 19.5861 40.4827 19.6281 40.4827 18.6161V13.0061C40.4827 11.9921 39.6287 12.0361 39.6287 12.0361V11.8781H42.6667V12.0361C42.6667 12.0361 41.8127 11.9941 41.8127 13.0061V18.6161ZM45.0087 18.6161V13.9761L44.4627 13.2041V18.6141C44.4627 19.4721 43.4467 19.5861 43.4467 19.5861V19.7441H46.0387V19.5861C46.0387 19.5881 45.0087 19.5041 45.0087 18.6161ZM48.5127 11.8761V12.0341C48.5127 12.0341 49.5447 12.1261 49.5447 13.0161V17.0001L45.8707 11.8781H43.4067V12.0321C43.9767 12.1601 44.4647 12.5261 44.7467 13.0361C44.7907 13.0981 49.6127 19.7441 49.6127 19.7441L50.0887 19.7421V13.0141C50.0887 12.1561 51.1007 12.0321 51.1007 12.0321V11.8741L48.5127 11.8761ZM52.9847 18.6161V13.9781L52.4387 13.2061V18.6161C52.4387 19.4741 51.4227 19.5881 51.4227 19.5881V19.7461H54.0147V19.5881C54.0167 19.5881 52.9847 19.5041 52.9847 18.6161ZM56.4907 11.8761V12.0341C56.4907 12.0341 57.5207 12.1261 57.5207 13.0161V17.0001L53.8447 11.8781H51.3807V12.0321C51.9507 12.1601 52.4387 12.5261 52.7207 13.0361C52.7647 13.0981 57.5847 19.7441 57.5847 19.7441L58.0607 19.7421V13.0141C58.0607 12.1561 59.0727 12.0321 59.0727 12.0321V11.8741L56.4907 11.8761ZM36.4727 11.8781V12.0361C37.0167 12.0221 37.4707 12.4501 37.4847 12.9941V13.0161V17.2181C37.4847 18.0921 37.0727 19.4721 35.6587 19.4721C34.6447 19.5401 33.7667 18.7741 33.6987 17.7581C33.6927 17.6721 33.6927 17.5841 33.6987 17.4981V17.4881H33.7007V13.0121C33.6527 12.5201 34.0147 12.0821 34.5067 12.0341C34.5487 12.0301 34.5907 12.0281 34.6327 12.0301V11.8721H31.3087V12.0301C31.8027 12.0081 32.2227 12.3901 32.2447 12.8841C32.2467 12.9261 32.2447 12.9681 32.2407 13.0101V17.4861V17.5881C32.2407 18.2121 32.4967 19.9941 35.2447 19.9941C37.9707 19.9941 38.0207 17.8401 38.0207 16.9581L38.0227 17.0781V13.0121C38.0227 12.1541 38.9207 12.0301 39.0527 12.0301V11.8721L36.4727 11.8781ZM65.0727 17.7041H64.8727C64.8107 18.0301 64.6667 18.3361 64.4587 18.5941C64.0807 19.0001 63.5427 19.2181 62.9887 19.1901C62.6327 19.1901 61.8467 19.1881 61.6627 19.1881V15.8101H62.2847C62.7167 15.7821 63.1487 15.8561 63.5467 16.0241C63.7607 16.1841 63.9007 16.4241 63.9387 16.6881H64.0567V14.3321H63.9387C63.9087 14.6041 63.7667 14.8521 63.5467 15.0161C63.1427 15.1661 62.7147 15.2301 62.2847 15.2041H61.6627V12.3801C61.9347 12.3801 62.2487 12.3801 62.4847 12.3801C63.0527 12.3241 63.6267 12.4121 64.1507 12.6381C64.4147 12.8081 64.5967 13.0821 64.6487 13.3921H64.7647V11.8801H59.5567V12.0361C59.5567 12.0361 60.4107 11.9881 60.4107 13.0001V18.6181C60.4107 19.6301 59.5567 19.5881 59.5567 19.5881V19.7461H64.7047L65.0727 17.7041ZM68.7987 14.9901C68.2027 14.7681 66.7367 14.5181 66.7367 13.3781C66.7887 12.5901 67.4667 11.9921 68.2527 12.0381C68.8607 12.0241 69.4427 12.2901 69.8287 12.7601C70.0587 13.0421 70.2307 13.3681 70.3327 13.7181H70.4727L70.4627 11.8681H70.3207C70.2347 11.9701 70.1067 12.0261 69.9727 12.0201C69.5507 12.0201 69.4027 11.6081 68.1987 11.6081C66.8947 11.6461 65.8447 12.6901 65.8027 13.9941C65.8027 15.3181 67.0227 15.9521 68.0407 16.2881C69.1547 16.6581 70.0147 17.1261 70.0147 17.9761C70.0227 18.7121 69.4327 19.3161 68.6967 19.3241C68.6407 19.3241 68.5867 19.3221 68.5327 19.3161C67.8207 19.3381 67.1427 19.0081 66.7207 18.4321C66.4007 18.0401 66.1827 17.5781 66.0847 17.0821H65.9067V19.7441H66.0807C66.1667 19.5701 66.3367 19.4541 66.5287 19.4381C67.0247 19.4021 67.5347 19.8481 68.5487 19.8481C69.8547 19.8641 70.9267 18.8181 70.9427 17.5121C70.9427 17.4881 70.9427 17.4641 70.9427 17.4401C70.9407 15.8201 69.4687 15.2401 68.7987 14.9901ZM74.4967 14.9901C73.9007 14.7681 72.4367 14.5181 72.4367 13.3781C72.4887 12.5921 73.1647 11.9921 73.9527 12.0381C74.5607 12.0241 75.1427 12.2901 75.5287 12.7601C75.7587 13.0421 75.9307 13.3681 76.0327 13.7181H76.1747L76.1647 11.8681H76.0227C75.9367 11.9701 75.8087 12.0261 75.6747 12.0201C75.2527 12.0201 75.1047 11.6081 73.9007 11.6081C72.5967 11.6461 71.5467 12.6901 71.5047 13.9941C71.5047 15.3181 72.7247 15.9521 73.7427 16.2881C74.8567 16.6581 75.7167 17.1261 75.7167 17.9761C75.7247 18.7121 75.1347 19.3161 74.3987 19.3241C74.3427 19.3241 74.2887 19.3221 74.2327 19.3161C73.5207 19.3381 72.8427 19.0081 72.4207 18.4321C72.1007 18.0401 71.8827 17.5781 71.7847 17.0821H71.6047V19.7441H71.7787C71.8647 19.5701 72.0347 19.4541 72.2267 19.4381C72.7207 19.4021 73.2327 19.8481 74.2467 19.8481C75.5527 19.8641 76.6247 18.8181 76.6407 17.5101C76.6407 17.4861 76.6407 17.4621 76.6407 17.4381C76.6407 15.8201 75.1667 15.2401 74.4967 14.9901ZM27.8327 15.2861V15.4421C28.3187 15.4201 28.7327 15.7961 28.7547 16.2841C28.7567 16.3261 28.7547 16.3661 28.7507 16.4081V18.5021C28.7527 18.5401 28.7527 18.5781 28.7507 18.6161V18.8621C28.1567 19.1921 27.4867 19.3641 26.8067 19.3601C26.1607 19.3601 24.1027 19.2141 24.1027 15.0861C24.1027 10.9581 26.4467 10.7301 26.8367 10.6901C27.5747 10.6341 28.3047 10.8601 28.8827 11.3201C29.3787 11.7841 29.7047 12.4001 29.8127 13.0701H30.0507V10.5081H29.9267C29.7967 10.6481 29.6087 10.7201 29.4187 10.7041C28.9587 10.7041 28.2167 10.1081 26.8667 10.1501C24.1287 10.2401 22.2007 12.2901 22.2007 15.2841C22.1367 17.7901 24.1167 19.8741 26.6247 19.9381C26.6647 19.9401 26.7067 19.9401 26.7467 19.9401C27.0587 19.9401 27.3727 19.9221 27.6827 19.8841H27.6967C27.8367 19.8601 27.9887 19.8501 28.1507 19.8121C28.1607 19.8101 28.1727 19.8081 28.1827 19.8061L28.1887 19.8041C28.3887 19.7661 28.5727 19.7201 28.7427 19.6721C29.2347 19.5581 29.7507 19.5961 30.2207 19.7801V18.4441H30.2187V18.2701H30.2207V16.4061C30.1747 15.9201 30.5307 15.4901 31.0147 15.4441C31.0567 15.4401 31.0967 15.4401 31.1387 15.4401V15.2841L27.8327 15.2861Z" fill="white"/>
<path d="M75.8746 21.8643H67.0586V22.2103H75.8746V21.8643Z" fill="#DF0514"/>
<path d="M49.4224 21.8643H40.6064V22.2103H49.4224V21.8643Z" fill="#32A966"/>
<path d="M67.0582 21.8643H58.2402V22.2103H67.0582V21.8643Z" fill="#312782"/>
<path d="M40.6061 21.8643H31.7881V22.2103H40.6061V21.8643Z" fill="#1B71B5"/>
<path d="M58.2418 21.8643H49.4238V22.2103H58.2418V21.8643Z" fill="#38A7DE"/>
<path d="M31.7907 21.8643H22.9727V22.2103H31.7907V21.8643Z" fill="white"/>
<path d="M27.85 24.4481H29.076V30.0181H27.85V24.4481ZM22.168 29.2061L22.892 28.3381C23.346 28.7581 23.938 28.9981 24.556 29.0141C25.058 29.0141 25.36 28.8161 25.36 28.4881V28.4721C25.36 28.1621 25.17 28.0021 24.238 27.7641C23.116 27.4781 22.392 27.1681 22.392 26.0621V26.0461C22.392 25.0361 23.204 24.3661 24.342 24.3661C25.094 24.3541 25.824 24.6041 26.412 25.0741L25.776 25.9961C25.36 25.6721 24.854 25.4801 24.328 25.4481C23.858 25.4481 23.612 25.6621 23.612 25.9341V25.9501C23.612 26.3161 23.85 26.4361 24.814 26.6821C25.944 26.9761 26.58 27.3821 26.58 28.3541V28.3701C26.58 29.4761 25.736 30.0961 24.536 30.0961C23.66 30.1021 22.82 29.7841 22.168 29.2061ZM35.45 24.4481L33.588 27.1701L35.53 30.0181H34.098L32.848 28.1081L31.59 30.0181H30.198L32.14 27.1861L30.278 24.4481H31.71L32.872 26.2541L34.058 24.4481H35.45ZM38.816 24.4481H39.946L42.556 27.8781V24.4481H43.766V30.0181H42.724L40.026 26.4761V30.0181H38.816V24.4481ZM47.164 24.4081H48.294L50.682 30.0181H49.4L48.89 28.7681H46.534L46.024 30.0181H44.774L47.164 24.4081ZM48.452 27.6881L47.712 25.8821L46.972 27.6881H48.452ZM52.352 25.5781H50.658V24.4481H55.274V25.5781H53.578V30.0181H52.352V25.5781ZM56.578 24.4481H57.804V30.0181H56.578V24.4481ZM58.942 27.2501V27.2341C58.986 25.6001 60.346 24.3101 61.982 24.3521C63.55 24.3941 64.812 25.6501 64.862 27.2181V27.2341C64.818 28.8681 63.458 30.1581 61.822 30.1141C60.254 30.0721 58.992 28.8161 58.942 27.2501ZM63.58 27.2501V27.2341C63.612 26.3001 62.882 25.5161 61.946 25.4841C61.928 25.4841 61.91 25.4841 61.892 25.4821C60.972 25.4781 60.224 26.2201 60.22 27.1401C60.22 27.1661 60.22 27.1901 60.222 27.2161V27.2321C60.19 28.1661 60.92 28.9501 61.854 28.9821C61.872 28.9821 61.89 28.9821 61.908 28.9841C62.828 28.9881 63.576 28.2461 63.58 27.3261C63.582 27.3001 63.582 27.2741 63.58 27.2501ZM66.104 24.4481H67.234L69.844 27.8781V24.4481H71.054V30.0181H70.012L67.314 26.4761V30.0181H66.104V24.4481ZM72.16 29.2061L72.884 28.3381C73.338 28.7581 73.93 28.9981 74.546 29.0141C75.048 29.0141 75.35 28.8161 75.35 28.4881V28.4721C75.35 28.1621 75.158 28.0021 74.228 27.7641C73.106 27.4781 72.382 27.1681 72.382 26.0621V26.0461C72.382 25.0361 73.194 24.3661 74.332 24.3661C75.084 24.3541 75.814 24.6041 76.4 25.0741L75.764 25.9961C75.348 25.6721 74.842 25.4801 74.316 25.4481C73.846 25.4481 73.6 25.6621 73.6 25.9341V25.9501C73.6 26.3161 73.838 26.4361 74.802 26.6821C75.932 26.9761 76.568 27.3821 76.568 28.3541V28.3701C76.568 29.4761 75.724 30.0961 74.524 30.0961C73.652 30.1021 72.81 29.7841 72.16 29.2061Z" fill="white"/>
<path d="M83.3245 30.526C81.8605 30.18 80.6705 28.856 79.9725 26.796C79.3005 24.666 79.1825 22.398 79.6325 20.21C80.0125 17.822 80.8685 15.534 82.1485 13.48C84.3065 9.98196 88.0865 7.81196 92.1965 7.71396C92.2185 7.71196 92.2405 7.70996 92.2625 7.70996C92.4725 7.70996 92.5645 7.81196 92.5805 7.90796C92.6145 8.11796 92.3385 8.29396 91.7565 8.43396C88.3905 9.24596 85.4745 11.552 84.4385 13.31L84.4825 13.354C85.3465 12.76 86.3465 12.394 87.3885 12.29C87.3885 12.29 87.4805 12.288 87.4885 12.31L87.4985 12.314L87.5085 12.31C87.5245 12.306 87.5385 12.304 87.5545 12.302C87.5645 12.3 87.5705 12.3 87.5785 12.3H87.6005C87.6145 12.3 87.6285 12.3 87.6405 12.302C87.6945 12.306 87.7505 12.312 87.8085 12.32C87.8645 12.326 87.9205 12.334 87.9765 12.344C88.0665 12.358 88.1565 12.376 88.2445 12.396L88.3145 12.412C88.3925 12.43 88.4685 12.45 88.5465 12.472L88.5825 12.482C88.6685 12.508 88.7525 12.536 88.8385 12.566L88.8945 12.588C88.9745 12.618 89.0445 12.646 89.1125 12.676L89.1645 12.698C89.2465 12.734 89.3265 12.774 89.4065 12.816L89.4645 12.848C89.5305 12.882 89.5945 12.918 89.6565 12.956L89.7165 12.992C89.7925 13.038 89.8685 13.088 89.9445 13.14L89.9925 13.174C90.0545 13.218 90.1165 13.264 90.1765 13.31L90.2365 13.356C90.3085 13.414 90.3805 13.474 90.4505 13.534L90.4805 13.56C90.5425 13.616 90.6025 13.672 90.6625 13.732L90.7185 13.788C90.7845 13.856 90.8505 13.924 90.9125 13.996L90.9285 14.014C90.9925 14.086 91.0505 14.156 91.1085 14.228L91.1565 14.288C91.2165 14.364 91.2765 14.444 91.3325 14.524L91.3445 14.542C91.4045 14.626 91.4545 14.702 91.5025 14.78L91.5445 14.846C91.5965 14.932 91.6485 15.018 91.6985 15.108L91.7225 15.15C91.7665 15.23 91.8085 15.31 91.8485 15.394L91.8845 15.466C91.9285 15.56 91.9725 15.656 92.0145 15.752L92.0365 15.808C92.0725 15.894 92.1065 15.98 92.1385 16.068L92.1665 16.142C92.2025 16.244 92.2385 16.348 92.2705 16.454L92.2905 16.52C92.3185 16.612 92.3445 16.704 92.3685 16.8L92.3885 16.876C92.4165 16.986 92.4425 17.098 92.4665 17.212L92.4805 17.288C92.5005 17.388 92.5185 17.488 92.5345 17.588L92.5465 17.662C92.5645 17.78 92.5805 17.9 92.5945 18.02L92.6025 18.104C92.6145 18.21 92.6225 18.318 92.6305 18.428L92.6365 18.498C92.6445 18.624 92.6505 18.75 92.6525 18.88L92.6545 18.972C92.6565 19.088 92.6565 19.204 92.6545 19.322V19.384C92.6505 19.516 92.6445 19.652 92.6365 19.788L92.6305 19.886C92.6225 20.012 92.6105 20.14 92.5965 20.268L92.5925 20.316C92.5765 20.456 92.5585 20.598 92.5385 20.742L92.5225 20.846C92.5005 20.984 92.4785 21.122 92.4525 21.262L92.4485 21.29C92.4205 21.438 92.3885 21.588 92.3545 21.738L92.3285 21.848C92.2925 21.998 92.2565 22.15 92.2145 22.304C91.1965 26.79 86.9385 30.634 84.1685 30.636H84.1665C84.0185 30.636 83.8705 30.624 83.7245 30.6" fill="white"/>
<path d="M88.3605 12.1982C90.9465 12.8302 92.5205 15.2942 92.7985 17.8122C93.2325 22.4302 91.1825 26.9322 87.4125 29.6382C85.4705 31.0322 83.2905 31.4242 81.5085 29.7662C79.5005 27.8982 79.0225 24.6762 79.1745 22.0742C79.4745 16.9602 81.9785 11.4082 86.6765 8.94616C87.8525 8.33816 89.1165 7.91616 90.4225 7.69816C91.0905 7.56816 91.7705 7.50816 92.4505 7.51816C93.1085 7.57016 92.9085 8.32616 92.3085 8.49216C91.7125 8.65816 91.0925 8.83216 90.5085 9.04416C89.7485 9.32216 89.0125 9.67016 88.3145 10.0802C87.0965 10.7642 86.0105 11.6642 85.1125 12.7342C86.0925 12.1662 87.2465 11.9762 88.3605 12.1982ZM92.2605 7.93216C92.2465 7.93216 92.2305 7.93216 92.2165 7.93416C88.1745 8.02616 84.4545 10.1602 82.3325 13.6002C81.0685 15.6282 80.2245 17.8882 79.8485 20.2462C79.4065 22.3982 79.5205 24.6282 80.1805 26.7242C80.8525 28.7062 81.9865 29.9802 83.3765 30.3102C83.6385 30.3802 83.9065 30.4142 84.1785 30.4142C86.8665 30.4142 91.0105 26.6482 92.0085 22.2542C92.0505 22.0942 92.0865 21.9442 92.1225 21.7962L92.1485 21.6862C92.1805 21.5402 92.2125 21.3922 92.2405 21.2482C92.2725 21.0822 92.2945 20.9462 92.3145 20.8102L92.3305 20.7062C92.3505 20.5662 92.3685 20.4262 92.3845 20.2882L92.3885 20.2422C92.4025 20.1142 92.4125 19.9902 92.4205 19.8662L92.4265 19.7702C92.4345 19.6382 92.4405 19.5062 92.4445 19.3762V19.3182C92.4465 19.2002 92.4465 19.0862 92.4445 18.9722L92.4425 18.8822C92.4405 18.7582 92.4345 18.6322 92.4265 18.5102L92.4205 18.4442C92.4125 18.3342 92.4045 18.2302 92.3925 18.1262L92.3845 18.0422C92.3705 17.9242 92.3565 17.8082 92.3385 17.6942L92.3265 17.6202C92.3105 17.5222 92.2925 17.4242 92.2725 17.3262L92.2585 17.2522C92.2365 17.1422 92.2105 17.0342 92.1825 16.9282L92.1625 16.8542C92.1385 16.7622 92.1125 16.6722 92.0865 16.5822L92.0665 16.5162C92.0345 16.4162 92.0005 16.3142 91.9645 16.2162L91.9365 16.1422C91.9045 16.0562 91.8705 15.9722 91.8365 15.8902L91.8145 15.8342C91.7745 15.7422 91.7325 15.6502 91.6885 15.5582L91.6545 15.4902C91.6145 15.4102 91.5745 15.3322 91.5325 15.2542L91.5085 15.2102C91.4625 15.1262 91.4125 15.0422 91.3605 14.9602L91.3185 14.8962C91.2705 14.8222 91.2225 14.7482 91.1645 14.6662C91.0965 14.5722 91.0405 14.4962 90.9825 14.4222L90.9345 14.3622C90.8805 14.2942 90.8225 14.2262 90.7605 14.1562C90.6845 14.0702 90.6205 14.0042 90.5565 13.9382L90.5025 13.8842C90.4465 13.8282 90.3885 13.7742 90.3305 13.7202L90.2985 13.6902C90.2345 13.6342 90.1665 13.5762 90.0965 13.5222L90.0385 13.4762C89.9825 13.4322 89.9225 13.3882 89.8645 13.3482L89.8145 13.3122C89.7465 13.2662 89.6745 13.2182 89.6005 13.1742L89.5425 13.1402C89.4825 13.1042 89.4205 13.0702 89.3585 13.0382L89.2985 13.0062C89.2265 12.9682 89.1485 12.9322 89.0705 12.8962L89.0225 12.8742C88.9565 12.8462 88.8905 12.8182 88.8125 12.7902L88.7585 12.7702C88.6805 12.7422 88.6005 12.7142 88.5185 12.6902L88.4845 12.6802C88.4105 12.6582 88.3345 12.6402 88.2605 12.6222L88.2505 12.6202C87.9845 12.5482 87.7105 12.5162 87.4345 12.5222C86.4105 12.5802 85.4245 12.9322 84.5965 13.5362L84.4485 13.6322L84.1565 13.3462L84.2445 13.1982C85.3025 11.4022 88.2745 9.04616 91.7005 8.22016C92.2745 8.08216 92.3525 7.95216 92.3585 7.93816C92.3565 7.94816 92.3245 7.93216 92.2605 7.93216Z" fill="white"/>
<path d="M92.2001 7.8498C81.9541 8.4298 80.0761 18.3558 79.7601 20.2358C79.7601 20.2358 79.7641 20.2158 79.7741 20.1778V20.1838C79.7701 20.2018 79.7661 20.2178 79.7601 20.2358L79.7701 20.1958C79.7641 20.2278 79.7581 20.2598 79.7521 20.2918C79.7541 20.2738 79.7561 20.2558 79.7601 20.2378C78.8381 24.8498 80.4121 29.8498 83.4961 30.4318C83.5061 30.4338 83.5181 30.4358 83.5301 30.4358C83.5701 30.4418 83.5921 30.4338 83.6001 30.4198L83.6101 30.4238C83.6301 30.4418 83.6541 30.4538 83.6801 30.4578C83.6941 30.4618 83.7081 30.4638 83.7201 30.4658H83.7241C86.4501 30.9598 91.0621 26.8118 92.0901 22.2738L92.0941 22.2578L92.0981 22.2398C92.1181 22.1578 92.1381 22.0778 92.1581 21.9978C92.1361 22.0898 92.1141 22.1818 92.0901 22.2738C93.0641 18.6518 92.3301 15.7798 90.8181 14.0898C90.0821 13.2358 89.0701 12.6638 87.9561 12.4758C87.9021 12.4678 87.8461 12.4598 87.7921 12.4538C87.7381 12.4478 87.6821 12.4418 87.6281 12.4358C87.5721 12.4278 87.5141 12.4418 87.4661 12.4738C87.4681 12.4518 87.4461 12.4298 87.4101 12.4258H87.4041L87.3941 12.4238C86.1681 12.5598 85.0061 13.0438 84.0461 13.8178C84.6161 12.1998 87.7181 9.2698 91.7221 8.3038C92.6421 8.0838 92.5461 7.8178 92.2001 7.8498Z" fill="white"/>
<mask id="mask0_18468_40804" style="mask-type:luminance" maskUnits="userSpaceOnUse" x="79" y="12" width="14" height="19">
<path d="M79.8445 19.9641L79.7605 20.2961C79.0565 23.7441 80.4225 29.8341 83.4925 30.4141C83.5925 30.4321 83.5905 30.3901 83.5805 30.3501C83.5845 30.3621 83.5885 30.3721 83.5925 30.3841C83.6105 30.4241 83.6445 30.4401 83.7205 30.4501C86.5985 30.8121 91.1245 26.2821 92.0985 22.2401C92.9885 18.7601 92.3565 15.9781 90.9725 14.2761C90.9305 14.2261 90.8905 14.1761 90.8465 14.1281C90.8365 14.1161 90.8265 14.1061 90.8165 14.0941C90.7545 14.0241 90.6905 13.9581 90.6245 13.8921C90.6045 13.8721 90.5845 13.8521 90.5665 13.8341C90.5105 13.7801 90.4545 13.7261 90.3965 13.6761C90.3845 13.6641 90.3705 13.6521 90.3585 13.6421C90.2905 13.5821 90.2205 13.5241 90.1505 13.4701C90.1305 13.4541 90.1105 13.4381 90.0885 13.4221C90.0305 13.3781 89.9725 13.3341 89.9125 13.2921C89.8945 13.2801 89.8785 13.2681 89.8605 13.2561C89.7865 13.2061 89.7125 13.1581 89.6385 13.1121C89.6185 13.1001 89.5985 13.0881 89.5805 13.0781C89.5185 13.0421 89.4565 13.0061 89.3925 12.9741C89.3725 12.9641 89.3525 12.9521 89.3325 12.9421C89.2545 12.9021 89.1765 12.8641 89.0965 12.8281C89.0785 12.8201 89.0625 12.8141 89.0465 12.8061C88.9785 12.7761 88.9125 12.7501 88.8445 12.7241C88.8225 12.7161 88.8005 12.7081 88.7785 12.7001C88.6965 12.6701 88.6125 12.6421 88.5285 12.6161C88.5165 12.6121 88.5045 12.6101 88.4945 12.6061C88.4205 12.5841 88.3445 12.5641 88.2685 12.5461C88.2465 12.5401 88.2225 12.5361 88.1985 12.5301C88.1125 12.5101 88.0245 12.4941 87.9385 12.4801C87.8385 12.4641 87.7405 12.4521 87.6405 12.4441C87.5765 12.4341 87.5125 12.4541 87.4625 12.4941L87.4385 12.5121L87.4485 12.5041L87.4625 12.4821L87.4465 12.4941L87.4345 12.5041C87.4625 12.4821 87.4465 12.4441 87.4005 12.4341C84.3565 12.6421 80.8265 16.2861 79.8445 19.9641Z" fill="white"/>
</mask>
<g mask="url(#mask0_18468_40804)">
<path d="M73.877 14.1421L91.691 8.24609L98.167 29.0981L80.3549 34.9921L73.877 14.1421Z" fill="url(#paint0_radial_18468_40804)"/>
</g>
<mask id="mask1_18468_40804" style="mask-type:luminance" maskUnits="userSpaceOnUse" x="79" y="12" width="9" height="19">
<path d="M79.7483 20.3098C79.4483 22.3818 79.0363 28.7498 83.7163 30.4258C82.8783 29.4718 83.0483 26.3458 83.5723 21.3618C83.7903 17.7638 85.7063 13.7118 87.4483 12.4878C82.7283 14.1898 80.4543 16.4698 79.7483 20.3098Z" fill="white"/>
</mask>
<g mask="url(#mask1_18468_40804)">
<path d="M75.9941 13.0301L87.1961 11.0361L90.4941 29.8841L79.2921 31.8781L75.9941 13.0301Z" fill="url(#paint1_radial_18468_40804)"/>
</g>
<mask id="mask2_18468_40804" style="mask-type:luminance" maskUnits="userSpaceOnUse" x="83" y="12" width="10" height="19">
<path d="M83.5741 21.3618C83.4761 23.8478 82.5901 28.5898 83.7241 30.4658C85.8241 30.3818 90.8841 27.3798 92.0901 22.2738C93.7661 15.4618 89.6461 12.5218 87.4501 12.4878C84.5061 15.3418 83.9641 19.0758 83.5741 21.3618Z" fill="white"/>
</mask>
<g mask="url(#mask2_18468_40804)">
<path d="M79.5381 13.0321L93.4281 10.5581L96.8161 29.9221L82.9261 32.3941L79.5381 13.0321Z" fill="url(#paint2_radial_18468_40804)"/>
</g>
<mask id="mask3_18468_40804" style="mask-type:luminance" maskUnits="userSpaceOnUse" x="83" y="21" width="10" height="10">
<path d="M83.594 30.3998C83.61 30.4398 83.648 30.4498 83.722 30.4658C86.448 30.9598 91.058 26.8118 92.088 22.2738C90.814 27.3078 86.074 30.0578 84.448 26.3158C83.818 24.7418 83.52 23.0558 83.572 21.3618C83.244 25.4198 82.814 28.1338 83.594 30.3998Z" fill="white"/>
</mask>
<g mask="url(#mask3_18468_40804)">
<path d="M80.4102 21.9042L91.5642 19.3882L94.4942 30.4162L83.3382 32.9342L80.4102 21.9042Z" fill="url(#paint3_radial_18468_40804)"/>
</g>
<mask id="mask4_18468_40804" style="mask-type:luminance" maskUnits="userSpaceOnUse" x="79" y="20" width="5" height="11">
<path d="M83.4959 30.4298C83.6299 30.4558 83.5839 30.3678 83.5699 30.3298C82.8239 28.0658 83.2479 25.3778 83.5719 21.3618C83.1139 22.7638 83.1579 24.1738 82.4539 26.3958C82.0759 27.5878 81.5179 27.0638 81.1699 26.7758C80.2339 26.0018 79.2199 23.7198 79.7599 20.2358C78.8379 24.8478 80.4139 29.8478 83.4959 30.4298Z" fill="white"/>
</mask>
<g mask="url(#mask4_18468_40804)">
<path d="M77.0762 20.4281L83.5402 19.7241L85.3922 30.2641L78.9282 30.9661L77.0762 20.4281Z" fill="url(#paint4_radial_18468_40804)"/>
</g>
<mask id="mask5_18468_40804" style="mask-type:luminance" maskUnits="userSpaceOnUse" x="83" y="12" width="10" height="11">
<path d="M87.4502 12.4882C85.5022 13.9462 83.8542 17.9082 83.5742 21.3622C84.1862 18.4042 85.7822 15.6502 88.6802 15.3142C90.6142 15.0902 93.1542 18.3102 92.0902 22.2742C93.5742 16.7602 91.0962 12.9822 87.9402 12.4762C87.8362 12.4602 87.7322 12.4482 87.6262 12.4382C87.6162 12.4382 87.6062 12.4362 87.5982 12.4362C87.5442 12.4342 87.4902 12.4522 87.4502 12.4882Z" fill="white"/>
</mask>
<g mask="url(#mask5_18468_40804)">
<path d="M81.1084 12.9922L93.0084 10.3062L96.0384 21.7182L84.1384 24.4022L81.1084 12.9922Z" fill="url(#paint5_radial_18468_40804)"/>
</g>
<mask id="mask6_18468_40804" style="mask-type:luminance" maskUnits="userSpaceOnUse" x="79" y="7" width="14" height="15">
<path d="M92.1998 7.85014C81.9538 8.43014 80.0778 18.3541 79.7598 20.2361C79.7598 20.2361 79.7678 20.2001 79.7838 20.1341C79.7758 20.1681 79.7678 20.2021 79.7598 20.2361C79.8858 19.7281 80.0358 19.2261 80.2118 18.7321C80.6898 17.2701 81.7438 16.0661 83.1298 15.4001C84.3618 14.8781 83.4318 18.1881 83.5718 21.3621C83.8518 17.9161 85.4918 13.9641 87.4358 12.4981C87.4658 12.4741 87.4458 12.4321 87.3938 12.4261C86.1678 12.5621 85.0058 13.0461 84.0458 13.8201C84.6158 12.2021 87.7178 9.27214 91.7218 8.30814C92.5898 8.09814 92.5518 7.84814 92.2538 7.84814C92.2378 7.84814 92.2198 7.84814 92.1998 7.85014Z" fill="white"/>
</mask>
<g mask="url(#mask6_18468_40804)">
<path d="M77.4658 8.25584L92.2038 5.63184L94.8838 20.9538L80.1478 23.5758L77.4658 8.25584Z" fill="url(#paint6_radial_18468_40804)"/>
</g>
<path d="M19.5039 7.21781C18.5999 8.06981 16.5239 8.87581 12.9099 7.59581C9.2959 6.31581 8.3639 8.36181 8.3639 9.10181C8.3059 9.78381 8.8119 10.3838 9.4939 10.4418C9.5759 10.4478 9.6559 10.4478 9.7379 10.4378C10.3839 10.4258 10.9179 9.93181 10.9819 9.28781C10.9419 8.94581 10.8279 8.61781 10.6439 8.32781C11.4639 8.32781 11.6359 8.32781 14.0839 9.47181C15.6319 10.1758 18.3239 11.4578 20.5639 9.26581C20.3259 8.52981 19.9679 7.83781 19.5039 7.21781ZM9.7379 9.74181C9.4879 9.74181 9.2839 9.53781 9.2839 9.28781C9.2839 9.03781 9.4879 8.83381 9.7379 8.83381C9.9879 8.83381 10.1919 9.03781 10.1919 9.28781C10.1919 9.53781 9.9899 9.74181 9.7379 9.74181Z" fill="#FCC978"/>
<path d="M19.6204 9.97998C20.1844 13.492 19.1864 17.074 16.8844 19.786C16.0104 20.924 15.9484 21.428 16.2584 21.918C15.4484 22.246 14.5544 22.296 13.7124 22.062C13.5604 21.842 13.4404 21.598 13.3604 21.342C14.4664 20.484 15.3964 19.42 16.0944 18.206C17.5844 15.908 18.2904 13.19 18.1064 10.458C18.6364 10.392 19.1504 10.232 19.6204 9.97998Z" fill="#FCC978"/>
<path d="M17.9462 10.4058L14.8662 17.4238C14.8962 17.4678 14.9282 17.5118 14.9582 17.5538L14.9742 17.5618L18.1242 10.3838C18.0662 10.3938 18.0082 10.4018 17.9462 10.4058Z" fill="#FCC978"/>
<path d="M14.5059 16.8099C14.5359 16.8679 14.5679 16.9259 14.5999 16.9839L17.4839 10.4119L17.3159 10.4019L14.5059 16.8099Z" fill="#FCC978"/>
<path d="M14.1738 16.1281L14.2618 16.3181L16.8778 10.3561L16.7178 10.3281L14.1738 16.1281Z" fill="#FCC978"/>
<path d="M13.8457 15.4422L13.9337 15.6302L16.2997 10.2382L16.1457 10.1982L13.8457 15.4422Z" fill="#FCC978"/>
<path d="M13.5244 14.7359L13.6104 14.9279L15.7404 10.0739L15.5924 10.0239L13.5244 14.7359Z" fill="#FCC978"/>
<path d="M13.2061 14.0219L13.2921 14.2159L15.1981 9.87387L15.0521 9.81787L13.2061 14.0219Z" fill="#FCC978"/>
<path d="M12.8906 13.3059L12.9746 13.5019L14.6646 9.64994L14.5226 9.58594L12.8906 13.3059Z" fill="#FCC978"/>
<path d="M13.9962 9.3501L12.5762 12.5861L12.6602 12.7821L14.1382 9.4161L14.1162 9.4061L13.9962 9.3501Z" fill="#FCC978"/>
<path d="M12.2617 11.866L12.3457 12.062L13.6137 9.17196L13.4717 9.10596L12.2617 11.866Z" fill="#FCC978"/>
<path d="M11.9482 11.1422L12.0322 11.3382L13.0882 8.93221L12.9442 8.86621L11.9482 11.1422Z" fill="#FCC978"/>
<path d="M11.6338 10.424L11.7198 10.62L12.5598 8.70604L12.4138 8.64404L11.6338 10.424Z" fill="#FCC978"/>
<path d="M10.6457 8.32812C10.8157 8.41412 11.0937 8.50613 11.4697 9.31413C11.4697 9.31413 13.8557 14.6781 14.4017 15.8041C14.4017 15.8041 15.2617 17.8161 16.0937 18.2101C15.3077 19.6081 14.2017 20.8021 12.8677 21.6941C12.8477 21.7121 12.8197 21.7101 12.8017 21.6901L12.7917 21.6701C11.7437 19.2621 10.9537 15.1061 9.86574 10.8741C9.75774 10.4541 9.60774 10.4401 9.51174 10.4321C9.50374 10.4241 11.5017 10.3361 10.6457 8.32812Z" fill="#FCC978"/>
<mask id="mask7_18468_40804" style="mask-type:luminance" maskUnits="userSpaceOnUse" x="8" y="7" width="13" height="11">
<path d="M20.5639 9.26386C20.3279 8.52786 19.9699 7.83586 19.5039 7.21586C18.5999 8.06786 16.5239 8.87386 12.9099 7.59386C9.2959 6.31386 8.3639 8.35986 8.3639 9.09986C8.3059 9.78186 8.8119 10.3819 9.4939 10.4399C9.5759 10.4459 9.6559 10.4459 9.7379 10.4359C10.3839 10.4239 10.9179 9.92986 10.9819 9.28586C10.9419 8.94386 10.8279 8.61586 10.6439 8.32586C11.2459 8.29986 11.8459 8.43186 12.3839 8.70386L11.6339 10.4239L11.7199 10.6199L12.5319 8.77186C12.6499 8.82186 12.7779 8.87786 12.9199 8.93986L11.9519 11.1479L12.0379 11.3439L13.0699 9.00386L13.4579 9.17786L12.2759 11.8699L12.3619 12.0659L13.5999 9.24386L13.9879 9.41986L12.5799 12.5839L12.6659 12.7799L14.1139 9.47986L14.5019 9.65386L12.8999 13.3059L12.9859 13.4999L14.6459 9.71786C14.7759 9.77186 14.9039 9.82786 15.0339 9.88386L13.2179 14.0239L13.3039 14.2179L15.1799 9.94186C15.3099 9.99186 15.4379 10.0419 15.5739 10.0899L13.5359 14.7339L13.6219 14.9259L15.7239 10.1379C15.8539 10.1819 15.9919 10.2239 16.1299 10.2679L13.8579 15.4459L13.9459 15.6339L16.2819 10.3079C16.4199 10.3439 16.5599 10.3739 16.7019 10.3999L14.1859 16.1319L14.2739 16.3219L16.8539 10.4279C16.9979 10.4519 17.1439 10.4679 17.2919 10.4799L14.5159 16.8099C14.5459 16.8679 14.5779 16.9259 14.6099 16.9839L17.4619 10.4819C17.6159 10.4899 17.7699 10.4899 17.9239 10.4819L14.8759 17.4279C14.9059 17.4719 14.9379 17.5159 14.9679 17.5579L14.9839 17.5659L18.0999 10.4699C19.0319 10.3679 19.9079 9.94186 20.5639 9.26386ZM9.7399 9.73786C9.4899 9.73786 9.2859 9.53386 9.2859 9.28386C9.2859 9.03386 9.4899 8.82986 9.7399 8.82986C9.9899 8.82986 10.1939 9.03386 10.1939 9.28386C10.1959 9.53386 9.9939 9.73986 9.7439 9.74186H9.7379L9.7399 9.73786Z" fill="white"/>
</mask>
<g mask="url(#mask7_18468_40804)">
<path d="M18.066 9.43611C18.19 9.47811 18.31 9.52611 18.428 9.58011C18.546 9.63211 18.664 9.68411 18.786 9.72611C18.904 9.76811 19.03 9.79211 19.156 9.79411C19.282 9.79011 19.408 9.76811 19.528 9.72811C19.65 9.69011 19.77 9.64211 19.89 9.59811C20.01 9.55411 20.114 9.50811 20.23 9.46811C20.338 9.35811 20.4 9.28811 20.4 9.28811V9.27611L20.28 9.31011C20.158 9.35011 20.038 9.39811 19.918 9.44011C19.796 9.48211 19.676 9.53411 19.55 9.57011C19.424 9.61011 19.294 9.63211 19.162 9.63611C19.03 9.63211 18.9 9.60811 18.774 9.56211C18.652 9.51811 18.53 9.46811 18.412 9.41211L18.264 9.34611L18.328 9.31611L18.436 9.36211C18.554 9.41411 18.672 9.46611 18.794 9.50811C18.912 9.55011 19.038 9.57411 19.164 9.57611C19.29 9.57211 19.416 9.55011 19.536 9.51011C19.658 9.47211 19.778 9.42411 19.898 9.38011C20.018 9.33611 20.138 9.28411 20.264 9.24211L20.382 9.20811L20.336 9.07811L20.284 9.09411C20.162 9.13411 20.042 9.18211 19.922 9.22411C19.8 9.26611 19.68 9.31811 19.554 9.35411C19.428 9.39411 19.298 9.41611 19.166 9.42011C19.034 9.41611 18.904 9.39211 18.778 9.34611C18.678 9.31211 18.584 9.27211 18.49 9.22811L18.546 9.19411C18.628 9.23011 18.712 9.26411 18.794 9.29211C18.912 9.33411 19.038 9.35811 19.164 9.36011C19.29 9.35611 19.416 9.33411 19.536 9.29411C19.658 9.25611 19.778 9.20811 19.898 9.16411C20.018 9.12011 20.138 9.06811 20.264 9.02611L20.314 9.01011L20.264 8.88011C20.15 8.91811 20.036 8.96211 19.92 9.01011C19.8 9.06011 19.678 9.10211 19.552 9.14011C19.426 9.18011 19.296 9.20211 19.164 9.20611C19.032 9.20211 18.902 9.17811 18.776 9.13211L18.684 9.09811L18.736 9.06011L18.792 9.08011C18.91 9.12211 19.036 9.14611 19.162 9.14811C19.288 9.14411 19.414 9.12211 19.534 9.08211C19.656 9.04411 19.776 8.99611 19.896 8.95211C20.016 8.90811 20.122 8.86211 20.24 8.82211L20.19 8.69211C20.1 8.72411 20.01 8.76011 19.92 8.79411C19.8 8.84411 19.678 8.88611 19.552 8.92411C19.426 8.96411 19.296 8.98611 19.164 8.99011C19.064 8.98811 18.964 8.97411 18.868 8.94411L18.918 8.89811C18.998 8.91811 19.082 8.93011 19.164 8.93011C19.29 8.92611 19.416 8.90411 19.536 8.86411C19.658 8.82611 19.778 8.77811 19.898 8.73411C19.988 8.70011 20.076 8.66411 20.166 8.63011L20.114 8.50011L19.922 8.57411C19.802 8.62011 19.68 8.66811 19.554 8.70411C19.428 8.74411 19.298 8.76611 19.166 8.77011C19.126 8.77011 19.086 8.76611 19.046 8.76011L19.092 8.70811H19.166C19.292 8.70411 19.418 8.68211 19.538 8.64211C19.66 8.60411 19.78 8.55611 19.9 8.51211L20.09 8.43811L20.034 8.31611L19.922 8.36011C19.802 8.40611 19.68 8.45411 19.554 8.49011C19.442 8.52611 19.324 8.54811 19.206 8.55411L19.248 8.49411C19.346 8.48411 19.442 8.46411 19.536 8.43411C19.658 8.39611 19.778 8.34811 19.898 8.30411L20.006 8.26211L19.948 8.14211L19.92 8.15211C19.8 8.20211 19.678 8.24411 19.552 8.28211C19.486 8.30211 19.418 8.31811 19.348 8.33211L19.382 8.26411C19.432 8.25411 19.482 8.24011 19.532 8.22411C19.654 8.18611 19.774 8.13811 19.894 8.09411L19.918 8.08411L19.858 7.96611C19.758 8.00411 19.656 8.04211 19.552 8.07411L19.462 8.09811L19.49 8.03011L19.536 8.01811C19.636 7.98811 19.734 7.95011 19.83 7.91211L19.764 7.79411C19.694 7.82011 19.624 7.84611 19.552 7.86611C19.56 7.84211 19.566 7.81811 19.572 7.79611C19.628 7.77811 19.682 7.75811 19.738 7.73811C19.714 7.69411 19.69 7.65411 19.668 7.61811L19.61 7.63811V7.57411L19.63 7.56611C19.59 7.50211 19.554 7.45211 19.526 7.41211C18.992 10.8141 14.038 8.94811 12.524 8.34011C9.58803 7.26611 9.08203 8.80011 9.08203 8.80011C9.39403 8.24811 10.076 8.02811 10.652 8.29211C12.386 8.29211 14.744 10.6661 18.026 10.6661C18.664 10.5961 19.262 10.3241 19.736 9.89211L19.686 9.92011L19.556 9.96411C19.43 10.0041 19.3 10.0261 19.168 10.0301C19.036 10.0261 18.906 10.0021 18.78 9.95611C18.658 9.91211 18.536 9.86211 18.418 9.80611C18.302 9.75211 18.182 9.70411 18.06 9.66211C17.94 9.62011 17.814 9.60211 17.688 9.61011C17.56 9.62211 17.436 9.64811 17.316 9.69011C17.194 9.73011 17.074 9.77811 16.954 9.82011C16.834 9.86211 16.712 9.91411 16.588 9.95011C16.462 9.99011 16.332 10.0121 16.2 10.0161C16.068 10.0121 15.938 9.98811 15.812 9.94211C15.69 9.89811 15.57 9.84811 15.452 9.79211C15.336 9.73611 15.216 9.68811 15.094 9.64611C14.974 9.60411 14.846 9.58611 14.718 9.59411C14.65 9.59811 14.582 9.60811 14.516 9.62411L14.476 9.60611C14.554 9.58411 14.636 9.57011 14.718 9.56411C14.85 9.55611 14.98 9.57411 15.106 9.61611C15.23 9.65811 15.35 9.70611 15.468 9.76011C15.586 9.81211 15.704 9.86411 15.826 9.90611C15.946 9.95011 16.072 9.97211 16.2 9.97611C16.328 9.97211 16.454 9.95011 16.576 9.91011C16.706 9.87211 16.818 9.82411 16.938 9.78011C17.058 9.73611 17.178 9.68411 17.302 9.64211C17.428 9.59811 17.558 9.57011 17.69 9.55611C17.822 9.54811 17.952 9.56611 18.078 9.60811C18.202 9.65011 18.322 9.69811 18.44 9.75211C18.558 9.80411 18.676 9.85611 18.798 9.89811C18.916 9.94011 19.042 9.96411 19.168 9.96611C19.294 9.96211 19.42 9.94011 19.54 9.90011C19.648 9.86611 19.754 9.82611 19.86 9.78411C19.964 9.69411 20.054 9.61211 20.132 9.53611L19.924 9.61611C19.804 9.66211 19.682 9.71011 19.556 9.74611C19.43 9.78611 19.3 9.80811 19.168 9.81211C19.036 9.80811 18.906 9.78411 18.78 9.73811C18.658 9.69411 18.536 9.64411 18.418 9.58811C18.302 9.53411 18.182 9.48411 18.06 9.44411L17.982 9.42011L18.068 9.39211L18.066 9.43611ZM18.024 10.4681L17.92 10.4741C17.84 10.4581 17.76 10.4541 17.678 10.4621C17.63 10.4661 17.584 10.4741 17.538 10.4841H17.38C17.476 10.4521 17.576 10.4321 17.676 10.4201C17.806 10.4101 17.938 10.4261 18.064 10.4661H18.074L18.024 10.4681ZM18.328 10.4261C18.238 10.3841 18.144 10.3481 18.05 10.3161C17.93 10.2741 17.804 10.2561 17.678 10.2641C17.55 10.2761 17.426 10.3021 17.306 10.3441C17.21 10.3741 17.116 10.4121 17.022 10.4481H16.978L16.932 10.4421C17.05 10.3961 17.168 10.3481 17.29 10.3121C17.416 10.2681 17.546 10.2401 17.678 10.2261C17.81 10.2181 17.94 10.2361 18.066 10.2781C18.18 10.3141 18.294 10.3581 18.404 10.4081L18.328 10.4261ZM18.602 10.3381L18.406 10.2561C18.29 10.2021 18.17 10.1541 18.048 10.1121C17.928 10.0701 17.802 10.0521 17.676 10.0601C17.548 10.0721 17.424 10.0981 17.304 10.1401C17.182 10.1801 17.062 10.2281 16.942 10.2701C16.822 10.3121 16.734 10.3501 16.628 10.3841L16.546 10.3681H16.564C16.694 10.3301 16.806 10.2821 16.926 10.2381C17.046 10.1941 17.166 10.1421 17.29 10.1001C17.416 10.0561 17.546 10.0281 17.678 10.0141C17.81 10.0061 17.94 10.0241 18.066 10.0661C18.19 10.1081 18.31 10.1561 18.428 10.2101C18.512 10.2481 18.596 10.2841 18.686 10.3181L18.602 10.3381ZM15.092 9.84411C15.216 9.88611 15.336 9.93411 15.454 9.98811C15.572 10.0401 15.69 10.0921 15.812 10.1341C15.932 10.1781 16.058 10.2001 16.186 10.2041C16.314 10.2001 16.44 10.1781 16.562 10.1381C16.692 10.1001 16.804 10.0521 16.924 10.0081C17.044 9.96411 17.164 9.91211 17.288 9.87011C17.414 9.82611 17.544 9.79811 17.676 9.78411C17.808 9.77611 17.938 9.79411 18.064 9.83611C18.188 9.87811 18.308 9.92611 18.426 9.98011C18.544 10.0321 18.662 10.0841 18.784 10.1261C18.86 10.1521 18.936 10.1721 19.014 10.1841L18.908 10.2201C18.86 10.2081 18.812 10.1941 18.766 10.1781C18.644 10.1341 18.522 10.0841 18.404 10.0281C18.288 9.97411 18.168 9.92611 18.046 9.88411C17.926 9.84211 17.8 9.82411 17.674 9.83211C17.546 9.84411 17.422 9.87011 17.302 9.91211C17.18 9.95211 17.06 10.0001 16.94 10.0421C16.82 10.0841 16.698 10.1361 16.574 10.1721C16.448 10.2121 16.318 10.2341 16.186 10.2381C16.142 10.2381 16.1 10.2341 16.056 10.2281C15.968 10.2161 15.882 10.1941 15.798 10.1641C15.73 10.1401 15.668 10.1141 15.6 10.0861L15.438 10.0221C15.322 9.96611 15.202 9.91811 15.08 9.87611C15.022 9.85811 14.964 9.84411 14.906 9.83411L14.806 9.79211C14.904 9.80011 15 9.81811 15.092 9.84811V9.84411ZM15.812 9.52211C15.932 9.56611 16.058 9.58811 16.186 9.59211C16.244 9.59211 16.304 9.58611 16.362 9.57611L16.508 9.58411C16.404 9.61411 16.296 9.62811 16.188 9.63011C16.056 9.62611 15.926 9.60211 15.8 9.55611C15.752 9.54011 15.704 9.52211 15.658 9.50211L15.812 9.52211ZM13.218 8.99211C13.146 8.99011 13.072 8.98211 13.002 8.96811L12.912 8.92811C13.012 8.95411 13.114 8.96811 13.216 8.97011C13.31 8.96811 13.402 8.95611 13.494 8.93211L13.522 8.94211H13.534C13.432 8.97011 13.328 8.98611 13.222 8.98811L13.218 8.99211ZM13.456 9.17411L13.426 9.16011C13.486 9.14811 13.544 9.13211 13.602 9.11411C13.664 9.09411 13.732 9.07211 13.81 9.04211H13.844C13.75 9.07811 13.676 9.10211 13.608 9.12411C13.54 9.14411 13.504 9.17011 13.458 9.18011L13.456 9.17411ZM13.732 9.30411H13.724L13.696 9.29211H13.704C13.79 9.26211 13.876 9.22811 13.962 9.19411L14.092 9.14211H14.104L14.13 9.15011L13.986 9.20611L13.966 9.21411C13.892 9.24411 13.812 9.27411 13.732 9.30211V9.30411ZM13.984 9.42011L13.954 9.40611H13.964L13.994 9.39411C14.102 9.35211 14.214 9.30611 14.326 9.26411L14.418 9.23611L14.464 9.24811H14.46C14.418 9.26011 14.374 9.27211 14.33 9.28811C14.216 9.32611 14.11 9.36611 14.002 9.41011L13.984 9.42011ZM16.942 9.65011C16.822 9.70011 16.7 9.74211 16.576 9.78011C16.45 9.82011 16.32 9.84211 16.188 9.84611C16.056 9.84211 15.926 9.81811 15.8 9.77211C15.678 9.72811 15.558 9.67811 15.44 9.62211C15.324 9.56611 15.204 9.51811 15.082 9.47611C14.962 9.43411 14.834 9.41611 14.706 9.42411C14.578 9.43611 14.452 9.46211 14.33 9.50411L14.216 9.54411L14.184 9.52811L14.324 9.47811C14.45 9.43411 14.58 9.40611 14.712 9.39411C14.844 9.38611 14.974 9.40411 15.1 9.44611C15.224 9.48811 15.344 9.53611 15.462 9.59011C15.58 9.64211 15.698 9.69411 15.82 9.73611C15.94 9.78011 16.066 9.80411 16.194 9.80611C16.322 9.80211 16.448 9.78011 16.57 9.74011C16.7 9.70211 16.812 9.65411 16.932 9.61011L16.952 9.60211H17.072L16.942 9.65011Z" fill="#513D2E"/>
</g>
<mask id="mask8_18468_40804" style="mask-type:luminance" maskUnits="userSpaceOnUse" x="13" y="9" width="7" height="14">
<path d="M19.6204 9.97998C20.1844 13.492 19.1864 17.074 16.8844 19.786C16.0104 20.924 15.9484 21.428 16.2584 21.918C15.4484 22.246 14.5544 22.296 13.7124 22.062C13.5604 21.842 13.4404 21.598 13.3604 21.342C14.4664 20.484 15.3964 19.42 16.0944 18.206C17.5844 15.908 18.2904 13.19 18.1064 10.458C18.6364 10.392 19.1504 10.232 19.6204 9.97998Z" fill="white"/>
</mask>
<g mask="url(#mask8_18468_40804)">
<path d="M19.6498 10.0382C19.6158 10.0562 19.5978 10.0622 19.5538 10.0842C19.5738 10.7742 19.4578 10.7822 18.8958 10.9582C18.1858 11.1982 18.2318 10.9962 18.0498 12.7122V10.3082L19.6478 9.88818L19.6498 10.0382Z" fill="#513D2E"/>
</g>
<mask id="mask9_18468_40804" style="mask-type:luminance" maskUnits="userSpaceOnUse" x="13" y="9" width="7" height="14">
<path d="M19.6204 9.97998C20.1844 13.492 19.1864 17.074 16.8844 19.786C16.0104 20.924 15.9484 21.428 16.2584 21.918C15.4484 22.246 14.5544 22.296 13.7124 22.062C13.5604 21.842 13.4404 21.598 13.3604 21.342C14.4664 20.484 15.3964 19.42 16.0944 18.206C17.5844 15.908 18.2904 13.19 18.1064 10.458C18.6364 10.392 19.1504 10.232 19.6204 9.97998Z" fill="white"/>
</mask>
<g mask="url(#mask9_18468_40804)">
<path d="M13.6003 21.662C13.7303 21.624 13.8443 21.576 13.9643 21.532C14.0843 21.488 14.2043 21.436 14.3283 21.394C14.4543 21.35 14.5843 21.322 14.7163 21.31C14.7583 21.306 14.8023 21.306 14.8463 21.31C14.8763 21.26 14.9103 21.204 14.9503 21.144C14.8763 21.13 14.7983 21.124 14.7223 21.13C14.5943 21.142 14.4683 21.17 14.3463 21.212C14.2163 21.252 14.1043 21.3 13.9823 21.342C13.8603 21.384 13.7403 21.436 13.6163 21.472L13.5783 21.484L13.6083 21.458L13.6183 21.45C13.7383 21.412 13.8563 21.366 13.9723 21.32C14.0903 21.274 14.2123 21.224 14.3363 21.182C14.4623 21.138 14.5923 21.11 14.7243 21.098C14.8063 21.092 14.8903 21.096 14.9723 21.114C15.0043 21.068 15.0403 21.018 15.0823 20.964C14.9683 20.926 14.8483 20.91 14.7283 20.918C14.6003 20.93 14.4743 20.956 14.3523 21C14.2343 21.038 14.1183 21.084 14.0023 21.13L14.0583 21.082C14.1523 21.044 14.2483 21.008 14.3463 20.974C14.4723 20.93 14.6023 20.902 14.7343 20.89C14.8623 20.882 14.9903 20.898 15.1103 20.94C15.1443 20.898 15.1803 20.85 15.2203 20.802C15.1843 20.788 15.1503 20.774 15.1123 20.764C14.9923 20.722 14.8643 20.704 14.7363 20.712C14.6323 20.722 14.5283 20.742 14.4283 20.772L14.4763 20.73C14.5603 20.706 14.6463 20.69 14.7343 20.682C14.8663 20.674 14.9963 20.692 15.1223 20.734C15.1623 20.746 15.2023 20.762 15.2423 20.776L15.3503 20.646C15.2723 20.612 15.1923 20.58 15.1123 20.554C14.9923 20.512 14.8643 20.494 14.7383 20.502L14.7723 20.472C14.8903 20.47 15.0083 20.488 15.1203 20.526C15.2063 20.554 15.2903 20.586 15.3723 20.622L15.4803 20.492H15.4683C15.3523 20.436 15.2323 20.388 15.1103 20.346C15.0603 20.33 15.0103 20.316 14.9603 20.308L14.9883 20.284C15.0323 20.294 15.0743 20.306 15.1183 20.318C15.2423 20.36 15.3623 20.408 15.4803 20.462L15.5003 20.472L15.6103 20.342L15.4643 20.278C15.3583 20.228 15.2503 20.184 15.1383 20.148L15.1663 20.124C15.2743 20.162 15.3763 20.206 15.4783 20.254L15.6343 20.322L15.7483 20.192C15.6523 20.154 15.5583 20.112 15.4623 20.07L15.3003 20L15.3103 19.974L15.4583 20.038C15.5563 20.082 15.6563 20.126 15.7563 20.168L15.8783 20.038L15.8063 20.014C15.6843 19.97 15.5643 19.92 15.4463 19.864L15.4743 19.84C15.5883 19.892 15.7043 19.942 15.8223 19.982L15.9123 20.01L16.0423 19.868C15.9623 19.854 15.8823 19.834 15.8063 19.808C15.7363 19.784 15.6663 19.756 15.5963 19.726L15.6243 19.7C15.6883 19.728 15.7543 19.752 15.8163 19.774C15.9003 19.802 15.9863 19.822 16.0743 19.834L16.2323 19.67H16.1943C16.0623 19.666 15.9323 19.642 15.8063 19.596L15.7543 19.576L15.7843 19.548L15.8183 19.56C15.9383 19.604 16.0643 19.628 16.1923 19.63H16.2723L16.4723 19.418C16.3823 19.44 16.2903 19.452 16.1983 19.452C16.1063 19.45 16.0163 19.438 15.9283 19.414L15.9583 19.384C16.0363 19.404 16.1183 19.414 16.1983 19.414C16.3083 19.412 16.4183 19.394 16.5243 19.362C16.5963 19.286 16.6703 19.206 16.7463 19.124C16.6943 19.144 16.6383 19.162 16.5843 19.178C16.4583 19.218 16.3283 19.24 16.1963 19.244C16.1663 19.246 16.1363 19.246 16.1063 19.244L16.1403 19.21H16.1963C16.3243 19.206 16.4503 19.184 16.5723 19.144C16.6503 19.12 16.7283 19.092 16.8063 19.062C16.8783 18.982 16.9503 18.9 17.0263 18.812L16.9523 18.84C16.8323 18.89 16.7103 18.932 16.5863 18.97C16.4983 18.998 16.4083 19.016 16.3163 19.028L16.3603 18.982C16.4323 18.97 16.5043 18.952 16.5743 18.93C16.7043 18.892 16.8163 18.844 16.9363 18.8L17.0863 18.74C17.1503 18.666 17.2143 18.588 17.2783 18.508C17.1683 18.546 17.0603 18.588 16.9523 18.63C16.8443 18.672 16.7103 18.724 16.5863 18.76L16.5583 18.768L16.6103 18.708C16.7203 18.672 16.8263 18.63 16.9363 18.588C17.0463 18.546 17.1783 18.492 17.3003 18.45L17.3303 18.44C17.3843 18.372 17.4363 18.304 17.4903 18.234C17.4303 18.248 17.3723 18.264 17.3143 18.284C17.1923 18.324 17.0723 18.372 16.9523 18.414L16.8223 18.464L16.8783 18.396L16.9383 18.372C17.0583 18.324 17.1803 18.276 17.3023 18.234C17.3783 18.208 17.4563 18.188 17.5363 18.17C17.5803 18.11 17.6243 18.05 17.6663 17.99C17.5463 18.004 17.4283 18.03 17.3143 18.068C17.2343 18.094 17.1543 18.124 17.0743 18.154L17.1283 18.086C17.1843 18.064 17.2423 18.044 17.3003 18.024C17.4263 17.98 17.5563 17.952 17.6883 17.938H17.7063L17.8163 17.778C17.7743 17.774 17.7303 17.774 17.6863 17.778C17.5583 17.79 17.4343 17.816 17.3143 17.858H17.3023L17.3503 17.794C17.4583 17.758 17.5723 17.734 17.6863 17.724C17.7403 17.718 17.7943 17.718 17.8483 17.724L17.9443 17.58C17.8603 17.56 17.7723 17.554 17.6863 17.56C17.6223 17.566 17.5583 17.574 17.4963 17.59L17.5363 17.534C17.5843 17.524 17.6343 17.518 17.6843 17.514C17.7803 17.506 17.8763 17.514 17.9703 17.538L18.0563 17.408C17.9383 17.368 17.8143 17.35 17.6883 17.356H17.6623L17.6963 17.306C17.8243 17.3 17.9543 17.318 18.0763 17.358H18.0823L18.1603 17.228L18.0603 17.192C17.9763 17.164 17.8903 17.146 17.8023 17.14L17.8323 17.094C17.9143 17.102 17.9943 17.12 18.0743 17.146C18.1123 17.158 18.1483 17.172 18.1843 17.184L18.2563 17.054C18.1903 17.026 18.1263 17 18.0583 16.978C18.0163 16.964 17.9723 16.952 17.9283 16.944L17.9563 16.9C17.9963 16.908 18.0363 16.92 18.0763 16.932C18.1463 16.954 18.2163 16.982 18.2863 17.01L18.3543 16.88C18.2583 16.836 18.1603 16.798 18.0623 16.764H18.0423L18.0703 16.72H18.0803C18.1843 16.754 18.2843 16.794 18.3843 16.838L18.4503 16.708L18.4223 16.696C18.3323 16.656 18.2403 16.614 18.1483 16.58L18.1743 16.534C18.2663 16.568 18.3543 16.608 18.4443 16.646L18.4743 16.658L18.5383 16.528L18.4203 16.504L18.2443 16.426L18.2703 16.38L18.4423 16.454L18.5583 16.506L18.6183 16.376C18.5503 16.348 18.4883 16.318 18.4203 16.29L18.3383 16.254L18.3623 16.208L18.4403 16.242L18.6403 16.328L18.7003 16.198C18.6083 16.162 18.5163 16.122 18.4283 16.082L18.4523 16.036C18.5423 16.076 18.6323 16.114 18.7223 16.15L18.7783 16.02C18.6903 15.99 18.6043 15.954 18.5203 15.912L18.5443 15.864C18.6303 15.902 18.7163 15.938 18.8023 15.966L18.8583 15.836L18.7823 15.812C18.7223 15.792 18.6603 15.766 18.6023 15.742L18.6263 15.692C18.6823 15.716 18.7403 15.738 18.8003 15.758L18.8783 15.782L18.9323 15.644C18.8823 15.632 18.8303 15.618 18.7823 15.6L18.6863 15.564L18.7103 15.514L18.8023 15.546C18.8523 15.562 18.9023 15.578 18.9543 15.588L19.0063 15.446C18.9303 15.432 18.8563 15.414 18.7843 15.388H18.7703L18.7923 15.338H18.8023C18.8763 15.362 18.9503 15.382 19.0263 15.394L19.0763 15.248C19.0003 15.24 18.9243 15.224 18.8483 15.202L18.8703 15.15C18.9423 15.172 19.0183 15.186 19.0943 15.192C19.1103 15.142 19.1263 15.094 19.1423 15.042C19.0703 15.038 18.9983 15.028 18.9283 15.012L18.9503 14.96C19.0183 14.976 19.0903 14.986 19.1603 14.988C19.1763 14.938 19.1903 14.886 19.2063 14.836H19.1603C19.1043 14.836 19.0463 14.83 18.9923 14.82L19.0123 14.766C19.0623 14.774 19.1103 14.778 19.1603 14.778H19.2103C19.2243 14.728 19.2383 14.676 19.2523 14.624H19.1623C19.1303 14.626 19.0983 14.626 19.0663 14.624L19.0863 14.568H19.1603C19.1963 14.568 19.2303 14.566 19.2663 14.562C19.2783 14.51 19.2923 14.458 19.3043 14.406C19.2563 14.412 19.2083 14.416 19.1603 14.416H19.1383L19.1583 14.36C19.2123 14.36 19.2663 14.354 19.3183 14.346C19.3303 14.294 19.3423 14.242 19.3543 14.19C19.3063 14.2 19.2563 14.206 19.2063 14.208L19.2263 14.148C19.2743 14.144 19.3223 14.138 19.3683 14.128C19.3803 14.076 19.3903 14.024 19.4003 13.972C19.3583 13.982 19.3143 13.988 19.2703 13.992L19.2883 13.932C19.3283 13.928 19.3683 13.92 19.4083 13.908C19.4183 13.856 19.4283 13.804 19.4363 13.752L19.3323 13.772L19.3483 13.71L19.4443 13.688C19.4543 13.636 19.4603 13.584 19.4703 13.534L19.3883 13.554L19.4043 13.49L19.4783 13.47C19.4863 13.418 19.4943 13.368 19.5003 13.316L19.4423 13.332L19.4583 13.268L19.5083 13.254C19.5143 13.204 19.5223 13.152 19.5283 13.102L19.4943 13.112L19.5083 13.046H19.5363C19.6043 12.416 19.6243 11.78 19.5963 11.146C19.4623 14.392 17.9903 17.436 15.5303 19.556C15.9903 18.966 15.8643 18.652 16.2003 18.008C16.2003 18.008 14.2583 20.794 13.2783 21.278L13.4083 21.556C13.4323 21.542 13.4863 21.5 13.5003 21.526C13.5143 21.554 13.5363 21.594 13.5783 21.666L13.6003 21.662Z" fill="#513D2E"/>
</g>
<mask id="mask10_18468_40804" style="mask-type:luminance" maskUnits="userSpaceOnUse" x="13" y="9" width="7" height="14">
<path d="M19.6204 9.97998C20.1844 13.492 19.1864 17.074 16.8844 19.786C16.0104 20.924 15.9484 21.428 16.2584 21.918C15.4484 22.246 14.5544 22.296 13.7124 22.062C13.5604 21.842 13.4404 21.598 13.3604 21.342C14.4664 20.484 15.3964 19.42 16.0944 18.206C17.5844 15.908 18.2904 13.19 18.1064 10.458C18.6364 10.392 19.1504 10.232 19.6204 9.97998Z" fill="white"/>
</mask>
<g mask="url(#mask10_18468_40804)">
<path d="M14.7117 21.3357C14.5837 21.3477 14.4577 21.3757 14.3357 21.4177C14.2057 21.4577 14.0937 21.5057 13.9717 21.5477C13.8497 21.5897 13.7297 21.6417 13.6057 21.6777H13.5938C13.6238 21.7257 13.6578 21.7777 13.6938 21.8317C13.7837 21.8017 13.8737 21.7657 13.9617 21.7297C14.0817 21.6817 14.2017 21.6337 14.3257 21.5937C14.4517 21.5497 14.5817 21.5217 14.7137 21.5097H14.7298C14.7578 21.4517 14.7857 21.3937 14.8217 21.3297C14.7837 21.3257 14.7477 21.3297 14.7117 21.3357Z" fill="#513D2E"/>
</g>
<mask id="mask11_18468_40804" style="mask-type:luminance" maskUnits="userSpaceOnUse" x="13" y="9" width="7" height="14">
<path d="M19.6204 9.97998C20.1844 13.492 19.1864 17.074 16.8844 19.786C16.0104 20.924 15.9484 21.428 16.2584 21.918C15.4484 22.246 14.5544 22.296 13.7124 22.062C13.5604 21.842 13.4404 21.598 13.3604 21.342C14.4664 20.484 15.3964 19.42 16.0944 18.206C17.5844 15.908 18.2904 13.19 18.1064 10.458C18.6364 10.392 19.1504 10.232 19.6204 9.97998Z" fill="white"/>
</mask>
<g mask="url(#mask11_18468_40804)">
<path d="M14.3279 21.8099C14.4239 21.7779 14.5219 21.7519 14.6199 21.7359C14.6539 21.6679 14.6839 21.6059 14.7119 21.5459C14.5839 21.5579 14.4579 21.5839 14.3359 21.6259C14.2059 21.6659 14.0939 21.7139 13.9719 21.7559C13.8839 21.7899 13.7959 21.8239 13.7139 21.8539L13.7279 21.8719C13.8239 21.9039 13.9239 21.9199 14.0259 21.9219C14.1219 21.8839 14.2239 21.8439 14.3279 21.8099Z" fill="#513D2E"/>
</g>
<mask id="mask12_18468_40804" style="mask-type:luminance" maskUnits="userSpaceOnUse" x="13" y="9" width="7" height="14">
<path d="M19.6204 9.97998C20.1844 13.492 19.1864 17.074 16.8844 19.786C16.0104 20.924 15.9484 21.428 16.2584 21.918C15.4484 22.246 14.5544 22.296 13.7124 22.062C13.5604 21.842 13.4404 21.598 13.3604 21.342C14.4664 20.484 15.3964 19.42 16.0944 18.206C17.5844 15.908 18.2904 13.19 18.1064 10.458C18.6364 10.392 19.1504 10.232 19.6204 9.97998Z" fill="white"/>
</mask>
<g mask="url(#mask12_18468_40804)">
<path d="M14.3359 21.8341C14.2519 21.8621 14.1679 21.8921 14.0859 21.9241C14.2359 21.9201 14.3839 21.8921 14.5239 21.8401C14.5599 21.8261 14.5879 21.8001 14.6039 21.7661C14.5139 21.7821 14.4239 21.8061 14.3359 21.8341Z" fill="#513D2E"/>
</g>
<path d="M13.5397 20.9758C13.4157 21.0858 13.2837 21.1858 13.1437 21.2758C13.0137 21.3578 12.8777 21.2758 12.7417 21.0298C12.4517 20.3438 12.2077 19.6398 12.0137 18.9238C12.1437 19.1818 12.5737 20.3198 12.8637 20.9278C12.9557 21.0858 13.0277 21.2078 13.2577 21.1038L13.5397 20.9758Z" fill="#513D2E"/>
<path d="M10.2046 11.8622C10.2306 11.3142 9.94662 10.9682 10.3226 10.7702C10.5606 10.6402 10.5886 10.5322 10.5886 10.5322C10.5506 10.3422 10.4806 10.1582 10.3846 9.98821C10.3666 9.96421 10.3546 9.98821 10.3546 9.98821C10.1946 10.2322 9.93263 10.3902 9.64062 10.4182C10.0206 10.5362 10.0546 11.6202 10.2046 11.8622Z" fill="#513D2E"/>
<path d="M9.40423 8.98395C9.49023 8.88795 9.61223 8.83395 9.74023 8.83395H9.79223C9.82023 8.83195 9.84823 8.83195 9.87423 8.83395C10.0222 8.83395 10.1662 8.87395 10.2922 8.94995C10.1082 8.64595 9.71023 8.54795 9.40623 8.73395C9.20423 8.85595 9.08623 9.07796 9.09623 9.31396C9.09423 9.34396 9.09423 9.37595 9.09623 9.40595C9.14823 9.23395 9.25623 9.08595 9.40423 8.98395Z" fill="#513D2E"/>
<path d="M10.3682 9.04395C10.5002 9.38795 10.3322 9.77394 9.99023 9.91194C10.1262 9.90394 10.2562 9.85995 10.3682 9.78195C10.4082 9.76195 10.4562 9.77794 10.4762 9.81794L10.4822 9.83594C11.6142 12.5919 13.5242 18.5279 14.6622 20.1579L14.9482 19.8279C13.5042 18.0059 12.3882 13.9519 10.3682 9.04395Z" fill="#513D2E"/>
<mask id="mask13_18468_40804" style="mask-type:luminance" maskUnits="userSpaceOnUse" x="8" y="7" width="13" height="15">
<path d="M20.5643 9.26386C20.3283 8.52786 19.9703 7.83586 19.5043 7.21586C18.6003 8.06786 16.5243 8.87386 12.9103 7.59386C9.29631 6.31386 8.36431 8.35986 8.36431 9.09986C8.30431 9.76986 8.79831 10.3619 9.46831 10.4219C9.48231 10.4239 9.49631 10.4239 9.50831 10.4239H9.52831C9.62431 10.4339 9.75831 10.4779 9.86031 10.8659C10.9483 15.0959 11.7363 19.2519 12.7863 21.6619C12.7923 21.6859 12.8183 21.7019 12.8423 21.6959L12.8623 21.6859C14.2023 20.8019 15.3103 19.6059 16.0883 18.2019C15.2563 17.8079 14.3963 15.7959 14.3963 15.7959C13.8503 14.6699 11.4643 9.30586 11.4643 9.30586C11.0903 8.49786 10.8123 8.40186 10.6403 8.31986C11.4603 8.31986 11.6323 8.31986 14.0803 9.46386C15.6323 10.1739 18.3263 11.4559 20.5643 9.26386ZM9.28631 9.28386C9.28631 9.03386 9.49031 8.82986 9.74031 8.82986C9.99031 8.82986 10.1943 9.03386 10.1943 9.28386C10.1943 9.53386 9.99031 9.73786 9.74031 9.73786C9.49031 9.73786 9.28831 9.53586 9.28631 9.28586V9.28386Z" fill="white"/>
</mask>
<g mask="url(#mask13_18468_40804)">
<path d="M15.1562 17.4539L15.4042 17.3039L15.2602 17.0659L15.1722 17.1179L14.9742 17.5659L14.9582 17.5579C14.9262 17.5139 14.8962 17.4699 14.8662 17.4279L14.9742 17.1839C14.8962 17.0619 14.8602 17.0039 14.7882 16.8779L15.1202 16.6779L14.9362 16.3699L14.8462 16.4239L14.6002 16.9919C14.5682 16.9319 14.5362 16.8739 14.5062 16.8179L14.6142 16.5719C14.5622 16.4759 14.5122 16.3799 14.4662 16.2859C14.4462 16.2479 14.4662 16.2859 14.4342 16.2219L14.7982 16.0019L14.6122 15.6799L14.5222 15.7339L14.2642 16.3239L14.1762 16.1339L14.2802 15.8979V15.8859C14.2202 15.7559 14.1882 15.6899 14.1122 15.5239L14.4782 15.3039L14.2962 14.9859L14.2042 15.0419L13.9462 15.6379L13.8582 15.4499L13.9662 15.2019V15.1899C13.9022 15.0499 13.8742 14.9779 13.8042 14.8219L14.1662 14.6039L13.9822 14.2899L13.8902 14.3459L13.6322 14.9359L13.5462 14.7439L13.6362 14.4899C13.5702 14.3459 13.5362 14.2619 13.4682 14.1099L13.8222 13.8959L13.6362 13.5879L13.5422 13.6439L13.2842 14.2179L13.1982 14.0239L13.3042 13.7819C13.2382 13.6359 13.1982 13.5439 13.1302 13.3939L13.4762 13.1839L13.3062 12.8919L13.2102 12.9499L12.9682 13.5019L12.8822 13.3079L12.9842 13.0739C12.9202 12.9299 12.8762 12.8259 12.8122 12.6859L13.1502 12.4819L12.9822 12.1999L12.8862 12.2599L12.6542 12.7879L12.5682 12.5919L12.6662 12.3679C12.6022 12.2239 12.5522 12.1099 12.4902 11.9659L12.8182 11.7679L12.6602 11.5099L12.5602 11.5699L12.3482 12.0579L12.2622 11.8619L12.3542 11.6499L12.1662 11.2319L12.4842 11.0399L12.3442 10.8019L12.2442 10.8619L12.0362 11.3359L11.9502 11.1399L12.0382 10.9379L11.8542 10.5299L12.1622 10.3439L12.0182 10.1059L11.9162 10.1679L11.7202 10.6139L11.6362 10.4219L11.7202 10.2319L11.2602 9.19988C10.8002 8.16788 10.0902 8.29588 9.82617 8.36388C10.3362 8.29588 10.8202 8.61388 10.9622 9.10788C11.2802 9.88188 13.8242 16.1699 14.3522 17.1079C14.7482 17.8119 15.2202 18.5559 16.0982 18.2079C15.7902 18.2019 15.4602 17.8799 15.1562 17.4539Z" fill="#513D2E"/>
</g>
<path d="M11.9565 16.8121C11.9445 16.7781 11.9625 16.7401 11.9965 16.7281C12.0305 16.7161 12.0685 16.7341 12.0805 16.7681C12.0925 16.8021 12.0745 16.8401 12.0405 16.8521C12.0045 16.8641 11.9685 16.8461 11.9565 16.8121ZM13.3525 19.6501C13.4345 19.6141 13.5285 19.6501 13.5645 19.7321L13.5665 19.7361C13.5885 19.8141 13.5425 19.8961 13.4645 19.9181L13.4565 19.9201C13.3805 19.9541 13.2905 19.9241 13.2505 19.8501C13.2185 19.7761 13.2525 19.6881 13.3265 19.6561C13.3365 19.6521 13.3465 19.6481 13.3565 19.6461L13.3525 19.6501ZM13.2785 19.4921C13.1305 19.5401 13.0485 19.6961 13.0925 19.8461C13.1045 19.8941 13.1365 19.9341 13.1825 19.9561L13.1945 19.9641C13.1425 19.9481 13.0905 19.9261 13.0425 19.9001C12.9585 19.8601 12.8885 19.7941 12.8445 19.7121V19.6921L12.8305 19.6761L12.8105 19.6821L12.7525 19.7321L12.7325 19.7481V19.7681L12.7465 19.7901C12.8445 19.9341 12.9865 20.0441 13.1505 20.1021C13.2625 20.1341 13.3845 20.1301 13.4945 20.0881C13.6565 20.0501 13.7565 19.8881 13.7185 19.7241C13.7145 19.7121 13.7125 19.6981 13.7065 19.6861C13.6485 19.5161 13.4625 19.4241 13.2925 19.4841L13.2845 19.4861L13.2785 19.4921ZM13.3125 18.6501L13.4605 19.0601V19.0801L13.4425 19.0881H13.3365C13.3225 19.0901 13.3065 19.0821 13.3025 19.0681L13.2065 18.8001H13.1865L13.0185 18.8421C13.0645 18.8741 13.0965 18.9241 13.1085 18.9781C13.1505 19.1261 13.0665 19.2821 12.9205 19.3281C12.8405 19.3581 12.7545 19.3581 12.6745 19.3281C12.5945 19.2961 12.5325 19.2321 12.5025 19.1501C12.4565 19.0541 12.4565 18.9421 12.5025 18.8461C12.5045 18.8321 12.5185 18.8241 12.5305 18.8281H12.5345H12.5505L12.6605 18.8681L12.6725 18.8781L12.6645 18.8981C12.6245 18.9481 12.6165 19.0161 12.6445 19.0741C12.6725 19.1581 12.7645 19.2021 12.8485 19.1721L12.8645 19.1641C12.9385 19.1401 12.9805 19.0621 12.9585 18.9881C12.9445 18.9401 12.9065 18.9041 12.8585 18.8881L12.8405 18.8721L12.8225 18.8161L12.8085 18.7721V18.7541L12.8245 18.7441L13.2945 18.6141C13.3065 18.6161 13.3145 18.6261 13.3165 18.6381L13.3125 18.6501ZM12.8905 17.8361L12.9825 17.8121C12.9965 17.8061 13.0125 17.8141 13.0185 17.8281L13.1825 18.2881C13.1885 18.3001 13.1845 18.3141 13.1725 18.3201H13.1705L13.0405 18.3661C13.0405 18.3661 12.8285 18.3061 12.6525 18.2781C12.5165 18.2541 12.3765 18.2601 12.2445 18.2981C12.2345 18.3041 12.2205 18.3021 12.2145 18.2921L12.2125 18.2881L12.1565 18.1321V18.1141L12.1745 18.1021C12.3265 18.0761 12.4825 18.0801 12.6325 18.1181C12.7445 18.1401 12.8545 18.1701 12.9625 18.2081L12.9825 18.2161L12.8605 17.8761V17.8521L12.8785 17.8401L12.8905 17.8361ZM12.7925 17.2921L12.8045 17.3041L12.8805 17.3941V17.4001C12.8805 17.4101 12.8725 17.4201 12.8625 17.4241L12.0465 17.7161C12.0345 17.7221 12.0185 17.7181 12.0125 17.7041L12.0105 17.7001L11.9705 17.5881C11.9665 17.5761 11.9725 17.5621 11.9845 17.5561H11.9865L12.7605 17.2821C12.7705 17.2741 12.7865 17.2761 12.7945 17.2841L12.7925 17.2921ZM12.2425 16.7461L12.2105 16.6561L12.4925 16.5561L12.5225 16.6421C12.5105 16.7341 12.4265 16.8001 12.3325 16.7881C12.3005 16.7821 12.2685 16.7681 12.2425 16.7461ZM12.5245 16.4381L12.1165 16.5841L12.1085 16.6021V16.6041L12.1765 16.7921C12.2465 16.9001 12.3925 16.9301 12.5005 16.8601C12.5805 16.8081 12.6205 16.7121 12.6025 16.6181L12.5445 16.4561L12.5305 16.4421H12.5265L12.5245 16.4381ZM12.2425 15.8481H12.3105C12.3225 15.8461 12.3325 15.8521 12.3365 15.8641L12.4585 16.2041C12.4625 16.2141 12.4585 16.2241 12.4485 16.2281L12.4365 16.2361L12.3845 16.2681L12.3625 16.2601L12.3605 16.2561L12.3105 16.1161L11.8265 16.2861L11.8065 16.2801L11.8045 16.2761L11.7725 16.1841L11.7805 16.1661H11.7825L12.2685 15.9941L12.2505 15.9441L12.2245 15.8721V15.8621L12.2405 15.8561L12.2425 15.8481ZM12.2225 15.4621C12.2425 15.5201 12.2365 15.5841 12.2065 15.6381H12.1845L12.1065 15.6141L12.0925 15.6041V15.5901C12.1185 15.5681 12.1285 15.5321 12.1165 15.5001C12.1065 15.4541 12.0605 15.4281 12.0145 15.4381C11.9785 15.4601 11.9605 15.5021 11.9685 15.5441V15.5901C11.9765 15.6781 11.9225 15.7601 11.8385 15.7901C11.7245 15.8301 11.6005 15.7721 11.5605 15.6581L11.5585 15.6501C11.5165 15.5781 11.5245 15.4881 11.5805 15.4261C11.5865 15.4161 11.5965 15.4141 11.6065 15.4181L11.6825 15.4541V15.4701C11.6525 15.5061 11.6425 15.5541 11.6585 15.6001C11.6725 15.6481 11.7205 15.6761 11.7685 15.6641L11.7805 15.6601C11.8365 15.6401 11.8425 15.6101 11.8485 15.5141C11.8325 15.4221 11.8885 15.3341 11.9785 15.3081C12.0885 15.2821 12.1985 15.3521 12.2225 15.4621ZM11.3265 14.8821L11.9025 14.6761C11.9125 14.6721 11.9225 14.6781 11.9265 14.6861L12.0325 14.9821V14.9921L12.0185 15.0001H12.0085L11.9445 15.0081C11.9325 15.0081 11.9225 15.0021 11.9205 14.9921L11.8585 14.8201H11.8485L11.7185 14.8681L11.7805 15.0401L11.7705 15.0581H11.7685L11.7045 15.0821L11.6865 15.0741V15.0721L11.6265 14.9021L11.4525 14.9641L11.5225 15.1581V15.1781L11.4665 15.2121H11.4505L11.4425 15.2041L11.3105 14.9121L11.3205 14.8921H11.3285L11.3265 14.8821Z" fill="#513D2E"/>
<path d="M14.0362 18.3862C14.3422 18.2382 14.5842 18.1842 14.7882 18.1842C15.2742 18.1842 15.5422 18.4862 15.9102 18.5382V18.5342C15.5442 18.4842 15.2762 18.1802 14.7882 18.1802C14.5822 18.1802 14.3402 18.2342 14.0342 18.3822L14.0362 18.3862Z" fill="#513D2E"/>
<path d="M14.1124 18.5618C14.3724 18.4358 14.5924 18.3898 14.7824 18.3898C15.2364 18.3898 15.5204 18.6558 15.7884 18.7218V18.7178C15.5224 18.6518 15.2364 18.3858 14.7804 18.3838C14.5904 18.3838 14.3704 18.4298 14.1084 18.5578L14.1124 18.5618Z" fill="#513D2E"/>
<path d="M14.2081 18.7403C14.4021 18.6583 14.6081 18.6183 14.8141 18.6183C15.1201 18.6183 15.4221 18.7083 15.6841 18.8823L15.6861 18.8783C15.4241 18.7043 15.1201 18.6143 14.8141 18.6143C14.6081 18.6143 14.4021 18.6543 14.2061 18.7363L14.2081 18.7403Z" fill="#513D2E"/>
<path d="M14.3086 18.9038C14.4646 18.8518 14.6246 18.8258 14.7846 18.8258C15.0566 18.8258 15.3286 18.8998 15.5666 19.0438L15.5686 19.0398C15.3286 18.8938 15.0586 18.8198 14.7846 18.8198C14.6246 18.8198 14.4626 18.8458 14.3086 18.8978V18.9038Z" fill="#513D2E"/>
<path d="M14.4083 19.0862C14.5363 19.0402 14.6703 19.0182 14.8043 19.0182C15.0303 19.0182 15.2543 19.0822 15.4483 19.2062L15.4503 19.2022C15.2543 19.0782 15.0303 19.0142 14.8023 19.0142C14.6683 19.0142 14.5343 19.0362 14.4043 19.0822L14.4083 19.0862Z" fill="#513D2E"/>
<path d="M14.5186 19.2582C14.6066 19.2362 14.6966 19.2262 14.7866 19.2262C14.9766 19.2262 15.1646 19.2742 15.3346 19.3662L15.3366 19.3622C15.1666 19.2682 14.9766 19.2222 14.7866 19.2222C14.6966 19.2222 14.6066 19.2322 14.5166 19.2542L14.5186 19.2582Z" fill="#513D2E"/>
<path d="M14.6318 19.4442C14.6798 19.4382 14.7278 19.4342 14.7778 19.4342C14.9278 19.4342 15.0778 19.4662 15.2138 19.5302L15.2158 19.5262C15.0778 19.4622 14.9278 19.4302 14.7778 19.4302C14.7298 19.4302 14.6798 19.4342 14.6318 19.4402V19.4442Z" fill="#513D2E"/>
<path d="M14.7666 19.6501C14.7866 19.6481 14.8066 19.6481 14.8286 19.6481C14.9186 19.6481 15.0086 19.6641 15.0926 19.6921L15.0946 19.6881C15.0086 19.6581 14.9186 19.6421 14.8286 19.6421C14.8086 19.6421 14.7866 19.6421 14.7666 19.6441V19.6501Z" fill="#513D2E"/>
<path d="M13.9502 18.2058C14.2302 18.0638 14.5382 17.9898 14.8502 17.9898C14.9082 17.9898 14.9682 17.9918 15.0262 17.9978V17.9938C14.9682 17.9878 14.9082 17.9858 14.8502 17.9858C14.5382 17.9858 14.2282 18.0598 13.9502 18.2038V18.2058Z" fill="#513D2E"/>
<path d="M15.6963 18.2618C15.8023 18.3058 15.9123 18.3398 16.0263 18.3658V18.3618C15.9143 18.3378 15.8043 18.3038 15.6983 18.2578L15.6963 18.2618Z" fill="#513D2E"/>
<path d="M13.8584 18.028C14.1584 17.892 14.4764 17.8 14.8024 17.756V17.752C14.4764 17.796 14.1584 17.888 13.8584 18.024V18.028Z" fill="#513D2E"/>
<path d="M13.7803 17.8462C14.0603 17.7242 14.3503 17.6282 14.6483 17.5602V17.5562C14.3503 17.6242 14.0603 17.7202 13.7803 17.8422V17.8462Z" fill="#513D2E"/>
<path d="M13.7002 17.6681C13.9722 17.5501 14.2542 17.4521 14.5402 17.3761V17.3721C14.2542 17.4501 13.9722 17.5481 13.7002 17.6641V17.6681Z" fill="#513D2E"/>
<path d="M13.6104 17.4879C13.7204 17.4619 14.3604 17.1959 14.4224 17.1959H14.4244V17.1919H14.4224C14.3584 17.1919 13.7184 17.4559 13.6084 17.4839L13.6104 17.4879Z" fill="#513D2E"/>
<path d="M13.5322 17.2982C13.6622 17.2822 14.2122 17.0482 14.3202 17.0162V17.0122C14.2102 17.0442 13.6602 17.2762 13.5322 17.2942V17.2982Z" fill="#513D2E"/>
<path d="M13.4541 17.1021C13.7201 17.0281 13.9801 16.9381 14.2341 16.8341L14.2321 16.8301C13.9781 16.9361 13.7161 17.0241 13.4521 17.0981L13.4541 17.1021Z" fill="#513D2E"/>
<path d="M13.3741 16.908C13.6481 16.848 13.9141 16.762 14.1701 16.65L14.1681 16.646C13.9121 16.758 13.6461 16.844 13.3721 16.904L13.3741 16.908Z" fill="#513D2E"/>
<path d="M13.2842 16.6961C13.5562 16.6681 13.8202 16.5941 14.0662 16.4801L14.0642 16.4761C13.8182 16.5921 13.5542 16.6641 13.2822 16.6921L13.2842 16.6961Z" fill="#513D2E"/>
<path d="M13.2081 16.49C13.4761 16.476 13.7401 16.412 13.9821 16.296L13.9801 16.292C13.7381 16.406 13.4741 16.472 13.2061 16.486L13.2081 16.49Z" fill="#513D2E"/>
<path d="M13.1299 16.288C13.1399 16.288 13.1499 16.288 13.1599 16.288C13.4159 16.288 13.6699 16.234 13.9039 16.128L13.9019 16.124C13.6679 16.23 13.4139 16.284 13.1579 16.284C13.1479 16.284 13.1379 16.284 13.1279 16.284L13.1299 16.288Z" fill="#513D2E"/>
<path d="M13.0381 16.0639C13.0961 16.0699 13.1541 16.0739 13.2101 16.0739C13.4201 16.0739 13.6301 16.0299 13.8241 15.9459L13.8221 15.9419C13.6281 16.0259 13.4201 16.0679 13.2101 16.0679C13.1521 16.0679 13.0941 16.0639 13.0381 16.0579V16.0639Z" fill="#513D2E"/>
<path d="M12.9502 15.8323C13.0482 15.8563 13.1482 15.8683 13.2462 15.8683C13.4162 15.8683 13.5862 15.8323 13.7442 15.7623L13.7422 15.7603C13.5842 15.8303 13.4162 15.8663 13.2462 15.8663C13.1462 15.8663 13.0482 15.8543 12.9502 15.8303V15.8323Z" fill="#513D2E"/>
<path d="M12.8477 15.5862C12.9757 15.6382 13.1097 15.6642 13.2437 15.6642C13.3857 15.6642 13.5277 15.6362 13.6617 15.5782L13.6597 15.5762C13.5257 15.6342 13.3837 15.6622 13.2417 15.6622C13.1077 15.6622 12.9737 15.6362 12.8457 15.5842L12.8477 15.5862Z" fill="#513D2E"/>
<path d="M12.7686 15.3521C12.9166 15.4141 13.0746 15.4461 13.2326 15.4461C13.3526 15.4461 13.4706 15.4281 13.5866 15.3921V15.3901C13.4706 15.4261 13.3526 15.4441 13.2326 15.4441C13.0746 15.4441 12.9166 15.4121 12.7706 15.3501L12.7686 15.3521Z" fill="#513D2E"/>
<path d="M12.6777 15.106C12.8477 15.192 13.0357 15.234 13.2237 15.234C13.3177 15.234 13.4137 15.222 13.5077 15.2V15.198C13.4137 15.22 13.3197 15.232 13.2257 15.232C13.0377 15.232 12.8517 15.188 12.6817 15.104L12.6777 15.106Z" fill="#513D2E"/>
<path d="M12.582 14.858C12.794 14.968 13.028 15.024 13.266 15.024C13.318 15.024 13.37 15.022 13.42 15.016V15.012C13.368 15.018 13.316 15.02 13.266 15.02C13.03 15.02 12.796 14.964 12.584 14.854L12.582 14.858Z" fill="#513D2E"/>
<path d="M12.4844 14.6021C12.7464 14.7441 13.0404 14.8181 13.3384 14.8181V14.8141C13.0404 14.8141 12.7484 14.7401 12.4844 14.5981V14.6021Z" fill="#513D2E"/>
<path d="M12.3887 14.3502C12.6547 14.4982 12.9507 14.5862 13.2567 14.6082V14.6042C12.9527 14.5822 12.6567 14.4942 12.3907 14.3462L12.3887 14.3502Z" fill="#513D2E"/>
<path d="M12.292 14.1021C12.564 14.2461 12.86 14.3421 13.164 14.3901V14.3881C12.86 14.3401 12.566 14.2441 12.294 14.1001L12.292 14.1021Z" fill="#513D2E"/>
<path d="M12.1963 13.8541C12.4743 13.9881 12.7663 14.0961 13.0663 14.1741V14.1721C12.7663 14.0941 12.4763 13.9861 12.1963 13.8521V13.8541Z" fill="#513D2E"/>
<path d="M12.1006 13.6221C12.2786 13.6441 12.8126 13.9261 12.9806 13.9481V13.9461C12.8146 13.9261 12.2786 13.6421 12.1006 13.6201V13.6221Z" fill="#513D2E"/>
<path d="M12.0459 13.3941C12.2239 13.4161 12.7579 13.6981 12.9259 13.7201V13.7181C12.7599 13.6981 12.2239 13.4141 12.0459 13.3921V13.3941Z" fill="#513D2E"/>
<path d="M11.9424 13.1641C12.2424 13.2441 12.5364 13.3461 12.8224 13.4681L12.8244 13.4661C12.5384 13.3461 12.2444 13.2441 11.9444 13.1621L11.9424 13.1641Z" fill="#513D2E"/>
<path d="M11.8721 12.94C12.1741 13.018 12.4701 13.114 12.7581 13.228L12.7601 13.226C12.4701 13.112 12.1741 13.016 11.8741 12.938L11.8721 12.94Z" fill="#513D2E"/>
<path d="M11.7881 12.7341C11.8081 12.7281 11.8301 12.7261 11.8561 12.7261C12.0801 12.7261 12.4521 12.9241 12.5621 12.9541V12.9521C12.4521 12.9241 12.0801 12.7241 11.8541 12.7241C11.8301 12.7241 11.8061 12.7261 11.7861 12.7321L11.7881 12.7341Z" fill="#513D2E"/>
<path d="M12.0478 11.7138C11.9758 11.6998 11.9038 11.6938 11.8298 11.6938C11.6918 11.6938 11.5558 11.7178 11.4258 11.7658V11.7678C11.5558 11.7198 11.6918 11.6958 11.8298 11.6958C11.9018 11.6958 11.9758 11.7018 12.0478 11.7158V11.7138Z" fill="#513D2E"/>
<path d="M11.9465 11.4821C11.9045 11.4781 11.8625 11.4761 11.8205 11.4761C11.6605 11.4761 11.5005 11.5081 11.3525 11.5721V11.5741C11.5005 11.5101 11.6605 11.4781 11.8205 11.4781C11.8625 11.4781 11.9045 11.4801 11.9465 11.4841V11.4821Z" fill="#513D2E"/>
<path d="M11.4844 11.9501C11.5904 11.9101 11.7004 11.8921 11.8124 11.8921C11.9224 11.8921 12.0344 11.9121 12.1404 11.9501V11.9481C12.0344 11.9081 11.9244 11.8901 11.8124 11.8901C11.7004 11.8901 11.5904 11.9101 11.4844 11.9481V11.9501Z" fill="#513D2E"/>
<path d="M12.2506 12.1901C12.1226 12.1301 11.9826 12.1001 11.8426 12.1001C11.7466 12.1001 11.6506 12.1141 11.5566 12.1441V12.1461C11.6506 12.1181 11.7466 12.1021 11.8426 12.1021C11.9826 12.1021 12.1206 12.1321 12.2486 12.1921L12.2506 12.1901Z" fill="#513D2E"/>
<path d="M11.6182 12.342C11.6962 12.324 11.7742 12.314 11.8542 12.314C12.0242 12.314 12.1922 12.356 12.3422 12.44L12.3442 12.438C12.1922 12.354 12.0242 12.312 11.8542 12.312C11.7762 12.312 11.6962 12.322 11.6182 12.34V12.342Z" fill="#513D2E"/>
<path d="M11.7158 12.536C11.7638 12.53 11.8138 12.526 11.8618 12.526C12.0698 12.526 12.2758 12.584 12.4538 12.696L12.4558 12.694C12.2778 12.582 12.0718 12.522 11.8618 12.522C11.8138 12.522 11.7638 12.526 11.7158 12.532V12.536Z" fill="#513D2E"/>
<path d="M11.2803 11.3862C11.4663 11.3082 11.6663 11.2682 11.8663 11.2642V11.2622C11.6643 11.2662 11.4643 11.3062 11.2783 11.3842L11.2803 11.3862Z" fill="#513D2E"/>
<path d="M11.2041 11.2002C11.3901 11.1242 11.5861 11.0762 11.7861 11.0562V11.0542C11.5861 11.0742 11.3901 11.1222 11.2041 11.1982V11.2002Z" fill="#513D2E"/>
<path d="M11.1387 11.02C11.3187 10.944 11.5047 10.89 11.6967 10.858V10.856C11.5047 10.888 11.3167 10.942 11.1387 11.018V11.02Z" fill="#513D2E"/>
<path d="M11.0645 10.8401C11.2425 10.7641 11.4285 10.7061 11.6185 10.6641V10.6621C11.4285 10.7021 11.2425 10.7621 11.0645 10.8381V10.8401Z" fill="#513D2E"/>
<path d="M10.9922 10.6583C11.1702 10.5843 11.3502 10.5223 11.5362 10.4703V10.4683C11.3522 10.5203 11.1702 10.5823 10.9922 10.6563V10.6583Z" fill="#513D2E"/>
<path d="M10.9238 10.4798C11.1018 10.4018 11.2838 10.3358 11.4698 10.2818V10.2798C11.2838 10.3338 11.1018 10.3998 10.9238 10.4778V10.4798Z" fill="#513D2E"/>
<path d="M10.8525 10.2958C10.8525 10.2958 10.9445 10.2598 11.0605 10.2158C11.1745 10.1718 11.3105 10.1218 11.3985 10.0938V10.0918C11.2225 10.1478 10.8525 10.2938 10.8525 10.2938V10.2958Z" fill="#513D2E"/>
<path d="M10.7822 10.1122C10.7822 10.1122 10.8762 10.0742 10.9902 10.0322C11.1022 9.98816 11.2342 9.93816 11.3102 9.91216V9.91016C11.1602 9.96216 10.7842 10.1122 10.7842 10.1122H10.7822Z" fill="#513D2E"/>
</g>
<defs>
<radialGradient id="paint0_radial_18468_40804" cx="0" cy="0" r="1" gradientTransform="matrix(8.82441 -2.92015 2.54096 8.17945 95.4284 17.2143)" gradientUnits="userSpaceOnUse">
<stop stop-color="white"/>
<stop offset="1" stop-color="#C3C3C3"/>
</radialGradient>
<radialGradient id="paint1_radial_18468_40804" cx="0" cy="0" r="1" gradientTransform="matrix(13.6819 -2.43523 2.41468 13.7983 85.6144 14.9859)" gradientUnits="userSpaceOnUse">
<stop stop-color="white"/>
<stop offset="0.0899" stop-color="white"/>
<stop offset="0.1101" stop-color="#FCFCFD"/>
<stop offset="0.2634" stop-color="#EDEDF2"/>
<stop offset="0.3876" stop-color="#E8E8EE"/>
<stop offset="0.4656" stop-color="#DCDFE8"/>
<stop offset="0.6069" stop-color="#BCC9D8"/>
<stop offset="0.7955" stop-color="#88A4BF"/>
<stop offset="1" stop-color="#48779F"/>
</radialGradient>
<radialGradient id="paint2_radial_18468_40804" cx="0" cy="0" r="1" gradientTransform="matrix(9.28714 -1.65298 1.63908 9.3661 88.4108 19.255)" gradientUnits="userSpaceOnUse">
<stop stop-color="white"/>
<stop offset="0.0899" stop-color="white"/>
<stop offset="0.1101" stop-color="#FCFCFD"/>
<stop offset="0.2634" stop-color="#EDEDF2"/>
<stop offset="0.3876" stop-color="#E8E8EE"/>
<stop offset="0.4656" stop-color="#DCDFE8"/>
<stop offset="0.6069" stop-color="#BCC9D8"/>
<stop offset="0.7955" stop-color="#88A4BF"/>
<stop offset="1" stop-color="#48779F"/>
</radialGradient>
<radialGradient id="paint3_radial_18468_40804" cx="0" cy="0" r="1" gradientTransform="matrix(9.0784 -2.04871 2.40448 9.05485 83.4022 25.3812)" gradientUnits="userSpaceOnUse">
<stop stop-color="#AFD4F1"/>
<stop offset="0.1067" stop-color="#AFD4F1"/>
<stop offset="0.1092" stop-color="#AED3F0"/>
<stop offset="0.2699" stop-color="#6497BC"/>
<stop offset="0.403" stop-color="#2E6B96"/>
<stop offset="0.5022" stop-color="#0D4F7F"/>
<stop offset="0.5562" stop-color="#004576"/>
<stop offset="1" stop-color="#004576"/>
</radialGradient>
<radialGradient id="paint4_radial_18468_40804" cx="0" cy="0" r="1" gradientTransform="matrix(5.62025 -0.611113 0.922685 5.25078 79.9529 27.4989)" gradientUnits="userSpaceOnUse">
<stop stop-color="#35A748"/>
<stop offset="1" stop-color="#00421B"/>
</radialGradient>
<radialGradient id="paint5_radial_18468_40804" cx="0" cy="0" r="1" gradientTransform="matrix(3.54905 -0.800901 0.939991 3.53985 85.5666 14.8526)" gradientUnits="userSpaceOnUse">
<stop stop-color="white"/>
<stop offset="0.0169" stop-color="white"/>
<stop offset="0.019" stop-color="#FFFEFE"/>
<stop offset="0.1071" stop-color="#FCE8E2"/>
<stop offset="0.1843" stop-color="#FADBD1"/>
<stop offset="0.2416" stop-color="#F9D6CB"/>
<stop offset="0.353" stop-color="#F3A09F"/>
<stop offset="0.465" stop-color="#ED7179"/>
<stop offset="0.5772" stop-color="#E94959"/>
<stop offset="0.6873" stop-color="#E52B41"/>
<stop offset="0.7948" stop-color="#E3152F"/>
<stop offset="0.8986" stop-color="#E20825"/>
<stop offset="0.9944" stop-color="#E10421"/>
<stop offset="1" stop-color="#E10421"/>
</radialGradient>
<radialGradient id="paint6_radial_18468_40804" cx="0" cy="0" r="1" gradientTransform="matrix(9.26489 -1.64902 1.63511 9.34361 85.55 14.8872)" gradientUnits="userSpaceOnUse">
<stop stop-color="#DCEDF9"/>
<stop offset="0.1067" stop-color="#00A8E2"/>
<stop offset="0.3258" stop-color="#004576"/>
<stop offset="0.6011" stop-color="#00497A"/>
<stop offset="0.8202" stop-color="#004285"/>
<stop offset="1" stop-color="#004285"/>
</radialGradient>
<clipPath id="clip0_18468_40804">
<rect width="102.4" height="40" fill="white"/>
</clipPath>
</defs>
</svg>
