<svg width="99" height="32" viewBox="0 0 99 32" fill="none" xmlns="http://www.w3.org/2000/svg">
<g clip-path="url(#clip0_18468_40796)">
<path d="M98.1936 9.54303H96.1244L96.8135 3.1748H90.9506L90.2615 9.53729H86.4678C90.2615 11.2217 89.5725 15.8998 89.5725 15.8998L87.8498 31.6184H89.0576C89.4027 31.4907 89.7479 31.3631 90.0931 31.2356C90.2749 31.2013 90.4496 31.1366 90.6099 31.0442C92.679 30.1082 94.0553 28.0505 94.4037 25.2425L95.4392 15.6988H97.5083L98.1936 9.54303Z" fill="#DB0029"/>
<path d="M6.11393 23.0173L7.66626 9.54395H1.80336L0.0806664 25.4502C-0.436142 29.3798 1.633 31.8126 5.08031 31.8126H7.66626L8.35534 25.4502H7.83853C6.63073 25.2626 5.94166 24.5142 6.11393 23.0173Z" fill="#DB0029"/>
<path d="M29.0488 15.9064C29.5733 11.9806 27.6592 9.54395 24.0473 9.54395H10.4322L9.74316 15.9064H10.26C11.64 15.9064 12.3291 16.6548 12.1569 18.3393L10.6045 31.8126H16.4674L18.1901 16.094H21.1206C22.5007 16.094 23.1898 16.8424 23.0175 18.5268L22.1561 25.6377C21.6393 29.5674 23.5362 32.0002 27.1558 32.0002L29.0488 15.9064Z" fill="#DB0029"/>
<path d="M47.327 9.54342C42.4996 9.54342 42.1589 14.0339 41.9809 15.1575L40.084 31.6188H45.9469L47.4992 18.1454C47.6715 16.461 47.8438 15.9002 48.5348 15.7126H50.6039C50.6039 15.7126 50.9484 12.1562 53.3621 9.91093C53.6035 9.73888 53.8337 9.55155 54.0512 9.3501L47.327 9.54342Z" fill="#DB0029"/>
<path d="M59.0507 28.2506H58.7062C56.4647 28.2506 54.9124 26.3786 55.2608 23.9458L55.9499 17.2081C56.2944 14.7753 58.1913 12.9033 60.4327 12.9033H60.7734C63.0148 12.9033 64.5672 14.7753 64.2188 17.2081L63.5297 23.9458C63.189 26.1987 61.1198 28.2506 59.0507 28.2506Z" fill="#DB0029"/>
<path d="M81.6368 9.54395H67.8457C68.8541 10.437 69.5743 11.6096 69.9148 12.9128C70.1222 13.8963 70.1803 14.9056 70.0871 15.9064L68.1902 31.6251H74.0531L75.7758 15.9064H78.7082C80.0883 15.9064 80.7774 16.6548 80.6051 18.3393L79.7438 25.4502C79.227 29.3798 81.2961 31.8126 84.7453 31.8126L86.468 16.094C87.1571 11.7892 85.2602 9.54395 81.6368 9.54395Z" fill="#DB0029"/>
<path d="M38.3604 9.54372V8.79531C38.5326 7.11089 39.3959 6.36248 40.9463 6.36248H42.3264L43.0155 0H39.3959C35.7744 0 33.3607 2.43282 32.8439 6.36248L32.6716 9.54372H28.876C32.6697 11.2281 31.9807 15.9062 31.9807 15.9062L30.258 31.8124C33.5349 31.8124 35.9486 29.7548 36.6377 26.3859L37.8455 15.9062H39.7423C39.7423 15.9062 40.2592 11.0406 41.9838 9.54372H38.3604Z" fill="#DB0029"/>
</g>
<defs>
<clipPath id="clip0_18468_40796">
<rect width="98.1936" height="32" fill="white"/>
</clipPath>
</defs>
</svg>
