<svg width="24" height="24" viewBox="0 0 24 24" fill="none" xmlns="http://www.w3.org/2000/svg">
<g clip-path="url(#clip0_18468_41014)">
<path d="M1.58398 12.0001C1.58398 16.5032 4.47148 20.3188 8.45898 21.7282V2.27197C4.47148 3.68135 1.58398 7.49697 1.58398 12.0001Z" fill="#75A843"/>
<path d="M22.209 12.0001C22.209 7.49697 19.3215 3.68135 15.334 2.27197V21.7282C19.3559 20.3188 22.209 16.5032 22.209 12.0001Z" fill="#ED4C5C"/>
<path d="M8.45898 21.7281C9.52461 22.1062 10.6934 22.3125 11.8965 22.3125C13.0996 22.3125 14.2684 22.1062 15.334 21.7281V2.27188C14.2684 1.89375 13.0996 1.6875 11.8965 1.6875C10.6934 1.6875 9.52461 1.89375 8.45898 2.27188V21.7281Z" fill="white"/>
</g>
<rect x="1" y="1" width="22" height="22" rx="11" stroke="white" stroke-width="2"/>
<defs>
<clipPath id="clip0_18468_41014">
<rect x="1" y="1" width="22" height="22" rx="11" fill="white"/>
</clipPath>
</defs>
</svg>
