<svg width="64" height="56" viewBox="0 0 64 56" fill="none" xmlns="http://www.w3.org/2000/svg">
<g clip-path="url(#clip0_18468_40574)">
<path d="M52.9553 4.30078C51.0306 5.6746 47.3717 7.56363 42.6457 6.39972C34.4703 4.37719 32.1264 -2.66357 32.1264 -2.66357C32.1264 -2.66357 29.7825 4.39627 21.6071 6.39972C16.8811 7.56363 13.2222 5.69367 11.2975 4.30078H9.83008V42.3287C9.83008 43.2827 10.0588 45.1908 11.6214 47.0798C13.5462 49.4267 16.8049 50.9341 21.3213 51.5828C24.9229 52.098 27.5719 53.2429 29.4394 55.0364C30.8115 56.3721 32.1264 58.6617 32.1264 58.6617C32.1264 58.6617 33.4795 56.3149 34.8134 55.0364C36.6809 53.2238 39.3489 52.0979 42.9315 51.5828C47.448 50.9341 50.7066 49.4076 52.6314 47.0798C54.194 45.1908 54.4227 43.2827 54.4227 42.3287V4.30078H52.9553Z" fill="white"/>
<path d="M53.088 5.78903C53.088 5.78903 48.6096 9.28087 42.3208 7.69712C34.984 5.86531 32.1255 0.351074 32.1255 0.351074C32.1255 0.351074 29.267 5.86544 21.9302 7.69712C15.6414 9.28087 11.1631 5.78903 11.1631 5.78903V42.3287C11.1631 43.5689 11.6776 48.8352 21.5109 50.2662C25.3985 50.8195 28.2951 52.0788 30.3722 54.0824C31.1153 54.8075 31.6871 55.5325 32.1254 56.2004C32.5637 55.5326 33.1354 54.7884 33.8786 54.0824C35.9558 52.0789 38.8524 50.8195 42.7399 50.2662C52.5731 48.8352 53.0877 43.5689 53.0877 42.3287V5.78903H53.088Z" fill="#013369"/>
<path d="M32.1249 52.4996C32.1249 52.4996 34.9834 48.9887 42.3775 47.8438C50.8577 46.5272 50.6099 42.5394 50.6099 42.3485V23.1914H13.6209V42.3295C13.6209 42.5394 13.3732 46.5272 21.8533 47.8247C29.2664 48.9696 32.1249 52.4996 32.1249 52.4996Z" fill="white"/>
<path d="M23.5127 37.1773V28.0757L22.3693 27.427V25.061H27.5528V27.427L26.4666 28.0757V46.6412L23.6843 45.8016L19.6633 33.9335V41.7566L20.9401 42.7296V45.1339L15.3755 43.7219V41.6612L16.6523 41.1651V28.0566L15.3564 27.427V25.061H19.568L23.5127 37.1773ZM33.0601 45.4965L34.1654 46.8322V49.1981L28.639 47.1374V45.134L29.8586 44.6379V28.0949L28.639 27.4843V25.0992H38.2245V29.9075H36.1092L35.4613 27.9422H33.022V33.4947H34.8515L35.5756 32.4452H37.043V37.349H35.5756L34.8895 36.3568H33.022V45.4965H33.0601ZM39.1583 46.336V43.9701L40.5303 42.8443V28.0758L39.3678 27.4653V25.0801H44.8942V27.4653L43.808 28.0758V41.9285L46.1901 41.2798L46.6475 37.6544H48.8962V43.7222L39.1582 46.3362L39.1583 46.336Z" fill="#D50A0A"/>
<path d="M14.5929 19.2606L12.916 18.0013H14.9551L15.6221 16.055L16.2891 18.0013H18.3281L16.6512 19.2606L17.261 21.226L15.603 20.0621L13.945 21.226L14.5929 19.2606ZM21.8536 19.2606L20.1767 18.0013H22.2157L22.8827 16.055L23.5497 18.0013H25.5888L23.9119 19.2606L24.5216 21.226L22.8637 20.0621L21.2057 21.226L21.8536 19.2606ZM14.5929 12.716L12.916 11.4566H14.9551L15.6221 9.51037L16.2891 11.4566H18.3281L16.6512 12.716L17.261 14.6813L15.603 13.5174L13.945 14.6813L14.5929 12.716ZM21.8536 12.716L20.1767 11.4566H22.2157L22.8827 9.51037L23.5497 11.4566H25.5888L23.9119 12.716L24.5216 14.6813L22.8637 13.5174L21.2057 14.6813L21.8536 12.716ZM50.2672 21.2452L48.6092 20.0813L46.9512 21.2452L47.561 19.2798L45.8841 18.0204H47.9422L48.6092 16.0742L49.2762 18.0204H51.3153L49.6383 19.2798L50.2672 21.2452ZM43.0256 21.2452L41.3676 20.0813L39.7096 21.2452L40.3194 19.2798L38.6425 18.0204H40.6815L41.3485 16.0742L42.0155 18.0204H44.0546L42.3776 19.2798L43.0256 21.2452ZM50.2672 14.6813L48.6092 13.5174L46.9512 14.6813L47.561 12.716L45.8841 11.4566H47.9422L48.6092 9.51037L49.2762 11.4566H51.3153L49.6383 12.716L50.2672 14.6813ZM43.0256 14.6813L41.3676 13.5174L39.7096 14.6813L40.3194 12.716L38.6425 11.4566H40.6815L41.3485 9.51037L42.0155 11.4566H44.0546L42.3776 12.716L43.0256 14.6813ZM36.7368 7.4497C36.9083 7.43063 37.0036 7.64055 37.0989 7.77405C37.823 9.60586 38.0136 11.8383 37.461 13.9753C36.6225 17.2381 33.8783 20.2337 27.9898 20.997C27.8564 21.016 27.704 20.9779 27.6849 20.9016C27.9517 19.6614 28.6187 17.2953 30.0479 14.7957C30.3147 14.9675 30.5816 15.1392 30.8292 15.33C30.9245 15.1773 31.0389 15.0057 31.2104 14.7195C30.4863 14.147 29.6478 13.7464 28.714 13.5746C28.714 13.5746 28.5425 13.9371 28.4091 14.2043C28.4091 14.2043 28.7712 14.2805 29.2095 14.4333C27.9327 17.1428 27.4944 19.6614 27.38 20.8062C27.0179 20.2338 26.7321 18.8981 26.6368 18.1732C25.7031 11.304 30.6388 7.29712 36.0127 7.22083C36.3748 7.20176 36.5082 7.27805 36.5082 7.27805C36.5082 7.27805 35.3266 7.71696 33.9546 8.76631C33.9546 8.76631 33.6306 8.6328 33.2876 8.53731C33.0779 8.67082 32.8493 8.82352 32.6397 8.97623C33.2876 9.12893 34.1071 9.45328 34.8884 10.102C35.0599 9.94928 35.2314 9.77764 35.422 9.60586C35.2314 9.45316 34.9265 9.24336 34.6598 9.09066C35.8793 7.90768 36.7369 7.4497 36.7369 7.4497H36.7368ZM31.6678 13.9371C31.8011 13.7463 31.9536 13.5173 32.106 13.2884C31.4962 12.7732 30.6196 12.2771 29.5524 12.0673C29.4 12.2963 29.1332 12.7351 29.1332 12.7351C30.0099 12.9069 30.9055 13.3075 31.6678 13.9371ZM32.6397 12.5824C32.7921 12.3724 32.9446 12.1817 33.1161 11.9718C32.2776 11.285 31.3247 10.8842 30.5816 10.7507C30.41 10.9415 30.2385 11.1513 30.0861 11.3422C31.058 11.533 31.9345 11.9909 32.6397 12.5824ZM33.7259 11.2848C33.8783 11.094 34.0498 10.9223 34.2595 10.7315C33.7449 10.3117 33.0018 9.81565 31.8965 9.54851C31.7059 9.70122 31.4773 9.87287 31.2676 10.0828C32.1443 10.2736 32.9826 10.6743 33.7259 11.2848Z" fill="white"/>
</g>
<defs>
<clipPath id="clip0_18468_40574">
<rect width="64" height="56" fill="white"/>
</clipPath>
</defs>
</svg>
