<svg width="220" height="51" viewBox="0 0 220 51" fill="none" xmlns="http://www.w3.org/2000/svg">
<g clip-path="url(#clip0_18468_38793)">
<path d="M111.761 41.3908C111.761 42.6103 110.844 43.5712 109.267 43.5712H106.774V39.1734H109.194C110.771 39.1734 111.761 39.9494 111.761 41.3538V41.3908ZM109.487 36.2908H103.657V50.6668H106.811V46.3429H109.194C112.384 46.3429 114.987 44.606 114.987 41.2799V41.2429C114.951 38.3234 112.897 36.2908 109.487 36.2908ZM141.131 41.2429C141.131 42.4625 140.251 43.2755 138.711 43.2755H135.521V39.1734H138.637C140.177 39.1734 141.094 39.8755 141.094 41.2429H141.131ZM141.241 45.5299C143.074 44.8647 144.321 43.3864 144.321 41.0581V41.0212C144.321 39.6538 143.881 38.5451 143.111 37.7321C142.157 36.8081 140.764 36.2908 138.931 36.2908H132.367V50.6668H135.521V46.0842H137.977L141.057 50.6668H144.724L141.241 45.5299ZM146.594 36.2908V39.2103H150.957V50.6668H154.111V39.2103H158.474V36.2908H146.594ZM171.491 36.2908V45.1234L164.781 36.2908H161.884V50.6668H165.001V41.5386L171.931 50.6668H174.607V36.2908H171.491ZM179.044 36.2908V50.6668H189.934V47.8581H182.161V44.8277H188.907V42.019H182.161V39.0994H189.824V36.2908H179.044ZM202.511 41.2429C202.511 42.4625 201.631 43.2755 200.091 43.2755H196.901V39.1734H200.017C201.557 39.1734 202.474 39.8755 202.474 41.2429H202.511ZM202.621 45.5299C204.454 44.8647 205.701 43.3864 205.701 41.0581V41.0212C205.701 39.6538 205.261 38.5451 204.491 37.7321C203.537 36.8081 202.144 36.2908 200.311 36.2908H193.784V50.6668H196.937V46.0842H199.394L202.474 50.6668H206.141L202.621 45.5299ZM214.647 50.8886C217.727 50.8886 219.891 49.2995 219.891 46.4168V46.3799C219.891 43.8668 218.241 42.8321 215.344 42.056C212.887 41.4277 212.264 41.0951 212.264 40.1712V40.1342C212.264 39.4321 212.887 38.8777 214.097 38.8777C215.307 38.8777 216.554 39.3951 217.801 40.2821L219.451 37.9168C217.984 36.7342 216.224 36.106 214.134 36.106C211.201 36.106 209.111 37.8429 209.111 40.4299V40.4668C209.111 43.3125 210.981 44.1255 213.841 44.8647C216.224 45.4929 216.737 45.8994 216.737 46.6755V46.7125C216.737 47.5625 215.967 48.0799 214.684 48.0799C213.034 48.0799 211.714 47.4147 210.431 46.3429L208.561 48.5973C210.284 50.1125 212.484 50.8886 214.647 50.8886ZM7.22396 50.9255C9.97396 50.9255 11.624 49.9277 13.0906 48.3755L11.074 46.3429C9.93729 47.3777 8.94729 48.0429 7.29729 48.0429C4.84063 48.0429 3.15396 45.9734 3.15396 43.5342V43.4973C3.15396 41.0212 4.87729 39.0255 7.29729 39.0255C8.72729 39.0255 9.86396 39.6538 10.964 40.6516L12.9806 38.3234C11.6606 36.9929 10.0473 36.106 7.33396 36.106C2.93396 36.106 -0.109375 39.469 -0.109375 43.5342V43.5712C-0.109375 47.6734 3.00729 50.9255 7.22396 50.9255ZM20.2406 44.6799L21.744 41.5386L23.174 44.6799H20.2406ZM21.7806 35.3668L14.1906 50.7038H17.4173L18.9573 47.4886H24.5673L26.1073 50.7038H29.4073L21.7806 35.3668ZM39.9306 41.3908C39.9306 42.6103 39.014 43.5712 37.4373 43.5712H34.944V39.1734H37.364C38.9406 39.1734 39.9306 39.9494 39.9306 41.3538V41.3908ZM37.6573 36.2908H31.8273V50.6668H34.9806V46.3429H37.364C40.554 46.3429 43.1573 44.606 43.1573 41.2799V41.2429C43.1206 38.3234 41.0673 36.2908 37.6573 36.2908ZM46.604 50.6668H49.7573V36.2908H46.604V50.6668ZM53.3506 36.2908V39.2103H57.714V50.6668H60.8673V39.2103H65.2306V36.2908H53.3506ZM82.8306 36.2908V50.6668H93.0973V47.7842H85.9473V36.2908H82.8306ZM71.0606 44.6799L72.564 41.5386L74.0306 44.6799H71.0606ZM72.6006 35.3668L65.0106 50.7038H68.2373L69.7773 47.4886H75.3873L76.9273 50.7038H80.2273L72.6006 35.3668ZM120.597 44.6799L122.101 41.5386L123.567 44.6799H120.597ZM122.137 35.3668L114.547 50.7038H117.774L119.314 47.4886H124.924L126.464 50.7038H129.764L122.137 35.3668ZM16.5006 0.590761V15.2625L5.42729 0.590761H0.623958V24.3908H5.75729V9.23858L17.1973 24.3908H21.634V0.590761H16.5006ZM28.0506 0.590761V5.17337H40.6273L27.6473 20.3995V24.3908H47.3373V19.8082H34.3573L47.3373 4.58206V0.590761H28.0506ZM70.5106 24.7973C74.8373 24.7973 78.174 23.0973 80.594 21.0277V10.6799H70.3273V15.1886H75.5706V18.5886C74.2506 19.5494 72.564 20.0299 70.694 20.0299C66.514 20.0299 63.544 16.8147 63.544 12.4908V12.4168C63.544 8.35163 66.5506 4.98858 70.3273 4.98858C73.0773 4.98858 74.6906 5.87554 76.4873 7.39076L79.7506 3.39946C77.294 1.29294 74.7273 0.147278 70.474 0.147278C63.324 0.147278 58.0806 5.69076 58.0806 12.4538V12.5277C58.0806 19.5864 63.1406 24.7973 70.5106 24.7973ZM152.314 0.516843L147.034 16.7038L142.157 0.590761H136.584L144.651 24.5755H149.161L154.477 9.01684L159.794 24.5755H164.304L172.371 0.590761H166.944L162.067 16.7038L156.787 0.516843H152.314ZM175.084 0.590761V5.43207H182.271V24.3908H187.477V5.39511H194.664V0.553802H175.084V0.590761ZM213.951 0.590761V10.0147H204.381V0.590761H199.174V24.3908H204.381V14.819H213.951V24.3908H219.157V0.590761H213.951ZM100.027 8.7951C100.027 10.7908 98.5606 12.1581 96.0306 12.1581H90.7506V5.32119H95.9206C98.4506 5.32119 99.9906 6.46685 99.9906 8.72119V8.7951H100.027ZM122.064 0.184237C114.767 0.184237 109.487 5.72771 109.487 12.4908V12.5647C109.487 16.2234 111.027 19.5125 113.594 21.7299C114.657 21.9516 115.721 22.0625 116.711 22.0625C121.074 22.0625 125.034 20.769 127.234 18.0712C127.564 17.7016 127.857 17.2951 128.077 16.8147C128.224 16.519 128.371 16.1864 128.444 15.8538C127.344 18.2929 125.034 19.956 122.064 19.956C117.884 19.956 114.914 16.556 114.914 12.4908V12.4168C114.914 8.35163 117.811 4.98858 121.991 4.98858C125.731 4.98858 128.627 7.72336 129.177 11.1973C129.507 13.3408 129.324 16.7038 126.941 19.8451C124.594 22.9495 120.267 24.6495 115.391 24.6495C108.717 24.6495 103.364 20.769 100.614 15.706C103.401 14.5234 105.271 12.1581 105.271 8.49945V8.42554C105.271 6.17119 104.574 4.32337 103.254 2.99293C101.714 1.44076 99.3673 0.590761 96.3606 0.590761H85.544V24.3908H90.7506V16.7777H94.8206C94.8206 16.7777 94.8573 16.7777 94.894 16.7777C98.1573 23.1712 104.317 29.3799 115.354 29.3799C123.457 29.3799 130.277 25.6103 133.101 19.2168C133.394 18.5147 133.871 17.3321 134.164 15.706C134.494 13.9321 134.494 12.3799 134.494 12.3799C134.567 5.6538 129.361 0.184237 122.064 0.184237Z" fill="black"/>
</g>
<defs>
<clipPath id="clip0_18468_38793">
<rect width="220" height="51" fill="white"/>
</clipPath>
</defs>
</svg>
