<svg width="48" height="48" viewBox="0 0 48 48" fill="none" xmlns="http://www.w3.org/2000/svg">
<mask id="mask0_18468_33927" style="mask-type:alpha" maskUnits="userSpaceOnUse" x="0" y="0" width="48" height="48">
<rect width="48" height="48" fill="#D9D9D9"/>
</mask>
<g mask="url(#mask0_18468_33927)">
<path d="M24 44C21.2333 44 18.6333 43.475 16.2 42.425C13.7667 41.375 11.65 39.95 9.85 38.15C8.05 36.35 6.625 34.2333 5.575 31.8C4.525 29.3667 4 26.7667 4 24C4 21.2333 4.525 18.6333 5.575 16.2C6.625 13.7667 8.05 11.65 9.85 9.85C11.65 8.05 13.7667 6.625 16.2 5.575C18.6333 4.525 21.2333 4 24 4C26.7667 4 29.3667 4.525 31.8 5.575C34.2333 6.625 36.35 8.05 38.15 9.85C39.95 11.65 41.375 13.7667 42.425 16.2C43.475 18.6333 44 21.2333 44 24C44 26.7667 43.475 29.3667 42.425 31.8C41.375 34.2333 39.95 36.35 38.15 38.15C36.35 39.95 34.2333 41.375 31.8 42.425C29.3667 43.475 26.7667 44 24 44ZM25.175 37.475C25.525 37.125 25.7 36.7167 25.7 36.25V35.5C27.3667 35.2 28.8 34.55 30 33.55C31.2 32.55 31.8 31.0667 31.8 29.1C31.8 27.7 31.4 26.4167 30.6 25.25C29.8 24.0833 28.2 23.0667 25.8 22.2C23.8 21.5333 22.4167 20.95 21.65 20.45C20.8833 19.95 20.5 19.2667 20.5 18.4C20.5 17.5333 20.8083 16.85 21.425 16.35C22.0417 15.85 22.9333 15.6 24.1 15.6C24.7667 15.6 25.35 15.7167 25.85 15.95C26.35 16.1833 26.7667 16.5 27.1 16.9C27.4333 17.3 27.8083 17.575 28.225 17.725C28.6417 17.875 29.0333 17.8667 29.4 17.7C29.9 17.5 30.2417 17.1583 30.425 16.675C30.6083 16.1917 30.5667 15.75 30.3 15.35C29.7667 14.5833 29.1083 13.9333 28.325 13.4C27.5417 12.8667 26.7 12.5667 25.8 12.5V11.75C25.8 11.2833 25.625 10.875 25.275 10.525C24.925 10.175 24.5167 10 24.05 10C23.5833 10 23.175 10.175 22.825 10.525C22.475 10.875 22.3 11.2833 22.3 11.75V12.5C20.6333 12.8667 19.3333 13.6 18.4 14.7C17.4667 15.8 17 17.0333 17 18.4C17 19.9667 17.4583 21.2333 18.375 22.2C19.2917 23.1667 20.7333 24 22.7 24.7C24.8 25.4667 26.2583 26.15 27.075 26.75C27.8917 27.35 28.3 28.1333 28.3 29.1C28.3 30.2 27.9083 31.0083 27.125 31.525C26.3417 32.0417 25.4 32.3 24.3 32.3C23.4333 32.3 22.65 32.0917 21.95 31.675C21.25 31.2583 20.6667 30.6333 20.2 29.8C19.9333 29.3333 19.5833 29.0167 19.15 28.85C18.7167 28.6833 18.2833 28.6833 17.85 28.85C17.3833 29.0167 17.0417 29.3333 16.825 29.8C16.6083 30.2667 16.6 30.7167 16.8 31.15C17.3333 32.2833 18.05 33.2083 18.95 33.925C19.85 34.6417 20.9333 35.1333 22.2 35.4V36.25C22.2 36.7167 22.375 37.125 22.725 37.475C23.075 37.825 23.4833 38 23.95 38C24.4167 38 24.825 37.825 25.175 37.475Z" fill="#FFAB13"/>
</g>
</svg>
