<svg width="375" height="320" viewBox="0 0 375 320" fill="none" xmlns="http://www.w3.org/2000/svg">
<path d="M471.999 268.468C467.881 269.298 463.74 270.029 459.648 270.974C445.591 274.219 432.024 278.82 419.376 285.881C411.869 290.071 404.941 295.032 399.121 301.422C395.002 305.944 391.705 310.976 389.781 316.831C389.494 317.703 389.307 318.609 389.074 319.499C388.889 319.499 388.704 319.499 388.519 319.499C388.569 319.228 388.601 318.952 388.671 318.686C390.183 312.962 393.043 307.947 396.743 303.376C397.165 302.855 397.595 302.34 398.021 301.822C397.456 301.795 397.044 301.952 396.652 302.148C386.911 307.013 377.169 311.876 367.434 316.753C365.666 317.64 363.925 318.582 362.171 319.499C361.802 319.499 361.432 319.499 361.062 319.499C361.445 319.256 361.809 318.976 362.212 318.775C374.11 312.822 386.006 306.867 397.92 300.947C399.189 300.317 400.217 299.463 401.218 298.484C405.901 293.905 411.157 290.07 416.797 286.759C418.629 285.684 420.491 284.654 422.377 283.679C423.097 283.307 423.376 282.863 423.352 282.059C423.299 280.319 423.336 278.577 423.336 276.659C422.802 276.843 422.46 276.925 422.15 277.074C409.66 283.054 396.524 287.044 382.99 289.823C372.881 291.898 362.671 293.214 352.38 293.888C342.595 294.529 332.804 294.58 323.006 294.044C314.739 293.591 306.515 292.758 298.347 291.428C282.137 288.787 266.395 284.537 251.463 277.562C250.629 277.172 249.82 276.727 249.004 276.298C248.938 276.263 248.913 276.149 248.769 275.897C273.689 263.398 298.634 250.974 323.743 238.386C323.18 238.067 322.837 237.851 322.476 237.671C298.473 225.664 274.464 213.666 250.475 201.631C249.579 201.182 248.94 201.371 248.166 201.759C236.273 207.72 224.373 213.669 212.473 219.617C190.574 230.563 168.672 241.504 146.774 252.454C123.594 264.044 100.417 275.641 77.2389 287.236C76.7468 287.482 76.2585 287.736 75.5144 288.116C76.1022 288.456 76.501 288.716 76.9238 288.928C84.5667 292.751 92.2125 296.568 99.8575 300.387C103.784 302.348 107.735 304.261 111.622 306.296C113.059 307.049 114.573 307.319 116.115 307.593C129.575 309.982 142.693 313.554 155.286 318.936C155.663 319.097 156.017 319.31 156.383 319.499C155.92 319.499 155.458 319.499 154.996 319.499C153.306 318.773 151.638 317.988 149.922 317.329C136.235 312.073 122.051 308.79 107.56 306.766C98.3121 305.474 89.012 304.783 79.678 304.599C63.562 304.28 47.5637 305.5 31.709 308.442C20.7951 310.467 10.1043 313.32 -0.267464 317.303C-1.97687 317.959 -3.6297 318.763 -5.30859 319.499C-5.77079 319.499 -6.23312 319.499 -6.69531 319.499C-4.84418 318.686 -3.02799 317.779 -1.13429 317.081C2.46188 315.755 6.13501 314.636 9.71288 313.265C12.0764 312.36 14.3581 311.223 16.6269 310.091C35.3112 300.768 53.9841 291.422 72.6594 282.081C73.0668 281.877 73.4629 281.651 74.0635 281.328C73.5224 281.022 73.1472 280.788 72.7536 280.591C57.9615 273.192 43.1667 265.798 28.3745 258.4C14.161 251.291 -0.0489197 244.175 -14.2623 237.066C-28.0216 230.185 -41.7831 223.307 -55.5439 216.429C-68.5608 209.922 -81.5775 203.415 -94.5978 196.915C-95.0462 196.692 -95.5318 196.543 -96 196.359C-96 196.174 -96 195.989 -96 195.804C-95.5291 195.978 -95.0365 196.108 -94.5904 196.331C-76.4914 205.375 -58.3977 214.431 -40.3009 223.48C-29.1453 229.058 -17.981 234.619 -6.83828 240.223C-5.98933 240.65 -5.34382 240.576 -4.53689 240.171C14.9548 230.401 34.457 220.652 53.9587 210.902C72.3861 201.689 90.8103 192.469 109.255 183.29C110.303 182.769 110.717 182.205 110.709 180.995C110.652 172.076 110.68 163.156 110.681 154.237C110.681 153.736 110.681 153.234 110.681 152.733C110.6 152.717 110.52 152.702 110.44 152.686C110.334 152.963 110.203 153.233 110.127 153.518C108.402 159.953 105.018 165.457 100.647 170.403C95.3279 176.42 89.0013 181.192 82.1268 185.268C70.8346 191.962 58.6711 196.531 46.0422 199.941C37.2011 202.328 28.2257 204.039 19.1492 205.251C4.95644 207.145 -9.29582 207.733 -23.5887 207.08C-41.0483 206.284 -58.2443 203.742 -75.0499 198.826C-81.7508 196.866 -88.3138 194.523 -94.6979 191.687C-95.0999 191.508 -95.5643 191.47 -95.9997 191.367C-95.9997 191.089 -95.9997 190.812 -95.9997 190.535C-83.9944 195.972 -71.4629 199.738 -58.5593 202.325C-51.2631 203.788 -43.912 204.86 -36.5064 205.6C-27.2991 206.521 -18.0737 206.878 -8.82503 206.757C0.00766754 206.641 8.8104 206.054 17.5703 204.936C32.8297 202.988 47.768 199.67 62.179 194.19C71.7164 190.563 80.8093 186.077 89.0917 180.062C95.0406 175.742 100.351 170.773 104.45 164.611C107.456 160.093 109.571 155.209 110.355 149.805C111.402 142.589 109.929 135.839 106.503 129.472C102.755 122.506 97.3751 116.966 91.1865 112.159C82.6084 105.497 73.0311 100.646 62.9454 96.7455C51.6642 92.3832 40.0117 89.381 28.1068 87.2998C13.7732 84.794 -0.671417 83.724 -15.2117 83.8639C-24.4603 83.9528 -33.6798 84.5535 -42.8528 85.7335C-56.9989 87.553 -70.8857 90.5373 -84.3183 95.405C-88.2636 96.835 -92.1089 98.5413 -96 100.121C-96 99.8436 -96 99.5663 -96 99.2889C-95.6071 99.1974 -95.1877 99.166 -94.8255 99.0055C-83.8461 94.14 -72.4178 90.6981 -60.6866 88.215C-59.1964 87.8995 -57.7039 87.5877 -56.2014 87.3405C-54.8596 87.1199 -53.6476 86.6118 -52.4409 86.0061C-39.8944 79.7086 -27.3359 73.4351 -14.7814 67.1536C-14.3347 66.93 -13.8951 66.6922 -13.2353 66.3477C-13.8362 66.0067 -14.2494 65.7467 -14.6839 65.5296C-28.6857 58.5292 -42.6907 51.5348 -56.6932 44.5355C-69.3323 38.2176 -81.9688 31.8943 -94.6083 25.5773C-95.0616 25.3507 -95.5356 25.1654 -96 24.9609C-96 24.7761 -96 24.5911 -96 24.4062C-95.6157 24.5582 -95.2176 24.6822 -94.8494 24.866C-82.9485 30.8113 -71.0503 36.7619 -59.152 42.7123C-44.1551 50.2123 -29.1587 57.7132 -14.1603 65.2099C-13.7677 65.4062 -13.3528 65.5577 -12.7773 65.803C-12.7773 63.64 -12.7967 61.7038 -12.7722 59.768C-12.7439 57.5302 -13.1275 58.0274 -11.0472 56.9857C5.26748 48.816 21.5825 40.6465 37.9272 32.5369C39.5797 31.717 40.9255 30.8314 41.378 28.9322C41.5142 28.3607 41.8848 27.8474 42.1242 27.2971C42.2398 27.0313 42.3002 26.7413 42.4404 26.283C41.6804 26.4554 41.1037 26.58 40.5302 26.7175C34.553 28.1497 28.5184 29.2848 22.4388 30.1762C13.883 31.4306 5.28288 32.184 -3.35942 32.5247C-13.4884 32.924 -23.5987 32.6579 -33.6912 31.7896C-42.8566 31.0012 -51.9465 29.6731 -60.9491 27.7501C-72.5451 25.2733 -83.8406 21.8641 -94.7012 17.0701C-95.1164 16.8867 -95.5662 16.7819 -96 16.6406C-96 16.4558 -96 16.2708 -96 16.0859C-95.6073 16.1999 -95.1947 16.2695 -94.8248 16.4344C-83.5564 21.4572 -71.8122 24.9691 -59.7512 27.4653C-47.2404 30.0546 -34.5938 31.483 -21.8283 31.9874C-13.0904 32.3325 -4.36674 32.19 4.3492 31.593C16.9963 30.7267 29.5012 28.8932 41.8213 25.8638C42.571 25.6795 43.1458 25.426 43.5766 24.702C47.3664 18.335 52.5079 13.2014 58.3204 8.69055C58.7941 8.32293 59.2628 7.9488 59.7255 7.56759C59.7861 7.51767 59.7965 7.40687 59.867 7.23381C59.4745 7.02441 59.079 6.80198 58.674 6.59897C54.9168 4.71636 51.156 2.84124 47.4019 0.952813C46.8275 0.66396 46.2816 0.318945 45.7224 0C46.1846 0 46.647 0 47.1092 0C47.4754 0.256127 47.8178 0.558569 48.2119 0.760475C50.0548 1.70497 51.9112 2.62297 53.7641 3.54791C56.026 4.67712 58.2892 5.80396 60.5442 6.92804C60.7547 6.82112 60.9243 6.7504 61.0784 6.65471C64.3212 4.63871 67.5638 2.62242 70.8005 0.596566C71.0612 0.433349 71.2782 0.200519 71.5155 0C71.8853 0 72.2551 0 72.6249 0C72.1043 0.354999 71.6086 0.75479 71.0596 1.05834C63.7022 5.12572 56.8366 9.85761 50.9825 15.9465C46.5819 20.5238 42.9691 25.633 40.8352 31.6642C37.3347 41.5578 38.7045 50.9438 43.9762 59.869C47.6504 66.0897 52.647 71.1179 58.2987 75.5309C66.0795 81.6061 74.7204 86.1695 83.8212 89.9001C95.9693 94.88 108.579 98.2182 121.496 100.478C129.559 101.889 137.674 102.859 145.837 103.395C155.667 104.041 165.504 104.104 175.347 103.564C184.723 103.049 194.038 102.033 203.279 100.389C217.655 97.8323 231.643 93.9501 244.986 87.9238C246.038 87.4487 247.072 86.9353 248.111 86.4309C248.229 86.3733 248.32 86.2577 248.514 86.0911C248.185 85.8753 247.913 85.656 247.607 85.5033C233.065 78.2318 218.517 70.9691 203.974 63.6987C188.811 56.1185 173.651 48.5308 158.489 40.9479C141.386 32.394 124.281 23.842 107.177 15.289C97.5919 10.4961 88.0061 5.70509 78.4266 0.901366C77.9428 0.65869 77.5157 0.303136 77.0622 0C77.4321 0 77.8018 0 78.1716 0C78.339 0.148379 78.4839 0.341548 78.6771 0.438618C82.3333 2.27408 86.0016 4.08568 89.6496 5.93737C90.2273 6.23066 90.6761 6.12665 91.1995 5.8629C94.6893 4.1044 98.1898 2.36726 101.681 0.611265C102.001 0.450128 102.28 0.20565 102.578 0C102.948 0 103.318 0 103.687 0C103.319 0.25474 102.974 0.556905 102.578 0.756731C99.2386 2.44187 95.8887 4.10718 92.5437 5.78178C92.1335 5.98715 91.7334 6.21277 91.0919 6.55543C91.6495 6.87257 92.0459 7.12259 92.4627 7.33143C99.4824 10.847 106.505 14.3571 113.527 17.8692C137.03 29.6261 160.533 41.3859 184.038 53.1398C205.312 63.778 226.589 74.4101 247.865 85.045C248.113 85.169 248.351 85.32 248.611 85.4113C249.42 85.6965 249.715 86.2373 249.69 87.102C249.637 88.949 249.674 90.7985 249.674 92.647C249.674 94.9575 249.669 97.2682 249.678 99.5787C249.679 100.025 249.732 100.471 249.762 100.928C250.89 100.706 333.259 59.664 335.773 58.0987C335.549 57.5102 334.95 57.4178 334.491 57.1879C327.598 53.7278 320.695 50.2866 313.796 46.838C286.405 33.1468 259.015 19.4547 231.625 5.7625C228.279 4.0897 224.931 2.41899 221.591 0.734266C221.189 0.531529 220.829 0.246836 220.449 0.000138672C220.911 0.000138672 221.373 0.000138672 221.836 0.000138672C222.228 0.284693 222.589 0.630817 223.016 0.845065C235.357 7.02843 247.708 13.1898 260.04 19.3899C260.881 19.813 261.53 19.7882 262.352 19.3756C274.729 13.1604 287.121 6.97574 299.505 0.772956C299.9 0.574933 300.237 0.260425 300.601 0.000277343C301.063 0.000277343 301.526 0.000277343 301.988 0.000277343C301.557 0.259593 301.142 0.548585 300.694 0.773511C295.868 3.19666 291.038 5.61121 286.207 8.02535C278.61 11.8223 271.01 15.6135 263.419 19.4218C262.965 19.6498 262.378 19.752 262.135 20.3175C264.891 22.032 299.184 39.019 300.324 39.2018C300.324 38.6829 300.324 38.1825 300.324 37.6822C300.324 33.9879 300.279 30.2925 300.345 26.5993C300.378 24.7124 300.48 22.8083 300.777 20.948C301.752 14.8437 304.4 9.45075 308.07 4.53512C309.227 2.98491 310.484 1.50958 311.695 0C311.88 0 312.065 0 312.249 0C312.007 0.371779 311.806 0.780583 311.516 1.11007C307.534 5.62563 304.292 10.58 302.426 16.3555C299.667 24.8979 300.6 33.1215 304.541 41.096C304.859 41.7407 305.376 42.041 305.96 42.3322C311.745 45.2218 317.528 48.1167 323.311 51.0098C327.484 53.097 331.642 55.2124 335.84 57.2477C336.732 57.6801 337.011 58.2116 336.995 59.1612C336.943 62.2106 337.015 65.2624 336.954 68.3113C336.934 69.2888 337.269 69.78 338.147 70.2009C347.553 74.7116 357.354 78.1142 367.443 80.7127C377.928 83.4136 388.568 85.2333 399.34 86.3361C411.501 87.5813 423.688 87.9676 435.888 87.2988C442.158 86.9552 448.407 86.2417 454.663 85.6625C455.29 85.6044 455.938 85.4041 456.505 85.1236C461.678 82.5604 466.836 79.9649 471.999 77.3788C471.999 77.5636 471.999 77.7486 471.999 77.9335C471.553 78.176 471.113 78.4319 470.659 78.659C455.786 86.0962 440.912 93.5302 426.039 100.968C425.673 101.15 425.325 101.368 424.963 101.574C425.054 101.711 425.086 101.818 425.154 101.854C425.808 102.197 426.458 102.547 427.126 102.858C437.808 107.832 448.961 111.406 460.444 113.966C464.272 114.819 468.146 115.466 471.999 116.207C471.999 116.392 471.999 116.577 471.999 116.762C471.769 116.738 471.537 116.73 471.31 116.69C464.765 115.529 458.272 114.141 451.86 112.377C442.852 109.897 434.081 106.782 425.646 102.746C425.263 102.563 424.854 102.436 424.383 102.255C424.383 114.506 424.383 126.539 424.383 138.638C424.831 138.675 425.188 138.728 425.546 138.732C438.353 138.88 451.09 139.859 463.72 142.036C466.491 142.514 469.24 143.118 471.999 143.664C471.999 143.849 471.999 144.034 471.999 144.219C469.286 143.67 466.585 143.049 463.857 142.584C449.609 140.158 435.249 139.103 420.802 139.293C412.02 139.408 403.265 140 394.543 141.079C381.213 142.729 368.127 145.465 355.379 149.729C345.579 153.007 336.156 157.122 327.395 162.651C320.753 166.844 314.684 171.717 309.72 177.864C306.44 181.927 303.82 186.365 302.282 191.379C299.624 200.052 300.688 208.362 304.875 216.326C308.221 222.688 312.978 227.877 318.484 232.408C320.407 233.992 322.478 235.396 324.447 236.926C325.128 237.455 325.698 237.455 326.451 237.066C329.322 235.581 332.237 234.18 335.109 232.696C335.914 232.28 336.571 232.234 337.417 232.659C351.864 239.915 366.328 247.136 380.788 254.365C384.382 256.162 387.972 257.968 391.578 259.742C392.104 260 392.699 260.19 393.28 260.256C397.181 260.696 401.08 261.171 404.992 261.489C414.305 262.248 423.639 262.39 432.973 262.062C446.11 261.6 459.128 260.081 471.999 257.374C471.999 257.559 471.999 257.744 471.999 257.929C466.722 258.833 461.464 259.865 456.165 260.611C447.285 261.86 438.35 262.506 429.38 262.679C418.001 262.898 406.659 262.426 395.358 261.055C395.164 261.031 394.964 261.052 394.767 261.052C395.177 261.537 395.648 261.801 396.131 262.043C405.01 266.484 413.884 270.935 422.781 275.341C423.62 275.757 423.927 276.255 423.89 277.155C423.831 278.585 423.862 280.019 423.873 281.451C423.877 281.843 423.947 282.234 423.997 282.731C424.476 282.539 424.818 282.425 425.141 282.269C436.543 276.737 448.523 272.899 460.869 270.16C464.563 269.34 468.288 268.658 471.999 267.914C471.999 268.099 471.999 268.284 471.999 268.468ZM-5.05815 241.035C-4.30766 241.432 -3.86723 241.676 -3.41724 241.901C6.78677 247.004 16.9883 252.111 27.2039 257.191C27.9345 257.554 28.7542 257.786 29.559 257.944C40.2726 260.05 51.084 261.341 61.9897 261.908C73.8713 262.525 85.7338 262.306 97.5746 261.203C106.918 260.333 116.183 258.913 125.34 256.838C138.77 253.794 151.776 249.546 164.018 243.155C170.801 239.613 177.175 235.459 182.849 230.291C187.884 225.706 192.156 220.532 194.981 214.275C198.52 206.434 199.009 198.433 196.171 190.267C194.338 184.992 191.384 180.388 187.719 176.227C180.737 168.301 172.113 162.577 162.809 157.774C162.303 157.513 161.884 157.507 161.385 157.777C160.369 158.325 159.326 158.823 158.293 159.339C132.557 172.208 106.821 185.077 81.0837 197.944C52.9497 212.01 24.8151 226.074 -3.31893 240.14C-3.80317 240.382 -4.28201 240.635 -5.05815 241.035ZM249.138 86.6204C248.396 86.9445 247.983 87.1321 247.565 87.3057C243.087 89.1634 238.672 91.1946 234.119 92.8433C217.286 98.9378 199.837 102.173 182.042 103.643C173.195 104.374 164.331 104.618 155.448 104.358C143.325 104.004 131.293 102.833 119.365 100.636C106.38 98.2433 93.7131 94.7463 81.5596 89.5264C72.4342 85.6071 63.8016 80.8378 56.1303 74.4611C50.5732 69.8419 45.7652 64.5836 42.3971 58.1219C40.1711 53.8515 38.7675 49.3422 38.4641 44.5126C38.239 40.9294 38.587 37.4124 39.5575 33.9515C39.7051 33.4254 40.0639 32.8829 39.8062 32.2631C36.7906 33.4071 -10.8338 57.3841 -11.5821 58.1545C-11.0755 58.4189 -10.5921 58.6807 -10.1007 58.9263C3.98865 65.9703 18.0798 73.0105 32.1684 80.0557C48.5303 88.2376 64.8885 96.4269 81.2514 104.607C103.068 115.513 124.887 126.414 146.705 137.318C151.54 139.734 156.38 142.14 161.201 144.583C161.848 144.911 162.367 144.956 163.003 144.59C163.842 144.106 164.736 143.718 165.604 143.285C182.957 134.61 200.311 125.936 217.663 117.26C227.744 112.219 237.818 107.163 247.913 102.151C248.826 101.698 249.177 101.172 249.162 100.147C249.105 96.2196 249.139 92.2906 249.138 88.362C249.138 87.8657 249.138 87.3694 249.138 86.6204ZM336.041 151.132C335.33 150.762 334.93 150.537 334.516 150.34C327.371 146.933 319.97 144.197 312.384 141.951C302.489 139.021 292.415 136.943 282.193 135.535C273.348 134.316 264.467 133.521 255.543 133.412C249.261 133.335 242.968 133.393 236.695 133.691C230.932 133.966 225.174 134.515 219.44 135.172C210.99 136.142 202.64 137.727 194.384 139.785C184.048 142.362 173.999 145.755 164.36 150.318C163.919 150.527 163.5 150.782 162.883 151.118C163.453 151.441 163.83 151.677 164.226 151.875C191.824 165.679 219.434 179.46 246.999 193.33C248.824 194.248 250.159 194.177 251.935 193.284C279.422 179.466 306.947 165.724 334.462 151.962C334.902 151.742 335.334 151.504 336.041 151.132ZM249.734 276.07C250.314 276.378 250.708 276.606 251.116 276.802C256.244 279.266 261.517 281.375 266.904 283.193C286.093 289.67 305.881 292.802 326.059 293.67C337.617 294.168 349.158 293.833 360.674 292.66C373.064 291.399 385.277 289.214 397.264 285.814C405.545 283.465 413.614 280.548 421.39 276.843C421.825 276.636 422.244 276.395 422.857 276.071C422.204 275.71 421.775 275.452 421.33 275.229C417.282 273.201 413.231 271.181 409.182 269.156C385.301 257.213 361.418 245.276 337.55 233.308C336.615 232.839 335.907 232.88 334.988 233.343C324.386 238.686 313.76 243.985 303.141 249.295C285.787 257.972 268.432 266.649 251.079 275.329C250.678 275.53 250.292 275.762 249.734 276.07ZM423.228 113.466C422.657 113.168 422.261 112.945 421.852 112.75C413.363 108.697 404.525 105.604 395.455 103.145C386.572 100.737 377.558 98.9933 368.436 97.7827C361.331 96.8397 354.199 96.2338 347.04 95.9189C332.735 95.2898 318.49 95.957 304.304 97.8763C292.838 99.4274 281.559 101.836 270.525 105.345C264.002 107.419 257.624 109.862 251.453 112.834C251.073 113.016 250.717 113.249 250.202 113.542C250.705 113.832 250.975 114.006 251.261 114.149C266.837 121.938 282.415 129.727 297.997 137.505C298.529 137.77 299.104 137.985 299.683 138.114C308.036 139.974 316.256 142.297 324.231 145.406C328.186 146.948 332.032 148.768 335.943 150.426C336.748 150.768 337.041 151.268 336.992 152.123C336.932 153.182 336.971 154.248 336.985 155.311C336.989 155.662 337.045 156.013 337.079 156.371C338.307 156.139 421.117 114.898 423.228 113.466ZM336.35 95.1756C336.35 82.8824 336.35 70.8103 336.35 58.5527C335.659 58.8764 335.12 59.1146 334.594 59.3777C323.725 64.8072 312.857 70.2368 301.991 75.672C281.169 86.0875 260.351 96.5106 239.527 106.923C214.447 119.464 189.361 131.993 164.285 144.541C162.012 145.678 162.419 145.016 162.401 147.624C162.395 148.562 162.296 149.515 162.525 150.554C163.015 150.348 163.354 150.221 163.678 150.065C171.143 146.458 178.897 143.605 186.844 141.279C195.321 138.798 203.935 136.925 212.666 135.58C220.528 134.369 228.426 133.518 236.37 133.143C240.108 132.967 243.852 132.918 247.594 132.804C248.079 132.789 248.563 132.731 249.15 132.685C249.15 131.985 249.15 131.438 249.15 130.89C249.15 125.483 249.171 120.075 249.131 114.667C249.123 113.703 249.414 113.149 250.32 112.763C253.166 111.549 255.946 110.178 258.812 109.018C276.254 101.96 294.47 98.1668 313.128 96.3054C320.35 95.5849 327.596 95.2179 334.857 95.1759C335.311 95.1734 335.765 95.1756 336.35 95.1756ZM111.21 182.259C113.35 181.199 115.167 180.305 116.978 179.4C131.437 172.173 145.889 164.934 160.364 157.74C161.45 157.2 161.95 156.622 161.896 155.339C161.782 152.618 161.795 149.886 161.893 147.163C161.937 145.922 161.535 145.295 160.409 144.737C147.872 138.522 135.367 132.243 122.85 125.986C111.491 120.307 100.129 114.633 88.7665 108.959C88.3519 108.752 87.9215 108.577 87.4984 108.387C87.4536 108.478 87.4088 108.569 87.3639 108.659C87.8423 109.011 88.3171 109.367 88.7995 109.712C93.7799 113.28 98.3481 117.296 102.204 122.08C108.175 129.49 111.455 137.784 111.258 147.474C111.035 158.467 111.209 169.468 111.21 180.465C111.21 180.959 111.21 181.453 111.21 182.259ZM162.4 151.641C162.4 153.174 162.455 154.465 162.381 155.748C162.328 156.664 162.649 157.152 163.481 157.565C167.376 159.498 171.105 161.724 174.692 164.184C180.867 168.42 186.457 173.293 190.915 179.36C195.899 186.144 198.709 193.637 198.554 202.185C198.42 209.531 198.528 216.882 198.53 224.232C198.53 224.718 198.53 225.205 198.53 225.926C199.265 225.587 199.761 225.374 200.243 225.133C212.887 218.812 225.53 212.488 238.173 206.165C241.52 204.491 244.858 202.798 248.221 201.158C248.902 200.827 249.199 200.424 249.154 199.668C249.102 198.793 249.162 197.912 249.142 197.035C249.087 194.574 249.552 195.139 247.201 193.96C235.556 188.12 223.898 182.305 212.246 176.479C196.131 168.423 180.017 160.364 163.902 152.309C163.498 152.107 163.075 151.941 162.4 151.641ZM300.318 225.914C300.318 225.125 300.318 224.62 300.318 224.116C300.319 216.492 300.35 208.868 300.311 201.245C300.286 196.116 301.399 191.26 303.565 186.631C306.513 180.329 310.884 175.121 316.017 170.51C321.62 165.477 327.895 161.429 334.543 157.932C335.152 157.611 335.758 157.283 336.447 156.914C336.447 155.468 336.452 154.041 336.443 152.615C336.441 152.353 336.38 152.091 336.331 151.71C335.869 151.905 335.489 152.041 335.13 152.22C331.492 154.03 327.855 155.845 324.221 157.663C304.974 167.289 285.729 176.919 266.482 186.545C261.237 189.169 255.995 191.8 250.733 194.391C249.972 194.766 249.602 195.21 249.662 196.083C249.729 197.048 249.776 198.034 249.657 198.99C249.49 200.321 250.105 200.924 251.236 201.486C267.116 209.38 282.973 217.321 298.837 225.247C299.236 225.447 299.651 225.615 300.318 225.914ZM423.777 113.043C423.777 112.316 423.777 111.862 423.777 111.409C423.778 108.774 423.762 106.14 423.784 103.506C423.803 101.222 423.421 101.691 425.564 100.617C434.401 96.1874 443.247 91.7753 452.088 87.3537C452.519 87.1384 452.935 86.8939 453.357 86.6629C452.76 86.4569 452.227 86.4967 451.695 86.5464C448.614 86.8343 445.535 87.1554 442.45 87.4079C432.21 88.2465 421.956 88.3598 411.699 87.8258C400.058 87.2196 388.509 85.8436 377.084 83.4827C363.647 80.7058 350.601 76.738 338.201 70.7873C337.886 70.636 337.542 70.5444 337.201 70.4212C336.857 71.8942 336.9 94.0349 337.261 95.1736C337.728 95.1736 338.232 95.1616 338.735 95.1755C342.384 95.2766 346.038 95.3024 349.682 95.5022C361.275 96.1383 372.779 97.524 384.152 99.9002C396.667 102.515 408.85 106.182 420.495 111.524C421.494 111.982 422.489 112.446 423.777 113.043ZM149.26 250.627C110.584 263.976 71.1292 265.723 31.0217 258.971C31.4008 259.269 31.8149 259.516 32.2448 259.731C41.577 264.402 50.9106 269.07 60.2446 273.737C64.7051 275.967 69.1505 278.229 73.6398 280.399C74.6961 280.91 75.2021 281.491 75.0953 282.703C74.9863 283.94 75.0647 285.195 75.0785 286.443C75.0823 286.786 75.149 287.128 75.2068 287.653C99.9909 275.261 124.626 262.944 149.26 250.627ZM-12.1827 83.2031C-11.7095 83.2429 -11.3093 83.3008 -10.9083 83.3069C-3.19357 83.4239 4.50659 83.782 12.1855 84.5747C20.3667 85.4193 28.4842 86.6551 36.5226 88.3976C44.2443 90.0715 51.8513 92.1547 59.2916 94.8281C59.6788 94.9672 60.0863 95.0497 60.4845 95.1586C58.854 93.7981 -11.1815 58.9151 -12.1827 58.775C-12.1827 66.8902 -12.1827 75.0006 -12.1827 83.2031ZM351.027 150.319C351.063 150.42 351.099 150.521 351.135 150.623C374.576 142.247 398.85 138.934 423.693 138.716C423.693 130.451 423.693 122.349 423.693 113.984C399.355 126.154 375.191 138.236 351.027 150.319ZM74.4802 281.762C54.7042 291.651 35.1687 301.419 15.6332 311.188C15.6695 311.301 15.7058 311.414 15.7423 311.528C34.9612 306.356 54.5612 304.138 74.4803 303.992C74.4802 296.558 74.4802 289.323 74.4802 281.762ZM295.508 137.222C295.535 137.112 295.563 137.001 295.59 136.891C280.381 129.287 265.172 121.684 249.919 114.059C249.554 115.693 249.628 131.741 249.998 132.797C265.28 132.797 280.468 134.25 295.508 137.222ZM-12.8521 66.9867C-14.6566 67.5353 -50.7898 85.6897 -51.6106 86.494C-38.7068 84.3409 -25.8471 83.3944 -12.8521 83.2919C-12.8521 77.7693 -12.8521 72.429 -12.8521 66.9867ZM75.1498 303.998C87.0567 304.084 98.7915 304.916 110.461 306.641C110.486 306.534 110.511 306.427 110.536 306.32C98.798 300.452 87.0599 294.584 75.1498 288.629C75.1498 293.849 75.1498 298.814 75.1498 303.998ZM300.905 208.01C300.883 208.235 300.844 208.46 300.843 208.685C300.839 214.225 300.865 219.764 300.813 225.303C300.804 226.212 301.293 226.492 301.931 226.811C309.032 230.353 316.129 233.904 323.23 237.448C323.622 237.644 324.038 237.794 324.443 237.966C324.491 237.883 324.539 237.8 324.587 237.717C324.243 237.457 323.898 237.197 323.555 236.936C321.717 235.541 319.829 234.208 318.052 232.74C312.67 228.294 308.027 223.205 304.651 217.038C303.092 214.19 301.971 211.174 300.905 208.01ZM197.963 208.041C197.892 208.044 197.822 208.046 197.751 208.048C197.661 208.305 197.551 208.558 197.482 208.821C195.967 214.648 193.037 219.73 189.252 224.35C185.065 229.461 180.078 233.687 174.652 237.419C174.38 237.605 174.14 237.837 173.885 238.048C173.931 238.113 173.977 238.178 174.023 238.243C182.007 234.251 189.992 230.258 197.963 226.273C197.963 220.116 197.963 214.079 197.963 208.041ZM301.026 33.4734C300.967 33.4788 300.909 33.4844 300.851 33.4898C300.851 35.4129 300.843 37.3361 300.862 39.2591C300.864 39.4626 300.97 39.7678 301.122 39.8502C301.972 40.3094 302.759 40.9452 303.768 41.0298C302.835 38.4571 301.93 35.9653 301.026 33.4734Z" fill="url(#paint0_linear_18468_35061)" fill-opacity="0.2"/>
<defs>
<linearGradient id="paint0_linear_18468_35061" x1="187.999" y1="39.2217" x2="188.149" y2="298.963" gradientUnits="userSpaceOnUse">
<stop stop-color="white" stop-opacity="0"/>
<stop offset="1" stop-color="#DDDDDD"/>
</linearGradient>
</defs>
</svg>
