<svg width="48" height="48" viewBox="0 0 48 48" fill="none" xmlns="http://www.w3.org/2000/svg">
<mask id="mask0_18805_1421" style="mask-type:alpha" maskUnits="userSpaceOnUse" x="0" y="0" width="48" height="48">
<rect width="48" height="48" fill="#D9D9D9"/>
</mask>
<g mask="url(#mask0_18805_1421)">
<path d="M22 42V27.45C21.4 27.0833 20.9167 26.6083 20.55 26.025C20.1833 25.4417 20 24.7667 20 24C20 22.9 20.3917 21.9583 21.175 21.175C21.9583 20.3917 22.9 20 24 20C25.1 20 26.0417 20.3917 26.825 21.175C27.6083 21.9583 28 22.9 28 24C28 24.7667 27.8167 25.45 27.45 26.05C27.0833 26.65 26.6 27.1167 26 27.45V42C26 42.5667 25.8083 43.0417 25.425 43.425C25.0417 43.8083 24.5667 44 24 44C23.4333 44 22.9583 43.8083 22.575 43.425C22.1917 43.0417 22 42.5667 22 42ZM11.65 37.05C11.25 37.45 10.7667 37.65 10.2 37.65C9.63333 37.65 9.16667 37.4333 8.8 37C7.3 35.2333 6.125 33.25 5.275 31.05C4.425 28.85 4 26.5 4 24C4 21.2333 4.525 18.6333 5.575 16.2C6.625 13.7667 8.05 11.65 9.85 9.85C11.65 8.05 13.7667 6.625 16.2 5.575C18.6333 4.525 21.2333 4 24 4C26.7667 4 29.3667 4.525 31.8 5.575C34.2333 6.625 36.35 8.05 38.15 9.85C39.95 11.65 41.375 13.7667 42.425 16.2C43.475 18.6333 44 21.2333 44 24C44 26.5 43.575 28.85 42.725 31.05C41.875 33.25 40.7 35.2333 39.2 37C38.8333 37.4333 38.375 37.6583 37.825 37.675C37.275 37.6917 36.8 37.5 36.4 37.1C36.0333 36.7333 35.85 36.2667 35.85 35.7C35.85 35.1333 36.0333 34.6333 36.4 34.2C37.5333 32.8 38.4167 31.2333 39.05 29.5C39.6833 27.7667 40 25.9333 40 24C40 19.5333 38.45 15.75 35.35 12.65C32.25 9.55 28.4667 8 24 8C19.5333 8 15.75 9.55 12.65 12.65C9.55 15.75 8 19.5333 8 24C8 25.9333 8.31667 27.7583 8.95 29.475C9.58333 31.1917 10.4833 32.75 11.65 34.15C12.0167 34.5833 12.2083 35.075 12.225 35.625C12.2417 36.175 12.05 36.65 11.65 37.05ZM17.3 31.4C16.9 31.8 16.4167 32.0083 15.85 32.025C15.2833 32.0417 14.8333 31.8167 14.5 31.35C13.7333 30.3167 13.125 29.1833 12.675 27.95C12.225 26.7167 12 25.4 12 24C12 20.6667 13.1667 17.8333 15.5 15.5C17.8333 13.1667 20.6667 12 24 12C27.3333 12 30.1667 13.1667 32.5 15.5C34.8333 17.8333 36 20.6667 36 24C36 25.4 35.775 26.725 35.325 27.975C34.875 29.225 34.2667 30.35 33.5 31.35C33.1667 31.7833 32.7167 32.0083 32.15 32.025C31.5833 32.0417 31.1 31.85 30.7 31.45C30.3333 31.0833 30.1417 30.6167 30.125 30.05C30.1083 29.4833 30.2667 28.9667 30.6 28.5C31.0333 27.8333 31.375 27.125 31.625 26.375C31.875 25.625 32 24.8333 32 24C32 21.8 31.2167 19.9167 29.65 18.35C28.0833 16.7833 26.2 16 24 16C21.8 16 19.9167 16.7833 18.35 18.35C16.7833 19.9167 16 21.8 16 24C16 24.8667 16.125 25.6667 16.375 26.4C16.625 27.1333 16.9667 27.8333 17.4 28.5C17.7333 28.9667 17.8917 29.475 17.875 30.025C17.8583 30.575 17.6667 31.0333 17.3 31.4Z" fill="#FFAB13"/>
</g>
</svg>
