<svg width="48" height="48" viewBox="0 0 48 48" fill="none" xmlns="http://www.w3.org/2000/svg">
<mask id="mask0_18468_33918" style="mask-type:alpha" maskUnits="userSpaceOnUse" x="0" y="0" width="48" height="48">
<rect width="48" height="48" fill="#D9D9D9"/>
</mask>
<g mask="url(#mask0_18468_33918)">
<path d="M16.2 42.425C13.7667 41.375 11.65 39.95 9.85 38.15C8.05 36.35 6.625 34.2333 5.575 31.8C4.525 29.3667 4 26.7667 4 24C4 21.2333 4.525 18.6333 5.575 16.2C6.625 13.7667 8.05 11.65 9.85 9.85C11.65 8.05 13.7667 6.625 16.2 5.575C18.6333 4.525 21.2333 4 24 4C26.7667 4 29.3667 4.525 31.8 5.575C34.2333 6.625 36.35 8.05 38.15 9.85C39.95 11.65 41.375 13.7667 42.425 16.2C43.475 18.6333 44 21.2333 44 24C44 26.7667 43.475 29.3667 42.425 31.8C41.375 34.2333 39.95 36.35 38.15 38.15C36.35 39.95 34.2333 41.375 31.8 42.425C29.3667 43.475 26.7667 44 24 44C21.2333 44 18.6333 43.475 16.2 42.425ZM22 39.9V36C20.9 36 19.9583 35.6083 19.175 34.825C18.3917 34.0417 18 33.1 18 32V30L8.4 20.4C8.3 21 8.20833 21.6 8.125 22.2C8.04167 22.8 8 23.4 8 24C8 28.0333 9.325 31.5667 11.975 34.6C14.625 37.6333 17.9667 39.4 22 39.9ZM35.8 34.8C37.1667 33.3 38.2083 31.625 38.925 29.775C39.6417 27.925 40 26 40 24C40 20.7333 39.0917 17.75 37.275 15.05C35.4583 12.35 33.0333 10.4 30 9.2V10C30 11.1 29.6083 12.0417 28.825 12.825C28.0417 13.6083 27.1 14 26 14H22V18C22 18.5667 21.8083 19.0417 21.425 19.425C21.0417 19.8083 20.5667 20 20 20H16V24H28C28.5667 24 29.0417 24.1917 29.425 24.575C29.8083 24.9583 30 25.4333 30 26V32H32C32.8667 32 33.65 32.2583 34.35 32.775C35.05 33.2917 35.5333 33.9667 35.8 34.8Z" fill="#FFAB13"/>
</g>
</svg>
