<svg width="48" height="48" viewBox="0 0 48 48" fill="none" xmlns="http://www.w3.org/2000/svg">
<mask id="mask0_18805_1827" style="mask-type:alpha" maskUnits="userSpaceOnUse" x="0" y="0" width="48" height="48">
<rect width="48" height="48" fill="#D9D9D9"/>
</mask>
<g mask="url(#mask0_18805_1827)">
<path d="M46 17.9998C46 20.2998 45.5917 22.4915 44.775 24.5748C43.9583 26.6581 42.85 28.5498 41.45 30.2498C41.05 30.7165 40.55 30.9665 39.95 30.9998C39.35 31.0331 38.8167 30.8165 38.35 30.3498C37.9167 29.9165 37.7167 29.3998 37.75 28.7998C37.7833 28.1998 37.9833 27.6498 38.35 27.1498C39.35 25.8831 40.125 24.4665 40.675 22.8998C41.225 21.3331 41.5 19.6998 41.5 17.9998C41.5 16.2998 41.225 14.6831 40.675 13.1498C40.125 11.6165 39.35 10.2165 38.35 8.94979C37.95 8.44979 37.7417 7.89979 37.725 7.29979C37.7083 6.69979 37.9167 6.16645 38.35 5.69979C38.7833 5.23312 39.3083 5.00812 39.925 5.02479C40.5417 5.04145 41.05 5.28312 41.45 5.74979C42.85 7.44979 43.9583 9.34145 44.775 11.4248C45.5917 13.5081 46 15.6998 46 17.9998ZM36.9 17.9998C36.9 19.0665 36.7333 20.0915 36.4 21.0748C36.0667 22.0581 35.6 22.9665 35 23.7998C34.6333 24.2998 34.1417 24.5581 33.525 24.5748C32.9083 24.5915 32.3667 24.3665 31.9 23.8998C31.4667 23.4665 31.2417 22.9415 31.225 22.3248C31.2083 21.7081 31.35 21.1165 31.65 20.5498C31.85 20.1831 32.0083 19.7831 32.125 19.3498C32.2417 18.9165 32.3 18.4665 32.3 17.9998C32.3 17.5331 32.2417 17.0831 32.125 16.6498C32.0083 16.2165 31.85 15.7998 31.65 15.3998C31.35 14.8331 31.2083 14.2498 31.225 13.6498C31.2417 13.0498 31.4667 12.5331 31.9 12.0998C32.3667 11.6331 32.9083 11.4081 33.525 11.4248C34.1417 11.4415 34.6333 11.6998 35 12.1998C35.6 13.0331 36.0667 13.9415 36.4 14.9248C36.7333 15.9081 36.9 16.9331 36.9 17.9998ZM18 25.9998C15.8 25.9998 13.9167 25.2165 12.35 23.6498C10.7833 22.0831 10 20.1998 10 17.9998C10 15.7998 10.7833 13.9165 12.35 12.3498C13.9167 10.7831 15.8 9.99979 18 9.99979C20.2 9.99979 22.0833 10.7831 23.65 12.3498C25.2167 13.9165 26 15.7998 26 17.9998C26 20.1998 25.2167 22.0831 23.65 23.6498C22.0833 25.2165 20.2 25.9998 18 25.9998ZM2 37.9998V36.3998C2 35.2998 2.28333 34.2665 2.85 33.2998C3.41667 32.3331 4.2 31.5998 5.2 31.0998C6.9 30.2331 8.81667 29.4998 10.95 28.8998C13.0833 28.2998 15.4333 27.9998 18 27.9998C20.5667 27.9998 22.9167 28.2998 25.05 28.8998C27.1833 29.4998 29.1 30.2331 30.8 31.0998C31.8 31.5998 32.5833 32.3331 33.15 33.2998C33.7167 34.2665 34 35.2998 34 36.3998V37.9998C34 39.0998 33.6083 40.0415 32.825 40.8248C32.0417 41.6081 31.1 41.9998 30 41.9998H6C4.9 41.9998 3.95833 41.6081 3.175 40.8248C2.39167 40.0415 2 39.0998 2 37.9998Z" fill="#FFAB13"/>
</g>
</svg>
