<svg width="233" height="54" viewBox="0 0 233 54" fill="none" xmlns="http://www.w3.org/2000/svg">
<path d="M13.9672 0.585327C15.1362 0.612897 18.8542 3.00885 20.1742 3.64869C21.5039 4.29318 27.8243 7.2373 28.4017 8.13817C28.3991 8.14849 28.3775 8.23471 28.3687 8.24523C27.173 9.59708 25.1616 9.66208 24.2693 11.4675C23.8305 11.9288 23.2845 13.9274 22.4793 13.4345C20.6814 12.3339 21.681 9.89779 22.3701 8.4006C20.9845 7.51901 19.3518 6.82776 17.6886 6.82527C16.4817 6.82345 15.7959 8.03158 15.995 9.09735C16.9174 14.0357 23.7616 16.9768 27.4367 19.4712C32.9683 23.2256 37.1058 27.9406 37.5425 34.8397C37.7696 38.9905 36.3619 43.0653 33.6213 46.1907C30.0292 50.2559 25.2951 52.4616 19.8537 52.7843C11.3373 53.2896 1.64683 48.4546 1.10691 39.0148C0.859455 34.6884 2.47203 31.698 5.31564 28.5286C4.83243 27.6114 3.32402 23.9983 4.50293 23.3129C5.31124 23.4386 6.87353 26.1457 8.05266 26.7008C8.91393 27.1062 10.2526 27.3931 10.6251 28.1604C10.6357 28.4218 10.6378 28.5699 10.4104 28.7871C9.12793 30.0125 7.80391 30.6179 6.53298 31.9708C5.54742 33.01 4.78675 34.2413 4.29852 35.5878C3.31768 38.2467 3.54092 41.2768 4.71658 43.835C5.29452 44.8979 5.67613 45.4559 6.50216 46.3314C6.12951 45.1803 5.65022 44.1531 5.32432 42.934C4.0104 38.0191 6.16787 31.9273 11.3889 30.438C14.5862 29.6281 18.1482 30.5391 19.0898 34.0594C19.4024 35.466 18.5888 37.3873 17.0626 37.6838C15.6457 37.959 15.7133 35.7989 14.9145 35.3958C13.5893 34.7269 12.0044 35.7266 11.3067 36.9102C8.62024 41.4585 13.7069 45.7954 18.1866 44.5225C21.0299 43.7146 22.1446 42.6294 23.2204 39.8757C24.8633 35.6708 22.4133 31.3099 19.3123 28.5122C18.1689 27.4806 16.8584 26.7248 15.6463 25.785C11.9709 23.0717 8.55876 19.5277 7.50668 14.9367C6.9908 13.0494 6.98768 11.0119 7.96371 9.26846C8.18005 8.88203 8.4443 8.58484 8.872 8.47755C9.65048 8.78155 10.2724 11.4418 10.8753 12.2948C12.943 15.22 15.9451 17.6874 19.1246 19.3263C22.3596 20.9939 25.7343 22.2306 28.5316 24.679C29.1111 25.1815 30.7619 27.0372 31.3125 27.1457L31.3949 26.9605C30.3051 21.946 20.4873 18.7834 16.8462 15.9022C14.2592 13.8224 11.2117 10.9098 10.6742 7.47446C10.3238 5.23529 11.3045 0.934466 13.9672 0.585327Z" fill="black"/>
<path d="M161.532 17.6932C166.109 17.9356 171.695 16.6678 175.155 20.3616C178.747 24.195 178.417 29.7841 174.76 33.4301C171.105 36.5932 165.928 35.921 161.345 35.6904C161.174 32.7498 161.373 29.3787 161.301 26.4004C161.272 25.2504 161.17 18.3129 161.532 17.6932ZM165.638 32.3195C167.641 32.3546 170.041 32.6382 171.578 31.0579C173.656 28.612 173.852 24.5415 171.409 22.2183C170.157 21.0277 167.472 21.0498 165.797 21.1518C165.507 21.7318 165.622 30.9634 165.638 32.3195Z" fill="black"/>
<path d="M206.516 28.9794C207.577 27.4704 211.625 18.208 212.565 17.8588C212.58 17.8535 212.594 17.8486 212.609 17.8433C213.251 17.6113 215.254 17.6425 215.962 17.731C216.117 17.7505 216.394 17.8123 216.492 17.9412C216.802 18.351 216.73 34.1793 216.541 35.7788L216.504 35.7812C215.729 35.8295 213.469 35.9301 212.93 35.4509C212.76 34.6304 212.862 30.3659 212.872 29.2665C212.799 27.6613 212.885 26.0749 212.811 24.4609C211.871 26.0768 208.832 33.0343 207.776 33.6144C207.3 33.8763 206.176 33.9009 205.662 33.7304C205.199 33.577 204.918 33.1312 204.663 32.7389C203.903 31.5688 203.375 30.1824 202.753 28.9284C202.002 27.4166 201.164 25.9508 200.42 24.4335C200.404 25.8918 200.629 34.7699 200.256 35.6482C199.74 35.9597 197.321 35.7403 196.521 35.7317C196.527 33.7906 196.234 18.9781 196.646 17.9939C197.031 17.6903 197.093 17.7825 197.658 17.7541C198.501 17.717 199.77 17.5256 200.552 17.8265C201.612 18.234 205.83 27.408 206.516 28.9794Z" fill="black"/>
<path d="M131.68 28.6028C131.674 27.2359 131.503 18.3257 131.901 17.8185C132.802 17.6732 134.459 17.7049 135.425 17.6959C135.624 18.9609 135.542 22.5247 135.539 23.9381L135.537 35.712C134.489 35.7113 133.526 35.7065 132.476 35.6486C131.684 35.0344 130.386 33.2915 129.708 32.4492C127.655 29.9003 125.661 27.2239 123.596 24.6839L123.595 31.8609C123.596 32.8499 123.657 34.9144 123.511 35.7669C123.02 35.6994 121.929 35.7946 121.385 35.8278L119.842 35.7255C119.778 34.9102 119.76 33.8879 119.778 33.068C119.892 28.0313 119.598 22.8202 119.837 17.8017C120.556 17.7866 122.601 17.4814 123.124 18.0059C126.275 21.1685 128.673 25.3216 131.68 28.6028Z" fill="black"/>
<path d="M149.041 17.7312C150.263 17.7253 151.936 17.7607 153.104 17.6241C153.907 19.0617 154.94 22.1511 155.593 23.7919C157.168 27.7522 158.616 31.7577 160.266 35.6966C159.289 35.8524 157.718 35.8832 156.753 35.7117C155.148 35.4266 154.685 33.1377 154.382 31.7243C153.993 31.6781 153.489 31.6635 153.088 31.6407C151.34 31.6365 149.515 31.6063 147.776 31.6938C146.295 36.0963 146.554 35.9824 141.816 35.6572C143.208 32.281 144.549 28.8842 145.838 25.4678C146.351 24.1046 148.304 18.5017 149.041 17.7312ZM148.804 28.6823C149.608 28.6746 150.486 28.6836 151.283 28.6478C151.935 28.6561 152.594 28.6691 153.246 28.6692C152.995 27.8814 151.354 22.6053 151.002 22.3102C150.131 24.4468 149.557 26.5259 148.804 28.6823Z" fill="black"/>
<path d="M184.282 17.7353C185.617 17.7075 187.004 17.7235 188.344 17.7216C188.996 18.5933 195.055 34.5746 195.231 35.6815L191.737 35.7442C191.678 35.7145 191.619 35.6837 191.562 35.6517C190.266 34.9323 189.97 33.0544 189.563 31.6331L188.051 31.6343C186.388 31.6261 184.756 31.6086 183.094 31.6874C181.236 36.0732 182.617 35.8452 177.158 35.6595C178.596 31.8204 180.066 27.9934 181.568 24.1786C181.995 23.0732 183.644 18.1632 184.282 17.7353ZM183.91 28.6713L186.563 28.6811C187.159 28.68 187.947 28.698 188.525 28.6578C188.289 27.9038 186.577 22.8102 186.257 22.3005C185.431 24.0828 184.811 26.5695 183.91 28.6713Z" fill="black"/>
<path d="M74.4312 17.7528C78.1357 17.6205 81.9677 17.7325 85.6854 17.6796C85.7504 18.6323 85.7219 20.1279 85.7372 21.1268C83.3115 21.0857 80.8852 21.0804 78.4593 21.1109C78.5073 22.2003 78.5558 23.937 78.3981 25.0008C80.2311 24.9657 82.1578 24.9941 83.9985 24.992C84.1022 26.0495 84.0675 27.1391 83.9946 28.1964C82.1605 28.174 80.3262 28.1642 78.492 28.1672C78.5176 28.759 78.4899 29.5386 78.4853 30.1449L78.4627 32.3035C80.8509 32.3855 83.2603 32.2738 85.6583 32.3776C85.7527 33.1422 85.7171 34.8721 85.7384 35.7371C82.3251 35.5486 77.6111 35.7236 74.0676 35.691L74.0616 22.9289C74.0621 21.4225 74.0266 19.6617 74.1122 18.1482C74.1264 17.8975 74.2432 17.8731 74.4312 17.7528Z" fill="black"/>
<path d="M106.06 17.718C109.643 17.6075 113.703 17.7565 117.377 17.7122C117.566 18.643 117.506 20.1261 117.489 21.111C115.134 21.0398 112.513 21.096 110.145 21.1076L110.135 25.0307L115.835 24.9782C115.828 26.0493 115.862 27.1201 115.936 28.1886C114.087 28.1034 111.999 28.1477 110.132 28.1492L110.152 30.6555L110.219 32.3379C112.452 32.337 115.286 32.2655 117.464 32.3832C117.5 33.3515 117.629 34.6312 117.321 35.5528C117.237 35.8053 116.344 35.8074 116.09 35.8045C113.021 35.7701 109.954 35.7125 106.886 35.7875C106.604 35.7943 106.252 35.7465 105.998 35.6252C105.659 34.4864 105.717 18.6328 106.06 17.718Z" fill="black"/>
<path d="M86.666 17.6675C87.907 17.9325 89.5541 17.3576 90.6824 17.8481C91.8261 18.3451 94.8919 28.5117 95.5771 30.3126C97.0035 27.1505 98.1306 22.7199 99.4864 19.4386C99.6344 19.0806 99.9522 18.1715 100.299 18.0366C101.594 17.5327 103.202 17.833 104.674 17.7391C104.317 19.1938 103.7 20.5611 103.096 21.9278C102.601 22.9022 101.742 25.2913 101.295 26.4128C100.09 29.4416 98.7377 32.6019 97.624 35.6531C96.3344 35.7746 95.0603 35.8269 93.7712 35.677C92.3902 33.0197 90.8254 28.6827 89.6884 25.847L87.7498 20.9353C87.3241 19.8825 86.6754 18.7957 86.666 17.6675Z" fill="black"/>
<path d="M49.9764 17.6109C52.9497 17.3378 54.604 17.8004 56.9816 19.4696C56.1272 20.5732 55.7871 22.753 53.9858 21.8331C53.233 21.4487 52.1745 21.1082 51.3667 20.9039C50.5031 21.1494 49.1176 21.462 49.1896 22.6905C49.2705 24.0752 51.3999 24.4926 52.509 24.8872C53.664 25.298 55.0386 25.7394 55.9438 26.6767C58.9343 30.2923 55.9608 35.8475 51.2944 35.846C48.5133 35.8765 46.4697 35.378 44.3945 33.4434C44.7216 32.8289 45.5417 31.2329 46.1424 31.0616C47.9754 30.5392 49.6579 33.1466 51.6492 32.3553C52.5305 32.0052 52.7799 31.2355 53.1102 30.4202C52.9147 29.9959 52.6777 29.6151 52.4383 29.2153C49.6389 27.7017 45.804 28.1147 45.1174 23.9848C44.5749 20.7222 46.9352 18.2117 49.9764 17.6109Z" fill="black"/>
<path d="M224.08 17.6183C226.884 17.5307 228.667 17.525 230.921 19.4663C229.535 23.5287 228.422 21.6265 225.513 20.9217C224.612 21.1302 223.213 21.4317 223.341 22.6658C223.47 24.0288 225.704 24.5443 226.825 24.9265C229.065 25.6908 231.068 26.7569 231.194 29.4707C231.259 30.8713 230.75 32.8055 229.769 33.8697C228.661 35.0595 227.133 35.7706 225.51 35.8514C223.763 35.873 219.436 35.3304 218.682 33.4638C218.677 33.0922 218.646 33.237 218.786 32.9235C221.1 27.7791 223.577 35.1327 227.058 31.2718C227.054 30.7914 226.998 30.1775 226.969 29.6874C225.558 28.2508 223.152 28.3172 221.378 27.2826C218.987 25.8893 218.624 22.5322 219.951 20.2737C220.944 18.5854 222.225 18.0682 224.08 17.6183Z" fill="black"/>
<path d="M71.5414 17.6384C71.7967 17.5814 71.846 17.596 72.1022 17.661C72.5089 18.1242 72.3497 20.5291 72.3391 21.3245C70.6565 21.2328 68.9704 21.2305 67.2877 21.3175C67.4097 22.7493 67.3116 25.4085 67.3092 26.9164C67.3044 29.8206 67.3617 32.8187 67.2958 35.7086L62.9822 35.7041L62.9935 32.0011L62.9892 21.3016C61.3639 21.283 59.7033 21.3037 58.0749 21.3066L58.0733 21.2864C57.9805 19.9405 58.039 19.0655 58.1101 17.715C62.0591 17.6357 66.0101 17.7385 69.9595 17.6966C70.4881 17.691 71.0144 17.6812 71.5414 17.6384Z" fill="black"/>
</svg>
