<svg width="189" height="56" viewBox="0 0 189 56" fill="none" xmlns="http://www.w3.org/2000/svg">
<g clip-path="url(#clip0_18522_7877)">
<path d="M174.038 31.9218C175.73 31.9212 177.39 31.4503 178.83 30.5616C180.271 29.6729 181.436 28.4013 182.196 26.8888H176.264V24.8956H182.924C183.078 24.2439 183.158 23.5768 183.162 22.9071H176.264V20.933H183.147V18.9207H176.264V16.9275H183.147V14.9391H176.264V12.9411H183.147V10.9432H176.264V8.95947H183.147C183.137 8.2894 183.052 7.62254 182.895 6.97103H176.264V4.97306H182.148C181.219 3.15179 179.704 1.6962 177.847 0.840688C175.991 -0.0148215 173.9 -0.220451 171.912 0.256914C169.924 0.734279 168.154 1.86685 166.888 3.47225C165.622 5.07764 164.933 7.06242 164.933 9.10694V22.8358C164.945 25.245 165.909 27.5516 167.614 29.2534C169.32 30.9552 171.628 31.9143 174.038 31.9218Z" fill="#EFA622"/>
<path d="M188.731 23.2778V19.1106C188.415 19.11 188.102 19.1718 187.809 19.2926C187.517 19.4133 187.252 19.5906 187.028 19.8142C186.804 20.0379 186.627 20.3035 186.506 20.5958C186.386 20.8881 186.324 21.2014 186.324 21.5177V22.8354C186.314 26.0907 185.016 29.2097 182.714 31.5111C180.412 33.8126 177.292 35.1093 174.037 35.1181C170.78 35.1118 167.658 33.8162 165.354 31.5145C163.049 29.2128 161.75 26.0923 161.74 22.8354V21.5177C161.74 20.8842 161.49 20.2762 161.045 19.8256C160.6 19.375 159.995 19.1181 159.361 19.1106V23.2778C159.374 26.8952 160.715 30.3818 163.131 33.0745C165.546 35.7673 168.867 37.4782 172.462 37.8819V43.1908H163.362C163.048 43.2103 162.753 43.3489 162.537 43.5782C162.322 43.8076 162.202 44.1105 162.202 44.4252C162.202 44.74 162.322 45.0429 162.537 45.2723C162.753 45.5016 163.048 45.6402 163.362 45.6597H184.674C184.847 45.6703 185.021 45.6453 185.185 45.5861C185.348 45.527 185.498 45.435 185.625 45.3158C185.752 45.1966 185.853 45.0527 185.922 44.893C185.991 44.7333 186.026 44.5612 186.026 44.3872C186.026 44.2132 185.991 44.0411 185.922 43.8814C185.853 43.7217 185.752 43.5778 185.625 43.4586C185.498 43.3394 185.348 43.2474 185.185 43.1882C185.021 43.1291 184.847 43.1041 184.674 43.1147H175.507V37.8819C179.124 37.5066 182.475 35.8079 184.916 33.1124C187.357 30.4168 188.716 26.9143 188.731 23.2778Z" fill="#EFA622"/>
<path d="M26.9582 21.8175C24.1258 20.7661 21.2212 19.9203 18.2671 19.2868C15.0799 18.5256 12.7632 17.6884 11.3789 16.7988C10.8271 16.4588 10.3783 15.975 10.0808 15.3992C9.78329 14.8234 9.64822 14.1775 9.69011 13.5307C9.65368 12.7118 9.8247 11.897 10.1873 11.1618C10.5499 10.4267 11.0923 9.79504 11.7642 9.32549C13.2674 8.24089 15.4224 7.68431 18.1624 7.68431C20.2443 7.67215 22.3109 8.03969 24.261 8.76892C26.3114 9.56811 28.2197 10.6925 29.9123 12.0989L31.1634 13.1216L34.384 6.31904L33.7465 5.71014C31.7932 3.81554 29.4321 2.39331 26.844 1.55247C24.0286 0.596151 21.074 0.113889 18.1006 0.125358C15.077 0.0747215 12.0762 0.656411 9.29052 1.83314C6.86016 2.84468 4.76216 4.51748 3.23479 6.66155C1.78282 8.78813 1.02655 11.3129 1.07034 13.8875C1.07034 16.5943 1.77438 18.8729 3.15392 20.6615C4.61767 22.4922 6.53012 23.913 8.7054 24.7859C11.4437 25.8868 14.2784 26.7309 17.173 27.3071C20.5362 28.073 22.9956 28.8817 24.4703 29.7095C25.0211 29.9839 25.4798 30.4133 25.79 30.9449C26.1001 31.4764 26.2482 32.087 26.2161 32.7016C26.2493 33.4758 26.0803 34.2452 25.7258 34.9341C25.3713 35.6231 24.8435 36.2079 24.1944 36.631C22.7054 37.6537 20.4934 38.1722 17.6249 38.1722C15.239 38.2041 12.8635 37.8524 10.5892 37.1305C8.39409 36.3724 6.35272 35.2269 4.56201 33.7482L3.32994 32.7492L0 39.5851L0.723072 40.2178C2.90177 42.0959 5.44419 43.5047 8.19164 44.3564C11.2257 45.2958 14.387 45.7595 17.563 45.7312C20.6505 45.7941 23.7205 45.2544 26.6014 44.1423C29.0441 43.2071 31.1673 41.5908 32.719 39.4852C34.1784 37.3956 34.9393 34.8979 34.893 32.3496C34.893 29.6619 34.1366 27.4261 32.6429 25.6897C31.0881 23.9593 29.1377 22.6308 26.9582 21.8175Z" fill="white"/>
<path d="M63.5492 14.977C61.3397 13.5546 58.7606 12.8134 56.133 12.8458C53.8906 12.8053 51.6772 13.3566 49.7157 14.4442C49.0208 14.8466 48.373 15.3252 47.7844 15.8713V13.5784H39.2217V56.0018H47.7844V42.7154C48.3756 43.2517 49.0269 43.7178 49.7252 44.1044C51.6906 45.1697 53.8979 45.7088 56.133 45.6695C58.7605 45.7129 61.3456 45.0031 63.5825 43.6239C65.7895 42.2264 67.5417 40.2164 68.625 37.8394C69.8207 35.1946 70.4122 32.3166 70.3566 29.4146C70.4151 26.4644 69.8121 23.5386 68.5917 20.8519C67.4959 18.459 65.7484 16.423 63.5492 14.977ZM61.6892 29.4146C61.6892 32.3688 61.0613 34.6474 59.8197 36.1744C58.6304 37.6491 56.9655 38.3626 54.7106 38.3626C52.4558 38.3626 50.8099 37.6443 49.6396 36.1601C48.4171 34.6046 47.7939 32.2927 47.7939 29.2957C47.7939 26.2988 48.4171 23.9868 49.6396 22.436C50.8622 20.8852 52.4939 20.2288 54.7106 20.2288C56.9274 20.2288 58.5686 20.9709 59.7817 22.4979C60.9947 24.0249 61.6892 26.4177 61.6892 29.4146Z" fill="white"/>
<path d="M97.5724 16.1755C95.4413 13.9825 92.216 12.8456 87.9775 12.8456C85.6986 12.8652 83.4345 13.2145 81.2557 13.8826C79.1211 14.4831 77.095 15.4176 75.2523 16.6512L74.4103 17.2363L77.1742 23.7868L78.4253 23.0162C81.5126 21.1133 84.6095 20.1619 87.6778 20.1619C89.4141 20.1619 90.6414 20.533 91.3264 21.256C92.0114 21.9791 92.3872 23.3444 92.3872 25.2282V25.7039H92.2873C87.8062 25.7039 84.2003 25.975 81.6125 26.5031C78.7773 27.0834 76.7746 28.0681 75.4807 29.4953C74.1868 30.9224 73.516 32.9061 73.516 35.3274C73.4991 37.2201 74.0348 39.0767 75.0573 40.6696C76.0998 42.2752 77.5692 43.5584 79.3006 44.3753C81.1116 45.2471 83.0991 45.6899 85.1089 45.6692C87.1696 45.7086 89.2016 45.1821 90.9839 44.147C91.5043 43.8349 91.9934 43.4733 92.4443 43.0671V45.2506H100.764V25.9513C100.764 21.6699 99.6941 18.34 97.5724 16.1755ZM86.184 38.6621C85.0639 38.716 83.9673 38.3283 83.13 37.5822C82.7689 37.2615 82.4818 36.866 82.2888 36.4233C82.0957 35.9805 82.0013 35.5011 82.0121 35.0182C81.9812 34.6719 82.0246 34.323 82.1394 33.9948C82.2543 33.6666 82.4379 33.3668 82.6781 33.1154C83.0444 32.7824 83.8483 32.3209 85.618 32.026C87.861 31.721 90.1239 31.5875 92.3872 31.6264V31.9166C92.4698 33.7164 91.841 35.4764 90.6366 36.8164C90.0716 37.4271 89.3811 37.9082 88.6125 38.2268C87.8439 38.5454 87.0154 38.6939 86.184 38.6621Z" fill="white"/>
<path d="M115.04 0.620361H106.482V45.251H115.04V0.620361Z" fill="white"/>
<path d="M136.457 28.8772L151.499 13.6404H140.477L129.492 24.8813V0.620361H120.935V45.251H129.492V33.2918L141.504 45.251H152.702L136.457 28.8772Z" fill="white"/>
</g>
<defs>
<clipPath id="clip0_18522_7877">
<rect width="188.731" height="56" fill="white"/>
</clipPath>
</defs>
</svg>
