<svg width="135" height="40" viewBox="0 0 135 40" fill="none" xmlns="http://www.w3.org/2000/svg">
<path d="M124.31 22.7975C125.519 22.7971 126.704 22.4607 127.733 21.8259C128.762 21.1911 129.595 20.2829 130.138 19.2025H125.9V17.7788H130.657C130.767 17.3133 130.824 16.8368 130.827 16.3585H125.9V14.9484H130.817V13.5111H125.9V12.0873H130.817V10.667H125.9V9.23991H130.817V7.81279H125.9V6.39587H130.817C130.81 5.91725 130.749 5.44092 130.637 4.97555H125.9V3.54844H130.104C129.44 2.24753 128.358 1.20782 127.032 0.596742C125.705 -0.0143361 124.212 -0.161214 122.792 0.179761C121.372 0.520736 120.108 1.32972 119.204 2.47643C118.299 3.62314 117.807 5.04083 117.807 6.50121V16.3075C117.816 18.0284 118.504 19.676 119.722 20.8915C120.94 22.1071 122.589 22.7921 124.31 22.7975Z" fill="#EFA622"/>
<path d="M134.804 16.623V13.6465C134.578 13.646 134.354 13.6902 134.145 13.7765C133.936 13.8627 133.747 13.9893 133.587 14.1491C133.427 14.3088 133.301 14.4985 133.214 14.7073C133.128 14.9161 133.084 15.1399 133.084 15.3658V16.307C133.077 18.6323 132.15 20.8601 130.506 22.504C128.861 24.1479 126.633 25.0741 124.308 25.0804C121.981 25.0759 119.751 24.1505 118.105 22.5064C116.459 20.8623 115.531 18.6334 115.524 16.307V15.3658C115.524 14.9133 115.346 14.4791 115.028 14.1572C114.71 13.8354 114.278 13.6519 113.825 13.6465V16.623C113.834 19.2069 114.792 21.6974 116.518 23.6207C118.243 25.5441 120.615 26.7662 123.183 27.0546V30.8466H116.683C116.458 30.8606 116.248 30.9595 116.094 31.1234C115.94 31.2872 115.854 31.5036 115.854 31.7284C115.854 31.9532 115.94 32.1696 116.094 32.3334C116.248 32.4972 116.458 32.5962 116.683 32.6101H131.905C132.029 32.6177 132.154 32.5998 132.271 32.5576C132.387 32.5153 132.494 32.4496 132.585 32.3645C132.675 32.2793 132.748 32.1766 132.797 32.0625C132.846 31.9484 132.872 31.8255 132.872 31.7012C132.872 31.5769 132.846 31.454 132.797 31.3399C132.748 31.2258 132.675 31.1231 132.585 31.0379C132.494 30.9528 132.387 30.887 132.271 30.8448C132.154 30.8025 132.029 30.7847 131.905 30.7923H125.358V27.0546C127.941 26.7865 130.335 25.5732 132.078 23.6477C133.822 21.7223 134.793 19.2206 134.804 16.623Z" fill="#EFA622"/>
<path d="M19.2529 15.5796C17.2298 14.8286 15.1551 14.2245 13.045 13.7719C10.7684 13.2282 9.11362 12.6302 8.12483 11.9948C7.73071 11.752 7.41017 11.4063 7.19765 10.9951C6.98514 10.5838 6.88866 10.1224 6.91858 9.66045C6.89256 9.07552 7.01471 8.4935 7.2737 7.96839C7.53269 7.44328 7.92013 6.99209 8.40006 6.65671C9.47379 5.88199 11.013 5.48443 12.9702 5.48443C14.4573 5.47574 15.9335 5.73828 17.3263 6.25915C18.7909 6.83001 20.154 7.63314 21.363 8.63768L22.2567 9.36823L24.557 4.50924L24.1017 4.07431C22.7065 2.72102 21.02 1.70515 19.1714 1.10455C17.1604 0.421462 15.0499 0.0769897 12.9261 0.0851818C10.7664 0.0490129 8.62292 0.464506 6.63316 1.30503C4.89719 2.02756 3.39861 3.22241 2.30764 4.75389C1.27051 6.27287 0.730323 8.07627 0.761596 9.91529C0.761596 11.8487 1.26448 13.4763 2.24987 14.7539C3.2954 16.0615 4.66144 17.0764 6.21521 17.6999C8.17116 18.4862 10.1959 19.0891 12.2635 19.5007C14.6658 20.0478 16.4225 20.6254 17.4758 21.2167C17.8693 21.4127 18.1969 21.7194 18.4185 22.0991C18.64 22.4788 18.7458 22.915 18.7229 23.354C18.7466 23.9069 18.6259 24.4565 18.3726 24.9486C18.1194 25.4407 17.7424 25.8584 17.2788 26.1606C16.2152 26.8912 14.6352 27.2615 12.5863 27.2615C10.8821 27.2843 9.18527 27.033 7.56078 26.5174C5.99285 25.9759 4.53473 25.1577 3.25565 24.1015L2.3756 23.3879L-0.00292969 28.2707L0.51355 28.7226C2.06977 30.0641 3.88578 31.0704 5.84824 31.6788C8.01544 32.3498 10.2735 32.681 12.5421 32.6608C14.7474 32.7057 16.9403 32.3202 18.9981 31.5259C20.7429 30.8579 22.2594 29.7034 23.3678 28.1994C24.4102 26.7068 24.9537 24.9227 24.9206 23.1025C24.9206 21.1827 24.3804 19.5857 23.3134 18.3455C22.2029 17.1094 20.8097 16.1605 19.2529 15.5796Z" fill="black"/>
<path d="M45.3885 10.6937C43.8103 9.67765 41.9681 9.14827 40.0912 9.17141C38.4895 9.14248 36.9085 9.53627 35.5075 10.3131C35.0111 10.6005 34.5484 10.9424 34.1279 11.3325V9.69468H28.0117V39.9971H34.1279V30.5068C34.5502 30.8899 35.0154 31.2228 35.5143 31.499C36.9181 32.2599 38.4947 32.645 40.0912 32.6169C41.9681 32.6479 43.8145 32.1409 45.4123 31.1558C46.9887 30.1575 48.2403 28.7218 49.0141 27.0239C49.8682 25.1348 50.2907 23.0791 50.2509 21.0063C50.2928 18.899 49.862 16.8091 48.9903 14.8901C48.2076 13.1808 46.9594 11.7265 45.3885 10.6937ZM44.06 21.0063C44.06 23.1164 43.6114 24.744 42.7246 25.8347C41.8751 26.888 40.6859 27.3977 39.0753 27.3977C37.4647 27.3977 36.289 26.8846 35.4531 25.8245C34.5798 24.7134 34.1347 23.062 34.1347 20.9213C34.1347 18.7807 34.5798 17.1293 35.4531 16.0216C36.3264 14.9138 37.4918 14.4449 39.0753 14.4449C40.6587 14.4449 41.831 14.975 42.6974 16.0657C43.5639 17.1565 44.06 18.8656 44.06 21.0063Z" fill="black"/>
<path d="M69.6903 11.5504C68.168 9.98397 65.8642 9.17188 62.8367 9.17188C61.2089 9.18586 59.5918 9.43536 58.0355 9.91262C56.5108 10.3416 55.0635 11.009 53.7473 11.8902L53.1459 12.3081L55.1201 16.987L56.0137 16.4366C58.219 15.0774 60.431 14.3978 62.6226 14.3978C63.8629 14.3978 64.7395 14.6629 65.2288 15.1793C65.7181 15.6958 65.9866 16.671 65.9866 18.0166V18.3564H65.9152C62.7144 18.3564 60.1388 18.5501 58.2903 18.9272C56.2652 19.3418 54.8347 20.0451 53.9104 21.0645C52.9862 22.0839 52.5071 23.5008 52.5071 25.2303C52.495 26.5823 52.8776 27.9084 53.608 29.0462C54.3527 30.193 55.4023 31.1096 56.639 31.6931C57.9325 32.3158 59.3522 32.6321 60.7878 32.6173C62.2597 32.6455 63.7111 32.2694 64.9842 31.53C65.3559 31.3071 65.7053 31.0488 66.0273 30.7587V32.3183H71.9703V18.5331C71.9703 15.475 71.2057 13.0964 69.6903 11.5504ZM61.5557 27.6122C60.7556 27.6508 59.9723 27.3738 59.3743 26.8409C59.1163 26.6118 58.9113 26.3293 58.7734 26.0131C58.6355 25.6968 58.5681 25.3544 58.5758 25.0095C58.5536 24.7621 58.5847 24.5129 58.6667 24.2785C58.7487 24.0441 58.8799 23.8299 59.0515 23.6503C59.3131 23.4124 59.8873 23.0828 61.1514 22.8722C62.7535 22.6543 64.3699 22.5589 65.9866 22.5868V22.794C66.0455 24.0796 65.5964 25.3367 64.7361 26.2939C64.3325 26.7301 63.8393 27.0738 63.2903 27.3013C62.7413 27.5289 62.1496 27.635 61.5557 27.6122Z" fill="black"/>
<path d="M82.1685 0.439453H76.0557V32.3185H82.1685V0.439453Z" fill="black"/>
<path d="M97.5141 20.8954L108.258 10.0119H100.385L92.5396 18.0412V0.711914H86.4268V32.5909H92.5396V24.0486L101.119 32.5909H109.118L97.5141 20.8954Z" fill="black"/>
</svg>
