<svg width="696" height="1032" viewBox="0 0 696 1032" fill="none" xmlns="http://www.w3.org/2000/svg">
<path d="M1265 866.851C1251.7 869.529 1238.33 871.891 1225.12 874.941C1179.73 885.419 1135.93 900.277 1095.09 923.073C1070.85 936.605 1048.48 952.622 1029.68 973.254C1016.39 987.854 1005.74 1004.1 999.526 1023.01C998.6 1025.82 997.996 1028.75 997.243 1031.62C996.646 1031.62 996.049 1031.62 995.452 1031.62C995.613 1030.75 995.717 1029.86 995.944 1029C1000.83 1010.52 1010.06 994.324 1022.01 979.565C1023.37 977.881 1024.76 976.219 1026.13 974.546C1024.31 974.459 1022.98 974.966 1021.71 975.599C990.259 991.306 958.806 1007.01 927.373 1022.76C921.661 1025.62 916.041 1028.66 910.379 1031.62C909.185 1031.62 907.991 1031.62 906.797 1031.62C908.032 1030.84 909.208 1029.94 910.509 1029.28C948.926 1010.06 987.339 990.836 1025.81 971.722C1029.9 969.687 1033.22 966.929 1036.46 963.768C1051.58 948.982 1068.55 936.601 1086.76 925.911C1092.67 922.439 1098.68 919.113 1104.78 915.964C1107.1 914.762 1108 913.33 1107.92 910.734C1107.75 905.116 1107.87 899.49 1107.87 893.297C1106.15 893.893 1105.04 894.158 1104.04 894.637C1063.71 913.946 1021.3 926.831 977.599 935.802C944.959 942.502 911.992 946.753 878.765 948.929C847.169 950.998 815.554 951.164 783.92 949.43C757.227 947.968 730.671 945.28 704.298 940.984C651.958 932.459 601.127 918.734 552.915 896.213C550.221 894.954 547.609 893.519 544.976 892.132C544.761 892.019 544.681 891.651 544.215 890.836C624.681 850.48 705.224 810.364 786.297 769.718C784.48 768.688 783.372 767.992 782.208 767.409C704.703 728.641 627.183 689.903 549.725 651.042C546.833 649.591 544.769 650.203 542.271 651.455C503.868 670.703 465.445 689.909 427.022 709.115C356.312 744.46 285.593 779.788 214.887 815.142C140.041 852.567 65.206 890.012 -9.63293 927.45C-11.222 928.245 -12.7986 929.065 -15.2012 930.291C-13.3032 931.39 -12.0154 932.228 -10.6503 932.911C14.0277 945.256 38.7151 957.581 63.3997 969.912C76.0765 976.244 88.8348 982.421 101.386 988.994C106.026 991.423 110.915 992.297 115.894 993.18C159.355 1000.89 201.709 1012.43 242.37 1029.81C243.587 1030.33 244.733 1031.01 245.912 1031.62C244.42 1031.62 242.927 1031.62 241.435 1031.62C235.978 1029.28 230.593 1026.74 225.053 1024.62C180.859 1007.65 135.06 997.046 88.2689 990.509C58.41 986.337 28.3809 984.107 -1.75739 983.512C-53.794 982.484 -105.45 986.423 -156.643 995.921C-191.883 1002.46 -226.402 1011.67 -259.891 1024.53C-265.411 1026.65 -270.748 1029.25 -276.169 1031.62C-277.661 1031.62 -279.154 1031.62 -280.646 1031.62C-274.669 1029 -268.805 1026.07 -262.69 1023.81C-251.079 1019.54 -239.219 1015.92 -227.666 1011.49C-220.035 1008.57 -212.667 1004.9 -205.342 1001.25C-145.012 971.144 -84.7199 940.967 -24.4196 910.806C-23.1041 910.148 -21.8253 909.416 -19.886 908.372C-21.6332 907.385 -22.8444 906.629 -24.1155 905.993C-71.8774 882.103 -119.648 858.231 -167.41 834.342C-213.304 811.388 -259.186 788.412 -305.079 765.458C-349.506 743.238 -393.94 721.032 -438.372 698.822C-480.402 677.813 -522.431 656.803 -564.472 635.816C-565.92 635.094 -567.488 634.613 -569 634.019C-569 633.422 -569 632.825 -569 632.228C-567.479 632.788 -565.889 633.208 -564.449 633.927C-506.009 663.132 -447.587 692.37 -389.154 721.589C-353.134 739.601 -317.086 757.557 -281.108 775.651C-278.367 777.03 -276.282 776.789 -273.677 775.483C-210.741 743.937 -147.77 712.458 -84.8018 680.976C-25.3021 651.227 34.1873 621.459 93.7417 591.821C97.1259 590.137 98.4633 588.317 98.4382 584.412C98.2542 555.613 98.3429 526.812 98.346 498.012C98.346 496.394 98.346 494.775 98.346 493.157C98.0867 493.106 97.8275 493.055 97.5687 493.004C97.2279 493.899 96.8052 494.772 96.5585 495.692C90.9898 516.469 80.062 534.241 65.9474 550.21C48.7743 569.639 28.3464 585.048 6.14948 598.207C-30.3116 619.822 -69.5863 634.575 -110.363 645.585C-138.91 653.293 -167.891 658.818 -197.197 662.729C-243.024 668.846 -289.043 670.743 -335.193 668.637C-391.568 666.064 -447.091 657.859 -501.355 641.986C-522.991 635.657 -544.182 628.092 -564.796 618.934C-566.094 618.357 -567.593 618.234 -568.999 617.9C-568.999 617.004 -568.999 616.109 -568.999 615.213C-530.235 632.771 -489.773 644.929 -448.109 653.284C-424.55 658.008 -400.814 661.467 -376.902 663.858C-347.173 666.829 -317.386 667.985 -287.523 667.593C-259.003 667.218 -230.58 665.322 -202.296 661.712C-153.025 655.423 -104.791 644.711 -58.2595 627.016C-27.4643 615.305 1.89539 600.819 28.6384 581.398C47.8466 567.45 64.9946 551.403 78.2293 531.508C87.934 516.92 94.7631 501.152 97.2951 483.701C100.676 460.401 95.9205 438.607 84.8583 418.049C72.7542 395.555 55.3845 377.667 35.4021 362.149C7.70453 340.638 -23.2196 324.972 -55.7847 312.379C-92.2104 298.294 -129.835 288.6 -168.274 281.88C-214.556 273.789 -261.196 270.334 -308.145 270.786C-338.007 271.073 -367.776 273.013 -397.394 276.823C-443.07 282.698 -487.909 292.334 -531.281 308.051C-544.02 312.668 -556.436 318.178 -569 323.278C-569 322.383 -569 321.487 -569 320.592C-567.732 320.296 -566.377 320.195 -565.208 319.676C-529.757 303.967 -492.856 292.853 -454.977 284.835C-450.166 283.817 -445.347 282.81 -440.495 282.012C-436.163 281.299 -432.249 279.659 -428.353 277.703C-387.842 257.369 -347.292 237.113 -306.755 216.831C-305.313 216.109 -303.894 215.341 -301.763 214.229C-303.703 213.128 -305.038 212.288 -306.44 211.587C-351.65 188.983 -396.871 166.4 -442.083 143.8C-482.893 123.4 -523.695 102.983 -564.506 82.5859C-565.97 81.8543 -567.5 81.2561 -569 80.5957C-569 79.9988 -569 79.4015 -569 78.8047C-567.759 79.2954 -566.474 79.6957 -565.285 80.2894C-526.858 99.486 -488.441 118.7 -450.022 137.913C-401.599 162.129 -353.178 186.349 -304.75 210.555C-303.482 211.188 -302.142 211.678 -300.284 212.47C-300.284 205.486 -300.347 199.234 -300.268 192.984C-300.176 185.758 -301.415 187.363 -294.698 184C-242.02 157.621 -189.341 131.242 -136.566 105.058C-131.23 102.41 -126.884 99.5509 -125.423 93.4184C-124.984 91.5732 -123.787 89.9157 -123.014 88.139C-122.641 87.2806 -122.446 86.3444 -121.993 84.8646C-124.447 85.4211 -126.309 85.8236 -128.161 86.2674C-147.46 90.8918 -166.945 94.5571 -186.576 97.4352C-214.201 101.486 -241.97 103.918 -269.875 105.018C-302.58 106.307 -335.225 105.448 -367.813 102.645C-397.406 100.099 -426.757 95.8108 -455.825 89.6018C-493.267 81.6045 -529.739 70.5964 -564.806 55.1171C-566.147 54.5252 -567.599 54.1867 -569 53.7304C-569 53.1336 -569 52.5363 -569 51.9394C-567.732 52.3075 -566.4 52.5323 -565.205 53.0646C-528.821 69.2827 -490.901 80.6221 -451.957 88.6821C-411.561 97.0426 -370.727 101.655 -329.509 103.283C-301.295 104.398 -273.128 103.938 -244.985 102.01C-204.149 99.2128 -163.772 93.2926 -123.992 83.511C-121.571 82.9159 -119.715 82.0974 -118.324 79.7597C-106.088 59.2015 -89.4862 42.6257 -70.7186 28.0607C-69.1891 26.8737 -67.6757 25.6657 -66.1815 24.4348C-65.9859 24.2736 -65.9523 23.9159 -65.7249 23.3571C-66.992 22.681 -68.269 21.9628 -69.5769 21.3073C-81.7083 15.2286 -93.8514 9.17403 -105.973 3.07652C-107.828 2.14384 -109.59 1.02983 -111.396 0C-109.903 0 -108.411 0 -106.918 0C-105.736 0.827001 -104.63 1.80355 -103.358 2.45548C-97.407 5.50513 -91.4129 8.46926 -85.4301 11.4558C-78.1267 15.1018 -70.8194 18.7403 -63.538 22.3698C-62.8583 22.0246 -62.3107 21.7962 -61.8133 21.4873C-51.3426 14.9778 -40.8727 8.46747 -30.4217 1.92624C-29.58 1.39923 -28.8792 0.647452 -28.1131 0C-26.9189 0 -25.7252 0 -24.5311 0C-26.2119 1.14625 -27.8126 2.43712 -29.5853 3.41726C-53.3413 16.5503 -75.5096 31.829 -94.4115 51.4894C-108.621 66.2689 -120.286 82.7659 -127.176 102.24C-138.479 134.185 -134.056 164.491 -117.034 193.31C-105.171 213.395 -89.0371 229.631 -70.7885 243.88C-45.6655 263.496 -17.7651 278.231 11.6205 290.276C50.8452 306.356 91.5602 317.135 133.267 324.431C159.304 328.986 185.506 332.12 211.861 333.851C243.602 335.937 275.363 336.14 307.147 334.394C337.42 332.731 367.497 329.453 397.336 324.145C443.755 315.888 488.919 303.353 532 283.895C535.397 282.361 538.738 280.704 542.091 279.075C542.474 278.889 542.766 278.515 543.393 277.978C542.33 277.281 541.452 276.573 540.466 276.08C493.509 252.601 446.538 229.151 399.579 205.675C350.619 181.2 301.67 156.7 252.714 132.216C197.489 104.596 142.259 76.9827 87.0326 49.3662C56.0843 33.8905 25.1329 18.421 -5.79791 2.9104C-7.36017 2.12683 -8.73926 0.97879 -10.2034 0C-9.00922 0 -7.81549 0 -6.62134 0C-6.08093 0.479097 -5.61298 1.10282 -4.98926 1.41625C6.81616 7.34271 18.6606 13.1922 30.4396 19.171C32.305 20.118 33.754 19.7822 35.4442 18.9306C46.7124 13.2526 58.015 7.6436 69.2872 1.9737C70.322 1.45341 71.2215 0.664019 72.1837 0C73.3779 0 74.5716 0 75.7657 0C74.576 0.822524 73.4639 1.79818 72.1851 2.44339C61.4014 7.8845 50.585 13.2616 39.7843 18.6686C38.4598 19.3318 37.168 20.0603 35.0967 21.1667C36.8972 22.1907 38.1769 22.998 39.5228 23.6723C62.1885 35.0237 84.8636 46.3573 107.535 57.6975C183.426 95.659 259.313 133.63 335.208 171.582C403.9 205.931 472.601 240.261 541.298 274.6C542.099 275 542.868 275.488 543.706 275.783C546.32 276.703 547.271 278.45 547.191 281.242C547.019 287.205 547.139 293.177 547.139 299.146C547.139 306.606 547.123 314.067 547.15 321.527C547.156 322.968 547.326 324.407 547.422 325.885C551.066 325.166 817.024 192.648 825.142 187.594C824.418 185.693 822.483 185.395 821.004 184.653C798.746 173.48 776.457 162.369 754.18 151.234C665.74 107.027 577.3 62.8167 488.861 18.6064C478.055 13.2052 467.247 7.81062 456.462 2.37086C455.164 1.71624 454 0.797002 452.774 0.000447754C454.267 0.000447754 455.76 0.000447754 457.252 0.000447754C458.518 0.919238 459.685 2.03683 461.065 2.72861C500.91 22.694 540.79 42.5881 580.608 62.6076C583.325 63.9737 585.42 63.8936 588.073 62.5615C628.037 42.4932 668.051 22.5238 708.036 2.49578C709.312 1.85639 710.4 0.840882 711.576 0.000895508C713.068 0.000895508 714.561 0.000895508 716.054 0.000895508C714.663 0.838195 713.321 1.77131 711.875 2.49757C696.293 10.3216 680.697 18.1179 665.1 25.9129C640.57 38.1728 616.031 50.4139 591.52 62.7106C590.053 63.4467 588.16 63.7767 587.374 65.6026C596.273 71.1387 707 125.988 710.681 126.578C710.681 124.902 710.681 123.287 710.681 121.671C710.682 109.743 710.536 97.8109 710.748 85.8859C710.857 79.7933 711.187 73.6452 712.145 67.6386C715.291 47.9285 723.842 30.5153 735.691 14.6433C739.427 9.6379 743.485 4.87425 747.396 0C747.993 0 748.59 0 749.187 0C748.404 1.20043 747.756 2.52041 746.818 3.58427C733.96 18.1645 723.492 34.1614 717.468 52.8099C708.559 80.3924 711.572 106.945 724.296 132.694C725.325 134.776 726.995 135.745 728.878 136.685C747.557 146.016 766.229 155.363 784.904 164.704C798.376 171.444 811.804 178.274 825.358 184.846C828.238 186.242 829.141 187.958 829.088 191.024C828.92 200.87 829.152 210.724 828.954 220.569C828.89 223.725 829.973 225.311 832.806 226.67C863.178 241.234 894.823 252.221 927.399 260.611C961.255 269.332 995.611 275.208 1030.39 278.769C1069.66 282.789 1109.01 284.037 1148.4 281.877C1168.65 280.768 1188.82 278.464 1209.02 276.594C1211.05 276.406 1213.14 275.759 1214.97 274.854C1231.68 266.577 1248.33 258.197 1265 249.847C1265 250.443 1265 251.041 1265 251.638C1263.56 252.421 1262.14 253.247 1260.67 253.98C1212.65 277.994 1164.62 301.997 1116.6 326.012C1115.42 326.602 1114.3 327.306 1113.13 327.969C1113.42 328.413 1113.52 328.758 1113.74 328.874C1115.85 329.98 1117.95 331.112 1120.11 332.116C1154.6 348.176 1190.61 359.718 1227.69 367.981C1240.05 370.736 1252.56 372.824 1265 375.218C1265 375.814 1265 376.412 1265 377.009C1264.26 376.934 1263.51 376.907 1262.78 376.777C1241.64 373.028 1220.68 368.549 1199.97 362.85C1170.89 354.844 1142.57 344.785 1115.33 331.754C1114.09 331.163 1112.77 330.754 1111.25 330.169C1111.25 369.727 1111.25 408.578 1111.25 447.644C1112.7 447.765 1113.85 447.935 1115.01 447.948C1156.36 448.425 1197.49 451.587 1238.27 458.617C1247.21 460.159 1256.09 462.11 1265 463.873C1265 464.47 1265 465.067 1265 465.664C1256.24 463.892 1247.52 461.886 1238.71 460.387C1192.7 452.552 1146.34 449.147 1099.69 449.76C1071.33 450.133 1043.07 452.041 1014.9 455.527C971.862 460.854 929.608 469.688 888.447 483.456C856.803 494.041 826.379 507.329 798.091 525.182C776.643 538.719 757.048 554.454 741.021 574.302C730.429 587.419 721.968 601.75 717.005 617.94C708.42 645.943 711.856 672.774 725.377 698.489C736.178 719.033 751.538 735.787 769.316 750.418C775.528 755.53 782.213 760.063 788.57 765.005C790.769 766.714 792.612 766.714 795.041 765.458C804.312 760.662 813.723 756.137 822.997 751.346C825.598 750.002 827.718 749.855 830.451 751.227C877.097 774.655 923.799 797.972 970.489 821.313C982.095 827.115 993.686 832.948 1005.33 838.674C1007.03 839.51 1008.95 840.122 1010.82 840.333C1023.42 841.754 1036.01 843.288 1048.64 844.317C1078.71 846.767 1108.85 847.225 1138.99 846.165C1181.41 844.673 1223.44 839.769 1265 831.03C1265 831.627 1265 832.225 1265 832.821C1247.96 835.739 1230.98 839.073 1213.87 841.48C1185.2 845.514 1156.35 847.6 1127.39 848.157C1090.65 848.865 1054.02 847.343 1017.54 842.914C1016.91 842.838 1016.26 842.904 1015.62 842.904C1016.95 844.472 1018.47 845.324 1020.03 846.104C1048.7 860.444 1077.35 874.817 1106.08 889.043C1108.79 890.385 1109.78 891.993 1109.66 894.9C1109.47 899.516 1109.57 904.146 1109.61 908.77C1109.62 910.036 1109.84 911.3 1110.01 912.905C1111.55 912.285 1112.66 911.917 1113.7 911.412C1150.52 893.55 1189.2 881.156 1229.06 872.312C1240.99 869.666 1253.02 867.465 1265 865.06C1265 865.657 1265 866.254 1265 866.851ZM-275.36 778.272C-272.937 779.554 -271.515 780.343 -270.062 781.069C-237.114 797.545 -204.175 814.037 -171.19 830.437C-168.831 831.609 -166.184 832.359 -163.585 832.87C-128.992 839.67 -94.0838 843.838 -58.8706 845.668C-20.5067 847.661 17.796 846.953 56.0284 843.392C86.1967 840.582 116.112 835.998 145.681 829.297C189.043 819.471 231.037 805.754 270.566 785.116C292.467 773.682 313.048 760.267 331.37 743.582C347.627 728.777 361.421 712.07 370.541 691.868C381.969 666.55 383.549 640.716 374.384 614.348C368.465 597.316 358.926 582.451 347.094 569.017C324.551 543.422 296.704 524.94 266.662 509.433C265.028 508.589 263.675 508.572 262.064 509.442C258.784 511.212 255.416 512.819 252.081 514.486C168.982 556.037 85.8828 597.59 2.78149 639.137C-88.0597 684.554 -178.903 729.966 -269.744 775.382C-271.308 776.164 -272.854 776.981 -275.36 778.272ZM545.409 279.687C543.011 280.733 541.679 281.339 540.328 281.899C525.87 287.898 511.615 294.456 496.913 299.78C442.562 319.458 386.222 329.905 328.763 334.65C300.198 337.009 271.576 337.799 242.896 336.961C203.75 335.816 164.901 332.036 126.388 324.94C84.4594 317.216 43.5602 305.924 4.31818 289.07C-25.1467 276.415 -53.0203 261.015 -77.79 240.426C-95.7333 225.511 -111.258 208.532 -122.133 187.668C-129.32 173.88 -133.852 159.32 -134.832 143.726C-135.559 132.156 -134.435 120.8 -131.301 109.625C-130.825 107.927 -129.666 106.175 -130.499 104.173C-140.236 107.867 -294.009 185.286 -296.425 187.774C-294.789 188.627 -293.229 189.473 -291.642 190.266C-246.149 213.01 -200.65 235.742 -155.16 258.49C-102.33 284.908 -49.5108 311.35 3.32281 337.763C73.7656 372.979 144.218 408.176 214.666 443.383C230.276 451.184 245.904 458.952 261.469 466.841C263.558 467.9 265.237 468.044 267.288 466.862C269.998 465.302 272.883 464.049 275.686 462.649C331.718 434.64 387.751 406.633 443.78 378.618C476.33 362.342 508.855 346.015 541.454 329.834C544.401 328.371 545.534 326.671 545.486 323.363C545.301 310.681 545.41 297.995 545.409 285.31C545.409 283.708 545.409 282.105 545.409 279.687ZM826.008 487.987C823.712 486.791 822.419 486.067 821.084 485.43C798.012 474.427 774.115 465.595 749.621 458.343C717.671 448.883 685.145 442.171 652.14 437.625C623.579 433.691 594.903 431.122 566.087 430.771C545.806 430.524 525.487 430.709 505.232 431.673C486.624 432.559 468.031 434.331 449.516 436.455C422.233 439.585 395.271 444.703 368.613 451.349C335.241 459.669 302.793 470.625 271.671 485.359C270.247 486.033 268.894 486.857 266.901 487.942C268.743 488.985 269.959 489.748 271.237 490.387C360.347 534.959 449.497 579.453 538.5 624.239C544.393 627.204 548.705 626.973 554.439 624.09C643.191 579.475 732.065 535.101 820.908 490.667C822.331 489.955 823.726 489.188 826.008 487.987ZM547.333 891.395C549.206 892.392 550.477 893.126 551.796 893.76C568.352 901.715 585.378 908.525 602.772 914.396C664.73 935.309 728.625 945.421 793.776 948.225C831.095 949.831 868.361 948.749 905.544 944.964C945.549 940.891 984.982 933.837 1023.69 922.857C1050.43 915.273 1076.48 905.854 1101.59 893.893C1102.99 893.224 1104.35 892.445 1106.32 891.399C1104.22 890.232 1102.83 889.402 1101.39 888.681C1088.33 882.134 1075.24 875.609 1062.17 869.071C985.062 830.51 907.946 791.965 830.879 753.321C827.862 751.809 825.573 751.94 822.608 753.434C788.373 770.687 754.065 787.796 719.776 804.942C663.742 832.961 607.707 860.978 551.677 889.005C550.38 889.652 549.133 890.4 547.333 891.395ZM1107.52 366.367C1105.68 365.405 1104.4 364.687 1103.08 364.056C1075.67 350.969 1047.13 340.981 1017.85 333.044C989.165 325.269 960.061 319.637 930.605 315.728C907.664 312.683 884.638 310.727 861.522 309.71C815.333 307.679 769.338 309.833 723.532 316.03C686.51 321.039 650.092 328.816 614.464 340.146C593.402 346.843 572.807 354.732 552.883 364.326C551.657 364.916 550.508 365.666 548.844 366.614C550.468 367.548 551.34 368.11 552.262 368.572C602.557 393.724 652.854 418.873 703.169 443.986C704.885 444.843 706.742 445.536 708.612 445.952C735.582 451.958 762.125 459.458 787.874 469.498C800.645 474.477 813.062 480.355 825.69 485.708C828.291 486.811 829.235 488.427 829.078 491.185C828.883 494.606 829.011 498.048 829.054 501.48C829.068 502.615 829.25 503.747 829.358 504.904C833.325 504.153 1100.71 370.99 1107.52 366.367ZM827.003 307.31C827.003 267.617 827.003 228.638 827.003 189.06C824.774 190.105 823.034 190.874 821.334 191.723C786.241 209.255 751.148 226.786 716.064 244.336C648.832 277.966 581.613 311.621 514.376 345.242C433.396 385.735 352.396 426.189 271.427 466.705C264.09 470.377 265.403 468.239 265.345 476.661C265.324 479.689 265.005 482.767 265.744 486.122C267.326 485.454 268.422 485.047 269.47 484.54C293.573 472.896 318.609 463.682 344.269 456.172C371.639 448.163 399.452 442.115 427.646 437.772C453.03 433.861 478.53 431.112 504.182 429.903C516.252 429.334 528.341 429.176 540.421 428.809C541.988 428.761 543.551 428.573 545.448 428.425C545.448 426.164 545.448 424.397 545.448 422.628C545.448 405.168 545.515 387.707 545.384 370.247C545.361 367.132 546.299 365.346 549.225 364.098C558.414 360.179 567.39 355.75 576.645 352.005C632.963 329.216 691.779 316.968 752.022 310.958C775.342 308.632 798.74 307.447 822.183 307.311C823.649 307.303 825.115 307.31 827.003 307.31ZM100.055 588.493C106.964 585.069 112.831 582.182 118.679 579.259C165.365 555.927 212.031 532.552 258.769 509.323C262.275 507.581 263.888 505.712 263.715 501.571C263.348 492.783 263.388 483.962 263.703 475.171C263.846 471.165 262.548 469.139 258.914 467.337C218.433 447.27 178.054 426.996 137.641 406.793C100.962 388.456 64.2759 370.135 27.5884 351.816C26.2496 351.148 24.8598 350.581 23.4937 349.967C23.3491 350.261 23.2044 350.554 23.0593 350.848C24.6041 351.982 26.1372 353.132 27.6949 354.248C43.776 365.767 58.5259 378.733 70.9761 394.183C90.256 418.107 100.846 444.886 100.21 476.176C99.4896 511.67 100.052 547.19 100.056 582.698C100.055 584.294 100.055 585.888 100.055 588.493ZM265.341 489.632C265.341 494.58 265.52 498.748 265.281 502.892C265.111 505.848 266.146 507.425 268.831 508.758C281.409 514.999 293.451 522.187 305.03 530.13C324.97 543.809 343.019 559.542 357.412 579.132C373.507 601.037 382.58 625.229 382.078 652.829C381.646 676.551 381.996 700.286 382 724.016C382 725.588 382 727.161 382 729.488C384.374 728.392 385.975 727.706 387.531 726.928C428.359 706.518 469.182 686.099 510.005 665.681C520.812 660.276 531.588 654.811 542.448 649.516C544.645 648.444 545.604 647.144 545.459 644.705C545.291 641.88 545.485 639.035 545.421 636.201C545.242 628.255 546.744 630.079 539.152 626.271C501.552 607.415 463.912 588.64 426.288 569.83C374.256 543.816 322.226 517.795 270.191 491.787C268.885 491.135 267.523 490.598 265.341 489.632ZM710.663 729.448C710.663 726.9 710.663 725.271 710.663 723.643C710.666 699.027 710.764 674.41 710.64 649.794C710.557 633.233 714.152 617.554 721.145 602.607C730.663 582.261 744.778 565.445 761.353 550.555C779.443 534.305 799.706 521.235 821.169 509.943C823.138 508.907 825.093 507.846 827.319 506.655C827.319 501.988 827.335 497.381 827.304 492.774C827.298 491.929 827.101 491.084 826.943 489.854C825.453 490.482 824.225 490.922 823.066 491.499C811.318 497.344 799.577 503.203 787.841 509.073C725.696 540.157 663.556 571.248 601.411 602.331C584.474 610.802 567.548 619.297 550.559 627.664C548.1 628.875 546.906 630.31 547.101 633.126C547.318 636.245 547.468 639.428 547.083 642.513C546.545 646.812 548.53 648.759 552.183 650.575C603.458 676.063 654.657 701.703 705.879 727.296C707.168 727.941 708.508 728.483 710.663 729.448ZM1109.3 365.002C1109.3 362.655 1109.3 361.19 1109.3 359.725C1109.3 351.219 1109.25 342.713 1109.32 334.208C1109.38 326.833 1108.15 328.347 1115.06 324.879C1143.6 310.577 1172.16 296.331 1200.71 282.054C1202.1 281.359 1203.44 280.57 1204.81 279.824C1202.88 279.159 1201.16 279.287 1199.44 279.448C1189.49 280.377 1179.55 281.414 1169.59 282.229C1136.53 284.937 1103.42 285.303 1070.3 283.579C1032.71 281.621 995.42 277.178 958.531 269.555C915.143 260.589 873.02 247.778 832.982 228.564C831.964 228.075 830.854 227.779 829.753 227.381C828.643 232.137 828.781 303.627 829.946 307.304C831.455 307.304 833.082 307.265 834.706 307.31C846.489 307.636 858.285 307.72 870.051 308.365C907.485 310.419 944.63 314.893 981.35 322.565C1021.76 331.009 1061.1 342.85 1098.7 360.097C1101.92 361.575 1105.14 363.075 1109.3 365.002ZM222.916 809.242C98.0339 852.345 -29.3605 857.986 -158.863 836.184C-157.638 837.149 -156.301 837.945 -154.913 838.64C-124.781 853.721 -94.6439 868.793 -64.5056 883.862C-50.1031 891.064 -35.7496 898.366 -21.254 905.375C-17.8434 907.023 -16.2095 908.898 -16.5543 912.812C-16.9062 916.809 -16.6533 920.861 -16.6085 924.888C-16.5964 925.995 -16.381 927.101 -16.1943 928.797C63.8304 888.785 143.373 849.014 222.916 809.242ZM-298.364 268.653C-296.836 268.781 -295.544 268.968 -294.249 268.988C-269.34 269.366 -244.477 270.522 -219.682 273.081C-193.266 275.808 -167.056 279.799 -141.101 285.425C-116.168 290.83 -91.6064 297.556 -67.5826 306.188C-66.3325 306.637 -65.0165 306.904 -63.731 307.255C-68.9957 302.862 -295.131 190.23 -298.364 189.777C-298.364 215.98 -298.364 242.168 -298.364 268.653ZM874.396 485.361C874.512 485.688 874.627 486.015 874.742 486.342C950.431 459.298 1028.81 448.601 1109.03 447.896C1109.03 421.211 1109.03 395.051 1109.03 368.041C1030.44 407.335 952.417 446.348 874.396 485.361ZM-18.5405 909.773C-82.3947 941.704 -145.472 973.245 -208.55 1004.79C-208.433 1005.15 -208.316 1005.52 -208.198 1005.88C-146.142 989.185 -82.8564 982.023 -18.5401 981.553C-18.5406 957.549 -18.5405 934.19 -18.5405 909.773ZM695.13 443.073C695.219 442.716 695.308 442.36 695.397 442.004C646.288 417.453 597.179 392.903 547.931 368.283C546.75 373.559 546.989 425.377 548.183 428.785C597.528 428.785 646.568 433.478 695.13 443.073ZM-300.526 216.292C-306.352 218.063 -423.022 276.681 -425.672 279.278C-384.007 272.327 -342.485 269.27 -300.526 268.939C-300.526 251.107 -300.526 233.864 -300.526 216.292ZM-16.3784 981.571C22.0676 981.85 59.9578 984.535 97.6376 990.104C97.7183 989.759 97.7988 989.414 97.8795 989.069C59.9789 970.122 22.0779 951.174 -16.3784 931.948C-16.3784 948.804 -16.3784 964.834 -16.3784 981.571ZM712.556 671.639C712.487 672.365 712.359 673.092 712.358 673.819C712.345 691.705 712.429 709.592 712.26 727.477C712.232 730.41 713.809 731.315 715.871 732.344C738.8 743.782 761.714 755.248 784.64 766.69C785.908 767.322 787.25 767.808 788.557 768.362C788.712 768.095 788.868 767.827 789.023 767.559C787.912 766.718 786.8 765.878 785.69 765.036C779.757 760.533 773.66 756.228 767.922 751.488C750.544 737.132 735.553 720.702 724.651 700.788C719.618 691.592 715.998 681.854 712.556 671.639ZM380.171 671.74C379.942 671.747 379.714 671.754 379.486 671.761C379.194 672.592 378.84 673.408 378.618 674.258C373.724 693.073 364.263 709.482 352.043 724.399C338.524 740.902 322.421 754.545 304.901 766.595C304.025 767.198 303.249 767.946 302.426 768.628C302.574 768.838 302.722 769.048 302.87 769.259C328.651 756.368 354.432 743.476 380.17 730.606C380.171 710.728 380.171 691.234 380.171 671.74ZM712.947 108.081C712.759 108.099 712.57 108.117 712.382 108.134C712.382 114.344 712.356 120.554 712.419 126.763C712.426 127.42 712.767 128.405 713.26 128.671C716.001 130.154 718.544 132.207 721.802 132.48C718.788 124.173 715.867 116.128 712.947 108.081Z" fill="url(#paint0_linear_18468_34720)" fill-opacity="0.2"/>
<defs>
<linearGradient id="paint0_linear_18468_34720" x1="347.999" y1="126.642" x2="348.482" y2="965.313" gradientUnits="userSpaceOnUse">
<stop stop-color="white" stop-opacity="0"/>
<stop offset="1" stop-color="#DDDDDD"/>
</linearGradient>
</defs>
</svg>
