<svg width="48" height="48" viewBox="0 0 48 48" fill="none" xmlns="http://www.w3.org/2000/svg">
<mask id="mask0_18805_1839" style="mask-type:alpha" maskUnits="userSpaceOnUse" x="0" y="0" width="48" height="48">
<rect width="48" height="48" fill="#D9D9D9"/>
</mask>
<g mask="url(#mask0_18805_1839)">
<path d="M5.40022 35.2484C5.00022 34.8484 4.80855 34.3734 4.82522 33.8234C4.84189 33.2734 5.03355 32.8151 5.40022 32.4484L15.9502 21.7484C16.7169 20.9818 17.6669 20.5984 18.8002 20.5984C19.9336 20.5984 20.8836 20.9818 21.6502 21.7484L26.8002 26.9484L37.2002 16.6484H34.0002C33.4336 16.6484 32.9586 16.4568 32.5752 16.0734C32.1919 15.6901 32.0002 15.2151 32.0002 14.6484C32.0002 14.0818 32.1919 13.6068 32.5752 13.2234C32.9586 12.8401 33.4336 12.6484 34.0002 12.6484H42.0002C42.5669 12.6484 43.0419 12.8401 43.4252 13.2234C43.8086 13.6068 44.0002 14.0818 44.0002 14.6484V22.6484C44.0002 23.2151 43.8086 23.6901 43.4252 24.0734C43.0419 24.4568 42.5669 24.6484 42.0002 24.6484C41.4336 24.6484 40.9586 24.4568 40.5752 24.0734C40.1919 23.6901 40.0002 23.2151 40.0002 22.6484V19.4484L29.6502 29.7984C28.8836 30.5651 27.9336 30.9484 26.8002 30.9484C25.6669 30.9484 24.7169 30.5651 23.9502 29.7984L18.8002 24.6484L8.20022 35.2484C7.83355 35.6151 7.36689 35.7984 6.80022 35.7984C6.23355 35.7984 5.76689 35.6151 5.40022 35.2484Z" fill="#FFAB13"/>
</g>
</svg>
