<svg width="24" height="24" viewBox="0 0 24 24" fill="none" xmlns="http://www.w3.org/2000/svg">
<g clip-path="url(#clip0_18468_41020)">
<mask id="mask0_18468_41020" style="mask-type:luminance" maskUnits="userSpaceOnUse" x="1" y="1" width="22" height="22">
<path d="M12 23C18.0751 23 23 18.0751 23 12C23 5.92487 18.0751 1 12 1C5.92487 1 1 5.92487 1 12C1 18.0751 5.92487 23 12 23Z" fill="white"/>
</mask>
<g mask="url(#mask0_18468_41020)">
<path d="M1 1L1.34375 1.94531L1 2.93359V3.92188L2.375 6.24219L1 8.5625V9.9375L2.375 12L1 14.0625V15.4375L2.375 17.7578L1 20.0781V23L1.94531 22.6562L2.93359 23H3.92188L6.24219 21.625L8.5625 23H9.9375L12 21.625L14.0625 23H15.4375L17.7578 21.625L20.0781 23H23L22.6562 22.0547L23 21.0664V20.0781L21.625 17.7578L23 15.4375V14.0625L21.625 12L23 9.9375V8.5625L21.625 6.24219L23 3.92188V1L22.0547 1.34375L21.0664 1H20.0781L17.7578 2.375L15.4375 1H14.0625L12 2.375L9.9375 1H8.5625L6.24219 2.375L3.92188 1H1Z" fill="#EEEEEE"/>
<path d="M15.4375 1V5.64062L20.0781 1H15.4375ZM23 3.92188L18.3594 8.5625H23V3.92188ZM1 8.5625H5.64062L1 3.92188V8.5625ZM3.92188 1L8.5625 5.64062V1H3.92188ZM8.5625 23V18.3594L3.92188 23H8.5625ZM1 20.0781L5.64062 15.4375H1V20.0781ZM23 15.4375H18.3594L23 20.0781V15.4375ZM20.0781 23L15.4375 18.3594V23H20.0781Z" fill="#0052B4"/>
<path d="M1 1V2.93359L6.62891 8.5625H8.5625L1 1ZM9.9375 1V9.9375H1V14.0625H9.9375V23H14.0625V14.0625H23V9.9375H14.0625V1H9.9375ZM21.0664 1L15.4375 6.62891V8.5625L23 1H21.0664ZM8.5625 15.4375L1 23H2.93359L8.5625 17.3711V15.4375ZM15.4375 15.4375L23 23V21.0664L17.3711 15.4375H15.4375Z" fill="#D80027"/>
</g>
</g>
<rect x="1" y="1" width="22" height="22" rx="11" stroke="white" stroke-width="2"/>
<defs>
<clipPath id="clip0_18468_41020">
<rect x="1" y="1" width="22" height="22" rx="11" fill="white"/>
</clipPath>
</defs>
</svg>
