<svg width="1392" height="635" viewBox="0 0 1392 635" fill="none" xmlns="http://www.w3.org/2000/svg">
<path d="M1507 -132.295C1495.24 -134.662 1483.41 -136.75 1471.73 -139.446C1431.59 -148.709 1392.85 -161.844 1356.73 -181.997C1335.29 -193.96 1315.51 -208.12 1298.89 -226.359C1287.13 -239.267 1277.71 -253.632 1272.21 -270.343C1271.39 -272.834 1270.86 -275.419 1270.19 -277.961C1269.67 -277.961 1269.14 -277.961 1268.61 -277.961C1268.75 -277.186 1268.85 -276.399 1269.05 -275.639C1273.36 -259.3 1281.53 -244.986 1292.09 -231.938C1293.3 -230.45 1294.53 -228.98 1295.75 -227.502C1294.13 -227.424 1292.96 -227.873 1291.84 -228.433C1264.02 -242.318 1236.2 -256.201 1208.4 -270.122C1203.35 -272.652 1198.38 -275.344 1193.37 -277.961C1192.32 -277.961 1191.26 -277.961 1190.2 -277.961C1191.3 -277.266 1192.34 -276.468 1193.49 -275.892C1227.46 -258.901 1261.44 -241.902 1295.46 -225.005C1299.08 -223.206 1302.02 -220.767 1304.87 -217.974C1318.25 -204.902 1333.26 -193.956 1349.36 -184.506C1354.59 -181.437 1359.91 -178.497 1365.3 -175.712C1367.35 -174.65 1368.15 -173.384 1368.08 -171.089C1367.93 -166.122 1368.03 -161.148 1368.03 -155.674C1366.51 -156.201 1365.53 -156.435 1364.65 -156.858C1328.98 -173.929 1291.47 -185.319 1252.82 -193.25C1223.95 -199.173 1194.8 -202.931 1165.41 -204.854C1137.47 -206.684 1109.51 -206.83 1081.53 -205.298C1057.92 -204.005 1034.44 -201.629 1011.11 -197.831C964.823 -190.295 919.868 -178.161 877.229 -158.251C874.846 -157.139 872.535 -155.87 870.207 -154.644C870.017 -154.544 869.946 -154.218 869.534 -153.499C940.699 -117.821 1011.93 -82.3578 1083.63 -46.4249C1082.03 -45.514 1081.05 -44.8985 1080.02 -44.3835C1011.47 -10.1111 942.911 24.1357 874.407 58.4905C871.85 59.7729 870.024 59.2314 867.814 58.1247C833.851 41.109 799.869 24.1297 765.888 7.15082C703.351 -24.0955 640.807 -55.3271 578.274 -86.5817C512.08 -119.666 445.896 -152.77 379.708 -185.867C378.302 -186.569 376.908 -187.294 374.783 -188.378C376.462 -189.349 377.6 -190.091 378.808 -190.695C400.633 -201.608 422.467 -212.504 444.298 -223.404C455.51 -229.003 466.793 -234.464 477.894 -240.274C481.997 -242.421 486.321 -243.194 490.725 -243.975C529.161 -250.795 566.62 -260.99 602.581 -276.353C603.657 -276.813 604.671 -277.421 605.713 -277.961C604.393 -277.961 603.073 -277.961 601.753 -277.961C596.927 -275.887 592.165 -273.646 587.265 -271.766C548.18 -256.763 507.675 -247.392 466.293 -241.613C439.885 -237.926 413.327 -235.953 386.673 -235.427C340.651 -234.519 294.966 -238.001 249.691 -246.398C218.525 -252.178 187.996 -260.321 158.378 -271.691C153.496 -273.565 148.776 -275.86 143.982 -277.961C142.662 -277.961 141.342 -277.961 140.022 -277.961C145.308 -275.64 150.494 -273.049 155.902 -271.057C166.172 -267.274 176.661 -264.078 186.878 -260.165C193.627 -257.581 200.143 -254.337 206.622 -251.106C259.977 -224.494 313.3 -197.816 366.63 -171.152C367.794 -170.57 368.925 -169.924 370.64 -169.001C369.095 -168.129 368.023 -167.46 366.899 -166.898C324.658 -145.778 282.41 -124.674 240.168 -103.555C199.58 -83.2627 159.002 -62.9509 118.413 -42.6585C79.1216 -23.0149 39.8238 -3.38391 0.527893 16.2506C-36.6435 34.8235 -73.8144 53.3972 -110.996 71.9507C-112.276 72.5888 -113.663 73.0139 -115 73.5388C-115 74.0665 -115 74.5945 -115 75.1222C-113.655 74.6274 -112.249 74.2561 -110.975 73.62C-59.2905 47.8021 -7.62131 21.9542 44.0566 -3.87671C75.9129 -19.7999 107.794 -35.6736 139.614 -51.6696C142.038 -52.8884 143.881 -52.6758 146.186 -51.5212C201.847 -23.6328 257.538 4.19556 313.228 32.0274C365.85 58.3262 418.463 84.6423 471.133 110.844C474.126 112.332 475.309 113.942 475.286 117.394C475.124 142.854 475.202 168.315 475.205 193.775C475.205 195.206 475.205 196.637 475.205 198.067C474.976 198.112 474.746 198.157 474.517 198.202C474.216 197.411 473.842 196.64 473.624 195.826C468.699 177.458 459.034 161.747 446.551 147.63C431.363 130.454 413.297 116.832 393.666 105.199C361.419 86.0899 326.685 73.0472 290.621 63.314C265.374 56.5001 239.744 51.616 213.824 48.158C173.295 42.7509 132.596 41.0734 91.7804 42.9354C41.9221 45.2098 -7.18333 52.4639 -55.1741 66.4958C-74.3094 72.0909 -93.0511 78.7785 -111.282 86.8749C-112.43 87.3847 -113.756 87.4935 -114.999 87.7892C-114.999 88.5809 -114.999 89.3726 -114.999 90.1642C-80.7162 74.6425 -44.9309 63.894 -8.08304 56.5081C12.7523 52.3321 33.7444 49.2738 54.8922 47.1605C81.1848 44.5333 107.529 43.5117 133.94 43.8584C159.163 44.1893 184.301 45.8657 209.316 49.0573C252.891 54.6168 295.549 64.0867 336.702 79.7305C363.937 90.0835 389.903 102.89 413.555 120.058C430.543 132.389 445.709 146.575 457.414 164.163C465.996 177.06 472.036 190.999 474.275 206.427C477.266 227.025 473.06 246.292 463.276 264.466C452.571 284.351 437.209 300.165 419.537 313.884C395.041 332.901 367.692 346.75 338.891 357.882C306.676 370.334 273.4 378.904 239.404 384.845C198.473 391.998 157.224 395.052 115.702 394.652C89.2916 394.399 62.9638 392.684 36.7691 389.316C-3.62688 384.122 -43.2827 375.603 -81.6413 361.709C-92.9078 357.627 -103.888 352.756 -115 348.247C-115 349.039 -115 349.831 -115 350.622C-113.878 350.884 -112.68 350.973 -111.646 351.431C-80.2929 365.32 -47.6577 375.145 -14.1576 382.232C-9.90224 383.133 -5.64014 384.023 -1.34952 384.729C2.48214 385.358 5.94315 386.809 9.38911 388.538C45.2173 406.514 81.0798 424.421 116.931 442.352C118.206 442.99 119.462 443.668 121.346 444.652C119.63 445.625 118.45 446.367 117.209 446.987C77.2252 466.97 37.232 486.935 -2.75412 506.914C-38.8468 524.948 -74.9319 542.998 -111.026 561.03C-112.32 561.676 -113.674 562.205 -115 562.789C-115 563.317 -115 563.845 -115 564.372C-113.903 563.939 -112.766 563.585 -111.714 563.06C-77.7296 546.089 -43.7528 529.104 -9.77552 512.118C33.0503 490.71 75.8745 469.299 118.705 447.9C119.826 447.339 121.011 446.907 122.654 446.207C122.654 452.381 122.598 457.908 122.669 463.433C122.749 469.821 121.654 468.402 127.594 471.375C174.183 494.695 220.773 518.015 267.447 541.163C272.167 543.504 276.01 546.032 277.302 551.453C277.691 553.084 278.749 554.55 279.433 556.12C279.763 556.879 279.935 557.707 280.336 559.015C278.166 558.523 276.519 558.167 274.881 557.775C257.812 553.687 240.58 550.447 223.218 547.902C198.786 544.321 174.227 542.171 149.548 541.198C120.623 540.059 91.7519 540.818 62.9313 543.297C36.7584 545.547 10.8008 549.338 -14.9072 554.827C-48.0212 561.897 -80.2771 571.629 -111.291 585.313C-112.477 585.836 -113.761 586.136 -115 586.539C-115 587.067 -115 587.595 -115 588.122C-113.879 587.797 -112.7 587.598 -111.644 587.128C-79.4657 572.79 -45.9284 562.766 -11.4866 555.64C24.2397 548.249 60.3538 544.172 96.8076 542.732C121.76 541.747 146.671 542.154 171.561 543.858C207.677 546.331 243.386 551.564 278.568 560.212C280.709 560.738 282.35 561.461 283.58 563.528C294.403 581.702 309.085 596.356 325.683 609.232C327.036 610.282 328.374 611.349 329.696 612.438C329.869 612.58 329.898 612.896 330.1 613.39C328.979 613.988 327.85 614.623 326.693 615.203C315.964 620.576 305.224 625.929 294.504 631.319C292.864 632.144 291.305 633.129 289.708 634.039C291.028 634.039 292.348 634.039 293.668 634.039C294.714 633.308 295.691 632.445 296.817 631.868C302.08 629.172 307.381 626.552 312.672 623.912C319.131 620.688 325.594 617.472 332.034 614.263C332.635 614.568 333.119 614.77 333.559 615.043C342.819 620.798 352.079 626.553 361.322 632.336C362.066 632.802 362.686 633.467 363.364 634.039C364.42 634.039 365.476 634.039 366.532 634.039C365.045 633.026 363.629 631.885 362.062 631.018C341.052 619.408 321.446 605.901 304.729 588.52C292.162 575.455 281.846 560.87 275.752 543.655C265.756 515.414 269.667 488.622 284.721 463.145C295.214 445.388 309.482 431.035 325.621 418.439C347.84 401.097 372.516 388.071 398.504 377.422C433.195 363.207 469.203 353.679 506.089 347.228C529.116 343.202 552.289 340.431 575.599 338.9C603.67 337.057 631.76 336.877 659.869 338.42C686.643 339.89 713.243 342.789 739.633 347.481C780.687 354.78 820.63 365.862 858.731 383.064C861.735 384.42 864.69 385.885 867.656 387.325C867.994 387.489 868.252 387.82 868.808 388.295C867.867 388.911 867.091 389.537 866.219 389.973C824.69 410.729 783.148 431.46 741.617 452.213C698.316 473.851 655.026 495.51 611.729 517.155C562.887 541.572 514.042 565.983 465.199 590.397C437.828 604.078 410.455 617.754 383.099 631.466C381.718 632.159 380.498 633.174 379.203 634.039C380.259 634.039 381.315 634.039 382.371 634.039C382.849 633.616 383.263 633.064 383.815 632.787C394.255 627.548 404.731 622.377 415.148 617.091C416.798 616.254 418.079 616.551 419.574 617.304C429.54 622.323 439.536 627.282 449.505 632.294C450.42 632.754 451.216 633.452 452.067 634.039C453.123 634.039 454.179 634.039 455.235 634.039C454.183 633.312 453.199 632.449 452.068 631.879C442.531 627.069 432.965 622.315 423.413 617.535C422.241 616.949 421.099 616.305 419.267 615.327C420.859 614.422 421.991 613.708 423.181 613.112C443.227 603.077 463.281 593.057 483.332 583.032C550.45 549.472 617.565 515.905 684.687 482.353C745.439 451.987 806.198 421.638 866.954 391.281C867.662 390.927 868.343 390.496 869.084 390.235C871.396 389.421 872.237 387.878 872.166 385.409C872.014 380.137 872.12 374.858 872.12 369.582C872.12 362.986 872.106 356.39 872.13 349.795C872.135 348.522 872.285 347.249 872.37 345.943C875.593 346.578 1110.81 463.73 1117.99 468.198C1117.35 469.878 1115.64 470.142 1114.33 470.798C1094.64 480.675 1074.93 490.498 1055.23 500.342C977.011 539.423 898.795 578.506 820.578 617.59C811.022 622.365 801.463 627.134 791.925 631.943C790.777 632.522 789.748 633.334 788.663 634.039C789.983 634.039 791.304 634.039 792.623 634.039C793.743 633.226 794.775 632.238 795.995 631.627C831.235 613.977 866.505 596.389 901.72 578.691C904.123 577.484 905.976 577.554 908.322 578.732C943.667 596.473 979.056 614.127 1014.42 631.833C1015.55 632.398 1016.51 633.296 1017.55 634.038C1018.87 634.038 1020.19 634.038 1021.51 634.038C1020.28 633.298 1019.09 632.473 1017.81 631.831C1004.03 624.914 990.239 618.022 976.446 611.131C954.751 600.293 933.049 589.471 911.371 578.6C910.073 577.949 908.399 577.658 907.704 576.044C915.574 571.149 1013.5 522.661 1016.76 522.139C1016.76 523.62 1016.76 525.048 1016.76 526.476C1016.76 537.022 1016.63 547.57 1016.82 558.112C1016.91 563.498 1017.2 568.934 1018.05 574.244C1020.83 591.668 1028.4 607.062 1038.88 621.094C1042.18 625.519 1045.77 629.73 1049.23 634.039C1049.76 634.039 1050.28 634.039 1050.81 634.039C1050.12 632.978 1049.55 631.811 1048.72 630.87C1037.35 617.981 1028.09 603.839 1022.76 587.353C1014.88 562.969 1017.55 539.495 1028.8 516.732C1029.71 514.892 1031.19 514.035 1032.85 513.203C1049.37 504.955 1065.88 496.692 1082.4 488.433C1094.32 482.476 1106.19 476.437 1118.18 470.628C1120.73 469.393 1121.52 467.876 1121.48 465.165C1121.33 456.461 1121.53 447.75 1121.36 439.047C1121.3 436.257 1122.26 434.854 1124.77 433.653C1151.63 420.777 1179.61 411.065 1208.42 403.647C1238.37 395.938 1268.75 390.744 1299.51 387.596C1334.24 384.041 1369.04 382.939 1403.88 384.848C1421.78 385.829 1439.63 387.865 1457.49 389.518C1459.28 389.684 1461.14 390.256 1462.75 391.057C1477.53 398.373 1492.26 405.782 1507 413.164C1507 412.636 1507 412.108 1507 411.581C1505.73 410.888 1504.47 410.158 1503.17 409.51C1460.7 388.28 1418.23 367.06 1375.75 345.83C1374.71 345.309 1373.72 344.686 1372.68 344.101C1372.94 343.707 1373.03 343.403 1373.23 343.3C1375.09 342.322 1376.95 341.322 1378.86 340.434C1409.36 326.237 1441.21 316.033 1474 308.728C1484.93 306.293 1496 304.446 1507 302.331C1507 301.803 1507 301.275 1507 300.747C1506.34 300.813 1505.68 300.837 1505.03 300.952C1486.34 304.266 1467.8 308.226 1449.49 313.264C1423.77 320.341 1398.72 329.235 1374.63 340.755C1373.54 341.277 1372.37 341.638 1371.02 342.156C1371.02 307.185 1371.02 272.839 1371.02 238.303C1372.3 238.195 1373.32 238.045 1374.35 238.034C1410.92 237.612 1447.29 234.817 1483.36 228.602C1491.27 227.239 1499.12 225.514 1507 223.956C1507 223.428 1507 222.9 1507 222.372C1499.25 223.939 1491.54 225.712 1483.75 227.038C1443.06 233.964 1402.05 236.974 1360.8 236.432C1335.72 236.103 1310.72 234.415 1285.81 231.333C1247.75 226.624 1210.38 218.814 1173.98 206.643C1145.99 197.285 1119.08 185.539 1094.06 169.756C1075.09 157.789 1057.77 143.878 1043.59 126.331C1034.22 114.736 1026.74 102.067 1022.35 87.7532C1014.76 62.9982 1017.8 39.2783 1029.75 16.5447C1039.31 -1.61688 1052.89 -16.4282 1068.61 -29.3624C1074.11 -33.8821 1080.02 -37.8895 1085.64 -42.2579C1087.59 -43.7688 1089.22 -43.7692 1091.37 -42.6585C1099.57 -38.4191 1107.89 -34.4185 1116.09 -30.183C1118.39 -28.9952 1120.27 -28.8645 1122.68 -30.0781C1163.94 -50.7893 1205.24 -71.4027 1246.53 -92.0367C1256.8 -97.166 1267.05 -102.323 1277.35 -107.385C1278.85 -108.123 1280.55 -108.665 1282.21 -108.852C1293.35 -110.108 1304.48 -111.464 1315.65 -112.373C1342.25 -114.539 1368.9 -114.944 1395.56 -114.007C1433.07 -112.688 1470.24 -108.353 1507 -100.628C1507 -101.155 1507 -101.683 1507 -102.211C1491.93 -104.79 1476.91 -107.737 1461.78 -109.865C1436.43 -113.431 1410.91 -115.276 1385.29 -115.769C1352.8 -116.394 1320.41 -115.048 1288.14 -111.133C1287.59 -111.066 1287.02 -111.125 1286.45 -111.125C1287.62 -112.51 1288.97 -113.264 1290.35 -113.953C1315.7 -126.631 1341.04 -139.337 1366.45 -151.913C1368.85 -153.099 1369.72 -154.521 1369.62 -157.091C1369.45 -161.172 1369.54 -165.265 1369.57 -169.352C1369.58 -170.471 1369.78 -171.589 1369.92 -173.008C1371.29 -172.46 1372.27 -172.134 1373.19 -171.688C1405.75 -155.897 1439.96 -144.941 1475.22 -137.123C1485.77 -134.783 1496.4 -132.837 1507 -130.711C1507 -131.239 1507 -131.767 1507 -132.295ZM144.697 -53.9865C146.84 -55.1198 148.098 -55.8171 149.383 -56.4596C178.522 -71.0251 207.654 -85.6044 236.826 -100.103C238.912 -101.139 241.253 -101.802 243.551 -102.254C274.145 -108.266 305.019 -111.95 336.161 -113.567C370.091 -115.33 403.966 -114.703 437.779 -111.556C464.46 -109.072 490.917 -105.019 517.068 -99.0953C555.417 -90.4083 592.557 -78.2823 627.518 -60.0376C646.887 -49.9292 665.089 -38.07 681.292 -23.3196C695.671 -10.231 707.87 4.53833 715.936 22.3983C726.043 44.7799 727.44 67.6183 719.335 90.929C714.099 105.986 705.664 119.127 695.199 131.004C675.262 153.631 650.633 169.97 624.065 183.679C622.619 184.425 621.423 184.44 619.998 183.67C617.097 182.105 614.119 180.685 611.169 179.211C537.676 142.478 464.182 105.744 390.687 69.0145C310.347 28.8643 230.004 -11.2819 149.664 -51.4321C148.281 -52.1229 146.913 -52.8453 144.697 -53.9865ZM870.59 386.784C868.469 385.859 867.291 385.323 866.097 384.828C853.31 379.525 840.702 373.727 827.7 369.021C779.632 351.625 729.804 342.389 678.987 338.194C653.724 336.108 628.41 335.41 603.045 336.151C568.425 337.163 534.067 340.505 500.005 346.778C462.923 353.607 426.752 363.589 392.046 378.489C365.987 389.676 341.336 403.29 319.429 421.492C303.56 434.678 289.83 449.688 280.212 468.132C273.855 480.322 269.847 493.194 268.981 506.979C268.338 517.208 269.332 527.247 272.103 537.126C272.525 538.627 273.549 540.176 272.813 541.945C264.202 538.68 128.204 470.238 126.067 468.039C127.514 467.284 128.894 466.537 130.297 465.836C170.531 445.729 210.771 425.633 251.003 405.523C297.726 382.168 344.439 358.792 391.166 335.442C453.466 304.31 515.775 273.194 578.079 242.07C591.885 235.173 605.706 228.306 619.472 221.331C621.32 220.395 622.804 220.268 624.619 221.313C627.015 222.692 629.567 223.8 632.045 225.038C681.6 249.798 731.156 274.558 780.708 299.325C809.497 313.713 838.262 328.147 867.092 342.452C869.699 343.745 870.701 345.248 870.658 348.172C870.495 359.384 870.591 370.599 870.59 381.813C870.59 383.229 870.59 384.646 870.59 386.784ZM1118.75 202.638C1116.72 203.695 1115.58 204.335 1114.4 204.898C1093.99 214.625 1072.86 222.433 1051.2 228.845C1022.94 237.208 994.173 243.141 964.984 247.16C939.724 250.637 914.363 252.908 888.878 253.219C870.941 253.438 852.971 253.274 835.057 252.422C818.6 251.639 802.156 250.071 785.781 248.194C761.652 245.427 737.807 240.903 714.231 235.027C684.716 227.672 656.019 217.986 628.495 204.961C627.235 204.365 626.039 203.636 624.276 202.677C625.905 201.755 626.98 201.081 628.11 200.516C706.92 161.113 785.765 121.777 864.48 82.1854C869.692 79.5638 873.505 79.7684 878.577 82.3168C957.069 121.758 1035.67 160.987 1114.24 200.269C1115.5 200.897 1116.74 201.576 1118.75 202.638ZM872.292 -153.993C873.948 -154.873 875.072 -155.523 876.239 -156.083C890.881 -163.116 905.938 -169.136 921.323 -174.326C976.118 -192.814 1032.63 -201.753 1090.25 -204.233C1123.25 -205.652 1156.21 -204.696 1189.1 -201.35C1224.48 -197.749 1259.35 -191.513 1293.58 -181.806C1317.23 -175.101 1340.27 -166.774 1362.48 -156.201C1363.72 -155.609 1364.92 -154.92 1366.67 -153.996C1364.8 -152.965 1363.58 -152.23 1362.31 -151.593C1350.75 -145.805 1339.18 -140.037 1327.62 -134.257C1259.42 -100.168 1191.22 -66.0919 1123.06 -31.9294C1120.39 -30.5919 1118.37 -30.7079 1115.75 -32.0292C1085.47 -47.2814 1055.13 -62.4066 1024.8 -77.5643C975.245 -102.334 925.687 -127.102 876.133 -151.879C874.986 -152.452 873.883 -153.113 872.292 -153.993ZM1367.73 310.155C1366.1 311.005 1364.97 311.64 1363.8 312.198C1339.56 323.768 1314.32 332.597 1288.42 339.614C1263.05 346.487 1237.31 351.466 1211.26 354.922C1190.97 357.613 1170.61 359.343 1150.16 360.242C1109.31 362.038 1068.63 360.133 1028.12 354.655C995.381 350.227 963.173 343.351 931.662 333.335C913.035 327.415 894.821 320.44 877.2 311.96C876.116 311.438 875.1 310.775 873.628 309.937C875.064 309.111 875.835 308.614 876.651 308.206C921.133 285.97 965.615 263.737 1010.11 241.536C1011.63 240.778 1013.27 240.167 1014.93 239.798C1038.78 234.489 1062.25 227.858 1085.03 218.983C1096.32 214.581 1107.3 209.385 1118.47 204.652C1120.77 203.677 1121.61 202.248 1121.47 199.81C1121.3 196.786 1121.41 193.744 1121.45 190.709C1121.46 189.706 1121.62 188.705 1121.72 187.682C1125.22 188.346 1361.7 306.068 1367.73 310.155ZM1119.63 362.363C1119.63 397.454 1119.63 431.913 1119.63 466.902C1117.66 465.978 1116.12 465.298 1114.62 464.548C1083.58 449.049 1052.55 433.551 1021.52 418.036C962.058 388.305 902.609 358.553 843.145 328.83C771.525 293.033 699.888 257.27 628.279 221.452C621.79 218.206 622.951 220.096 622.9 212.651C622.881 209.973 622.599 207.253 623.253 204.287C624.652 204.877 625.621 205.237 626.548 205.685C647.865 215.979 670.006 224.124 692.701 230.763C716.907 237.844 741.505 243.191 766.44 247.03C788.89 250.487 811.442 252.918 834.129 253.986C844.803 254.489 855.495 254.629 866.179 254.954C867.565 254.996 868.947 255.162 870.625 255.293C870.625 257.291 870.625 258.854 870.625 260.417C870.624 275.853 870.684 291.29 870.568 306.725C870.548 309.479 871.377 311.058 873.965 312.161C882.092 315.625 890.031 319.541 898.216 322.851C948.023 342.998 1000.04 353.825 1053.32 359.139C1073.94 361.195 1094.64 362.243 1115.37 362.363C1116.67 362.37 1117.96 362.363 1119.63 362.363ZM476.716 113.786C482.827 116.813 488.015 119.365 493.187 121.949C534.477 142.576 575.748 163.24 617.083 183.775C620.185 185.316 621.611 186.968 621.458 190.629C621.133 198.397 621.169 206.196 621.448 213.968C621.575 217.509 620.426 219.3 617.212 220.893C581.41 238.633 545.699 256.556 509.957 274.417C477.519 290.627 445.073 306.824 412.626 323.018C411.442 323.609 410.213 324.111 409.005 324.653C408.877 324.394 408.749 324.134 408.621 323.875C409.987 322.872 411.343 321.855 412.721 320.869C426.943 310.685 439.988 299.223 450.999 285.565C468.05 264.414 477.416 240.74 476.854 213.079C476.216 181.701 476.713 150.3 476.717 118.909C476.716 117.499 476.716 116.089 476.716 113.786ZM622.896 201.184C622.896 196.809 623.054 193.124 622.843 189.461C622.692 186.847 623.608 185.454 625.983 184.276C637.107 178.758 647.757 172.404 657.998 165.381C675.633 153.289 691.595 139.38 704.325 122.062C718.559 102.696 726.583 81.3099 726.139 56.9103C725.757 35.9394 726.066 14.9559 726.07 -6.02209C726.07 -7.41187 726.07 -8.80206 726.07 -10.86C728.17 -9.89099 729.586 -9.28381 730.962 -8.59625C767.07 9.44702 803.174 27.4983 839.279 45.5483C848.836 50.3264 858.367 55.1579 867.972 59.8394C869.915 60.7866 870.763 61.9362 870.634 64.0923C870.486 66.59 870.658 69.1047 870.601 71.6104C870.442 78.6344 871.771 77.0225 865.057 80.3883C831.803 97.058 798.513 113.656 765.239 130.285C719.221 153.283 673.206 176.286 627.185 199.278C626.031 199.854 624.826 200.33 622.896 201.184ZM1016.74 -10.824C1016.74 -8.57166 1016.74 -7.13202 1016.74 -5.69275C1016.74 16.0694 1016.83 37.8319 1016.72 59.5933C1016.65 74.2339 1019.83 88.0948 1026.01 101.309C1034.43 119.296 1046.91 134.161 1061.57 147.325C1077.57 161.691 1095.49 173.245 1114.47 183.227C1116.22 184.143 1117.94 185.081 1119.91 186.134C1119.91 190.26 1119.93 194.333 1119.9 198.405C1119.89 199.153 1119.72 199.9 1119.58 200.987C1118.26 200.432 1117.18 200.043 1116.15 199.533C1105.76 194.366 1095.38 189.186 1085 183.997C1030.04 156.517 975.08 129.031 920.118 101.553C905.139 94.0635 890.17 86.5538 875.145 79.1569C872.97 78.0862 871.914 76.8179 872.087 74.3281C872.278 71.5715 872.411 68.7571 872.07 66.0303C871.595 62.2299 873.35 60.5084 876.581 58.9029C921.929 36.3705 967.21 13.7039 1012.51 -8.922C1013.65 -9.49237 1014.84 -9.97137 1016.74 -10.824ZM1369.3 311.362C1369.3 313.437 1369.3 314.732 1369.3 316.026C1369.3 323.546 1369.25 331.066 1369.31 338.585C1369.37 345.104 1368.28 343.766 1374.4 346.832C1399.63 359.475 1424.89 372.07 1450.14 384.691C1451.37 385.306 1452.56 386.003 1453.77 386.663C1452.06 387.251 1450.54 387.137 1449.02 386.995C1440.22 386.174 1431.43 385.257 1422.62 384.536C1393.38 382.143 1364.09 381.819 1334.8 383.343C1301.56 385.074 1268.58 389.001 1235.96 395.741C1197.59 403.667 1160.33 414.993 1124.92 431.979C1124.02 432.411 1123.04 432.673 1122.07 433.024C1121.08 428.82 1121.21 365.62 1122.24 362.369C1123.57 362.369 1125.01 362.403 1126.45 362.364C1136.87 362.075 1147.3 362.002 1157.71 361.431C1190.81 359.616 1223.66 355.66 1256.14 348.877C1291.88 341.413 1326.67 330.945 1359.92 315.698C1362.77 314.391 1365.62 313.065 1369.3 311.362ZM585.375 -81.3658C474.929 -119.47 362.26 -124.457 247.728 -105.184C248.811 -106.036 249.993 -106.74 251.221 -107.354C277.87 -120.687 304.523 -134.011 331.178 -147.333C343.916 -153.7 356.61 -160.155 369.43 -166.351C372.446 -167.808 373.891 -169.466 373.586 -172.926C373.275 -176.459 373.499 -180.042 373.538 -183.601C373.549 -184.581 373.74 -185.558 373.905 -187.057C444.679 -151.685 515.027 -116.525 585.375 -81.3658ZM124.352 396.539C125.703 396.425 126.846 396.26 127.991 396.242C150.022 395.908 172.01 394.886 193.939 392.623C217.301 390.213 240.482 386.685 263.436 381.711C285.487 376.933 307.21 370.987 328.457 363.355C329.562 362.958 330.726 362.723 331.863 362.412C327.207 366.296 127.211 465.868 124.352 466.268C124.352 443.103 124.352 419.953 124.352 396.539ZM1161.55 204.959C1161.65 204.67 1161.75 204.381 1161.85 204.092C1228.79 228 1298.11 237.457 1369.06 238.08C1369.06 261.671 1369.06 284.797 1369.06 308.675C1299.55 273.937 1230.55 239.448 1161.55 204.959ZM371.83 -170.24C315.357 -198.467 259.57 -226.351 203.784 -254.235C203.888 -254.559 203.991 -254.882 204.096 -255.206C258.978 -240.443 314.948 -234.111 371.83 -233.696C371.83 -212.475 371.83 -191.825 371.83 -170.24ZM1003 242.343C1003.08 242.659 1003.16 242.974 1003.24 243.289C959.808 264.992 916.376 286.696 872.821 308.461C871.776 303.797 871.988 257.988 873.044 254.975C916.685 254.975 960.056 250.826 1003 242.343ZM122.44 442.828C117.287 441.262 14.1038 389.441 11.7599 387.145C48.6086 393.291 85.3313 395.993 122.44 396.285C122.44 412.049 122.44 427.293 122.44 442.828ZM373.742 -233.711C407.744 -233.958 441.254 -236.332 474.578 -241.256C474.65 -240.951 474.721 -240.646 474.792 -240.341C441.273 -223.59 407.753 -206.839 373.742 -189.843C373.742 -204.744 373.742 -218.916 373.742 -233.711ZM1018.42 40.2817C1018.35 39.6393 1018.24 38.9968 1018.24 38.354C1018.23 22.5421 1018.3 6.72931 1018.15 -9.08148C1018.13 -11.6746 1019.52 -12.475 1021.35 -13.3846C1041.63 -23.4957 1061.89 -33.6327 1082.17 -43.7474C1083.29 -44.3068 1084.48 -44.7362 1085.63 -45.2263C1085.77 -44.9896 1085.91 -44.7528 1086.04 -44.5161C1085.06 -43.7728 1084.08 -43.0302 1083.1 -42.2856C1077.85 -38.3043 1072.46 -34.4988 1067.38 -30.3085C1052.01 -17.6177 1038.75 -3.09216 1029.11 14.5125C1024.66 22.6422 1021.46 31.2508 1018.42 40.2817ZM724.452 40.1923C724.25 40.1859 724.048 40.18 723.846 40.1736C723.588 39.4386 723.275 38.7178 723.079 37.9665C718.751 21.3324 710.384 6.82623 699.576 -6.36053C687.62 -20.9498 673.378 -33.0112 657.884 -43.6639C657.109 -44.1967 656.422 -44.8585 655.694 -45.4606C655.825 -45.6466 655.956 -45.8327 656.087 -46.0187C678.888 -34.6223 701.689 -23.2255 724.452 -11.8484C724.452 5.7254 724.452 22.9589 724.452 40.1923ZM1018.76 538.49C1018.59 538.475 1018.43 538.459 1018.26 538.444C1018.26 532.954 1018.24 527.464 1018.29 521.975C1018.3 521.394 1018.6 520.523 1019.04 520.288C1021.46 518.977 1023.71 517.162 1026.59 516.921C1023.93 524.265 1021.34 531.377 1018.76 538.49Z" fill="url(#paint0_linear_18468_37533)" fill-opacity="0.16"/>
<defs>
<linearGradient id="paint0_linear_18468_37533" x1="696" y1="522.082" x2="696.427" y2="-219.339" gradientUnits="userSpaceOnUse">
<stop stop-color="white" stop-opacity="0"/>
<stop offset="1" stop-color="#DDDDDD"/>
</linearGradient>
</defs>
</svg>
