<svg width="375" height="1116" viewBox="0 0 375 1116" fill="none" xmlns="http://www.w3.org/2000/svg">
<path d="M1180 937.75C1165.62 940.647 1151.15 943.203 1136.86 946.502C1087.76 957.837 1040.37 973.91 996.192 998.57C969.967 1013.21 945.77 1030.54 925.44 1052.86C911.054 1068.65 899.536 1086.23 892.815 1106.68C891.813 1109.73 891.16 1112.89 890.345 1116C889.699 1116 889.053 1116 888.407 1116C888.582 1115.05 888.695 1114.09 888.94 1113.16C894.22 1093.16 904.21 1075.65 917.132 1059.68C918.606 1057.86 920.109 1056.06 921.598 1054.25C919.625 1054.16 918.186 1054.71 916.815 1055.39C882.79 1072.38 848.764 1089.37 814.76 1106.41C808.581 1109.5 802.502 1112.8 796.377 1116C795.085 1116 793.793 1116 792.502 1116C793.838 1115.15 795.109 1114.17 796.518 1113.47C838.077 1092.68 879.631 1071.88 921.246 1051.2C925.677 1049 929.269 1046.01 932.765 1042.59C949.123 1026.6 967.481 1013.2 987.183 1001.64C993.582 997.885 1000.08 994.287 1006.67 990.88C1009.19 989.58 1010.16 988.031 1010.08 985.222C1009.89 979.145 1010.02 973.058 1010.02 966.359C1008.16 967.004 1006.96 967.29 1005.88 967.809C962.252 988.697 916.369 1002.64 869.094 1012.34C833.784 1019.59 798.122 1024.19 762.177 1026.54C727.997 1028.78 693.796 1028.96 659.575 1027.08C630.698 1025.5 601.97 1022.59 573.44 1017.95C516.819 1008.72 461.831 993.876 409.676 969.513C406.762 968.152 403.935 966.599 401.087 965.099C400.855 964.977 400.768 964.578 400.264 963.697C487.312 920.04 574.442 876.644 662.146 832.673C660.181 831.558 658.982 830.805 657.722 830.175C573.878 788.236 490.018 746.329 406.225 704.29C403.097 702.72 400.863 703.383 398.161 704.737C356.617 725.559 315.052 746.336 273.486 767.113C196.992 805.349 120.489 843.567 44.0005 881.812C-36.9672 922.297 -117.923 962.806 -198.883 1003.31C-200.602 1004.17 -202.307 1005.05 -204.906 1006.38C-202.853 1007.57 -201.46 1008.47 -199.983 1009.21C-173.287 1022.57 -146.58 1035.9 -119.877 1049.24C-106.163 1056.09 -92.3613 1062.77 -78.7833 1069.88C-73.7637 1072.51 -68.4752 1073.46 -63.0885 1074.41C-16.0736 1082.76 29.7454 1095.23 73.7314 1114.03C75.0485 1114.6 76.288 1115.34 77.5634 1116C75.9489 1116 74.334 1116 72.7196 1116C66.8165 1113.46 60.9914 1110.72 54.9977 1108.42C7.18994 1090.06 -42.3549 1078.59 -92.9735 1071.52C-125.275 1067.01 -157.76 1064.6 -190.363 1063.95C-246.656 1062.84 -302.537 1067.1 -357.917 1077.38C-396.039 1084.45 -433.381 1094.41 -469.61 1108.33C-475.581 1110.62 -481.354 1113.43 -487.218 1116C-488.833 1116 -490.447 1116 -492.062 1116C-485.596 1113.16 -479.252 1109.99 -472.637 1107.55C-460.076 1102.92 -447.246 1099.01 -434.749 1094.22C-426.493 1091.06 -418.523 1087.09 -410.598 1083.14C-345.334 1050.57 -280.111 1017.93 -214.879 985.3C-213.456 984.588 -212.072 983.797 -209.974 982.668C-211.864 981.6 -213.175 980.782 -214.55 980.094C-266.218 954.25 -317.896 928.425 -369.564 902.582C-419.211 877.751 -468.846 852.896 -518.493 828.064C-566.554 804.027 -614.622 780.004 -662.688 755.978C-708.156 733.251 -753.623 710.522 -799.102 687.819C-800.668 687.038 -802.365 686.518 -804 685.875C-804 685.23 -804 684.583 -804 683.938C-802.355 684.543 -800.635 684.998 -799.076 685.776C-735.857 717.369 -672.656 748.999 -609.445 780.607C-570.479 800.092 -531.482 819.517 -492.561 839.091C-489.596 840.582 -487.341 840.322 -484.523 838.909C-416.439 804.783 -348.318 770.73 -280.2 736.672C-215.833 704.491 -151.478 672.288 -87.053 640.226C-83.3922 638.404 -81.9453 636.435 -81.9724 632.21C-82.1715 601.056 -82.0756 569.899 -82.0721 538.744C-82.0721 536.993 -82.0721 535.242 -82.0721 533.492C-82.3526 533.437 -82.6331 533.382 -82.9131 533.327C-83.2817 534.295 -83.7389 535.239 -84.0058 536.234C-90.03 558.711 -101.852 577.936 -117.121 595.211C-135.698 616.229 -157.797 632.899 -181.809 647.133C-221.253 670.517 -263.74 686.477 -307.852 698.387C-338.733 706.725 -370.084 712.702 -401.788 716.933C-451.363 723.55 -501.145 725.603 -551.07 723.324C-612.056 720.541 -672.121 711.664 -730.822 694.494C-754.228 687.647 -777.153 679.464 -799.452 669.556C-800.856 668.932 -802.478 668.799 -803.999 668.437C-803.999 667.469 -803.999 666.5 -803.999 665.531C-762.065 684.525 -718.293 697.678 -673.221 706.716C-647.736 711.826 -622.059 715.568 -596.191 718.154C-564.03 721.369 -531.806 722.619 -499.501 722.195C-468.649 721.79 -437.901 719.738 -407.303 715.833C-354.002 709.03 -301.824 697.442 -251.486 678.299C-218.172 665.63 -186.411 649.959 -157.481 628.951C-136.702 613.861 -118.151 596.502 -103.834 574.98C-93.3358 559.198 -85.9481 542.141 -83.209 523.262C-79.5515 498.057 -84.696 474.48 -96.663 452.241C-109.757 427.908 -128.547 408.556 -150.164 391.768C-180.127 368.498 -213.581 351.551 -248.809 337.929C-288.214 322.691 -328.916 312.205 -370.499 304.935C-420.566 296.182 -471.021 292.445 -521.809 292.934C-554.114 293.244 -586.318 295.342 -618.359 299.464C-667.77 305.819 -716.277 316.244 -763.196 333.246C-776.977 338.241 -790.408 344.201 -804 349.719C-804 348.75 -804 347.781 -804 346.813C-802.628 346.493 -801.163 346.383 -799.897 345.823C-761.547 328.828 -721.628 316.805 -680.651 308.132C-675.446 307.03 -670.233 305.941 -664.985 305.077C-660.298 304.307 -656.065 302.532 -651.85 300.416C-608.025 278.419 -564.159 256.506 -520.306 234.565C-518.746 233.784 -517.211 232.953 -514.906 231.75C-517.005 230.559 -518.448 229.651 -519.966 228.892C-568.874 204.44 -617.793 180.009 -666.703 155.561C-710.851 133.493 -754.989 111.406 -799.139 89.3406C-800.722 88.5491 -802.378 87.902 -804 87.1875C-804 86.5419 -804 85.8957 -804 85.25C-802.658 85.7809 -801.267 86.2139 -799.981 86.8562C-758.412 107.623 -716.852 128.408 -675.291 149.192C-622.908 175.39 -570.526 201.59 -518.137 227.776C-516.765 228.461 -515.316 228.991 -513.306 229.848C-513.306 222.292 -513.374 215.529 -513.288 208.768C-513.189 200.951 -514.529 202.688 -507.263 199.049C-450.276 170.513 -393.289 141.977 -336.197 113.65C-330.425 110.786 -325.724 107.693 -324.144 101.059C-323.668 99.063 -322.373 97.2698 -321.537 95.3478C-321.133 94.4193 -320.922 93.4064 -320.433 91.8056C-323.087 92.4077 -325.102 92.8431 -327.105 93.3231C-347.983 98.3257 -369.062 102.291 -390.298 105.404C-420.183 109.786 -450.223 112.418 -480.41 113.608C-515.79 115.002 -551.105 114.073 -586.358 111.04C-618.372 108.286 -650.123 103.647 -681.568 96.9303C-722.073 88.2788 -761.528 76.3705 -799.463 59.6251C-800.914 58.9848 -802.485 58.6186 -804 58.125C-804 57.4794 -804 56.8332 -804 56.1875C-802.628 56.5857 -801.187 56.8288 -799.895 57.4048C-760.535 74.9493 -719.513 87.2161 -677.384 95.9354C-633.684 104.98 -589.51 109.969 -544.921 111.731C-514.4 112.936 -483.928 112.439 -453.484 110.353C-409.308 107.327 -365.629 100.923 -322.595 90.3413C-319.976 89.6976 -317.969 88.8121 -316.464 86.2832C-303.226 64.0436 -285.267 46.112 -264.964 30.3558C-263.31 29.0717 -261.673 27.7649 -260.056 26.4333C-259.845 26.2589 -259.808 25.8719 -259.562 25.2674C-260.933 24.536 -262.315 23.7591 -263.729 23.05C-276.853 16.4741 -289.989 9.92436 -303.102 3.32814C-305.109 2.31919 -307.016 1.11406 -308.969 0C-307.354 0 -305.739 0 -304.125 0C-302.846 0.894641 -301.65 1.95106 -300.273 2.65631C-293.836 5.95539 -287.351 9.16196 -280.879 12.3927C-272.979 16.337 -265.073 20.273 -257.197 24.1994C-256.461 23.8259 -255.869 23.5789 -255.331 23.2447C-244.004 16.2028 -232.677 9.16002 -221.372 2.08378C-220.461 1.51367 -219.703 0.700407 -218.874 0C-217.582 0 -216.291 0 -214.999 0C-216.818 1.24 -218.549 2.63645 -220.467 3.69675C-246.166 17.904 -270.147 34.4323 -290.595 55.7007C-305.966 71.689 -318.586 89.5353 -326.039 110.602C-338.266 145.16 -333.482 177.945 -315.068 209.12C-302.234 230.849 -284.781 248.412 -265.04 263.827C-237.862 285.047 -207.68 300.987 -175.891 314.018C-133.458 331.412 -89.4129 343.073 -44.2948 350.966C-16.1288 355.893 12.2163 359.283 40.7276 361.156C75.0645 363.413 109.423 363.633 143.806 361.744C176.555 359.945 209.092 356.398 241.372 350.657C291.588 341.725 340.446 328.164 387.051 307.115C390.725 305.455 394.339 303.662 397.966 301.9C398.381 301.699 398.696 301.295 399.375 300.713C398.225 299.96 397.275 299.193 396.209 298.66C345.411 273.261 294.598 247.893 243.798 222.497C190.834 196.02 137.882 169.516 84.922 143.03C25.1791 113.151 -34.5671 83.2791 -94.3109 53.4038C-127.79 36.6624 -161.273 19.9277 -194.734 3.14844C-196.424 2.30078 -197.916 1.05884 -199.5 0C-198.208 0 -196.917 0 -195.625 0C-195.04 0.518282 -194.534 1.19302 -193.859 1.53208C-181.088 7.94327 -168.275 14.2711 -155.533 20.739C-153.515 21.7635 -151.947 21.4002 -150.119 20.4789C-137.929 14.3365 -125.702 8.26877 -113.508 2.13513C-112.388 1.57228 -111.415 0.718328 -110.374 0C-109.082 0 -107.791 0 -106.499 0C-107.786 0.889797 -108.989 1.94525 -110.373 2.64324C-122.038 8.52936 -133.74 14.3462 -145.424 20.1955C-146.856 20.9129 -148.254 21.701 -150.495 22.8979C-148.547 24.0056 -147.163 24.879 -145.706 25.6084C-121.187 37.8883 -96.6572 50.1488 -72.1313 62.4166C9.96686 103.483 92.0598 144.559 174.163 185.615C248.473 222.774 322.793 259.912 397.109 297.059C397.975 297.492 398.807 298.02 399.713 298.339C402.541 299.335 403.571 301.224 403.483 304.244C403.297 310.696 403.428 317.156 403.427 323.613C403.427 331.683 403.41 339.754 403.439 347.825C403.445 349.383 403.629 350.94 403.733 352.539C407.676 351.762 695.386 208.404 704.169 202.937C703.384 200.881 701.292 200.558 699.692 199.755C675.613 187.669 651.501 175.649 627.402 163.604C531.728 115.781 436.055 67.9545 340.382 20.1282C328.693 14.2852 317.001 8.44944 305.334 2.56477C303.93 1.85661 302.671 0.862188 301.345 0.000484375C302.959 0.000484375 304.574 0.000484375 306.188 0.000484375C307.558 0.994422 308.82 2.20342 310.313 2.95178C353.417 24.5501 396.559 46.0714 439.634 67.7282C442.573 69.2061 444.839 69.1194 447.709 67.6784C490.942 45.9687 534.229 24.366 577.484 2.69991C578.865 2.00822 580.042 0.909657 581.314 0.00096875C582.928 0.00096875 584.543 0.00096875 586.157 0.00096875C584.653 0.90675 583.202 1.91619 581.638 2.70184C564.781 11.1658 547.909 19.5998 531.036 28.0322C504.5 41.2949 477.954 54.5373 451.438 67.8397C449.851 68.636 447.803 68.993 446.953 70.9682C456.58 76.957 576.363 136.292 580.345 136.93C580.345 135.118 580.345 133.37 580.345 131.623C580.347 118.718 580.188 105.811 580.418 92.9104C580.535 86.3195 580.892 79.6686 581.929 73.1707C585.332 51.8485 594.583 33.0111 607.401 15.841C611.442 10.4262 615.833 5.27291 620.063 0C620.709 0 621.355 0 622.001 0C621.154 1.29861 620.453 2.72655 619.438 3.87742C605.528 19.6501 594.204 36.9554 587.688 57.1292C578.05 86.9676 581.31 115.692 595.074 143.547C596.187 145.799 597.994 146.848 600.03 147.865C620.238 157.958 640.437 168.07 660.639 178.175C675.213 185.466 689.74 192.855 704.402 199.964C707.517 201.474 708.494 203.331 708.437 206.648C708.255 217.299 708.506 227.959 708.292 238.609C708.223 242.023 709.394 243.739 712.459 245.209C745.315 260.965 779.548 272.85 814.788 281.927C851.414 291.361 888.58 297.717 926.204 301.569C968.683 305.918 1011.25 307.268 1053.87 304.932C1075.77 303.731 1097.6 301.239 1119.45 299.216C1121.64 299.013 1123.9 298.314 1125.88 297.334C1143.95 288.381 1161.97 279.314 1180 270.281C1180 270.927 1180 271.573 1180 272.219C1178.44 273.066 1176.91 273.96 1175.32 274.753C1123.37 300.731 1071.41 326.698 1019.46 352.677C1018.19 353.315 1016.97 354.076 1015.71 354.793C1016.02 355.274 1016.13 355.647 1016.37 355.773C1018.66 356.969 1020.93 358.193 1023.26 359.28C1060.57 376.653 1099.53 389.139 1139.64 398.078C1153.01 401.058 1166.54 403.317 1180 405.906C1180 406.552 1180 407.198 1180 407.844C1179.2 407.763 1178.39 407.734 1177.59 407.593C1154.73 403.538 1132.05 398.692 1109.65 392.527C1078.19 383.867 1047.55 372.984 1018.09 358.888C1016.75 358.248 1015.32 357.807 1013.68 357.173C1013.68 399.967 1013.68 441.995 1013.68 484.257C1015.24 484.388 1016.49 484.571 1017.74 484.585C1062.48 485.102 1106.97 488.522 1151.08 496.127C1160.76 497.795 1170.36 499.906 1180 501.813C1180 502.458 1180 503.105 1180 503.75C1170.52 501.833 1161.09 499.664 1151.56 498.041C1101.79 489.566 1051.63 485.882 1001.17 486.545C970.495 486.949 939.915 489.014 909.449 492.784C862.889 498.547 817.178 508.104 772.651 522.998C738.419 534.448 705.506 548.823 674.905 568.136C651.702 582.78 630.505 599.803 613.167 621.274C601.708 635.463 592.556 650.966 587.186 668.481C577.899 698.774 581.617 727.799 596.243 755.618C607.928 777.842 624.544 795.967 643.776 811.794C650.496 817.325 657.728 822.228 664.605 827.574C666.984 829.423 668.978 829.423 671.605 828.064C681.635 822.876 691.815 817.981 701.847 812.798C704.662 811.344 706.954 811.185 709.911 812.67C760.373 838.014 810.894 863.238 861.403 888.487C873.958 894.764 886.497 901.074 899.093 907.269C900.931 908.172 903.009 908.835 905.037 909.064C918.663 910.601 932.284 912.26 945.947 913.373C978.478 916.023 1011.08 916.519 1043.68 915.372C1089.57 913.758 1135.04 908.453 1180 899C1180 899.646 1180 900.292 1180 900.937C1161.57 904.094 1143.2 907.7 1124.69 910.304C1093.68 914.668 1062.47 916.925 1031.13 917.528C991.387 918.293 951.771 916.646 912.297 911.855C911.617 911.773 910.919 911.845 910.23 911.845C911.664 913.541 913.311 914.463 914.996 915.306C946.01 930.819 977.007 946.368 1008.08 961.757C1011.01 963.209 1012.09 964.948 1011.96 968.093C1011.75 973.087 1011.86 978.096 1011.9 983.098C1011.91 984.467 1012.16 985.835 1012.33 987.571C1014 986.9 1015.2 986.502 1016.33 985.955C1056.16 966.633 1098 953.226 1141.12 943.658C1154.03 940.796 1167.04 938.414 1180 935.813C1180 936.459 1180 937.105 1180 937.75ZM-486.343 841.926C-483.722 843.313 -482.184 844.166 -480.612 844.952C-444.969 862.776 -409.336 880.616 -373.653 898.358C-371.101 899.626 -368.238 900.438 -365.427 900.99C-328.005 908.346 -290.241 912.855 -252.147 914.834C-210.646 916.991 -169.21 916.224 -127.851 912.373C-95.2152 909.333 -62.8531 904.374 -30.866 897.125C16.0424 886.495 61.4714 871.656 104.234 849.331C127.926 836.961 150.19 822.449 170.01 804.399C187.597 788.383 202.52 770.31 212.385 748.455C224.749 721.067 226.457 693.12 216.543 664.595C210.139 646.17 199.821 630.089 187.021 615.556C162.634 587.868 132.509 567.874 100.011 551.099C98.2423 550.186 96.7795 550.168 95.0358 551.109C91.4882 553.024 87.8447 554.762 84.2371 556.566C-5.65906 601.515 -95.5548 646.466 -185.453 691.412C-283.724 740.543 -381.997 789.669 -480.268 838.8C-481.96 839.646 -483.632 840.53 -486.343 841.926ZM401.556 302.562C398.961 303.694 397.521 304.349 396.059 304.956C380.419 311.445 364.998 318.54 349.093 324.298C290.297 345.586 229.349 356.887 167.19 362.021C136.289 364.573 105.326 365.428 74.3002 364.52C31.9527 363.282 -10.0737 359.193 -51.7368 351.517C-97.0946 343.16 -141.339 330.945 -183.79 312.713C-215.665 299.023 -245.819 282.364 -272.614 260.09C-292.025 243.955 -308.819 225.588 -320.584 203.018C-328.359 188.101 -333.262 172.35 -334.322 155.481C-335.108 142.965 -333.893 130.68 -330.502 118.592C-329.987 116.754 -328.733 114.859 -329.634 112.694C-340.167 116.69 -506.518 200.441 -509.131 203.131C-507.362 204.055 -505.673 204.97 -503.957 205.827C-454.743 230.432 -405.523 255.023 -356.312 279.632C-299.161 308.211 -242.022 336.816 -184.867 365.388C-108.663 403.485 -32.4479 441.56 43.7612 479.647C60.6485 488.086 77.5541 496.489 94.3929 505.024C96.6525 506.169 98.4684 506.325 100.688 505.046C103.619 503.358 106.741 502.004 109.772 500.488C170.387 470.189 231.003 439.891 291.614 409.585C326.827 391.978 362.013 374.315 397.277 356.811C400.466 355.228 401.691 353.389 401.639 349.811C401.439 336.091 401.557 322.368 401.556 308.645C401.556 306.912 401.556 305.178 401.556 302.562ZM705.105 527.899C702.621 526.605 701.223 525.822 699.779 525.133C674.819 513.23 648.967 503.676 622.47 495.83C587.907 485.596 552.72 478.336 517.016 473.418C486.119 469.162 455.098 466.384 423.926 466.003C401.985 465.736 380.005 465.936 358.093 466.979C337.963 467.937 317.849 469.855 297.819 472.152C268.305 475.538 239.138 481.075 210.3 488.264C174.198 497.265 139.096 509.118 105.429 525.056C103.889 525.785 102.425 526.677 100.268 527.851C102.261 528.979 103.577 529.804 104.959 530.495C201.358 578.713 297.799 626.846 394.082 675.295C400.457 678.503 405.121 678.252 411.325 675.134C507.336 626.87 603.478 578.867 699.587 530.798C701.127 530.029 702.636 529.199 705.105 527.899ZM403.637 964.302C405.664 965.38 407.038 966.174 408.465 966.86C426.375 975.466 444.793 982.832 463.611 989.184C530.636 1011.81 599.757 1022.75 670.237 1025.78C710.608 1027.52 750.922 1026.35 791.146 1022.25C834.423 1017.85 877.082 1010.21 918.954 998.337C947.878 990.132 976.062 979.943 1003.22 967.004C1004.74 966.28 1006.21 965.437 1008.35 964.306C1006.07 963.044 1004.57 962.146 1003.02 961.366C988.877 954.283 974.727 947.225 960.583 940.152C877.168 898.437 793.744 856.739 710.374 814.935C707.11 813.298 704.635 813.44 701.427 815.057C664.392 833.721 627.278 852.23 590.184 870.778C529.567 901.089 468.949 931.397 408.336 961.716C406.933 962.416 405.584 963.226 403.637 964.302ZM1009.64 396.332C1007.65 395.291 1006.27 394.514 1004.84 393.832C975.188 379.674 944.314 368.87 912.636 360.283C881.607 351.872 850.121 345.78 818.257 341.551C793.439 338.258 768.53 336.141 743.523 335.041C693.557 332.844 643.8 335.175 594.248 341.878C554.198 347.297 514.801 355.71 476.258 367.966C453.474 375.212 431.195 383.746 409.641 394.124C408.315 394.762 407.072 395.573 405.272 396.599C407.029 397.61 407.972 398.218 408.969 398.717C463.378 425.926 517.789 453.133 572.219 480.3C574.076 481.227 576.084 481.976 578.108 482.426C607.283 488.923 635.997 497.037 663.852 507.897C677.667 513.284 691.1 519.643 704.76 525.434C707.574 526.627 708.596 528.375 708.426 531.359C708.215 535.06 708.353 538.783 708.4 542.496C708.415 543.723 708.612 544.948 708.729 546.2C713.021 545.388 1002.27 401.333 1009.64 396.332ZM706.182 332.445C706.182 289.505 706.182 247.338 706.182 204.523C703.769 205.653 701.888 206.485 700.049 207.404C662.086 226.369 624.122 245.335 586.169 264.32C513.438 300.701 440.721 337.108 367.985 373.479C280.381 417.284 192.756 461.047 105.165 504.877C97.228 508.849 98.6482 506.536 98.5857 515.646C98.5629 518.923 98.2176 522.252 99.0173 525.881C100.729 525.159 101.914 524.718 103.048 524.17C129.123 511.573 156.206 501.606 183.965 493.482C213.573 484.817 243.661 478.275 274.161 473.577C301.622 469.346 329.207 466.372 356.957 465.065C370.014 464.449 383.092 464.279 396.16 463.881C397.855 463.829 399.546 463.626 401.598 463.465C401.598 461.02 401.598 459.108 401.598 457.195C401.598 438.306 401.671 419.417 401.529 400.529C401.504 397.16 402.519 395.227 405.685 393.877C415.624 389.638 425.335 384.847 435.347 380.795C496.27 356.143 559.897 342.893 625.068 336.391C650.295 333.874 675.606 332.593 700.967 332.446C702.553 332.437 704.139 332.445 706.182 332.445ZM-80.2233 636.626C-72.7489 632.921 -66.4026 629.798 -60.0762 626.636C-9.57135 601.396 40.9107 576.109 91.4713 550.981C95.2644 549.096 97.0091 547.074 96.8221 542.594C96.4249 533.088 96.469 523.545 96.8095 514.034C96.9645 509.702 95.5599 507.509 91.6282 505.56C47.8363 483.852 4.15533 461.92 -39.5634 440.064C-79.242 420.227 -118.929 400.408 -158.617 380.591C-160.065 379.868 -161.569 379.255 -163.047 378.591C-163.203 378.908 -163.36 379.226 -163.516 379.543C-161.845 380.77 -160.187 382.014 -158.502 383.221C-141.105 395.683 -125.149 409.71 -111.681 426.423C-90.8239 452.304 -79.3674 481.273 -80.0552 515.122C-80.8351 553.519 -80.2272 591.944 -80.2228 630.357C-80.2233 632.083 -80.2233 633.807 -80.2233 636.626ZM98.5814 529.678C98.5814 535.032 98.7747 539.541 98.516 544.024C98.3319 547.221 99.4523 548.927 102.357 550.368C115.963 557.12 128.99 564.896 141.517 573.489C163.088 588.287 182.612 605.307 198.183 626.499C215.594 650.196 225.409 676.366 224.866 706.223C224.399 731.885 224.777 757.562 224.781 783.233C224.781 784.933 224.781 786.635 224.781 789.153C227.35 787.967 229.082 787.224 230.766 786.383C274.932 764.303 319.094 742.214 363.256 720.127C374.947 714.28 386.605 708.368 398.353 702.639C400.73 701.48 401.767 700.073 401.61 697.435C401.428 694.378 401.638 691.301 401.569 688.235C401.375 679.64 403 681.612 394.787 677.494C354.112 657.095 313.393 636.784 272.692 616.436C216.404 588.294 160.119 560.145 103.828 532.01C102.416 531.305 100.941 530.723 98.5814 529.678ZM580.326 789.109C580.326 786.353 580.326 784.591 580.326 782.83C580.329 756.2 580.435 729.569 580.301 702.94C580.212 685.025 584.1 668.063 591.665 651.894C601.962 629.883 617.231 611.692 635.162 595.584C654.731 578.005 676.651 563.866 699.87 551.651C702 550.531 704.115 549.383 706.523 548.094C706.523 543.046 706.541 538.061 706.507 533.078C706.501 532.163 706.288 531.25 706.117 529.919C704.504 530.598 703.177 531.074 701.922 531.698C689.213 538.021 676.512 544.36 663.816 550.71C596.589 584.336 529.366 617.97 462.138 651.595C443.815 660.759 425.505 669.949 407.127 679.001C404.467 680.311 403.175 681.863 403.387 684.909C403.621 688.283 403.783 691.727 403.366 695.063C402.785 699.714 404.932 701.82 408.884 703.785C464.353 731.358 519.739 759.094 575.15 786.781C576.545 787.479 577.995 788.065 580.326 789.109ZM1011.56 394.855C1011.56 392.316 1011.56 390.731 1011.56 389.147C1011.57 379.945 1011.51 370.744 1011.59 361.543C1011.65 353.565 1010.32 355.203 1017.8 351.451C1048.67 335.979 1079.57 320.568 1110.45 305.123C1111.96 304.371 1113.41 303.517 1114.89 302.71C1112.8 301.991 1110.94 302.13 1109.08 302.303C1098.32 303.309 1087.56 304.431 1076.79 305.313C1041.02 308.242 1005.2 308.638 969.374 306.772C928.712 304.655 888.373 299.849 848.467 291.602C801.53 281.902 755.962 268.043 712.649 247.258C711.548 246.729 710.347 246.409 709.156 245.979C707.955 251.124 708.105 328.461 709.365 332.438C710.998 332.438 712.758 332.396 714.514 332.445C727.261 332.798 740.022 332.888 752.75 333.586C793.246 335.808 833.428 340.648 873.153 348.948C916.87 358.082 959.422 370.891 1000.1 389.549C1003.59 391.148 1007.06 392.771 1011.56 394.855ZM52.6859 875.43C-82.4098 922.058 -220.224 928.16 -360.318 904.575C-358.993 905.618 -357.547 906.48 -356.045 907.231C-323.448 923.546 -290.847 939.851 -258.243 956.153C-242.663 963.943 -227.135 971.843 -211.454 979.425C-207.765 981.208 -205.997 983.237 -206.37 987.471C-206.751 991.794 -206.477 996.178 -206.429 1000.53C-206.416 1001.73 -206.183 1002.93 -205.981 1004.76C-119.411 961.478 -33.3624 918.454 52.6859 875.43ZM-511.229 290.626C-509.576 290.765 -508.178 290.967 -506.778 290.988C-479.83 291.397 -452.934 292.647 -426.112 295.417C-397.535 298.366 -369.181 302.683 -341.103 308.77C-314.132 314.617 -287.561 321.893 -261.572 331.231C-260.22 331.717 -258.796 332.005 -257.405 332.386C-263.101 327.633 -507.732 205.788 -511.229 205.299C-511.229 233.645 -511.229 261.974 -511.229 290.626ZM757.451 525.059C757.576 525.412 757.7 525.766 757.825 526.12C839.704 496.863 924.495 485.292 1011.27 484.529C1011.27 455.661 1011.27 427.362 1011.27 398.142C926.256 440.651 841.853 482.855 757.451 525.059ZM-208.519 984.183C-277.596 1018.72 -345.832 1052.85 -414.069 1086.97C-413.942 1087.36 -413.815 1087.76 -413.688 1088.15C-346.557 1070.09 -278.095 1062.34 -208.518 1061.83C-208.519 1035.87 -208.519 1010.6 -208.519 984.183ZM563.522 479.312C563.619 478.926 563.715 478.54 563.811 478.155C510.686 451.597 457.56 425.038 404.284 398.404C403.006 404.112 403.265 460.168 404.557 463.855C457.938 463.855 510.989 468.932 563.522 479.312ZM-513.567 233.982C-519.87 235.898 -646.083 299.311 -648.95 302.12C-603.877 294.6 -558.958 291.294 -513.567 290.936C-513.567 271.645 -513.567 252.992 -513.567 233.982ZM-206.18 1061.85C-164.589 1062.15 -123.6 1065.06 -82.8384 1071.08C-82.7513 1070.71 -82.6641 1070.34 -82.5769 1069.96C-123.577 1049.47 -164.578 1028.97 -206.18 1008.17C-206.18 1026.41 -206.18 1043.75 -206.18 1061.85ZM582.373 726.572C582.299 727.358 582.16 728.144 582.16 728.93C582.145 748.279 582.236 767.629 582.053 786.977C582.023 790.15 583.729 791.129 585.96 792.242C610.764 804.615 635.552 817.019 660.354 829.397C661.726 830.081 663.177 830.607 664.591 831.206C664.759 830.917 664.927 830.627 665.095 830.337C663.893 829.428 662.69 828.519 661.489 827.608C655.071 822.736 648.475 818.079 642.268 812.952C623.469 797.422 607.252 779.647 595.458 758.105C590.013 748.157 586.097 737.623 582.373 726.572ZM222.803 726.681C222.556 726.689 222.309 726.696 222.062 726.704C221.746 727.603 221.363 728.485 221.124 729.405C215.829 749.76 205.594 767.51 192.375 783.647C177.75 801.5 160.33 816.259 141.377 829.294C140.429 829.946 139.59 830.756 138.699 831.493C138.86 831.721 139.02 831.948 139.18 832.176C167.07 818.23 194.96 804.284 222.802 790.362C222.803 768.857 222.803 747.769 222.803 726.681ZM582.797 116.921C582.593 116.94 582.389 116.96 582.185 116.979C582.185 123.696 582.158 130.414 582.226 137.13C582.233 137.842 582.602 138.908 583.135 139.195C586.101 140.799 588.851 143.02 592.376 143.315C589.115 134.329 585.956 125.626 582.797 116.921Z" fill="url(#paint0_linear_18468_33432)" fill-opacity="0.2"/>
<defs>
<linearGradient id="paint0_linear_18468_33432" x1="207.5" y1="380.5" x2="198.5" y2="989" gradientUnits="userSpaceOnUse">
<stop stop-color="white" stop-opacity="0"/>
<stop offset="1" stop-color="#DDDDDD"/>
</linearGradient>
</defs>
</svg>
