<svg width="375" height="926" viewBox="0 0 375 926" fill="none" xmlns="http://www.w3.org/2000/svg">
<path d="M1179 937.75C1164.62 940.647 1150.15 943.203 1135.86 946.502C1086.76 957.837 1039.37 973.91 995.192 998.57C968.967 1013.21 944.77 1030.54 924.44 1052.86C910.054 1068.65 898.536 1086.23 891.815 1106.68C890.813 1109.73 890.16 1112.89 889.345 1116C888.699 1116 888.053 1116 887.407 1116C887.582 1115.05 887.695 1114.09 887.94 1113.16C893.22 1093.16 903.21 1075.65 916.132 1059.68C917.606 1057.86 919.109 1056.06 920.598 1054.25C918.625 1054.16 917.186 1054.71 915.815 1055.39C881.79 1072.38 847.764 1089.37 813.76 1106.41C807.581 1109.5 801.502 1112.8 795.377 1116C794.085 1116 792.793 1116 791.502 1116C792.838 1115.15 794.109 1114.17 795.518 1113.47C837.077 1092.68 878.631 1071.88 920.246 1051.2C924.677 1049 928.269 1046.01 931.765 1042.59C948.123 1026.6 966.481 1013.2 986.183 1001.64C992.582 997.885 999.083 994.287 1005.67 990.88C1008.19 989.58 1009.16 988.031 1009.08 985.222C1008.89 979.145 1009.02 973.058 1009.02 966.359C1007.16 967.004 1005.96 967.29 1004.88 967.809C961.252 988.697 915.369 1002.64 868.094 1012.34C832.784 1019.59 797.122 1024.19 761.177 1026.54C726.997 1028.78 692.796 1028.96 658.575 1027.08C629.698 1025.5 600.97 1022.59 572.44 1017.95C515.819 1008.72 460.831 993.876 408.676 969.513C405.762 968.152 402.935 966.599 400.087 965.099C399.855 964.977 399.768 964.578 399.264 963.697C486.312 920.04 573.442 876.644 661.146 832.673C659.181 831.558 657.982 830.805 656.722 830.175C572.878 788.236 489.018 746.329 405.225 704.29C402.097 702.72 399.863 703.383 397.161 704.737C355.617 725.559 314.052 746.336 272.486 767.113C195.992 805.349 119.489 843.567 43.0005 881.812C-37.9672 922.297 -118.923 962.806 -199.883 1003.31C-201.602 1004.17 -203.307 1005.05 -205.906 1006.38C-203.853 1007.57 -202.46 1008.47 -200.983 1009.21C-174.287 1022.57 -147.58 1035.9 -120.877 1049.24C-107.163 1056.09 -93.3613 1062.77 -79.7833 1069.88C-74.7637 1072.51 -69.4752 1073.46 -64.0885 1074.41C-17.0736 1082.76 28.7454 1095.23 72.7314 1114.03C74.0485 1114.6 75.288 1115.34 76.5634 1116C74.9489 1116 73.334 1116 71.7196 1116C65.8165 1113.46 59.9914 1110.72 53.9977 1108.42C6.18994 1090.06 -43.3549 1078.59 -93.9735 1071.52C-126.275 1067.01 -158.76 1064.6 -191.363 1063.95C-247.656 1062.84 -303.537 1067.1 -358.917 1077.38C-397.039 1084.45 -434.381 1094.41 -470.61 1108.33C-476.581 1110.62 -482.354 1113.43 -488.218 1116C-489.833 1116 -491.447 1116 -493.062 1116C-486.596 1113.16 -480.252 1109.99 -473.637 1107.55C-461.076 1102.92 -448.246 1099.01 -435.749 1094.22C-427.493 1091.06 -419.523 1087.09 -411.598 1083.14C-346.334 1050.57 -281.111 1017.93 -215.879 985.3C-214.456 984.588 -213.072 983.797 -210.974 982.668C-212.864 981.6 -214.175 980.782 -215.55 980.094C-267.218 954.25 -318.896 928.425 -370.564 902.582C-420.211 877.751 -469.846 852.896 -519.493 828.064C-567.554 804.027 -615.622 780.004 -663.688 755.978C-709.156 733.251 -754.623 710.522 -800.102 687.819C-801.668 687.038 -803.365 686.518 -805 685.875C-805 685.23 -805 684.583 -805 683.938C-803.355 684.543 -801.635 684.998 -800.076 685.776C-736.857 717.369 -673.656 748.999 -610.445 780.607C-571.479 800.092 -532.482 819.517 -493.561 839.091C-490.596 840.582 -488.341 840.322 -485.523 838.909C-417.439 804.783 -349.318 770.73 -281.2 736.672C-216.833 704.491 -152.478 672.288 -88.053 640.226C-84.3922 638.404 -82.9453 636.435 -82.9724 632.21C-83.1715 601.056 -83.0756 569.899 -83.0721 538.744C-83.0721 536.993 -83.0721 535.242 -83.0721 533.492C-83.3526 533.437 -83.6331 533.382 -83.9131 533.327C-84.2817 534.295 -84.7389 535.239 -85.0058 536.234C-91.03 558.711 -102.852 577.936 -118.121 595.211C-136.698 616.229 -158.797 632.899 -182.809 647.133C-222.253 670.517 -264.74 686.477 -308.852 698.387C-339.733 706.725 -371.084 712.702 -402.788 716.933C-452.363 723.55 -502.145 725.603 -552.07 723.324C-613.056 720.541 -673.121 711.664 -731.822 694.494C-755.228 687.647 -778.153 679.464 -800.452 669.556C-801.856 668.932 -803.478 668.799 -804.999 668.437C-804.999 667.469 -804.999 666.5 -804.999 665.531C-763.065 684.525 -719.293 697.678 -674.221 706.716C-648.736 711.826 -623.059 715.568 -597.191 718.154C-565.03 721.369 -532.806 722.619 -500.501 722.195C-469.649 721.79 -438.901 719.738 -408.303 715.833C-355.002 709.03 -302.824 697.442 -252.486 678.299C-219.172 665.63 -187.411 649.959 -158.481 628.951C-137.702 613.861 -119.151 596.502 -104.834 574.98C-94.3358 559.198 -86.9481 542.141 -84.209 523.262C-80.5515 498.057 -85.696 474.48 -97.663 452.241C-110.757 427.908 -129.547 408.556 -151.164 391.768C-181.127 368.498 -214.581 351.551 -249.809 337.929C-289.214 322.691 -329.916 312.205 -371.499 304.935C-421.566 296.182 -472.021 292.445 -522.809 292.934C-555.114 293.244 -587.318 295.342 -619.359 299.464C-668.77 305.819 -717.277 316.244 -764.196 333.246C-777.977 338.241 -791.408 344.201 -805 349.719C-805 348.75 -805 347.781 -805 346.813C-803.628 346.493 -802.163 346.383 -800.897 345.823C-762.547 328.828 -722.628 316.805 -681.651 308.132C-676.446 307.03 -671.233 305.941 -665.985 305.077C-661.298 304.307 -657.065 302.532 -652.85 300.416C-609.025 278.419 -565.159 256.506 -521.306 234.565C-519.746 233.784 -518.211 232.953 -515.906 231.75C-518.005 230.559 -519.448 229.651 -520.966 228.892C-569.874 204.44 -618.793 180.009 -667.703 155.561C-711.851 133.493 -755.989 111.406 -800.139 89.3406C-801.722 88.5491 -803.378 87.902 -805 87.1875C-805 86.5419 -805 85.8957 -805 85.25C-803.658 85.7809 -802.267 86.2139 -800.981 86.8562C-759.412 107.623 -717.852 128.408 -676.291 149.192C-623.908 175.39 -571.526 201.59 -519.137 227.776C-517.765 228.461 -516.316 228.991 -514.306 229.848C-514.306 222.292 -514.374 215.529 -514.288 208.768C-514.189 200.951 -515.529 202.688 -508.263 199.049C-451.276 170.513 -394.289 141.977 -337.197 113.65C-331.425 110.786 -326.724 107.693 -325.144 101.059C-324.668 99.063 -323.373 97.2698 -322.537 95.3478C-322.133 94.4193 -321.922 93.4064 -321.433 91.8056C-324.087 92.4077 -326.102 92.8431 -328.105 93.3231C-348.983 98.3257 -370.062 102.291 -391.298 105.404C-421.183 109.786 -451.223 112.418 -481.41 113.608C-516.79 115.002 -552.105 114.073 -587.358 111.04C-619.372 108.286 -651.123 103.647 -682.568 96.9303C-723.073 88.2788 -762.528 76.3705 -800.463 59.6251C-801.914 58.9848 -803.485 58.6186 -805 58.125C-805 57.4794 -805 56.8332 -805 56.1875C-803.628 56.5857 -802.187 56.8288 -800.895 57.4048C-761.535 74.9493 -720.513 87.2161 -678.384 95.9354C-634.684 104.98 -590.51 109.969 -545.921 111.731C-515.4 112.936 -484.928 112.439 -454.484 110.353C-410.308 107.327 -366.629 100.923 -323.595 90.3413C-320.976 89.6976 -318.969 88.8121 -317.464 86.2832C-304.226 64.0436 -286.267 46.112 -265.964 30.3558C-264.31 29.0717 -262.673 27.7649 -261.056 26.4333C-260.845 26.2589 -260.808 25.8719 -260.562 25.2674C-261.933 24.536 -263.315 23.7591 -264.729 23.05C-277.853 16.4741 -290.989 9.92436 -304.102 3.32814C-306.109 2.31919 -308.016 1.11406 -309.969 0C-308.354 0 -306.739 0 -305.125 0C-303.846 0.894641 -302.65 1.95106 -301.273 2.65631C-294.836 5.95539 -288.351 9.16196 -281.879 12.3927C-273.979 16.337 -266.073 20.273 -258.197 24.1994C-257.461 23.8259 -256.869 23.5789 -256.331 23.2447C-245.004 16.2028 -233.677 9.16002 -222.372 2.08378C-221.461 1.51367 -220.703 0.700407 -219.874 0C-218.582 0 -217.291 0 -215.999 0C-217.818 1.24 -219.549 2.63645 -221.467 3.69675C-247.166 17.904 -271.147 34.4323 -291.595 55.7007C-306.966 71.689 -319.586 89.5353 -327.039 110.602C-339.266 145.16 -334.482 177.945 -316.068 209.12C-303.234 230.849 -285.781 248.412 -266.04 263.827C-238.862 285.047 -208.68 300.987 -176.891 314.018C-134.458 331.412 -90.4129 343.073 -45.2948 350.966C-17.1288 355.893 11.2163 359.283 39.7276 361.156C74.0645 363.413 108.423 363.633 142.806 361.744C175.555 359.945 208.092 356.398 240.372 350.657C290.588 341.725 339.446 328.164 386.051 307.115C389.725 305.455 393.339 303.662 396.966 301.9C397.381 301.699 397.696 301.295 398.375 300.713C397.225 299.96 396.275 299.193 395.209 298.66C344.411 273.261 293.598 247.893 242.798 222.497C189.834 196.02 136.882 169.516 83.922 143.03C24.1791 113.151 -35.5671 83.2791 -95.3109 53.4038C-128.79 36.6624 -162.273 19.9277 -195.734 3.14844C-197.424 2.30078 -198.916 1.05884 -200.5 0C-199.208 0 -197.917 0 -196.625 0C-196.04 0.518282 -195.534 1.19302 -194.859 1.53208C-182.088 7.94327 -169.275 14.2711 -156.533 20.739C-154.515 21.7635 -152.947 21.4002 -151.119 20.4789C-138.929 14.3365 -126.702 8.26877 -114.508 2.13513C-113.388 1.57228 -112.415 0.718328 -111.374 0C-110.082 0 -108.791 0 -107.499 0C-108.786 0.889797 -109.989 1.94525 -111.373 2.64324C-123.038 8.52936 -134.74 14.3462 -146.424 20.1955C-147.856 20.9129 -149.254 21.701 -151.495 22.8979C-149.547 24.0056 -148.163 24.879 -146.706 25.6084C-122.187 37.8883 -97.6572 50.1488 -73.1313 62.4166C8.96686 103.483 91.0598 144.559 173.163 185.615C247.473 222.774 321.793 259.912 396.109 297.059C396.975 297.492 397.807 298.02 398.713 298.339C401.541 299.335 402.571 301.224 402.483 304.244C402.297 310.696 402.428 317.156 402.427 323.613C402.427 331.683 402.41 339.754 402.439 347.825C402.445 349.383 402.629 350.94 402.733 352.539C406.676 351.762 694.386 208.404 703.169 202.937C702.384 200.881 700.292 200.558 698.692 199.755C674.613 187.669 650.501 175.649 626.402 163.604C530.728 115.781 435.055 67.9545 339.382 20.1282C327.693 14.2852 316.001 8.44944 304.334 2.56477C302.93 1.85661 301.671 0.862188 300.345 0.000484375C301.959 0.000484375 303.574 0.000484375 305.188 0.000484375C306.558 0.994422 307.82 2.20342 309.313 2.95178C352.417 24.5501 395.559 46.0714 438.634 67.7282C441.573 69.2061 443.839 69.1194 446.709 67.6784C489.942 45.9687 533.229 24.366 576.484 2.69991C577.865 2.00822 579.042 0.909657 580.314 0.00096875C581.928 0.00096875 583.543 0.00096875 585.157 0.00096875C583.653 0.90675 582.202 1.91619 580.638 2.70184C563.781 11.1658 546.909 19.5998 530.036 28.0322C503.5 41.2949 476.954 54.5373 450.438 67.8397C448.851 68.636 446.803 68.993 445.953 70.9682C455.58 76.957 575.363 136.292 579.345 136.93C579.345 135.118 579.345 133.37 579.345 131.623C579.347 118.718 579.188 105.811 579.418 92.9104C579.535 86.3195 579.892 79.6686 580.929 73.1707C584.332 51.8485 593.583 33.0111 606.401 15.841C610.442 10.4262 614.833 5.27291 619.063 0C619.709 0 620.355 0 621.001 0C620.154 1.29861 619.453 2.72655 618.438 3.87742C604.528 19.6501 593.204 36.9554 586.688 57.1292C577.05 86.9676 580.31 115.692 594.074 143.547C595.187 145.799 596.994 146.848 599.03 147.865C619.238 157.958 639.437 168.07 659.639 178.175C674.213 185.466 688.74 192.855 703.402 199.964C706.517 201.474 707.494 203.331 707.437 206.648C707.255 217.299 707.506 227.959 707.292 238.609C707.223 242.023 708.394 243.739 711.459 245.209C744.315 260.965 778.548 272.85 813.788 281.927C850.414 291.361 887.58 297.717 925.204 301.569C967.683 305.918 1010.25 307.268 1052.87 304.932C1074.77 303.731 1096.6 301.239 1118.45 299.216C1120.64 299.013 1122.9 298.314 1124.88 297.334C1142.95 288.381 1160.97 279.314 1179 270.281C1179 270.927 1179 271.573 1179 272.219C1177.44 273.066 1175.91 273.96 1174.32 274.753C1122.37 300.731 1070.41 326.698 1018.46 352.677C1017.19 353.315 1015.97 354.076 1014.71 354.793C1015.02 355.274 1015.13 355.647 1015.37 355.773C1017.66 356.969 1019.93 358.193 1022.26 359.28C1059.57 376.653 1098.53 389.139 1138.64 398.078C1152.01 401.058 1165.54 403.317 1179 405.906C1179 406.552 1179 407.198 1179 407.844C1178.2 407.763 1177.39 407.734 1176.59 407.593C1153.73 403.538 1131.05 398.692 1108.65 392.527C1077.19 383.867 1046.55 372.984 1017.09 358.888C1015.75 358.248 1014.32 357.807 1012.68 357.173C1012.68 399.967 1012.68 441.995 1012.68 484.257C1014.24 484.388 1015.49 484.571 1016.74 484.585C1061.48 485.102 1105.97 488.522 1150.08 496.127C1159.76 497.795 1169.36 499.906 1179 501.813C1179 502.458 1179 503.105 1179 503.75C1169.52 501.833 1160.09 499.664 1150.56 498.041C1100.79 489.566 1050.63 485.882 1000.17 486.545C969.495 486.949 938.915 489.014 908.449 492.784C861.889 498.547 816.178 508.104 771.651 522.998C737.419 534.448 704.506 548.823 673.905 568.136C650.702 582.78 629.505 599.803 612.167 621.274C600.708 635.463 591.556 650.966 586.186 668.481C576.899 698.774 580.617 727.799 595.243 755.618C606.928 777.842 623.544 795.967 642.776 811.794C649.496 817.325 656.728 822.228 663.605 827.574C665.984 829.423 667.978 829.423 670.605 828.064C680.635 822.876 690.815 817.981 700.847 812.798C703.662 811.344 705.954 811.185 708.911 812.67C759.373 838.014 809.894 863.238 860.403 888.487C872.958 894.764 885.497 901.074 898.093 907.269C899.931 908.172 902.009 908.835 904.037 909.064C917.663 910.601 931.284 912.26 944.947 913.373C977.478 916.023 1010.08 916.519 1042.68 915.372C1088.57 913.758 1134.04 908.453 1179 899C1179 899.646 1179 900.292 1179 900.937C1160.57 904.094 1142.2 907.7 1123.69 910.304C1092.68 914.668 1061.47 916.925 1030.13 917.528C990.387 918.293 950.771 916.646 911.297 911.855C910.617 911.773 909.919 911.845 909.23 911.845C910.664 913.541 912.311 914.463 913.996 915.306C945.01 930.819 976.007 946.368 1007.08 961.757C1010.01 963.209 1011.09 964.948 1010.96 968.093C1010.75 973.087 1010.86 978.096 1010.9 983.098C1010.91 984.467 1011.16 985.835 1011.33 987.571C1013 986.9 1014.2 986.502 1015.33 985.955C1055.16 966.633 1097 953.226 1140.12 943.658C1153.03 940.796 1166.04 938.414 1179 935.813C1179 936.459 1179 937.105 1179 937.75ZM-487.343 841.926C-484.722 843.313 -483.184 844.166 -481.612 844.952C-445.969 862.776 -410.336 880.616 -374.653 898.358C-372.101 899.626 -369.238 900.438 -366.427 900.99C-329.005 908.346 -291.241 912.855 -253.147 914.834C-211.646 916.991 -170.21 916.224 -128.851 912.373C-96.2152 909.333 -63.8531 904.374 -31.866 897.125C15.0424 886.495 60.4714 871.656 103.234 849.331C126.926 836.961 149.19 822.449 169.01 804.399C186.597 788.383 201.52 770.31 211.385 748.455C223.749 721.067 225.457 693.12 215.543 664.595C209.139 646.17 198.821 630.089 186.021 615.556C161.634 587.868 131.509 567.874 99.0107 551.099C97.2423 550.186 95.7795 550.168 94.0358 551.109C90.4882 553.024 86.8447 554.762 83.2371 556.566C-6.65906 601.515 -96.5548 646.466 -186.453 691.412C-284.724 740.543 -382.997 789.669 -481.268 838.8C-482.96 839.646 -484.632 840.53 -487.343 841.926ZM400.556 302.562C397.961 303.694 396.521 304.349 395.059 304.956C379.419 311.445 363.998 318.54 348.093 324.298C289.297 345.586 228.349 356.887 166.19 362.021C135.289 364.573 104.326 365.428 73.3002 364.52C30.9527 363.282 -11.0737 359.193 -52.7368 351.517C-98.0946 343.16 -142.339 330.945 -184.79 312.713C-216.665 299.023 -246.819 282.364 -273.614 260.09C-293.025 243.955 -309.819 225.588 -321.584 203.018C-329.359 188.101 -334.262 172.35 -335.322 155.481C-336.108 142.965 -334.893 130.68 -331.502 118.592C-330.987 116.754 -329.733 114.859 -330.634 112.694C-341.167 116.69 -507.518 200.441 -510.131 203.131C-508.362 204.055 -506.673 204.97 -504.957 205.827C-455.743 230.432 -406.523 255.023 -357.312 279.632C-300.161 308.211 -243.022 336.816 -185.867 365.388C-109.663 403.485 -33.4479 441.56 42.7612 479.647C59.6485 488.086 76.5541 496.489 93.3929 505.024C95.6525 506.169 97.4684 506.325 99.6879 505.046C102.619 503.358 105.741 502.004 108.772 500.488C169.387 470.189 230.003 439.891 290.614 409.585C325.827 391.978 361.013 374.315 396.277 356.811C399.466 355.228 400.691 353.389 400.639 349.811C400.439 336.091 400.557 322.368 400.556 308.645C400.556 306.912 400.556 305.178 400.556 302.562ZM704.105 527.899C701.621 526.605 700.223 525.822 698.779 525.133C673.819 513.23 647.967 503.676 621.47 495.83C586.907 485.596 551.72 478.336 516.016 473.418C485.119 469.162 454.098 466.384 422.926 466.003C400.985 465.736 379.005 465.936 357.093 466.979C336.963 467.937 316.849 469.855 296.819 472.152C267.305 475.538 238.138 481.075 209.3 488.264C173.198 497.265 138.096 509.118 104.429 525.056C102.889 525.785 101.425 526.677 99.2684 527.851C101.261 528.979 102.577 529.804 103.959 530.495C200.358 578.713 296.799 626.846 393.082 675.295C399.457 678.503 404.121 678.252 410.325 675.134C506.336 626.87 602.478 578.867 698.587 530.798C700.127 530.029 701.636 529.199 704.105 527.899ZM402.637 964.302C404.664 965.38 406.038 966.174 407.465 966.86C425.375 975.466 443.793 982.832 462.611 989.184C529.636 1011.81 598.757 1022.75 669.237 1025.78C709.608 1027.52 749.922 1026.35 790.146 1022.25C833.423 1017.85 876.082 1010.21 917.954 998.337C946.878 990.132 975.062 979.943 1002.22 967.004C1003.74 966.28 1005.21 965.437 1007.35 964.306C1005.07 963.044 1003.57 962.146 1002.02 961.366C987.877 954.283 973.727 947.225 959.583 940.152C876.168 898.437 792.744 856.739 709.374 814.935C706.11 813.298 703.635 813.44 700.427 815.057C663.392 833.721 626.278 852.23 589.184 870.778C528.567 901.089 467.949 931.397 407.336 961.716C405.933 962.416 404.584 963.226 402.637 964.302ZM1008.64 396.332C1006.65 395.291 1005.27 394.514 1003.84 393.832C974.188 379.674 943.314 368.87 911.636 360.283C880.607 351.872 849.121 345.78 817.257 341.551C792.439 338.258 767.53 336.141 742.523 335.041C692.557 332.844 642.8 335.175 593.248 341.878C553.198 347.297 513.801 355.71 475.258 367.966C452.474 375.212 430.195 383.746 408.641 394.124C407.315 394.762 406.072 395.573 404.272 396.599C406.029 397.61 406.972 398.218 407.969 398.717C462.378 425.926 516.789 453.133 571.219 480.3C573.076 481.227 575.084 481.976 577.108 482.426C606.283 488.923 634.997 497.037 662.852 507.897C676.667 513.284 690.1 519.643 703.76 525.434C706.574 526.627 707.596 528.375 707.426 531.359C707.215 535.06 707.353 538.783 707.4 542.496C707.415 543.723 707.612 544.948 707.729 546.2C712.021 545.388 1001.27 401.333 1008.64 396.332ZM705.182 332.445C705.182 289.505 705.182 247.338 705.182 204.523C702.769 205.653 700.888 206.485 699.049 207.404C661.086 226.369 623.122 245.335 585.169 264.32C512.438 300.701 439.721 337.108 366.985 373.479C279.381 417.284 191.756 461.047 104.165 504.877C96.228 508.849 97.6482 506.536 97.5857 515.646C97.5629 518.923 97.2176 522.252 98.0173 525.881C99.7286 525.159 100.914 524.718 102.048 524.17C128.123 511.573 155.206 501.606 182.965 493.482C212.573 484.817 242.661 478.275 273.161 473.577C300.622 469.346 328.207 466.372 355.957 465.065C369.014 464.449 382.092 464.279 395.16 463.881C396.855 463.829 398.546 463.626 400.598 463.465C400.598 461.02 400.598 459.108 400.598 457.195C400.598 438.306 400.671 419.417 400.529 400.529C400.504 397.16 401.519 395.227 404.685 393.877C414.624 389.638 424.335 384.847 434.347 380.795C495.27 356.143 558.897 342.893 624.068 336.391C649.295 333.874 674.606 332.593 699.967 332.446C701.553 332.437 703.139 332.445 705.182 332.445ZM-81.2233 636.626C-73.7489 632.921 -67.4026 629.798 -61.0762 626.636C-10.5714 601.396 39.9107 576.109 90.4713 550.981C94.2644 549.096 96.0091 547.074 95.8221 542.594C95.4249 533.088 95.469 523.545 95.8095 514.034C95.9645 509.702 94.5599 507.509 90.6282 505.56C46.8363 483.852 3.15533 461.92 -40.5634 440.064C-80.242 420.227 -119.929 400.408 -159.617 380.591C-161.065 379.868 -162.569 379.255 -164.047 378.591C-164.203 378.908 -164.36 379.226 -164.516 379.543C-162.845 380.77 -161.187 382.014 -159.502 383.221C-142.105 395.683 -126.149 409.71 -112.681 426.423C-91.8239 452.304 -80.3674 481.273 -81.0552 515.122C-81.8351 553.519 -81.2272 591.944 -81.2228 630.357C-81.2233 632.083 -81.2233 633.807 -81.2233 636.626ZM97.5814 529.678C97.5814 535.032 97.7747 539.541 97.516 544.024C97.3319 547.221 98.4523 548.927 101.357 550.368C114.963 557.12 127.99 564.896 140.517 573.489C162.088 588.287 181.612 605.307 197.183 626.499C214.594 650.196 224.409 676.366 223.866 706.223C223.399 731.885 223.777 757.562 223.781 783.233C223.781 784.933 223.781 786.635 223.781 789.153C226.35 787.967 228.082 787.224 229.766 786.383C273.932 764.303 318.094 742.214 362.256 720.127C373.947 714.28 385.605 708.368 397.353 702.639C399.73 701.48 400.767 700.073 400.61 697.435C400.428 694.378 400.638 691.301 400.569 688.235C400.375 679.64 402 681.612 393.787 677.494C353.112 657.095 312.393 636.784 271.692 616.436C215.404 588.294 159.119 560.145 102.828 532.01C101.416 531.305 99.9412 530.723 97.5814 529.678ZM579.326 789.109C579.326 786.353 579.326 784.591 579.326 782.83C579.329 756.2 579.435 729.569 579.301 702.94C579.212 685.025 583.1 668.063 590.665 651.894C600.962 629.883 616.231 611.692 634.162 595.584C653.731 578.005 675.651 563.866 698.87 551.651C701 550.531 703.115 549.383 705.523 548.094C705.523 543.046 705.541 538.061 705.507 533.078C705.501 532.163 705.288 531.25 705.117 529.919C703.504 530.598 702.177 531.074 700.922 531.698C688.213 538.021 675.512 544.36 662.816 550.71C595.589 584.336 528.366 617.97 461.138 651.595C442.815 660.759 424.505 669.949 406.127 679.001C403.467 680.311 402.175 681.863 402.387 684.909C402.621 688.283 402.783 691.727 402.366 695.063C401.785 699.714 403.932 701.82 407.884 703.785C463.353 731.358 518.739 759.094 574.15 786.781C575.545 787.479 576.995 788.065 579.326 789.109ZM1010.56 394.855C1010.56 392.316 1010.56 390.731 1010.56 389.147C1010.57 379.945 1010.51 370.744 1010.59 361.543C1010.65 353.565 1009.32 355.203 1016.8 351.451C1047.67 335.979 1078.57 320.568 1109.45 305.123C1110.96 304.371 1112.41 303.517 1113.89 302.71C1111.8 301.991 1109.94 302.13 1108.08 302.303C1097.32 303.309 1086.56 304.431 1075.79 305.313C1040.02 308.242 1004.2 308.638 968.374 306.772C927.712 304.655 887.373 299.849 847.467 291.602C800.53 281.902 754.962 268.043 711.649 247.258C710.548 246.729 709.347 246.409 708.156 245.979C706.955 251.124 707.105 328.461 708.365 332.438C709.998 332.438 711.758 332.396 713.514 332.445C726.261 332.798 739.022 332.888 751.75 333.586C792.246 335.808 832.428 340.648 872.153 348.948C915.87 358.082 958.422 370.891 999.099 389.549C1002.59 391.148 1006.06 392.771 1010.56 394.855ZM51.6859 875.43C-83.4098 922.058 -221.224 928.16 -361.318 904.575C-359.993 905.618 -358.547 906.48 -357.045 907.231C-324.448 923.546 -291.847 939.851 -259.243 956.153C-243.663 963.943 -228.135 971.843 -212.454 979.425C-208.765 981.208 -206.997 983.237 -207.37 987.471C-207.751 991.794 -207.477 996.178 -207.429 1000.53C-207.416 1001.73 -207.183 1002.93 -206.981 1004.76C-120.411 961.478 -34.3624 918.454 51.6859 875.43ZM-512.229 290.626C-510.576 290.765 -509.178 290.967 -507.778 290.988C-480.83 291.397 -453.934 292.647 -427.112 295.417C-398.535 298.366 -370.181 302.683 -342.103 308.77C-315.132 314.617 -288.561 321.893 -262.572 331.231C-261.22 331.717 -259.796 332.005 -258.405 332.386C-264.101 327.633 -508.732 205.788 -512.229 205.299C-512.229 233.645 -512.229 261.974 -512.229 290.626ZM756.451 525.059C756.576 525.412 756.7 525.766 756.825 526.12C838.704 496.863 923.495 485.292 1010.27 484.529C1010.27 455.661 1010.27 427.362 1010.27 398.142C925.256 440.651 840.853 482.855 756.451 525.059ZM-209.519 984.183C-278.596 1018.72 -346.832 1052.85 -415.069 1086.97C-414.942 1087.36 -414.815 1087.76 -414.688 1088.15C-347.557 1070.09 -279.095 1062.34 -209.518 1061.83C-209.519 1035.87 -209.519 1010.6 -209.519 984.183ZM562.522 479.312C562.619 478.926 562.715 478.54 562.811 478.155C509.686 451.597 456.56 425.038 403.284 398.404C402.006 404.112 402.265 460.168 403.557 463.855C456.938 463.855 509.989 468.932 562.522 479.312ZM-514.567 233.982C-520.87 235.898 -647.083 299.311 -649.95 302.12C-604.877 294.6 -559.958 291.294 -514.567 290.936C-514.567 271.645 -514.567 252.992 -514.567 233.982ZM-207.18 1061.85C-165.589 1062.15 -124.6 1065.06 -83.8384 1071.08C-83.7513 1070.71 -83.6641 1070.34 -83.5769 1069.96C-124.577 1049.47 -165.578 1028.97 -207.18 1008.17C-207.18 1026.41 -207.18 1043.75 -207.18 1061.85ZM581.373 726.572C581.299 727.358 581.16 728.144 581.16 728.93C581.145 748.279 581.236 767.629 581.053 786.977C581.023 790.15 582.729 791.129 584.96 792.242C609.764 804.615 634.552 817.019 659.354 829.397C660.726 830.081 662.177 830.607 663.591 831.206C663.759 830.917 663.927 830.627 664.095 830.337C662.893 829.428 661.69 828.519 660.489 827.608C654.071 822.736 647.475 818.079 641.268 812.952C622.469 797.422 606.252 779.647 594.458 758.105C589.013 748.157 585.097 737.623 581.373 726.572ZM221.803 726.681C221.556 726.689 221.309 726.696 221.062 726.704C220.746 727.603 220.363 728.485 220.124 729.405C214.829 749.76 204.594 767.51 191.375 783.647C176.75 801.5 159.33 816.259 140.377 829.294C139.429 829.946 138.59 830.756 137.699 831.493C137.86 831.721 138.02 831.948 138.18 832.176C166.07 818.23 193.96 804.284 221.802 790.362C221.803 768.857 221.803 747.769 221.803 726.681ZM581.797 116.921C581.593 116.94 581.389 116.96 581.185 116.979C581.185 123.696 581.158 130.414 581.226 137.13C581.233 137.842 581.602 138.908 582.135 139.195C585.101 140.799 587.851 143.02 591.376 143.315C588.115 134.329 584.956 125.626 581.797 116.921Z" fill="url(#paint0_linear_18468_34563)" fill-opacity="0.2"/>
<defs>
<linearGradient id="paint0_linear_18468_34563" x1="206.5" y1="380.5" x2="197.5" y2="989" gradientUnits="userSpaceOnUse">
<stop stop-color="white" stop-opacity="0"/>
<stop offset="1" stop-color="#DDDDDD"/>
</linearGradient>
</defs>
</svg>
