<svg width="696" height="1066" viewBox="0 0 696 1066" fill="none" xmlns="http://www.w3.org/2000/svg">
<path d="M1308 937.75C1293.62 940.647 1279.15 943.203 1264.86 946.502C1215.76 957.837 1168.37 973.91 1124.19 998.57C1097.97 1013.21 1073.77 1030.54 1053.44 1052.86C1039.05 1068.65 1027.54 1086.23 1020.81 1106.68C1019.81 1109.73 1019.16 1112.89 1018.34 1116C1017.7 1116 1017.05 1116 1016.41 1116C1016.58 1115.05 1016.69 1114.09 1016.94 1113.16C1022.22 1093.16 1032.21 1075.65 1045.13 1059.68C1046.61 1057.86 1048.11 1056.06 1049.6 1054.25C1047.62 1054.16 1046.19 1054.71 1044.82 1055.39C1010.79 1072.38 976.764 1089.37 942.76 1106.41C936.581 1109.5 930.502 1112.8 924.377 1116C923.085 1116 921.793 1116 920.502 1116C921.838 1115.15 923.109 1114.17 924.518 1113.47C966.077 1092.68 1007.63 1071.88 1049.25 1051.2C1053.68 1049 1057.27 1046.01 1060.77 1042.59C1077.12 1026.6 1095.48 1013.2 1115.18 1001.64C1121.58 997.885 1128.08 994.287 1134.67 990.88C1137.19 989.58 1138.16 988.031 1138.08 985.222C1137.89 979.145 1138.02 973.058 1138.02 966.359C1136.16 967.004 1134.96 967.29 1133.88 967.809C1090.25 988.697 1044.37 1002.64 997.094 1012.34C961.784 1019.59 926.122 1024.19 890.177 1026.54C855.997 1028.78 821.796 1028.96 787.575 1027.08C758.698 1025.5 729.97 1022.59 701.44 1017.95C644.819 1008.72 589.831 993.876 537.676 969.513C534.762 968.152 531.935 966.599 529.087 965.099C528.855 964.977 528.768 964.578 528.264 963.697C615.312 920.04 702.442 876.644 790.146 832.673C788.181 831.558 786.982 830.805 785.722 830.175C701.878 788.236 618.018 746.329 534.225 704.29C531.097 702.72 528.863 703.383 526.161 704.737C484.617 725.559 443.052 746.336 401.486 767.113C324.992 805.349 248.489 843.567 172 881.812C91.0328 922.297 10.0773 962.806 -70.8826 1003.31C-72.6017 1004.17 -74.3071 1005.05 -76.9063 1006.38C-74.853 1007.57 -73.46 1008.47 -71.9832 1009.21C-45.2868 1022.57 -18.5803 1035.9 8.12335 1049.24C21.837 1056.09 35.6387 1062.77 49.2167 1069.88C54.2363 1072.51 59.5248 1073.46 64.9115 1074.41C111.926 1082.76 157.745 1095.23 201.731 1114.03C203.048 1114.6 204.288 1115.34 205.563 1116C203.949 1116 202.334 1116 200.72 1116C194.817 1113.46 188.991 1110.72 182.998 1108.42C135.19 1090.06 85.6451 1078.59 35.0265 1071.52C2.72546 1067.01 -29.7597 1064.6 -62.363 1063.95C-118.656 1062.84 -174.537 1067.1 -229.917 1077.38C-268.039 1084.45 -305.381 1094.41 -341.61 1108.33C-347.581 1110.62 -353.354 1113.43 -359.218 1116C-360.833 1116 -362.447 1116 -364.062 1116C-357.596 1113.16 -351.252 1109.99 -344.637 1107.55C-332.076 1102.92 -319.246 1099.01 -306.749 1094.22C-298.493 1091.06 -290.523 1087.09 -282.598 1083.14C-217.334 1050.57 -152.111 1017.93 -86.8787 985.3C-85.4556 984.588 -84.0722 983.797 -81.9744 982.668C-83.8644 981.6 -85.1747 980.782 -86.5498 980.094C-138.218 954.25 -189.896 928.425 -241.564 902.582C-291.211 877.751 -340.846 852.896 -390.493 828.064C-438.554 804.027 -486.622 780.004 -534.688 755.978C-580.156 733.251 -625.623 710.522 -671.102 687.819C-672.668 687.038 -674.365 686.518 -676 685.875C-676 685.23 -676 684.583 -676 683.938C-674.355 684.543 -672.635 684.998 -671.076 685.776C-607.857 717.369 -544.656 748.999 -481.445 780.607C-442.479 800.092 -403.482 819.517 -364.561 839.091C-361.596 840.582 -359.341 840.322 -356.523 838.909C-288.439 804.783 -220.318 770.73 -152.2 736.672C-87.8333 704.491 -23.4783 672.288 40.947 640.226C44.6078 638.404 46.0547 636.435 46.0276 632.21C45.8285 601.056 45.9244 569.899 45.9279 538.744C45.9279 536.993 45.9279 535.242 45.9279 533.492C45.6474 533.437 45.3669 533.382 45.0869 533.327C44.7183 534.295 44.2611 535.239 43.9942 536.234C37.97 558.711 26.1484 577.936 10.8794 595.211C-7.6983 616.229 -29.797 632.899 -53.8094 647.133C-93.2526 670.517 -135.74 686.477 -179.852 698.387C-210.733 706.725 -242.084 712.702 -273.788 716.933C-323.363 723.55 -373.145 725.603 -423.07 723.324C-484.056 720.541 -544.121 711.664 -602.822 694.494C-626.228 687.647 -649.153 679.464 -671.452 669.556C-672.856 668.932 -674.478 668.799 -675.999 668.437C-675.999 667.469 -675.999 666.5 -675.999 665.531C-634.065 684.525 -590.293 697.678 -545.221 706.716C-519.736 711.826 -494.059 715.568 -468.191 718.154C-436.03 721.369 -403.806 722.619 -371.501 722.195C-340.649 721.79 -309.901 719.738 -279.303 715.833C-226.002 709.03 -173.824 697.442 -123.486 678.299C-90.1724 665.63 -58.4114 649.959 -29.4811 628.951C-8.7019 613.861 9.84869 596.502 24.1658 574.98C34.6642 559.198 42.0519 542.141 44.791 523.262C48.4485 498.057 43.304 474.48 31.337 452.241C18.2429 427.908 -0.547485 408.556 -22.1642 391.768C-52.1271 368.498 -85.5805 351.551 -120.809 337.929C-160.214 322.691 -200.916 312.205 -242.499 304.935C-292.566 296.182 -343.021 292.445 -393.809 292.934C-426.114 293.244 -458.318 295.342 -490.359 299.464C-539.77 305.819 -588.277 316.244 -635.196 333.246C-648.977 338.241 -662.408 344.201 -676 349.719C-676 348.75 -676 347.781 -676 346.813C-674.628 346.493 -673.163 346.383 -671.897 345.823C-633.547 328.828 -593.628 316.805 -552.651 308.132C-547.446 307.03 -542.233 305.941 -536.985 305.077C-532.298 304.307 -528.065 302.532 -523.85 300.416C-480.025 278.419 -436.159 256.506 -392.306 234.565C-390.746 233.784 -389.211 232.953 -386.906 231.75C-389.005 230.559 -390.448 229.651 -391.966 228.892C-440.874 204.44 -489.793 180.009 -538.703 155.561C-582.851 133.493 -626.989 111.406 -671.139 89.3406C-672.722 88.5491 -674.378 87.902 -676 87.1875C-676 86.5419 -676 85.8957 -676 85.25C-674.658 85.7809 -673.267 86.2139 -671.981 86.8562C-630.412 107.623 -588.852 128.408 -547.291 149.192C-494.908 175.39 -442.526 201.59 -390.137 227.776C-388.765 228.461 -387.316 228.991 -385.306 229.848C-385.306 222.292 -385.374 215.529 -385.288 208.768C-385.189 200.951 -386.529 202.688 -379.263 199.049C-322.276 170.513 -265.289 141.977 -208.197 113.65C-202.425 110.786 -197.724 107.693 -196.144 101.059C-195.668 99.063 -194.373 97.2698 -193.537 95.3478C-193.133 94.4193 -192.922 93.4064 -192.433 91.8056C-195.087 92.4077 -197.102 92.8431 -199.105 93.3231C-219.983 98.3257 -241.062 102.291 -262.298 105.404C-292.183 109.786 -322.223 112.418 -352.41 113.608C-387.79 115.002 -423.105 114.073 -458.358 111.04C-490.372 108.286 -522.123 103.647 -553.568 96.9303C-594.073 88.2788 -633.528 76.3705 -671.463 59.6251C-672.914 58.9848 -674.485 58.6186 -676 58.125C-676 57.4794 -676 56.8332 -676 56.1875C-674.628 56.5857 -673.187 56.8288 -671.895 57.4048C-632.535 74.9493 -591.513 87.2161 -549.384 95.9354C-505.684 104.98 -461.51 109.969 -416.921 111.731C-386.4 112.936 -355.928 112.439 -325.484 110.353C-281.308 107.327 -237.629 100.923 -194.595 90.3413C-191.976 89.6976 -189.969 88.8121 -188.464 86.2832C-175.226 64.0436 -157.267 46.112 -136.964 30.3558C-135.31 29.0717 -133.673 27.7649 -132.056 26.4333C-131.845 26.2589 -131.808 25.8719 -131.562 25.2674C-132.933 24.536 -134.315 23.7591 -135.729 23.05C-148.853 16.4741 -161.989 9.92436 -175.102 3.32814C-177.109 2.31919 -179.016 1.11406 -180.969 0C-179.354 0 -177.739 0 -176.125 0C-174.846 0.894641 -173.65 1.95106 -172.273 2.65631C-165.836 5.95539 -159.351 9.16196 -152.879 12.3927C-144.979 16.337 -137.073 20.273 -129.197 24.1994C-128.461 23.8259 -127.869 23.5789 -127.331 23.2447C-116.004 16.2028 -104.677 9.16002 -93.3717 2.08378C-92.4611 1.51367 -91.7031 0.700407 -90.8743 0C-89.5825 0 -88.2911 0 -86.9993 0C-88.8176 1.24 -90.5492 2.63645 -92.4669 3.69675C-118.166 17.904 -142.147 34.4323 -162.595 55.7007C-177.966 71.689 -190.586 89.5353 -198.039 110.602C-210.266 145.16 -205.482 177.945 -187.068 209.12C-174.234 230.849 -156.781 248.412 -137.04 263.827C-109.862 285.047 -79.6799 300.987 -47.8908 314.018C-5.45807 331.412 38.5871 343.073 83.7052 350.966C111.871 355.893 140.216 359.283 168.728 361.156C203.064 363.413 237.423 363.633 271.806 361.744C304.555 359.945 337.092 356.398 369.372 350.657C419.588 341.725 468.446 328.164 515.051 307.115C518.725 305.455 522.339 303.662 525.966 301.9C526.381 301.699 526.696 301.295 527.375 300.713C526.225 299.96 525.275 299.193 524.209 298.66C473.411 273.261 422.598 247.893 371.798 222.497C318.834 196.02 265.882 169.516 212.922 143.03C153.179 113.151 93.4329 83.2791 33.6891 53.4038C0.209534 36.6624 -33.2733 19.9277 -66.7339 3.14844C-68.424 2.30078 -69.9158 1.05884 -71.4998 0C-70.2079 0 -68.9166 0 -67.6248 0C-67.0401 0.518282 -66.5339 1.19302 -65.8592 1.53208C-53.0881 7.94327 -40.275 14.2711 -27.5325 20.739C-25.5146 21.7635 -23.9471 21.4002 -22.1187 20.4789C-9.92889 14.3365 2.29822 8.26877 14.4924 2.13513C15.6118 1.57228 16.5849 0.718328 17.6258 0C18.9176 0 20.209 0 21.5008 0C20.2138 0.889797 19.0106 1.94525 17.6273 2.64324C5.96155 8.52936 -5.7395 14.3462 -17.4236 20.1955C-18.8564 20.9129 -20.2538 21.701 -22.4945 22.8979C-20.5468 24.0056 -19.1625 24.879 -17.7065 25.6084C6.81305 37.8883 31.3428 50.1488 55.8687 62.4166C137.967 103.483 220.06 144.559 302.163 185.615C376.473 222.774 450.793 259.912 525.109 297.059C525.975 297.492 526.807 298.02 527.713 298.339C530.541 299.335 531.571 301.224 531.483 304.244C531.297 310.696 531.428 317.156 531.427 323.613C531.427 331.683 531.41 339.754 531.439 347.825C531.445 349.383 531.629 350.94 531.733 352.539C535.676 351.762 823.386 208.404 832.169 202.937C831.384 200.881 829.292 200.558 827.692 199.755C803.613 187.669 779.501 175.649 755.402 163.604C659.728 115.781 564.055 67.9545 468.382 20.1282C456.693 14.2852 445.001 8.44944 433.334 2.56477C431.93 1.85661 430.671 0.862188 429.345 0.000484375C430.959 0.000484375 432.574 0.000484375 434.188 0.000484375C435.558 0.994422 436.82 2.20342 438.313 2.95178C481.417 24.5501 524.559 46.0714 567.634 67.7282C570.573 69.2061 572.839 69.1194 575.709 67.6784C618.942 45.9687 662.229 24.366 705.484 2.69991C706.865 2.00822 708.042 0.909657 709.314 0.00096875C710.928 0.00096875 712.543 0.00096875 714.157 0.00096875C712.653 0.90675 711.202 1.91619 709.638 2.70184C692.781 11.1658 675.909 19.5998 659.036 28.0322C632.5 41.2949 605.954 54.5373 579.438 67.8397C577.851 68.636 575.803 68.993 574.953 70.9682C584.58 76.957 704.363 136.292 708.345 136.93C708.345 135.118 708.345 133.37 708.345 131.623C708.347 118.718 708.188 105.811 708.418 92.9104C708.535 86.3195 708.892 79.6686 709.929 73.1707C713.332 51.8485 722.583 33.0111 735.401 15.841C739.442 10.4262 743.833 5.27291 748.063 0C748.709 0 749.355 0 750.001 0C749.154 1.29861 748.453 2.72655 747.438 3.87742C733.528 19.6501 722.204 36.9554 715.688 57.1292C706.05 86.9676 709.31 115.692 723.074 143.547C724.187 145.799 725.994 146.848 728.03 147.865C748.238 157.958 768.437 168.07 788.639 178.175C803.213 185.466 817.74 192.855 832.402 199.964C835.517 201.474 836.494 203.331 836.437 206.648C836.255 217.299 836.506 227.959 836.292 238.609C836.223 242.023 837.394 243.739 840.459 245.209C873.315 260.965 907.548 272.85 942.788 281.927C979.414 291.361 1016.58 297.717 1054.2 301.569C1096.68 305.918 1139.25 307.268 1181.87 304.932C1203.77 303.731 1225.6 301.239 1247.45 299.216C1249.64 299.013 1251.9 298.314 1253.88 297.334C1271.95 288.381 1289.97 279.314 1308 270.281C1308 270.927 1308 271.573 1308 272.219C1306.44 273.066 1304.91 273.96 1303.32 274.753C1251.37 300.731 1199.41 326.698 1147.46 352.677C1146.19 353.315 1144.97 354.076 1143.71 354.793C1144.02 355.274 1144.13 355.647 1144.37 355.773C1146.66 356.969 1148.93 358.193 1151.26 359.28C1188.57 376.653 1227.53 389.139 1267.64 398.078C1281.01 401.058 1294.54 403.317 1308 405.906C1308 406.552 1308 407.198 1308 407.844C1307.2 407.763 1306.39 407.734 1305.59 407.593C1282.73 403.538 1260.05 398.692 1237.65 392.527C1206.19 383.867 1175.55 372.984 1146.09 358.888C1144.75 358.248 1143.32 357.807 1141.68 357.173C1141.68 399.967 1141.68 441.995 1141.68 484.257C1143.24 484.388 1144.49 484.571 1145.74 484.585C1190.48 485.102 1234.97 488.522 1279.08 496.127C1288.76 497.795 1298.36 499.906 1308 501.813C1308 502.458 1308 503.105 1308 503.75C1298.52 501.833 1289.09 499.664 1279.56 498.041C1229.79 489.566 1179.63 485.882 1129.17 486.545C1098.49 486.949 1067.92 489.014 1037.45 492.784C990.889 498.547 945.178 508.104 900.651 522.998C866.419 534.448 833.506 548.823 802.905 568.136C779.702 582.78 758.505 599.803 741.167 621.274C729.708 635.463 720.556 650.966 715.186 668.481C705.899 698.774 709.617 727.799 724.243 755.618C735.928 777.842 752.544 795.967 771.776 811.794C778.496 817.325 785.728 822.228 792.605 827.574C794.984 829.423 796.978 829.423 799.605 828.064C809.635 822.876 819.815 817.981 829.847 812.798C832.662 811.344 834.954 811.185 837.911 812.67C888.373 838.014 938.894 863.238 989.403 888.487C1001.96 894.764 1014.5 901.074 1027.09 907.269C1028.93 908.172 1031.01 908.835 1033.04 909.064C1046.66 910.601 1060.28 912.26 1073.95 913.373C1106.48 916.023 1139.08 916.519 1171.68 915.372C1217.57 913.758 1263.04 908.453 1308 899C1308 899.646 1308 900.292 1308 900.937C1289.57 904.094 1271.2 907.7 1252.69 910.304C1221.68 914.668 1190.47 916.925 1159.13 917.528C1119.39 918.293 1079.77 916.646 1040.3 911.855C1039.62 911.773 1038.92 911.845 1038.23 911.845C1039.66 913.541 1041.31 914.463 1043 915.306C1074.01 930.819 1105.01 946.368 1136.08 961.757C1139.01 963.209 1140.09 964.948 1139.96 968.093C1139.75 973.087 1139.86 978.096 1139.9 983.098C1139.91 984.467 1140.16 985.835 1140.33 987.571C1142 986.9 1143.2 986.502 1144.33 985.955C1184.16 966.633 1226 953.226 1269.12 943.658C1282.03 940.796 1295.04 938.414 1308 935.813C1308 936.459 1308 937.105 1308 937.75ZM-358.343 841.926C-355.722 843.313 -354.184 844.166 -352.612 844.952C-316.969 862.776 -281.336 880.616 -245.653 898.358C-243.101 899.626 -240.238 900.438 -237.427 900.99C-200.005 908.346 -162.241 912.855 -124.147 914.834C-82.6457 916.991 -41.2103 916.224 0.149048 912.373C32.7848 909.333 65.1469 904.374 97.134 897.125C144.042 886.495 189.471 871.656 232.234 849.331C255.926 836.961 278.19 822.449 298.01 804.399C315.597 788.383 330.52 770.31 340.385 748.455C352.749 721.067 354.457 693.12 344.543 664.595C338.139 646.17 327.821 630.089 315.021 615.556C290.634 587.868 260.509 567.874 228.011 551.099C226.242 550.186 224.78 550.168 223.036 551.109C219.488 553.024 215.845 554.762 212.237 556.566C122.341 601.515 32.4452 646.466 -57.4529 691.412C-155.724 740.543 -253.997 789.669 -352.268 838.8C-353.96 839.646 -355.632 840.53 -358.343 841.926ZM529.556 302.562C526.961 303.694 525.521 304.349 524.059 304.956C508.419 311.445 492.998 318.54 477.093 324.298C418.297 345.586 357.349 356.887 295.19 362.021C264.289 364.573 233.326 365.428 202.3 364.52C159.953 363.282 117.926 359.193 76.2632 351.517C30.9054 343.16 -13.3389 330.945 -55.7905 312.713C-87.6653 299.023 -117.819 282.364 -144.614 260.09C-164.025 243.955 -180.819 225.588 -192.584 203.018C-200.359 188.101 -205.262 172.35 -206.322 155.481C-207.108 142.965 -205.893 130.68 -202.502 118.592C-201.987 116.754 -200.733 114.859 -201.634 112.694C-212.167 116.69 -378.518 200.441 -381.131 203.131C-379.362 204.055 -377.673 204.97 -375.957 205.827C-326.743 230.432 -277.523 255.023 -228.312 279.632C-171.161 308.211 -114.022 336.816 -56.8672 365.388C19.3371 403.485 95.5521 441.56 171.761 479.647C188.648 488.086 205.554 496.489 222.393 505.024C224.653 506.169 226.468 506.325 228.688 505.046C231.619 503.358 234.741 502.004 237.772 500.488C298.387 470.189 359.003 439.891 419.614 409.585C454.827 391.978 490.013 374.315 525.277 356.811C528.466 355.228 529.691 353.389 529.639 349.811C529.439 336.091 529.557 322.368 529.556 308.645C529.556 306.912 529.556 305.178 529.556 302.562ZM833.105 527.899C830.621 526.605 829.223 525.822 827.779 525.133C802.819 513.23 776.967 503.676 750.47 495.83C715.907 485.596 680.72 478.336 645.016 473.418C614.119 469.162 583.098 466.384 551.926 466.003C529.985 465.736 508.005 465.936 486.093 466.979C465.963 467.937 445.849 469.855 425.819 472.152C396.305 475.538 367.138 481.075 338.3 488.264C302.198 497.265 267.096 509.118 233.429 525.056C231.889 525.785 230.425 526.677 228.268 527.851C230.261 528.979 231.577 529.804 232.959 530.495C329.358 578.713 425.799 626.846 522.082 675.295C528.457 678.503 533.121 678.252 539.325 675.134C635.336 626.87 731.478 578.867 827.587 530.798C829.127 530.029 830.636 529.199 833.105 527.899ZM531.637 964.302C533.664 965.38 535.038 966.174 536.465 966.86C554.375 975.466 572.793 982.832 591.611 989.184C658.636 1011.81 727.757 1022.75 798.237 1025.78C838.608 1027.52 878.922 1026.35 919.146 1022.25C962.423 1017.85 1005.08 1010.21 1046.95 998.337C1075.88 990.132 1104.06 979.943 1131.22 967.004C1132.74 966.28 1134.21 965.437 1136.35 964.306C1134.07 963.044 1132.57 962.146 1131.02 961.366C1116.88 954.283 1102.73 947.225 1088.58 940.152C1005.17 898.437 921.744 856.739 838.374 814.935C835.11 813.298 832.635 813.44 829.427 815.057C792.392 833.721 755.278 852.23 718.184 870.778C657.567 901.089 596.949 931.397 536.336 961.716C534.933 962.416 533.584 963.226 531.637 964.302ZM1137.64 396.332C1135.65 395.291 1134.27 394.514 1132.84 393.832C1103.19 379.674 1072.31 368.87 1040.64 360.283C1009.61 351.872 978.121 345.78 946.257 341.551C921.439 338.258 896.53 336.141 871.523 335.041C821.557 332.844 771.8 335.175 722.248 341.878C682.198 347.297 642.801 355.71 604.258 367.966C581.474 375.212 559.195 383.746 537.641 394.124C536.315 394.762 535.072 395.573 533.272 396.599C535.029 397.61 535.972 398.218 536.969 398.717C591.378 425.926 645.789 453.133 700.219 480.3C702.076 481.227 704.084 481.976 706.108 482.426C735.283 488.923 763.997 497.037 791.852 507.897C805.667 513.284 819.1 519.643 832.76 525.434C835.574 526.627 836.596 528.375 836.426 531.359C836.215 535.06 836.353 538.783 836.4 542.496C836.415 543.723 836.612 544.948 836.729 546.2C841.021 545.388 1130.27 401.333 1137.64 396.332ZM834.182 332.445C834.182 289.505 834.182 247.338 834.182 204.523C831.769 205.653 829.888 206.485 828.049 207.404C790.086 226.369 752.122 245.335 714.169 264.32C641.438 300.701 568.721 337.108 495.985 373.479C408.381 417.284 320.756 461.047 233.165 504.877C225.228 508.849 226.648 506.536 226.586 515.646C226.563 518.923 226.218 522.252 227.017 525.881C228.729 525.159 229.914 524.718 231.048 524.17C257.123 511.573 284.206 501.606 311.965 493.482C341.573 484.817 371.661 478.275 402.161 473.577C429.622 469.346 457.207 466.372 484.957 465.065C498.014 464.449 511.092 464.279 524.16 463.881C525.855 463.829 527.546 463.626 529.598 463.465C529.598 461.02 529.598 459.108 529.598 457.195C529.598 438.306 529.671 419.417 529.529 400.529C529.504 397.16 530.519 395.227 533.685 393.877C543.624 389.638 553.335 384.847 563.347 380.795C624.27 356.143 687.897 342.893 753.068 336.391C778.295 333.874 803.606 332.593 828.967 332.446C830.553 332.437 832.139 332.445 834.182 332.445ZM47.7767 636.626C55.2511 632.921 61.5974 629.798 67.9238 626.636C118.429 601.396 168.911 576.109 219.471 550.981C223.264 549.096 225.009 547.074 224.822 542.594C224.425 533.088 224.469 523.545 224.81 514.034C224.965 509.702 223.56 507.509 219.628 505.56C175.836 483.852 132.155 461.92 88.4366 440.064C48.758 420.227 9.07117 400.408 -30.6171 380.591C-32.0654 379.868 -33.5688 379.255 -35.0466 378.591C-35.2031 378.908 -35.3596 379.226 -35.5165 379.543C-33.8454 380.77 -32.1869 382.014 -30.5018 383.221C-13.1054 395.683 2.85083 409.71 16.3194 426.423C37.1761 452.304 48.6326 481.273 47.9448 515.122C47.1649 553.519 47.7728 591.944 47.7772 630.357C47.7767 632.083 47.7767 633.807 47.7767 636.626ZM226.581 529.678C226.581 535.032 226.775 539.541 226.516 544.024C226.332 547.221 227.452 548.927 230.357 550.368C243.963 557.12 256.99 564.896 269.517 573.489C291.088 588.287 310.612 605.307 326.183 626.499C343.594 650.196 353.409 676.366 352.866 706.223C352.399 731.885 352.777 757.562 352.781 783.233C352.781 784.933 352.781 786.635 352.781 789.153C355.35 787.967 357.082 787.224 358.766 786.383C402.932 764.303 447.094 742.214 491.256 720.127C502.947 714.28 514.605 708.368 526.353 702.639C528.73 701.48 529.767 700.073 529.61 697.435C529.428 694.378 529.638 691.301 529.569 688.235C529.375 679.64 531 681.612 522.787 677.494C482.112 657.095 441.393 636.784 400.692 616.436C344.404 588.294 288.119 560.145 231.828 532.01C230.416 531.305 228.941 530.723 226.581 529.678ZM708.326 789.109C708.326 786.353 708.326 784.591 708.326 782.83C708.329 756.2 708.435 729.569 708.301 702.94C708.212 685.025 712.1 668.063 719.665 651.894C729.962 629.883 745.231 611.692 763.162 595.584C782.731 578.005 804.651 563.866 827.87 551.651C830 550.531 832.115 549.383 834.523 548.094C834.523 543.046 834.541 538.061 834.507 533.078C834.501 532.163 834.288 531.25 834.117 529.919C832.504 530.598 831.177 531.074 829.922 531.698C817.213 538.021 804.512 544.36 791.816 550.71C724.589 584.336 657.366 617.97 590.138 651.595C571.815 660.759 553.505 669.949 535.127 679.001C532.467 680.311 531.175 681.863 531.387 684.909C531.621 688.283 531.783 691.727 531.366 695.063C530.785 699.714 532.932 701.82 536.884 703.785C592.353 731.358 647.739 759.094 703.15 786.781C704.545 787.479 705.995 788.065 708.326 789.109ZM1139.56 394.855C1139.56 392.316 1139.56 390.731 1139.56 389.147C1139.57 379.945 1139.51 370.744 1139.59 361.543C1139.65 353.565 1138.32 355.203 1145.8 351.451C1176.67 335.979 1207.57 320.568 1238.45 305.123C1239.96 304.371 1241.41 303.517 1242.89 302.71C1240.8 301.991 1238.94 302.13 1237.08 302.303C1226.32 303.309 1215.56 304.431 1204.79 305.313C1169.02 308.242 1133.2 308.638 1097.37 306.772C1056.71 304.655 1016.37 299.849 976.467 291.602C929.53 281.902 883.962 268.043 840.649 247.258C839.548 246.729 838.347 246.409 837.156 245.979C835.955 251.124 836.105 328.461 837.365 332.438C838.998 332.438 840.758 332.396 842.514 332.445C855.261 332.798 868.022 332.888 880.75 333.586C921.246 335.808 961.428 340.648 1001.15 348.948C1044.87 358.082 1087.42 370.891 1128.1 389.549C1131.59 391.148 1135.06 392.771 1139.56 394.855ZM180.686 875.43C45.5902 922.058 -92.2237 928.16 -232.318 904.575C-230.993 905.618 -229.547 906.48 -228.045 907.231C-195.448 923.546 -162.847 939.851 -130.243 956.153C-114.663 963.943 -99.1353 971.843 -83.4542 979.425C-79.7646 981.208 -77.9971 983.237 -78.3701 987.471C-78.7509 991.794 -78.4772 996.178 -78.4288 1000.53C-78.4157 1001.73 -78.1826 1002.93 -77.9807 1004.76C8.58929 961.478 94.6376 918.454 180.686 875.43ZM-383.229 290.626C-381.576 290.765 -380.178 290.967 -378.778 290.988C-351.83 291.397 -324.934 292.647 -298.112 295.417C-269.535 298.366 -241.181 302.683 -213.103 308.77C-186.132 314.617 -159.561 321.893 -133.572 331.231C-132.22 331.717 -130.796 332.005 -129.405 332.386C-135.101 327.633 -379.732 205.788 -383.229 205.299C-383.229 233.645 -383.229 261.974 -383.229 290.626ZM885.451 525.059C885.576 525.412 885.7 525.766 885.825 526.12C967.704 496.863 1052.49 485.292 1139.27 484.529C1139.27 455.661 1139.27 427.362 1139.27 398.142C1054.26 440.651 969.853 482.855 885.451 525.059ZM-80.5188 984.183C-149.596 1018.72 -217.832 1052.85 -286.069 1086.97C-285.942 1087.36 -285.815 1087.76 -285.688 1088.15C-218.557 1070.09 -150.095 1062.34 -80.5183 1061.83C-80.5188 1035.87 -80.5188 1010.6 -80.5188 984.183ZM691.522 479.312C691.619 478.926 691.715 478.54 691.811 478.155C638.686 451.597 585.56 425.038 532.284 398.404C531.006 404.112 531.265 460.168 532.557 463.855C585.938 463.855 638.989 468.932 691.522 479.312ZM-385.567 233.982C-391.87 235.898 -518.083 299.311 -520.95 302.12C-475.877 294.6 -430.958 291.294 -385.567 290.936C-385.567 271.645 -385.567 252.992 -385.567 233.982ZM-78.1797 1061.85C-36.5894 1062.15 4.3999 1065.06 45.1616 1071.08C45.2487 1070.71 45.3359 1070.34 45.4231 1069.96C4.42267 1049.47 -36.5782 1028.97 -78.1797 1008.17C-78.1797 1026.41 -78.1797 1043.75 -78.1797 1061.85ZM710.373 726.572C710.299 727.358 710.16 728.144 710.16 728.93C710.145 748.279 710.236 767.629 710.053 786.977C710.023 790.15 711.729 791.129 713.96 792.242C738.764 804.615 763.552 817.019 788.354 829.397C789.726 830.081 791.177 830.607 792.591 831.206C792.759 830.917 792.927 830.627 793.095 830.337C791.893 829.428 790.69 828.519 789.489 827.608C783.071 822.736 776.475 818.079 770.268 812.952C751.469 797.422 735.252 779.647 723.458 758.105C718.013 748.157 714.097 737.623 710.373 726.572ZM350.803 726.681C350.556 726.689 350.309 726.696 350.062 726.704C349.746 727.603 349.363 728.485 349.124 729.405C343.829 749.76 333.594 767.51 320.375 783.647C305.75 801.5 288.33 816.259 269.377 829.294C268.429 829.946 267.59 830.756 266.699 831.493C266.86 831.721 267.02 831.948 267.18 832.176C295.07 818.23 322.96 804.284 350.802 790.362C350.803 768.857 350.803 747.769 350.803 726.681ZM710.797 116.921C710.593 116.94 710.389 116.96 710.185 116.979C710.185 123.696 710.158 130.414 710.226 137.13C710.233 137.842 710.602 138.908 711.135 139.195C714.101 140.799 716.851 143.02 720.376 143.315C717.115 134.329 713.956 125.626 710.797 116.921Z" fill="url(#paint0_linear_18468_33210)" fill-opacity="0.2"/>
<defs>
<linearGradient id="paint0_linear_18468_33210" x1="335.5" y1="380.5" x2="326.5" y2="989" gradientUnits="userSpaceOnUse">
<stop stop-color="white" stop-opacity="0"/>
<stop offset="1" stop-color="#DDDDDD"/>
</linearGradient>
</defs>
</svg>
