<svg width="1392" height="1108" viewBox="0 0 1392 1108" fill="none" xmlns="http://www.w3.org/2000/svg">
<path d="M1688 937.75C1673.62 940.647 1659.15 943.203 1644.86 946.502C1595.76 957.837 1548.37 973.91 1504.19 998.57C1477.97 1013.21 1453.77 1030.54 1433.44 1052.86C1419.05 1068.65 1407.54 1086.23 1400.81 1106.68C1399.81 1109.73 1399.16 1112.89 1398.34 1116C1397.7 1116 1397.05 1116 1396.41 1116C1396.58 1115.05 1396.69 1114.09 1396.94 1113.16C1402.22 1093.16 1412.21 1075.65 1425.13 1059.68C1426.61 1057.86 1428.11 1056.06 1429.6 1054.25C1427.62 1054.16 1426.19 1054.71 1424.82 1055.39C1390.79 1072.38 1356.76 1089.37 1322.76 1106.41C1316.58 1109.5 1310.5 1112.8 1304.38 1116C1303.08 1116 1301.79 1116 1300.5 1116C1301.84 1115.15 1303.11 1114.17 1304.52 1113.47C1346.08 1092.68 1387.63 1071.88 1429.25 1051.2C1433.68 1049 1437.27 1046.01 1440.77 1042.59C1457.12 1026.6 1475.48 1013.2 1495.18 1001.64C1501.58 997.885 1508.08 994.287 1514.67 990.88C1517.19 989.58 1518.16 988.031 1518.08 985.222C1517.89 979.145 1518.02 973.058 1518.02 966.359C1516.16 967.004 1514.96 967.29 1513.88 967.809C1470.25 988.697 1424.37 1002.64 1377.09 1012.34C1341.78 1019.59 1306.12 1024.19 1270.18 1026.54C1236 1028.78 1201.8 1028.96 1167.57 1027.08C1138.7 1025.5 1109.97 1022.59 1081.44 1017.95C1024.82 1008.72 969.831 993.876 917.676 969.513C914.762 968.152 911.935 966.599 909.087 965.099C908.855 964.977 908.768 964.578 908.264 963.697C995.312 920.04 1082.44 876.644 1170.15 832.673C1168.18 831.558 1166.98 830.805 1165.72 830.175C1081.88 788.236 998.018 746.329 914.225 704.29C911.097 702.72 908.863 703.383 906.161 704.737C864.617 725.559 823.052 746.336 781.486 767.113C704.992 805.349 628.489 843.567 552 881.812C471.033 922.297 390.077 962.806 309.117 1003.31C307.398 1004.17 305.693 1005.05 303.094 1006.38C305.147 1007.57 306.54 1008.47 308.017 1009.21C334.713 1022.57 361.42 1035.9 388.123 1049.24C401.837 1056.09 415.639 1062.77 429.217 1069.88C434.236 1072.51 439.525 1073.46 444.911 1074.41C491.926 1082.76 537.745 1095.23 581.731 1114.03C583.048 1114.6 584.288 1115.34 585.563 1116C583.949 1116 582.334 1116 580.72 1116C574.817 1113.46 568.991 1110.72 562.998 1108.42C515.19 1090.06 465.645 1078.59 415.026 1071.52C382.725 1067.01 350.24 1064.6 317.637 1063.95C261.344 1062.84 205.463 1067.1 150.083 1077.38C111.961 1084.45 74.6187 1094.41 38.3904 1108.33C32.4195 1110.62 26.6462 1113.43 20.7819 1116C19.1674 1116 17.5525 1116 15.9381 1116C22.404 1113.16 28.7479 1109.99 35.3625 1107.55C47.9239 1102.92 60.754 1099.01 73.2513 1094.22C81.507 1091.06 89.4769 1087.09 97.4018 1083.14C162.666 1050.57 227.889 1017.93 293.121 985.3C294.544 984.588 295.928 983.797 298.026 982.668C296.136 981.6 294.825 980.782 293.45 980.094C241.782 954.25 190.104 928.425 138.436 902.582C88.7886 877.751 39.1537 852.896 -10.4933 828.064C-58.554 804.027 -106.622 780.004 -154.688 755.978C-200.156 733.251 -245.623 710.522 -291.102 687.819C-292.668 687.038 -294.365 686.518 -296 685.875C-296 685.23 -296 684.583 -296 683.938C-294.355 684.543 -292.635 684.998 -291.076 685.776C-227.857 717.369 -164.656 748.999 -101.445 780.607C-62.4788 800.092 -23.4823 819.517 15.4387 839.091C18.4041 840.582 20.6588 840.322 23.4774 838.909C91.5612 804.783 159.682 770.73 227.8 736.672C292.167 704.491 356.522 672.288 420.947 640.226C424.608 638.404 426.055 636.435 426.028 632.21C425.828 601.056 425.924 569.899 425.928 538.744C425.928 536.993 425.928 535.242 425.928 533.492C425.647 533.437 425.367 533.382 425.087 533.327C424.718 534.295 424.261 535.239 423.994 536.234C417.97 558.711 406.148 577.936 390.879 595.211C372.302 616.229 350.203 632.899 326.191 647.133C286.747 670.517 244.26 686.477 200.148 698.387C169.267 706.725 137.916 712.702 106.212 716.933C56.6373 723.55 6.85461 725.603 -43.0699 723.324C-104.056 720.541 -164.121 711.664 -222.822 694.494C-246.228 687.647 -269.153 679.464 -291.452 669.556C-292.856 668.932 -294.478 668.799 -295.999 668.437C-295.999 667.469 -295.999 666.5 -295.999 665.531C-254.065 684.525 -210.293 697.678 -165.221 706.716C-139.736 711.826 -114.059 715.568 -88.1909 718.154C-56.0303 721.369 -23.8063 722.619 8.49908 722.195C39.3514 721.79 70.099 719.738 100.697 715.833C153.998 709.03 206.176 697.442 256.514 678.299C289.828 665.63 321.589 649.959 350.519 628.951C371.298 613.861 389.849 596.502 404.166 574.98C414.664 559.198 422.052 542.141 424.791 523.262C428.449 498.057 423.304 474.48 411.337 452.241C398.243 427.908 379.453 408.556 357.836 391.768C327.873 368.498 294.419 351.551 259.191 337.929C219.786 322.691 179.084 312.205 137.501 304.935C87.4338 296.182 36.9793 292.445 -13.8093 292.934C-46.1142 293.244 -78.3179 295.342 -110.359 299.464C-159.77 305.819 -208.277 316.244 -255.196 333.246C-268.977 338.241 -282.408 344.201 -296 349.719C-296 348.75 -296 347.781 -296 346.813C-294.628 346.493 -293.163 346.383 -291.897 345.823C-253.547 328.828 -213.628 316.805 -172.651 308.132C-167.446 307.03 -162.233 305.941 -156.985 305.077C-152.298 304.307 -148.065 302.532 -143.85 300.416C-100.025 278.419 -56.1587 256.506 -12.3063 234.565C-10.7461 233.784 -9.21063 232.953 -6.90598 231.75C-9.00476 230.559 -10.4482 229.651 -11.9658 228.892C-60.8736 204.44 -109.793 180.009 -158.703 155.561C-202.851 133.493 -246.989 111.406 -291.139 89.3406C-292.722 88.5491 -294.378 87.902 -296 87.1875C-296 86.5419 -296 85.8957 -296 85.25C-294.658 85.7809 -293.267 86.2139 -291.981 86.8562C-250.412 107.623 -208.852 128.408 -167.291 149.192C-114.908 175.39 -62.5258 201.59 -10.1367 227.776C-8.76547 228.461 -7.31625 228.991 -5.30609 229.848C-5.30609 222.292 -5.3739 215.529 -5.28818 208.768C-5.18936 200.951 -6.52914 202.688 0.736969 199.049C57.7237 170.513 114.711 141.977 171.803 113.65C177.575 110.786 182.276 107.693 183.856 101.059C184.332 99.063 185.627 97.2698 186.463 95.3478C186.867 94.4193 187.078 93.4064 187.567 91.8056C184.913 92.4077 182.898 92.8431 180.895 93.3231C160.017 98.3257 138.938 102.291 117.702 105.404C87.8174 109.786 57.7775 112.418 27.5902 113.608C-7.78998 115.002 -43.1048 114.073 -78.3576 111.04C-110.372 108.286 -142.123 103.647 -173.568 96.9303C-214.073 88.2788 -253.528 76.3705 -291.463 59.6251C-292.914 58.9848 -294.485 58.6186 -296 58.125C-296 57.4794 -296 56.8332 -296 56.1875C-294.628 56.5857 -293.187 56.8288 -291.895 57.4048C-252.535 74.9493 -211.513 87.2161 -169.384 95.9354C-125.684 104.98 -81.5104 109.969 -36.9208 111.731C-6.39981 112.936 24.0717 112.439 54.5162 110.353C98.6922 107.327 142.371 100.923 185.405 90.3413C188.024 89.6976 190.031 88.8121 191.536 86.2832C204.774 64.0436 222.733 46.112 243.036 30.3558C244.69 29.0717 246.327 27.7649 247.944 26.4333C248.155 26.2589 248.192 25.8719 248.438 25.2674C247.067 24.536 245.685 23.7591 244.271 23.05C231.147 16.4741 218.011 9.92436 204.898 3.32814C202.891 2.31919 200.984 1.11406 199.031 0C200.646 0 202.261 0 203.875 0C205.154 0.894641 206.35 1.95106 207.727 2.65631C214.164 5.95539 220.649 9.16196 227.121 12.3927C235.021 16.337 242.927 20.273 250.803 24.1994C251.539 23.8259 252.131 23.5789 252.669 23.2447C263.996 16.2028 275.323 9.16002 286.628 2.08378C287.539 1.51367 288.297 0.700407 289.126 0C290.418 0 291.709 0 293.001 0C291.182 1.24 289.451 2.63645 287.533 3.69675C261.834 17.904 237.853 34.4323 217.405 55.7007C202.034 71.689 189.414 89.5353 181.961 110.602C169.734 145.16 174.518 177.945 192.932 209.12C205.766 230.849 223.219 248.412 242.96 263.827C270.138 285.047 300.32 300.987 332.109 314.018C374.542 331.412 418.587 343.073 463.705 350.966C491.871 355.893 520.216 359.283 548.728 361.156C583.064 363.413 617.423 363.633 651.806 361.744C684.555 359.945 717.092 356.398 749.372 350.657C799.588 341.725 848.446 328.164 895.051 307.115C898.725 305.455 902.339 303.662 905.966 301.9C906.381 301.699 906.696 301.295 907.375 300.713C906.225 299.96 905.275 299.193 904.209 298.66C853.411 273.261 802.598 247.893 751.798 222.497C698.834 196.02 645.882 169.516 592.922 143.03C533.179 113.151 473.433 83.2791 413.689 53.4038C380.21 36.6624 346.727 19.9277 313.266 3.14844C311.576 2.30078 310.084 1.05884 308.5 0C309.792 0 311.083 0 312.375 0C312.96 0.518282 313.466 1.19302 314.141 1.53208C326.912 7.94327 339.725 14.2711 352.467 20.739C354.485 21.7635 356.053 21.4002 357.881 20.4789C370.071 14.3365 382.298 8.26877 394.492 2.13513C395.612 1.57228 396.585 0.718328 397.626 0C398.918 0 400.209 0 401.501 0C400.214 0.889797 399.011 1.94525 397.627 2.64324C385.962 8.52936 374.26 14.3462 362.576 20.1955C361.144 20.9129 359.746 21.701 357.505 22.8979C359.453 24.0056 360.837 24.879 362.294 25.6084C386.813 37.8883 411.343 50.1488 435.869 62.4166C517.967 103.483 600.06 144.559 682.163 185.615C756.473 222.774 830.793 259.912 905.109 297.059C905.975 297.492 906.807 298.02 907.713 298.339C910.541 299.335 911.571 301.224 911.483 304.244C911.297 310.696 911.428 317.156 911.427 323.613C911.427 331.683 911.41 339.754 911.439 347.825C911.445 349.383 911.629 350.94 911.733 352.539C915.676 351.762 1203.39 208.404 1212.17 202.937C1211.38 200.881 1209.29 200.558 1207.69 199.755C1183.61 187.669 1159.5 175.649 1135.4 163.604C1039.73 115.781 944.055 67.9545 848.382 20.1282C836.693 14.2852 825.001 8.44944 813.334 2.56477C811.93 1.85661 810.671 0.862188 809.345 0.000484375C810.959 0.000484375 812.574 0.000484375 814.188 0.000484375C815.558 0.994422 816.82 2.20342 818.313 2.95178C861.417 24.5501 904.559 46.0714 947.634 67.7282C950.573 69.2061 952.839 69.1194 955.709 67.6784C998.942 45.9687 1042.23 24.366 1085.48 2.69991C1086.86 2.00822 1088.04 0.909657 1089.31 0.00096875C1090.93 0.00096875 1092.54 0.00096875 1094.16 0.00096875C1092.65 0.90675 1091.2 1.91619 1089.64 2.70184C1072.78 11.1658 1055.91 19.5998 1039.04 28.0322C1012.5 41.2949 985.954 54.5373 959.438 67.8397C957.851 68.636 955.803 68.993 954.953 70.9682C964.58 76.957 1084.36 136.292 1088.34 136.93C1088.34 135.118 1088.34 133.37 1088.34 131.623C1088.35 118.718 1088.19 105.811 1088.42 92.9104C1088.54 86.3195 1088.89 79.6686 1089.93 73.1707C1093.33 51.8485 1102.58 33.0111 1115.4 15.841C1119.44 10.4262 1123.83 5.27291 1128.06 0C1128.71 0 1129.35 0 1130 0C1129.15 1.29861 1128.45 2.72655 1127.44 3.87742C1113.53 19.6501 1102.2 36.9554 1095.69 57.1292C1086.05 86.9676 1089.31 115.692 1103.07 143.547C1104.19 145.799 1105.99 146.848 1108.03 147.865C1128.24 157.958 1148.44 168.07 1168.64 178.175C1183.21 185.466 1197.74 192.855 1212.4 199.964C1215.52 201.474 1216.49 203.331 1216.44 206.648C1216.26 217.299 1216.51 227.959 1216.29 238.609C1216.22 242.023 1217.39 243.739 1220.46 245.209C1253.31 260.965 1287.55 272.85 1322.79 281.927C1359.41 291.361 1396.58 297.717 1434.2 301.569C1476.68 305.918 1519.25 307.268 1561.87 304.932C1583.77 303.731 1605.6 301.239 1627.45 299.216C1629.64 299.013 1631.9 298.314 1633.88 297.334C1651.95 288.381 1669.97 279.314 1688 270.281C1688 270.927 1688 271.573 1688 272.219C1686.44 273.066 1684.91 273.96 1683.32 274.753C1631.37 300.731 1579.41 326.698 1527.46 352.677C1526.19 353.315 1524.97 354.076 1523.71 354.793C1524.02 355.274 1524.13 355.647 1524.37 355.773C1526.66 356.969 1528.93 358.193 1531.26 359.28C1568.57 376.653 1607.53 389.139 1647.64 398.078C1661.01 401.058 1674.54 403.317 1688 405.906C1688 406.552 1688 407.198 1688 407.844C1687.2 407.763 1686.39 407.734 1685.59 407.593C1662.73 403.538 1640.05 398.692 1617.65 392.527C1586.19 383.867 1555.55 372.984 1526.09 358.888C1524.75 358.248 1523.32 357.807 1521.68 357.173C1521.68 399.967 1521.68 441.995 1521.68 484.257C1523.24 484.388 1524.49 484.571 1525.74 484.585C1570.48 485.102 1614.97 488.522 1659.08 496.127C1668.76 497.795 1678.36 499.906 1688 501.813C1688 502.458 1688 503.105 1688 503.75C1678.52 501.833 1669.09 499.664 1659.56 498.041C1609.79 489.566 1559.63 485.882 1509.17 486.545C1478.49 486.949 1447.92 489.014 1417.45 492.784C1370.89 498.547 1325.18 508.104 1280.65 522.998C1246.42 534.448 1213.51 548.823 1182.91 568.136C1159.7 582.78 1138.5 599.803 1121.17 621.274C1109.71 635.463 1100.56 650.966 1095.19 668.481C1085.9 698.774 1089.62 727.799 1104.24 755.618C1115.93 777.842 1132.54 795.967 1151.78 811.794C1158.5 817.325 1165.73 822.228 1172.61 827.574C1174.98 829.423 1176.98 829.423 1179.61 828.064C1189.63 822.876 1199.82 817.981 1209.85 812.798C1212.66 811.344 1214.95 811.185 1217.91 812.67C1268.37 838.014 1318.89 863.238 1369.4 888.487C1381.96 894.764 1394.5 901.074 1407.09 907.269C1408.93 908.172 1411.01 908.835 1413.04 909.064C1426.66 910.601 1440.28 912.26 1453.95 913.373C1486.48 916.023 1519.08 916.519 1551.68 915.372C1597.57 913.758 1643.04 908.453 1688 899C1688 899.646 1688 900.292 1688 900.937C1669.57 904.094 1651.2 907.7 1632.69 910.304C1601.68 914.668 1570.47 916.925 1539.13 917.528C1499.39 918.293 1459.77 916.646 1420.3 911.855C1419.62 911.773 1418.92 911.845 1418.23 911.845C1419.66 913.541 1421.31 914.463 1423 915.306C1454.01 930.819 1485.01 946.368 1516.08 961.757C1519.01 963.209 1520.09 964.948 1519.96 968.093C1519.75 973.087 1519.86 978.096 1519.9 983.098C1519.91 984.467 1520.16 985.835 1520.33 987.571C1522 986.9 1523.2 986.502 1524.33 985.955C1564.16 966.633 1606 953.226 1649.12 943.658C1662.03 940.796 1675.04 938.414 1688 935.813C1688 936.459 1688 937.105 1688 937.75ZM21.6566 841.926C24.2781 843.313 25.8165 844.166 27.3883 844.952C63.0305 862.776 98.6641 880.616 134.347 898.358C136.899 899.626 139.762 900.438 142.573 900.99C179.995 908.346 217.759 912.855 255.853 914.834C297.354 916.991 338.79 916.224 380.149 912.373C412.785 909.333 445.147 904.374 477.134 897.125C524.042 886.495 569.471 871.656 612.234 849.331C635.926 836.961 658.19 822.449 678.01 804.399C695.597 788.383 710.52 770.31 720.385 748.455C732.749 721.067 734.457 693.12 724.543 664.595C718.139 646.17 707.821 630.089 695.021 615.556C670.634 587.868 640.509 567.874 608.011 551.099C606.242 550.186 604.78 550.168 603.036 551.109C599.488 553.024 595.845 554.762 592.237 556.566C502.341 601.515 412.445 646.466 322.547 691.412C224.276 740.543 126.003 789.669 27.7317 838.8C26.0403 839.646 24.3677 840.53 21.6566 841.926ZM909.556 302.562C906.961 303.694 905.521 304.349 904.059 304.956C888.419 311.445 872.998 318.54 857.093 324.298C798.297 345.586 737.349 356.887 675.19 362.021C644.289 364.573 613.326 365.428 582.3 364.52C539.953 363.282 497.926 359.193 456.263 351.517C410.905 343.16 366.661 330.945 324.21 312.713C292.335 299.023 262.181 282.364 235.386 260.09C215.975 243.955 199.181 225.588 187.416 203.018C179.641 188.101 174.738 172.35 173.678 155.481C172.892 142.965 174.107 130.68 177.498 118.592C178.013 116.754 179.267 114.859 178.366 112.694C167.833 116.69 1.48242 200.441 -1.13126 203.131C0.638153 204.055 2.32669 204.97 4.0433 205.827C53.2568 230.432 102.477 255.023 151.688 279.632C208.839 308.211 265.978 336.816 323.133 365.388C399.337 403.485 475.552 441.56 551.761 479.647C568.648 488.086 585.554 496.489 602.393 505.024C604.653 506.169 606.468 506.325 608.688 505.046C611.619 503.358 614.741 502.004 617.772 500.488C678.387 470.189 739.003 439.891 799.614 409.585C834.827 391.978 870.013 374.315 905.277 356.811C908.466 355.228 909.691 353.389 909.639 349.811C909.439 336.091 909.557 322.368 909.556 308.645C909.556 306.912 909.556 305.178 909.556 302.562ZM1213.1 527.899C1210.62 526.605 1209.22 525.822 1207.78 525.133C1182.82 513.23 1156.97 503.676 1130.47 495.83C1095.91 485.596 1060.72 478.336 1025.02 473.418C994.119 469.162 963.098 466.384 931.926 466.003C909.985 465.736 888.005 465.936 866.093 466.979C845.963 467.937 825.849 469.855 805.819 472.152C776.305 475.538 747.138 481.075 718.3 488.264C682.198 497.265 647.096 509.118 613.429 525.056C611.889 525.785 610.425 526.677 608.268 527.851C610.261 528.979 611.577 529.804 612.959 530.495C709.358 578.713 805.799 626.846 902.082 675.295C908.457 678.503 913.121 678.252 919.325 675.134C1015.34 626.87 1111.48 578.867 1207.59 530.798C1209.13 530.029 1210.64 529.199 1213.1 527.899ZM911.637 964.302C913.664 965.38 915.038 966.174 916.465 966.86C934.375 975.466 952.793 982.832 971.611 989.184C1038.64 1011.81 1107.76 1022.75 1178.24 1025.78C1218.61 1027.52 1258.92 1026.35 1299.15 1022.25C1342.42 1017.85 1385.08 1010.21 1426.95 998.337C1455.88 990.132 1484.06 979.943 1511.22 967.004C1512.74 966.28 1514.21 965.437 1516.35 964.306C1514.07 963.044 1512.57 962.146 1511.02 961.366C1496.88 954.283 1482.73 947.225 1468.58 940.152C1385.17 898.437 1301.74 856.739 1218.37 814.935C1215.11 813.298 1212.63 813.44 1209.43 815.057C1172.39 833.721 1135.28 852.23 1098.18 870.778C1037.57 901.089 976.949 931.397 916.336 961.716C914.933 962.416 913.584 963.226 911.637 964.302ZM1517.64 396.332C1515.65 395.291 1514.27 394.514 1512.84 393.832C1483.19 379.674 1452.31 368.87 1420.64 360.283C1389.61 351.872 1358.12 345.78 1326.26 341.551C1301.44 338.258 1276.53 336.141 1251.52 335.041C1201.56 332.844 1151.8 335.175 1102.25 341.878C1062.2 347.297 1022.8 355.71 984.258 367.966C961.474 375.212 939.195 383.746 917.641 394.124C916.315 394.762 915.072 395.573 913.272 396.599C915.029 397.61 915.972 398.218 916.969 398.717C971.378 425.926 1025.79 453.133 1080.22 480.3C1082.08 481.227 1084.08 481.976 1086.11 482.426C1115.28 488.923 1144 497.037 1171.85 507.897C1185.67 513.284 1199.1 519.643 1212.76 525.434C1215.57 526.627 1216.6 528.375 1216.43 531.359C1216.22 535.06 1216.35 538.783 1216.4 542.496C1216.41 543.723 1216.61 544.948 1216.73 546.2C1221.02 545.388 1510.27 401.333 1517.64 396.332ZM1214.18 332.445C1214.18 289.505 1214.18 247.338 1214.18 204.523C1211.77 205.653 1209.89 206.485 1208.05 207.404C1170.09 226.369 1132.12 245.335 1094.17 264.32C1021.44 300.701 948.721 337.108 875.985 373.479C788.381 417.284 700.756 461.047 613.165 504.877C605.228 508.849 606.648 506.536 606.586 515.646C606.563 518.923 606.218 522.252 607.017 525.881C608.729 525.159 609.914 524.718 611.048 524.17C637.123 511.573 664.206 501.606 691.965 493.482C721.573 484.817 751.661 478.275 782.161 473.577C809.622 469.346 837.207 466.372 864.957 465.065C878.014 464.449 891.092 464.279 904.16 463.881C905.855 463.829 907.546 463.626 909.598 463.465C909.598 461.02 909.598 459.108 909.598 457.195C909.598 438.306 909.671 419.417 909.529 400.529C909.504 397.16 910.519 395.227 913.685 393.877C923.624 389.638 933.335 384.847 943.347 380.795C1004.27 356.143 1067.9 342.893 1133.07 336.391C1158.29 333.874 1183.61 332.593 1208.97 332.446C1210.55 332.437 1212.14 332.445 1214.18 332.445ZM427.777 636.626C435.251 632.921 441.597 629.798 447.924 626.636C498.429 601.396 548.911 576.109 599.471 550.981C603.264 549.096 605.009 547.074 604.822 542.594C604.425 533.088 604.469 523.545 604.81 514.034C604.965 509.702 603.56 507.509 599.628 505.56C555.836 483.852 512.155 461.92 468.437 440.064C428.758 420.227 389.071 400.408 349.383 380.591C347.935 379.868 346.431 379.255 344.953 378.591C344.797 378.908 344.64 379.226 344.484 379.543C346.155 380.77 347.813 382.014 349.498 383.221C366.895 395.683 382.851 409.71 396.319 426.423C417.176 452.304 428.633 481.273 427.945 515.122C427.165 553.519 427.773 591.944 427.777 630.357C427.777 632.083 427.777 633.807 427.777 636.626ZM606.581 529.678C606.581 535.032 606.775 539.541 606.516 544.024C606.332 547.221 607.452 548.927 610.357 550.368C623.963 557.12 636.99 564.896 649.517 573.489C671.088 588.287 690.612 605.307 706.183 626.499C723.594 650.196 733.409 676.366 732.866 706.223C732.399 731.885 732.777 757.562 732.781 783.233C732.781 784.933 732.781 786.635 732.781 789.153C735.35 787.967 737.082 787.224 738.766 786.383C782.932 764.303 827.094 742.214 871.256 720.127C882.947 714.28 894.605 708.368 906.353 702.639C908.73 701.48 909.767 700.073 909.61 697.435C909.428 694.378 909.638 691.301 909.569 688.235C909.375 679.64 911 681.612 902.787 677.494C862.112 657.095 821.393 636.784 780.692 616.436C724.404 588.294 668.119 560.145 611.828 532.01C610.416 531.305 608.941 530.723 606.581 529.678ZM1088.33 789.109C1088.33 786.353 1088.33 784.591 1088.33 782.83C1088.33 756.2 1088.43 729.569 1088.3 702.94C1088.21 685.025 1092.1 668.063 1099.66 651.894C1109.96 629.883 1125.23 611.692 1143.16 595.584C1162.73 578.005 1184.65 563.866 1207.87 551.651C1210 550.531 1212.12 549.383 1214.52 548.094C1214.52 543.046 1214.54 538.061 1214.51 533.078C1214.5 532.163 1214.29 531.25 1214.12 529.919C1212.5 530.598 1211.18 531.074 1209.92 531.698C1197.21 538.021 1184.51 544.36 1171.82 550.71C1104.59 584.336 1037.37 617.97 970.138 651.595C951.815 660.759 933.505 669.949 915.127 679.001C912.467 680.311 911.175 681.863 911.387 684.909C911.621 688.283 911.783 691.727 911.366 695.063C910.785 699.714 912.932 701.82 916.884 703.785C972.353 731.358 1027.74 759.094 1083.15 786.781C1084.54 787.479 1086 788.065 1088.33 789.109ZM1519.56 394.855C1519.56 392.316 1519.56 390.731 1519.56 389.147C1519.57 379.945 1519.51 370.744 1519.59 361.543C1519.65 353.565 1518.32 355.203 1525.8 351.451C1556.67 335.979 1587.57 320.568 1618.45 305.123C1619.96 304.371 1621.41 303.517 1622.89 302.71C1620.8 301.991 1618.94 302.13 1617.08 302.303C1606.32 303.309 1595.56 304.431 1584.79 305.313C1549.02 308.242 1513.2 308.638 1477.37 306.772C1436.71 304.655 1396.37 299.849 1356.47 291.602C1309.53 281.902 1263.96 268.043 1220.65 247.258C1219.55 246.729 1218.35 246.409 1217.16 245.979C1215.96 251.124 1216.1 328.461 1217.37 332.438C1219 332.438 1220.76 332.396 1222.51 332.445C1235.26 332.798 1248.02 332.888 1260.75 333.586C1301.25 335.808 1341.43 340.648 1381.15 348.948C1424.87 358.082 1467.42 370.891 1508.1 389.549C1511.59 391.148 1515.06 392.771 1519.56 394.855ZM560.686 875.43C425.59 922.058 287.776 928.16 147.682 904.575C149.007 905.618 150.453 906.48 151.955 907.231C184.552 923.546 217.153 939.851 249.757 956.153C265.337 963.943 280.865 971.843 296.546 979.425C300.235 981.208 302.003 983.237 301.63 987.471C301.249 991.794 301.523 996.178 301.571 1000.53C301.584 1001.73 301.817 1002.93 302.019 1004.76C388.589 961.478 474.638 918.454 560.686 875.43ZM-3.2291 290.626C-1.57642 290.765 -0.178497 290.967 1.22232 290.988C28.1696 291.397 55.0659 292.647 81.8882 295.417C110.465 298.366 138.819 302.683 166.897 308.77C193.868 314.617 220.439 321.893 246.428 331.231C247.78 331.717 249.204 332.005 250.595 332.386C244.899 327.633 0.268097 205.788 -3.2291 205.299C-3.2291 233.645 -3.2291 261.974 -3.2291 290.626ZM1265.45 525.059C1265.58 525.412 1265.7 525.766 1265.83 526.12C1347.7 496.863 1432.49 485.292 1519.27 484.529C1519.27 455.661 1519.27 427.362 1519.27 398.142C1434.26 440.651 1349.85 482.855 1265.45 525.059ZM299.481 984.183C230.404 1018.72 162.168 1052.85 93.9308 1086.97C94.0576 1087.36 94.1846 1087.76 94.312 1088.15C161.443 1070.09 229.905 1062.34 299.482 1061.83C299.481 1035.87 299.481 1010.6 299.481 984.183ZM1071.52 479.312C1071.62 478.926 1071.71 478.54 1071.81 478.155C1018.69 451.597 965.56 425.038 912.284 398.404C911.006 404.112 911.265 460.168 912.557 463.855C965.938 463.855 1018.99 468.932 1071.52 479.312ZM-5.56717 233.982C-11.8703 235.898 -138.083 299.311 -140.95 302.12C-95.877 294.6 -50.9585 291.294 -5.56717 290.936C-5.56717 271.645 -5.56717 252.992 -5.56717 233.982ZM301.82 1061.85C343.411 1062.15 384.4 1065.06 425.162 1071.08C425.249 1070.71 425.336 1070.34 425.423 1069.96C384.423 1049.47 343.422 1028.97 301.82 1008.17C301.82 1026.41 301.82 1043.75 301.82 1061.85ZM1090.37 726.572C1090.3 727.358 1090.16 728.144 1090.16 728.93C1090.15 748.279 1090.24 767.629 1090.05 786.977C1090.02 790.15 1091.73 791.129 1093.96 792.242C1118.76 804.615 1143.55 817.019 1168.35 829.397C1169.73 830.081 1171.18 830.607 1172.59 831.206C1172.76 830.917 1172.93 830.627 1173.09 830.337C1171.89 829.428 1170.69 828.519 1169.49 827.608C1163.07 822.736 1156.48 818.079 1150.27 812.952C1131.47 797.422 1115.25 779.647 1103.46 758.105C1098.01 748.157 1094.1 737.623 1090.37 726.572ZM730.803 726.681C730.556 726.689 730.309 726.696 730.062 726.704C729.746 727.603 729.363 728.485 729.124 729.405C723.829 749.76 713.594 767.51 700.375 783.647C685.75 801.5 668.33 816.259 649.377 829.294C648.429 829.946 647.59 830.756 646.699 831.493C646.86 831.721 647.02 831.948 647.18 832.176C675.07 818.23 702.96 804.284 730.802 790.362C730.803 768.857 730.803 747.769 730.803 726.681ZM1090.8 116.921C1090.59 116.94 1090.39 116.96 1090.19 116.979C1090.19 123.696 1090.16 130.414 1090.23 137.13C1090.23 137.842 1090.6 138.908 1091.13 139.195C1094.1 140.799 1096.85 143.02 1100.38 143.315C1097.11 134.329 1093.96 125.626 1090.8 116.921Z" fill="url(#paint0_linear_18468_31096)" fill-opacity="0.2"/>
<defs>
<linearGradient id="paint0_linear_18468_31096" x1="715.5" y1="380.5" x2="706.5" y2="989" gradientUnits="userSpaceOnUse">
<stop stop-color="white" stop-opacity="0"/>
<stop offset="1" stop-color="#DDDDDD"/>
</linearGradient>
</defs>
</svg>
