<svg width="744" height="1116" viewBox="0 0 744 1116" fill="none" xmlns="http://www.w3.org/2000/svg">
<path d="M1363 937.75C1348.62 940.647 1334.15 943.203 1319.86 946.502C1270.76 957.837 1223.37 973.91 1179.19 998.57C1152.97 1013.21 1128.77 1030.54 1108.44 1052.86C1094.05 1068.65 1082.54 1086.23 1075.81 1106.68C1074.81 1109.73 1074.16 1112.89 1073.34 1116C1072.7 1116 1072.05 1116 1071.41 1116C1071.58 1115.05 1071.69 1114.09 1071.94 1113.16C1077.22 1093.16 1087.21 1075.65 1100.13 1059.68C1101.61 1057.86 1103.11 1056.06 1104.6 1054.25C1102.62 1054.16 1101.19 1054.71 1099.82 1055.39C1065.79 1072.38 1031.76 1089.37 997.76 1106.41C991.581 1109.5 985.502 1112.8 979.377 1116C978.085 1116 976.793 1116 975.502 1116C976.838 1115.15 978.109 1114.17 979.518 1113.47C1021.08 1092.68 1062.63 1071.88 1104.25 1051.2C1108.68 1049 1112.27 1046.01 1115.77 1042.59C1132.12 1026.6 1150.48 1013.2 1170.18 1001.64C1176.58 997.885 1183.08 994.287 1189.67 990.88C1192.19 989.58 1193.16 988.031 1193.08 985.222C1192.89 979.145 1193.02 973.058 1193.02 966.359C1191.16 967.004 1189.96 967.29 1188.88 967.809C1145.25 988.697 1099.37 1002.64 1052.09 1012.34C1016.78 1019.59 981.122 1024.19 945.177 1026.54C910.997 1028.78 876.796 1028.96 842.575 1027.08C813.698 1025.5 784.97 1022.59 756.44 1017.95C699.819 1008.72 644.831 993.876 592.676 969.513C589.762 968.152 586.935 966.599 584.087 965.099C583.855 964.977 583.768 964.578 583.264 963.697C670.312 920.04 757.442 876.644 845.146 832.673C843.181 831.558 841.982 830.805 840.722 830.175C756.878 788.236 673.018 746.329 589.225 704.29C586.097 702.72 583.863 703.383 581.161 704.737C539.617 725.559 498.052 746.336 456.486 767.113C379.992 805.349 303.489 843.567 227 881.812C146.033 922.297 65.0773 962.806 -15.8826 1003.31C-17.6017 1004.17 -19.3071 1005.05 -21.9063 1006.38C-19.853 1007.57 -18.46 1008.47 -16.9832 1009.21C9.7132 1022.57 36.4197 1035.9 63.1234 1049.24C76.837 1056.09 90.6387 1062.77 104.217 1069.88C109.236 1072.51 114.525 1073.46 119.911 1074.41C166.926 1082.76 212.745 1095.23 256.731 1114.03C258.048 1114.6 259.288 1115.34 260.563 1116C258.949 1116 257.334 1116 255.72 1116C249.817 1113.46 243.991 1110.72 237.998 1108.42C190.19 1090.06 140.645 1078.59 90.0265 1071.52C57.7255 1067.01 25.2403 1064.6 -7.36298 1063.95C-63.6556 1062.84 -119.537 1067.1 -174.917 1077.38C-213.039 1084.45 -250.381 1094.41 -286.61 1108.33C-292.581 1110.62 -298.354 1113.43 -304.218 1116C-305.833 1116 -307.447 1116 -309.062 1116C-302.596 1113.16 -296.252 1109.99 -289.637 1107.55C-277.076 1102.92 -264.246 1099.01 -251.749 1094.22C-243.493 1091.06 -235.523 1087.09 -227.598 1083.14C-162.334 1050.57 -97.1109 1017.93 -31.8787 985.3C-30.4556 984.588 -29.0722 983.797 -26.9744 982.668C-28.8644 981.6 -30.1747 980.782 -31.5498 980.094C-83.2181 954.25 -134.896 928.425 -186.564 902.582C-236.211 877.751 -285.846 852.896 -335.493 828.064C-383.554 804.027 -431.622 780.004 -479.688 755.978C-525.156 733.251 -570.623 710.522 -616.102 687.819C-617.668 687.038 -619.365 686.518 -621 685.875C-621 685.23 -621 684.583 -621 683.938C-619.355 684.543 -617.635 684.998 -616.076 685.776C-552.857 717.369 -489.656 748.999 -426.445 780.607C-387.479 800.092 -348.482 819.517 -309.561 839.091C-306.596 840.582 -304.341 840.322 -301.523 838.909C-233.439 804.783 -165.318 770.73 -97.1995 736.672C-32.8333 704.491 31.5217 672.288 95.947 640.226C99.6078 638.404 101.055 636.435 101.028 632.21C100.828 601.056 100.924 569.899 100.928 538.744C100.928 536.993 100.928 535.242 100.928 533.492C100.647 533.437 100.367 533.382 100.087 533.327C99.7183 534.295 99.2611 535.239 98.9942 536.234C92.97 558.711 81.1484 577.936 65.8794 595.211C47.3017 616.229 25.203 632.899 1.19061 647.133C-38.2526 670.517 -80.7395 686.477 -124.852 698.387C-155.733 706.725 -187.084 712.702 -218.788 716.933C-268.363 723.55 -318.145 725.603 -368.07 723.324C-429.056 720.541 -489.121 711.664 -547.822 694.494C-571.228 687.647 -594.153 679.464 -616.452 669.556C-617.856 668.932 -619.478 668.799 -620.999 668.437C-620.999 667.469 -620.999 666.5 -620.999 665.531C-579.065 684.525 -535.293 697.678 -490.221 706.716C-464.736 711.826 -439.059 715.568 -413.191 718.154C-381.03 721.369 -348.806 722.619 -316.501 722.195C-285.649 721.79 -254.901 719.738 -224.303 715.833C-171.002 709.03 -118.824 697.442 -68.4863 678.299C-35.1724 665.63 -3.41144 649.959 25.5189 628.951C46.2981 613.861 64.8487 596.502 79.1658 574.98C89.6642 559.198 97.0519 542.141 99.791 523.262C103.449 498.057 98.304 474.48 86.337 452.241C73.2429 427.908 54.4525 408.556 32.8358 391.768C2.87286 368.498 -30.5805 351.551 -65.8091 337.929C-105.214 322.691 -145.916 312.205 -187.499 304.935C-237.566 296.182 -288.021 292.445 -338.809 292.934C-371.114 293.244 -403.318 295.342 -435.359 299.464C-484.77 305.819 -533.277 316.244 -580.196 333.246C-593.977 338.241 -607.408 344.201 -621 349.719C-621 348.75 -621 347.781 -621 346.813C-619.628 346.493 -618.163 346.383 -616.897 345.823C-578.547 328.828 -538.628 316.805 -497.651 308.132C-492.446 307.03 -487.233 305.941 -481.985 305.077C-477.298 304.307 -473.065 302.532 -468.85 300.416C-425.025 278.419 -381.159 256.506 -337.306 234.565C-335.746 233.784 -334.211 232.953 -331.906 231.75C-334.005 230.559 -335.448 229.651 -336.966 228.892C-385.874 204.44 -434.793 180.009 -483.703 155.561C-527.851 133.493 -571.989 111.406 -616.139 89.3406C-617.722 88.5491 -619.378 87.902 -621 87.1875C-621 86.5419 -621 85.8957 -621 85.25C-619.658 85.7809 -618.267 86.2139 -616.981 86.8562C-575.412 107.623 -533.852 128.408 -492.291 149.192C-439.908 175.39 -387.526 201.59 -335.137 227.776C-333.765 228.461 -332.316 228.991 -330.306 229.848C-330.306 222.292 -330.374 215.529 -330.288 208.768C-330.189 200.951 -331.529 202.688 -324.263 199.049C-267.276 170.513 -210.289 141.977 -153.197 113.65C-147.425 110.786 -142.724 107.693 -141.144 101.059C-140.668 99.063 -139.373 97.2698 -138.537 95.3478C-138.133 94.4193 -137.922 93.4064 -137.433 91.8056C-140.087 92.4077 -142.102 92.8431 -144.105 93.3231C-164.983 98.3257 -186.062 102.291 -207.298 105.404C-237.183 109.786 -267.223 112.418 -297.41 113.608C-332.79 115.002 -368.105 114.073 -403.358 111.04C-435.372 108.286 -467.123 103.647 -498.568 96.9303C-539.073 88.2788 -578.528 76.3705 -616.463 59.6251C-617.914 58.9848 -619.485 58.6186 -621 58.125C-621 57.4794 -621 56.8332 -621 56.1875C-619.628 56.5857 -618.187 56.8288 -616.895 57.4048C-577.535 74.9493 -536.513 87.2161 -494.384 95.9354C-450.684 104.98 -406.51 109.969 -361.921 111.731C-331.4 112.936 -300.928 112.439 -270.484 110.353C-226.308 107.327 -182.629 100.923 -139.595 90.3413C-136.976 89.6976 -134.969 88.8121 -133.464 86.2832C-120.226 64.0436 -102.267 46.112 -81.9645 30.3558C-80.3099 29.0717 -78.6727 27.7649 -77.0563 26.4333C-76.8447 26.2589 -76.8083 25.8719 -76.5623 25.2674C-77.933 24.536 -79.3145 23.7591 -80.7294 23.05C-93.853 16.4741 -106.989 9.92436 -120.102 3.32814C-122.109 2.31919 -124.016 1.11406 -125.969 0C-124.354 0 -122.739 0 -121.125 0C-119.846 0.894641 -118.65 1.95106 -117.273 2.65631C-110.836 5.95539 -104.351 9.16196 -97.8792 12.3927C-89.9785 16.337 -82.0734 20.273 -74.1965 24.1994C-73.4612 23.8259 -72.869 23.5789 -72.3308 23.2447C-61.0037 16.2028 -49.6775 9.16002 -38.3717 2.08378C-37.4611 1.51367 -36.7031 0.700407 -35.8743 0C-34.5825 0 -33.2911 0 -31.9993 0C-33.8176 1.24 -35.5492 2.63645 -37.4669 3.69675C-63.1659 17.904 -87.1473 34.4323 -107.595 55.7007C-122.966 71.689 -135.586 89.5353 -143.039 110.602C-155.266 145.16 -150.482 177.945 -132.068 209.12C-119.234 230.849 -101.781 248.412 -82.04 263.827C-54.8622 285.047 -24.6799 300.987 7.10919 314.018C49.5419 331.412 93.5871 343.073 138.705 350.966C166.871 355.893 195.216 359.283 223.728 361.156C258.064 363.413 292.423 363.633 326.806 361.744C359.555 359.945 392.092 356.398 424.372 350.657C474.588 341.725 523.446 328.164 570.051 307.115C573.725 305.455 577.339 303.662 580.966 301.9C581.381 301.699 581.696 301.295 582.375 300.713C581.225 299.96 580.275 299.193 579.209 298.66C528.411 273.261 477.598 247.893 426.798 222.497C373.834 196.02 320.882 169.516 267.922 143.03C208.179 113.151 148.433 83.2791 88.6891 53.4038C55.2095 36.6624 21.7267 19.9277 -11.7339 3.14844C-13.424 2.30078 -14.9158 1.05884 -16.4998 0C-15.2079 0 -13.9166 0 -12.6248 0C-12.0401 0.518282 -11.5339 1.19302 -10.8592 1.53208C1.91187 7.94327 14.725 14.2711 27.4675 20.739C29.4854 21.7635 31.0529 21.4002 32.8813 20.4789C45.0711 14.3365 57.2982 8.26877 69.4924 2.13513C70.6118 1.57228 71.5849 0.718328 72.6258 0C73.9176 0 75.209 0 76.5008 0C75.2138 0.889797 74.0106 1.94525 72.6273 2.64324C60.9615 8.52936 49.2605 14.3462 37.5764 20.1955C36.1436 20.9129 34.7462 21.701 32.5055 22.8979C34.4532 24.0056 35.8375 24.879 37.2935 25.6084C61.813 37.8883 86.3428 50.1488 110.869 62.4166C192.967 103.483 275.06 144.559 357.163 185.615C431.473 222.774 505.793 259.912 580.109 297.059C580.975 297.492 581.807 298.02 582.713 298.339C585.541 299.335 586.571 301.224 586.483 304.244C586.297 310.696 586.428 317.156 586.427 323.613C586.427 331.683 586.41 339.754 586.439 347.825C586.445 349.383 586.629 350.94 586.733 352.539C590.676 351.762 878.386 208.404 887.169 202.937C886.384 200.881 884.292 200.558 882.692 199.755C858.613 187.669 834.501 175.649 810.402 163.604C714.728 115.781 619.055 67.9545 523.382 20.1282C511.693 14.2852 500.001 8.44944 488.334 2.56477C486.93 1.85661 485.671 0.862188 484.345 0.000484375C485.959 0.000484375 487.574 0.000484375 489.188 0.000484375C490.558 0.994422 491.82 2.20342 493.313 2.95178C536.417 24.5501 579.559 46.0714 622.634 67.7282C625.573 69.2061 627.839 69.1194 630.709 67.6784C673.942 45.9687 717.229 24.366 760.484 2.69991C761.865 2.00822 763.042 0.909657 764.314 0.00096875C765.928 0.00096875 767.543 0.00096875 769.157 0.00096875C767.653 0.90675 766.202 1.91619 764.638 2.70184C747.781 11.1658 730.909 19.5998 714.036 28.0322C687.5 41.2949 660.954 54.5373 634.438 67.8397C632.851 68.636 630.803 68.993 629.953 70.9682C639.58 76.957 759.363 136.292 763.345 136.93C763.345 135.118 763.345 133.37 763.345 131.623C763.347 118.718 763.188 105.811 763.418 92.9104C763.535 86.3195 763.892 79.6686 764.929 73.1707C768.332 51.8485 777.583 33.0111 790.401 15.841C794.442 10.4262 798.833 5.27291 803.063 0C803.709 0 804.355 0 805.001 0C804.154 1.29861 803.453 2.72655 802.438 3.87742C788.528 19.6501 777.204 36.9554 770.688 57.1292C761.05 86.9676 764.31 115.692 778.074 143.547C779.187 145.799 780.994 146.848 783.03 147.865C803.238 157.958 823.437 168.07 843.639 178.175C858.213 185.466 872.74 192.855 887.402 199.964C890.517 201.474 891.494 203.331 891.437 206.648C891.255 217.299 891.506 227.959 891.292 238.609C891.223 242.023 892.394 243.739 895.459 245.209C928.315 260.965 962.548 272.85 997.788 281.927C1034.41 291.361 1071.58 297.717 1109.2 301.569C1151.68 305.918 1194.25 307.268 1236.87 304.932C1258.77 303.731 1280.6 301.239 1302.45 299.216C1304.64 299.013 1306.9 298.314 1308.88 297.334C1326.95 288.381 1344.97 279.314 1363 270.281C1363 270.927 1363 271.573 1363 272.219C1361.44 273.066 1359.91 273.96 1358.32 274.753C1306.37 300.731 1254.41 326.698 1202.46 352.677C1201.19 353.315 1199.97 354.076 1198.71 354.793C1199.02 355.274 1199.13 355.647 1199.37 355.773C1201.66 356.969 1203.93 358.193 1206.26 359.28C1243.57 376.653 1282.53 389.139 1322.64 398.078C1336.01 401.058 1349.54 403.317 1363 405.906C1363 406.552 1363 407.198 1363 407.844C1362.2 407.763 1361.39 407.734 1360.59 407.593C1337.73 403.538 1315.05 398.692 1292.65 392.527C1261.19 383.867 1230.55 372.984 1201.09 358.888C1199.75 358.248 1198.32 357.807 1196.68 357.173C1196.68 399.967 1196.68 441.995 1196.68 484.257C1198.24 484.388 1199.49 484.571 1200.74 484.585C1245.48 485.102 1289.97 488.522 1334.08 496.127C1343.76 497.795 1353.36 499.906 1363 501.813C1363 502.458 1363 503.105 1363 503.75C1353.52 501.833 1344.09 499.664 1334.56 498.041C1284.79 489.566 1234.63 485.882 1184.17 486.545C1153.49 486.949 1122.92 489.014 1092.45 492.784C1045.89 498.547 1000.18 508.104 955.651 522.998C921.419 534.448 888.506 548.823 857.905 568.136C834.702 582.78 813.505 599.803 796.167 621.274C784.708 635.463 775.556 650.966 770.186 668.481C760.899 698.774 764.617 727.799 779.243 755.618C790.928 777.842 807.544 795.967 826.776 811.794C833.496 817.325 840.728 822.228 847.605 827.574C849.984 829.423 851.978 829.423 854.605 828.064C864.635 822.876 874.815 817.981 884.847 812.798C887.662 811.344 889.954 811.185 892.911 812.67C943.373 838.014 993.894 863.238 1044.4 888.487C1056.96 894.764 1069.5 901.074 1082.09 907.269C1083.93 908.172 1086.01 908.835 1088.04 909.064C1101.66 910.601 1115.28 912.26 1128.95 913.373C1161.48 916.023 1194.08 916.519 1226.68 915.372C1272.57 913.758 1318.04 908.453 1363 899C1363 899.646 1363 900.292 1363 900.937C1344.57 904.094 1326.2 907.7 1307.69 910.304C1276.68 914.668 1245.47 916.925 1214.13 917.528C1174.39 918.293 1134.77 916.646 1095.3 911.855C1094.62 911.773 1093.92 911.845 1093.23 911.845C1094.66 913.541 1096.31 914.463 1098 915.306C1129.01 930.819 1160.01 946.368 1191.08 961.757C1194.01 963.209 1195.09 964.948 1194.96 968.093C1194.75 973.087 1194.86 978.096 1194.9 983.098C1194.91 984.467 1195.16 985.835 1195.33 987.571C1197 986.9 1198.2 986.502 1199.33 985.955C1239.16 966.633 1281 953.226 1324.12 943.658C1337.03 940.796 1350.04 938.414 1363 935.813C1363 936.459 1363 937.105 1363 937.75ZM-303.343 841.926C-300.722 843.313 -299.184 844.166 -297.612 844.952C-261.969 862.776 -226.336 880.616 -190.653 898.358C-188.101 899.626 -185.238 900.438 -182.427 900.99C-145.005 908.346 -107.241 912.855 -69.1475 914.834C-27.6457 916.991 13.7897 916.224 55.149 912.373C87.7848 909.333 120.147 904.374 152.134 897.125C199.042 886.495 244.471 871.656 287.234 849.331C310.926 836.961 333.19 822.449 353.01 804.399C370.597 788.383 385.52 770.31 395.385 748.455C407.749 721.067 409.457 693.12 399.543 664.595C393.139 646.17 382.821 630.089 370.021 615.556C345.634 587.868 315.509 567.874 283.011 551.099C281.242 550.186 279.78 550.168 278.036 551.109C274.488 553.024 270.845 554.762 267.237 556.566C177.341 601.515 87.4452 646.466 -2.45288 691.412C-100.724 740.543 -198.997 789.669 -297.268 838.8C-298.96 839.646 -300.632 840.53 -303.343 841.926ZM584.556 302.562C581.961 303.694 580.521 304.349 579.059 304.956C563.419 311.445 547.998 318.54 532.093 324.298C473.297 345.586 412.349 356.887 350.19 362.021C319.289 364.573 288.326 365.428 257.3 364.52C214.953 363.282 172.926 359.193 131.263 351.517C85.9054 343.16 41.6611 330.945 -0.790466 312.713C-32.6653 299.023 -62.8186 282.364 -89.6143 260.09C-109.025 243.955 -125.819 225.588 -137.584 203.018C-145.359 188.101 -150.262 172.35 -151.322 155.481C-152.108 142.965 -150.893 130.68 -147.502 118.592C-146.987 116.754 -145.733 114.859 -146.634 112.694C-157.167 116.69 -323.518 200.441 -326.131 203.131C-324.362 204.055 -322.673 204.97 -320.957 205.827C-271.743 230.432 -222.523 255.023 -173.312 279.632C-116.161 308.211 -59.0221 336.816 -1.86725 365.388C74.3371 403.485 150.552 441.56 226.761 479.647C243.648 488.086 260.554 496.489 277.393 505.024C279.653 506.169 281.468 506.325 283.688 505.046C286.619 503.358 289.741 502.004 292.772 500.488C353.387 470.189 414.003 439.891 474.614 409.585C509.827 391.978 545.013 374.315 580.277 356.811C583.466 355.228 584.691 353.389 584.639 349.811C584.439 336.091 584.557 322.368 584.556 308.645C584.556 306.912 584.556 305.178 584.556 302.562ZM888.105 527.899C885.621 526.605 884.223 525.822 882.779 525.133C857.819 513.23 831.967 503.676 805.47 495.83C770.907 485.596 735.72 478.336 700.016 473.418C669.119 469.162 638.098 466.384 606.926 466.003C584.985 465.736 563.005 465.936 541.093 466.979C520.963 467.937 500.849 469.855 480.819 472.152C451.305 475.538 422.138 481.075 393.3 488.264C357.198 497.265 322.096 509.118 288.429 525.056C286.889 525.785 285.425 526.677 283.268 527.851C285.261 528.979 286.577 529.804 287.959 530.495C384.358 578.713 480.799 626.846 577.082 675.295C583.457 678.503 588.121 678.252 594.325 675.134C690.336 626.87 786.478 578.867 882.587 530.798C884.127 530.029 885.636 529.199 888.105 527.899ZM586.637 964.302C588.664 965.38 590.038 966.174 591.465 966.86C609.375 975.466 627.793 982.832 646.611 989.184C713.636 1011.81 782.757 1022.75 853.237 1025.78C893.608 1027.52 933.922 1026.35 974.146 1022.25C1017.42 1017.85 1060.08 1010.21 1101.95 998.337C1130.88 990.132 1159.06 979.943 1186.22 967.004C1187.74 966.28 1189.21 965.437 1191.35 964.306C1189.07 963.044 1187.57 962.146 1186.02 961.366C1171.88 954.283 1157.73 947.225 1143.58 940.152C1060.17 898.437 976.744 856.739 893.374 814.935C890.11 813.298 887.635 813.44 884.427 815.057C847.392 833.721 810.278 852.23 773.184 870.778C712.567 901.089 651.949 931.397 591.336 961.716C589.933 962.416 588.584 963.226 586.637 964.302ZM1192.64 396.332C1190.65 395.291 1189.27 394.514 1187.84 393.832C1158.19 379.674 1127.31 368.87 1095.64 360.283C1064.61 351.872 1033.12 345.78 1001.26 341.551C976.439 338.258 951.53 336.141 926.523 335.041C876.557 332.844 826.8 335.175 777.248 341.878C737.198 347.297 697.801 355.71 659.258 367.966C636.474 375.212 614.195 383.746 592.641 394.124C591.315 394.762 590.072 395.573 588.272 396.599C590.029 397.61 590.972 398.218 591.969 398.717C646.378 425.926 700.789 453.133 755.219 480.3C757.076 481.227 759.084 481.976 761.108 482.426C790.283 488.923 818.997 497.037 846.852 507.897C860.667 513.284 874.1 519.643 887.76 525.434C890.574 526.627 891.596 528.375 891.426 531.359C891.215 535.06 891.353 538.783 891.4 542.496C891.415 543.723 891.612 544.948 891.729 546.2C896.021 545.388 1185.27 401.333 1192.64 396.332ZM889.182 332.445C889.182 289.505 889.182 247.338 889.182 204.523C886.769 205.653 884.888 206.485 883.049 207.404C845.086 226.369 807.122 245.335 769.169 264.32C696.438 300.701 623.721 337.108 550.985 373.479C463.381 417.284 375.756 461.047 288.165 504.877C280.228 508.849 281.648 506.536 281.586 515.646C281.563 518.923 281.218 522.252 282.017 525.881C283.729 525.159 284.914 524.718 286.048 524.17C312.123 511.573 339.206 501.606 366.965 493.482C396.573 484.817 426.661 478.275 457.161 473.577C484.622 469.346 512.207 466.372 539.957 465.065C553.014 464.449 566.092 464.279 579.16 463.881C580.855 463.829 582.546 463.626 584.598 463.465C584.598 461.02 584.598 459.108 584.598 457.195C584.598 438.306 584.671 419.417 584.529 400.529C584.504 397.16 585.519 395.227 588.685 393.877C598.624 389.638 608.335 384.847 618.347 380.795C679.27 356.143 742.897 342.893 808.068 336.391C833.295 333.874 858.606 332.593 883.967 332.446C885.553 332.437 887.139 332.445 889.182 332.445ZM102.777 636.626C110.251 632.921 116.597 629.798 122.924 626.636C173.429 601.396 223.911 576.109 274.471 550.981C278.264 549.096 280.009 547.074 279.822 542.594C279.425 533.088 279.469 523.545 279.81 514.034C279.965 509.702 278.56 507.509 274.628 505.56C230.836 483.852 187.155 461.92 143.437 440.064C103.758 420.227 64.0712 400.408 24.3829 380.591C22.9346 379.868 21.4312 379.255 19.9534 378.591C19.7969 378.908 19.6404 379.226 19.4835 379.543C21.1546 380.77 22.8131 382.014 24.4982 383.221C41.8946 395.683 57.8508 409.71 71.3194 426.423C92.1761 452.304 103.633 481.273 102.945 515.122C102.165 553.519 102.773 591.944 102.777 630.357C102.777 632.083 102.777 633.807 102.777 636.626ZM281.581 529.678C281.581 535.032 281.775 539.541 281.516 544.024C281.332 547.221 282.452 548.927 285.357 550.368C298.963 557.12 311.99 564.896 324.517 573.489C346.088 588.287 365.612 605.307 381.183 626.499C398.594 650.196 408.409 676.366 407.866 706.223C407.399 731.885 407.777 757.562 407.781 783.233C407.781 784.933 407.781 786.635 407.781 789.153C410.35 787.967 412.082 787.224 413.766 786.383C457.932 764.303 502.094 742.214 546.256 720.127C557.947 714.28 569.605 708.368 581.353 702.639C583.73 701.48 584.767 700.073 584.61 697.435C584.428 694.378 584.638 691.301 584.569 688.235C584.375 679.64 586 681.612 577.787 677.494C537.112 657.095 496.393 636.784 455.692 616.436C399.404 588.294 343.119 560.145 286.828 532.01C285.416 531.305 283.941 530.723 281.581 529.678ZM763.326 789.109C763.326 786.353 763.326 784.591 763.326 782.83C763.329 756.2 763.435 729.569 763.301 702.94C763.212 685.025 767.1 668.063 774.665 651.894C784.962 629.883 800.231 611.692 818.162 595.584C837.731 578.005 859.651 563.866 882.87 551.651C885 550.531 887.115 549.383 889.523 548.094C889.523 543.046 889.541 538.061 889.507 533.078C889.501 532.163 889.288 531.25 889.117 529.919C887.504 530.598 886.177 531.074 884.922 531.698C872.213 538.021 859.512 544.36 846.816 550.71C779.589 584.336 712.366 617.97 645.138 651.595C626.815 660.759 608.505 669.949 590.127 679.001C587.467 680.311 586.175 681.863 586.387 684.909C586.621 688.283 586.783 691.727 586.366 695.063C585.785 699.714 587.932 701.82 591.884 703.785C647.353 731.358 702.739 759.094 758.15 786.781C759.545 787.479 760.995 788.065 763.326 789.109ZM1194.56 394.855C1194.56 392.316 1194.56 390.731 1194.56 389.147C1194.57 379.945 1194.51 370.744 1194.59 361.543C1194.65 353.565 1193.32 355.203 1200.8 351.451C1231.67 335.979 1262.57 320.568 1293.45 305.123C1294.96 304.371 1296.41 303.517 1297.89 302.71C1295.8 301.991 1293.94 302.13 1292.08 302.303C1281.32 303.309 1270.56 304.431 1259.79 305.313C1224.02 308.242 1188.2 308.638 1152.37 306.772C1111.71 304.655 1071.37 299.849 1031.47 291.602C984.53 281.902 938.962 268.043 895.649 247.258C894.548 246.729 893.347 246.409 892.156 245.979C890.955 251.124 891.105 328.461 892.365 332.438C893.998 332.438 895.758 332.396 897.514 332.445C910.261 332.798 923.022 332.888 935.75 333.586C976.246 335.808 1016.43 340.648 1056.15 348.948C1099.87 358.082 1142.42 370.891 1183.1 389.549C1186.59 391.148 1190.06 392.771 1194.56 394.855ZM235.686 875.43C100.59 922.058 -37.2237 928.16 -177.318 904.575C-175.993 905.618 -174.547 906.48 -173.045 907.231C-140.448 923.546 -107.847 939.851 -75.2433 956.153C-59.6629 963.943 -44.1353 971.843 -28.4542 979.425C-24.7646 981.208 -22.9971 983.237 -23.3701 987.471C-23.7509 991.794 -23.4772 996.178 -23.4288 1000.53C-23.4157 1001.73 -23.1826 1002.93 -22.9807 1004.76C63.5893 961.478 149.638 918.454 235.686 875.43ZM-328.229 290.626C-326.576 290.765 -325.178 290.967 -323.778 290.988C-296.83 291.397 -269.934 292.647 -243.112 295.417C-214.535 298.366 -186.181 302.683 -158.103 308.77C-131.132 314.617 -104.561 321.893 -78.572 331.231C-77.2196 331.717 -75.796 332.005 -74.4053 332.386C-80.1006 327.633 -324.732 205.788 -328.229 205.299C-328.229 233.645 -328.229 261.974 -328.229 290.626ZM940.451 525.059C940.576 525.412 940.7 525.766 940.825 526.12C1022.7 496.863 1107.49 485.292 1194.27 484.529C1194.27 455.661 1194.27 427.362 1194.27 398.142C1109.26 440.651 1024.85 482.855 940.451 525.059ZM-25.5188 984.183C-94.5956 1018.72 -162.832 1052.85 -231.069 1086.97C-230.942 1087.36 -230.815 1087.76 -230.688 1088.15C-163.557 1070.09 -95.0949 1062.34 -25.5183 1061.83C-25.5188 1035.87 -25.5188 1010.6 -25.5188 984.183ZM746.522 479.312C746.619 478.926 746.715 478.54 746.811 478.155C693.686 451.597 640.56 425.038 587.284 398.404C586.006 404.112 586.265 460.168 587.557 463.855C640.938 463.855 693.989 468.932 746.522 479.312ZM-330.567 233.982C-336.87 235.898 -463.083 299.311 -465.95 302.12C-420.877 294.6 -375.958 291.294 -330.567 290.936C-330.567 271.645 -330.567 252.992 -330.567 233.982ZM-23.1797 1061.85C18.4106 1062.15 59.3999 1065.06 100.162 1071.08C100.249 1070.71 100.336 1070.34 100.423 1069.96C59.4227 1049.47 18.4218 1028.97 -23.1797 1008.17C-23.1797 1026.41 -23.1797 1043.75 -23.1797 1061.85ZM765.373 726.572C765.299 727.358 765.16 728.144 765.16 728.93C765.145 748.279 765.236 767.629 765.053 786.977C765.023 790.15 766.729 791.129 768.96 792.242C793.764 804.615 818.552 817.019 843.354 829.397C844.726 830.081 846.177 830.607 847.591 831.206C847.759 830.917 847.927 830.627 848.095 830.337C846.893 829.428 845.69 828.519 844.489 827.608C838.071 822.736 831.475 818.079 825.268 812.952C806.469 797.422 790.252 779.647 778.458 758.105C773.013 748.157 769.097 737.623 765.373 726.572ZM405.803 726.681C405.556 726.689 405.309 726.696 405.062 726.704C404.746 727.603 404.363 728.485 404.124 729.405C398.829 749.76 388.594 767.51 375.375 783.647C360.75 801.5 343.33 816.259 324.377 829.294C323.429 829.946 322.59 830.756 321.699 831.493C321.86 831.721 322.02 831.948 322.18 832.176C350.07 818.23 377.96 804.284 405.802 790.362C405.803 768.857 405.803 747.769 405.803 726.681ZM765.797 116.921C765.593 116.94 765.389 116.96 765.185 116.979C765.185 123.696 765.158 130.414 765.226 137.13C765.233 137.842 765.602 138.908 766.135 139.195C769.101 140.799 771.851 143.02 775.376 143.315C772.115 134.329 768.956 125.626 765.797 116.921Z" fill="url(#paint0_linear_18468_34221)" fill-opacity="0.2"/>
<defs>
<linearGradient id="paint0_linear_18468_34221" x1="390.5" y1="380.5" x2="381.5" y2="989" gradientUnits="userSpaceOnUse">
<stop stop-color="white" stop-opacity="0"/>
<stop offset="1" stop-color="#DDDDDD"/>
</linearGradient>
</defs>
</svg>
