<svg width="1440" height="831" viewBox="0 0 1440 831" fill="none" xmlns="http://www.w3.org/2000/svg">
<path d="M1711 937.75C1696.62 940.647 1682.15 943.203 1667.86 946.502C1618.76 957.837 1571.37 973.91 1527.19 998.57C1500.97 1013.21 1476.77 1030.54 1456.44 1052.86C1442.05 1068.65 1430.54 1086.23 1423.81 1106.68C1422.81 1109.73 1422.16 1112.89 1421.34 1116C1420.7 1116 1420.05 1116 1419.41 1116C1419.58 1115.05 1419.69 1114.09 1419.94 1113.16C1425.22 1093.16 1435.21 1075.65 1448.13 1059.68C1449.61 1057.86 1451.11 1056.06 1452.6 1054.25C1450.62 1054.16 1449.19 1054.71 1447.82 1055.39C1413.79 1072.38 1379.76 1089.37 1345.76 1106.41C1339.58 1109.5 1333.5 1112.8 1327.38 1116C1326.08 1116 1324.79 1116 1323.5 1116C1324.84 1115.15 1326.11 1114.17 1327.52 1113.47C1369.08 1092.68 1410.63 1071.88 1452.25 1051.2C1456.68 1049 1460.27 1046.01 1463.77 1042.59C1480.12 1026.6 1498.48 1013.2 1518.18 1001.64C1524.58 997.885 1531.08 994.287 1537.67 990.88C1540.19 989.58 1541.16 988.031 1541.08 985.222C1540.89 979.145 1541.02 973.058 1541.02 966.359C1539.16 967.004 1537.96 967.29 1536.88 967.809C1493.25 988.697 1447.37 1002.64 1400.09 1012.34C1364.78 1019.59 1329.12 1024.19 1293.18 1026.54C1259 1028.78 1224.8 1028.96 1190.57 1027.08C1161.7 1025.5 1132.97 1022.59 1104.44 1017.95C1047.82 1008.72 992.831 993.876 940.676 969.513C937.762 968.152 934.935 966.599 932.087 965.099C931.855 964.977 931.768 964.578 931.264 963.697C1018.31 920.04 1105.44 876.644 1193.15 832.673C1191.18 831.558 1189.98 830.805 1188.72 830.175C1104.88 788.236 1021.02 746.329 937.225 704.29C934.097 702.72 931.863 703.383 929.161 704.737C887.617 725.559 846.052 746.336 804.486 767.113C727.992 805.349 651.489 843.567 575 881.812C494.033 922.297 413.077 962.806 332.117 1003.31C330.398 1004.17 328.693 1005.05 326.094 1006.38C328.147 1007.57 329.54 1008.47 331.017 1009.21C357.713 1022.57 384.42 1035.9 411.123 1049.24C424.837 1056.09 438.639 1062.77 452.217 1069.88C457.236 1072.51 462.525 1073.46 467.911 1074.41C514.926 1082.76 560.745 1095.23 604.731 1114.03C606.048 1114.6 607.288 1115.34 608.563 1116C606.949 1116 605.334 1116 603.72 1116C597.817 1113.46 591.991 1110.72 585.998 1108.42C538.19 1090.06 488.645 1078.59 438.026 1071.52C405.725 1067.01 373.24 1064.6 340.637 1063.95C284.344 1062.84 228.463 1067.1 173.083 1077.38C134.961 1084.45 97.6187 1094.41 61.3904 1108.33C55.4195 1110.62 49.6462 1113.43 43.7819 1116C42.1674 1116 40.5525 1116 38.9381 1116C45.404 1113.16 51.7479 1109.99 58.3625 1107.55C70.9239 1102.92 83.754 1099.01 96.2513 1094.22C104.507 1091.06 112.477 1087.09 120.402 1083.14C185.666 1050.57 250.889 1017.93 316.121 985.3C317.544 984.588 318.928 983.797 321.026 982.668C319.136 981.6 317.825 980.782 316.45 980.094C264.782 954.25 213.104 928.425 161.436 902.582C111.789 877.751 62.1537 852.896 12.5067 828.064C-35.554 804.027 -83.6224 780.004 -131.688 755.978C-177.156 733.251 -222.623 710.522 -268.102 687.819C-269.668 687.038 -271.365 686.518 -273 685.875C-273 685.23 -273 684.583 -273 683.938C-271.355 684.543 -269.635 684.998 -268.076 685.776C-204.857 717.369 -141.656 748.999 -78.4449 780.607C-39.4788 800.092 -0.482269 819.517 38.4387 839.091C41.4041 840.582 43.6588 840.322 46.4774 838.909C114.561 804.783 182.682 770.73 250.8 736.672C315.167 704.491 379.522 672.288 443.947 640.226C447.608 638.404 449.055 636.435 449.028 632.21C448.828 601.056 448.924 569.899 448.928 538.744C448.928 536.993 448.928 535.242 448.928 533.492C448.647 533.437 448.367 533.382 448.087 533.327C447.718 534.295 447.261 535.239 446.994 536.234C440.97 558.711 429.148 577.936 413.879 595.211C395.302 616.229 373.203 632.899 349.191 647.133C309.747 670.517 267.26 686.477 223.148 698.387C192.267 706.725 160.916 712.702 129.212 716.933C79.6373 723.55 29.8546 725.603 -20.0699 723.324C-81.0557 720.541 -141.121 711.664 -199.822 694.494C-223.228 687.647 -246.153 679.464 -268.452 669.556C-269.856 668.932 -271.478 668.799 -272.999 668.437C-272.999 667.469 -272.999 666.5 -272.999 665.531C-231.065 684.525 -187.293 697.678 -142.221 706.716C-116.736 711.826 -91.0585 715.568 -65.1909 718.154C-33.0303 721.369 -0.806335 722.619 31.4991 722.195C62.3514 721.79 93.099 719.738 123.697 715.833C176.998 709.03 229.176 697.442 279.514 678.299C312.828 665.63 344.589 649.959 373.519 628.951C394.298 613.861 412.849 596.502 427.166 574.98C437.664 559.198 445.052 542.141 447.791 523.262C451.449 498.057 446.304 474.48 434.337 452.241C421.243 427.908 402.453 408.556 380.836 391.768C350.873 368.498 317.419 351.551 282.191 337.929C242.786 322.691 202.084 312.205 160.501 304.935C110.434 296.182 59.9793 292.445 9.19067 292.934C-23.1142 293.244 -55.3179 295.342 -87.3588 299.464C-136.77 305.819 -185.277 316.244 -232.196 333.246C-245.977 338.241 -259.408 344.201 -273 349.719C-273 348.75 -273 347.781 -273 346.813C-271.628 346.493 -270.163 346.383 -268.897 345.823C-230.547 328.828 -190.628 316.805 -149.651 308.132C-144.446 307.03 -139.233 305.941 -133.985 305.077C-129.298 304.307 -125.065 302.532 -120.85 300.416C-77.0252 278.419 -33.1587 256.506 10.6937 234.565C12.2539 233.784 13.7894 232.953 16.094 231.75C13.9952 230.559 12.5518 229.651 11.0342 228.892C-37.8736 204.44 -86.7926 180.009 -135.703 155.561C-179.851 133.493 -223.989 111.406 -268.139 89.3406C-269.722 88.5491 -271.378 87.902 -273 87.1875C-273 86.5419 -273 85.8957 -273 85.25C-271.658 85.7809 -270.267 86.2139 -268.981 86.8562C-227.412 107.623 -185.852 128.408 -144.291 149.192C-91.9076 175.39 -39.5258 201.59 12.8633 227.776C14.2345 228.461 15.6837 228.991 17.6939 229.848C17.6939 222.292 17.6261 215.529 17.7118 208.768C17.8106 200.951 16.4709 202.688 23.737 199.049C80.7237 170.513 137.711 141.977 194.803 113.65C200.575 110.786 205.276 107.693 206.856 101.059C207.332 99.063 208.627 97.2698 209.463 95.3478C209.867 94.4193 210.078 93.4064 210.567 91.8056C207.913 92.4077 205.898 92.8431 203.895 93.3231C183.017 98.3257 161.938 102.291 140.702 105.404C110.817 109.786 80.7775 112.418 50.5902 113.608C15.21 115.002 -20.1048 114.073 -55.3576 111.04C-87.3719 108.286 -119.123 103.647 -150.568 96.9303C-191.073 88.2788 -230.528 76.3705 -268.463 59.6251C-269.914 58.9848 -271.485 58.6186 -273 58.125C-273 57.4794 -273 56.8332 -273 56.1875C-271.628 56.5857 -270.187 56.8288 -268.895 57.4048C-229.535 74.9493 -188.513 87.2161 -146.384 95.9354C-102.684 104.98 -58.5104 109.969 -13.9208 111.731C16.6002 112.936 47.0717 112.439 77.5162 110.353C121.692 107.327 165.371 100.923 208.405 90.3413C211.024 89.6976 213.031 88.8121 214.536 86.2832C227.774 64.0436 245.733 46.112 266.036 30.3558C267.69 29.0717 269.327 27.7649 270.944 26.4333C271.155 26.2589 271.192 25.8719 271.438 25.2674C270.067 24.536 268.685 23.7591 267.271 23.05C254.147 16.4741 241.011 9.92436 227.898 3.32814C225.891 2.31919 223.984 1.11406 222.031 0C223.646 0 225.261 0 226.875 0C228.154 0.894641 229.35 1.95106 230.727 2.65631C237.164 5.95539 243.649 9.16196 250.121 12.3927C258.021 16.337 265.927 20.273 273.803 24.1994C274.539 23.8259 275.131 23.5789 275.669 23.2447C286.996 16.2028 298.323 9.16002 309.628 2.08378C310.539 1.51367 311.297 0.700407 312.126 0C313.418 0 314.709 0 316.001 0C314.182 1.24 312.451 2.63645 310.533 3.69675C284.834 17.904 260.853 34.4323 240.405 55.7007C225.034 71.689 212.414 89.5353 204.961 110.602C192.734 145.16 197.518 177.945 215.932 209.12C228.766 230.849 246.219 248.412 265.96 263.827C293.138 285.047 323.32 300.987 355.109 314.018C397.542 331.412 441.587 343.073 486.705 350.966C514.871 355.893 543.216 359.283 571.728 361.156C606.064 363.413 640.423 363.633 674.806 361.744C707.555 359.945 740.092 356.398 772.372 350.657C822.588 341.725 871.446 328.164 918.051 307.115C921.725 305.455 925.339 303.662 928.966 301.9C929.381 301.699 929.696 301.295 930.375 300.713C929.225 299.96 928.275 299.193 927.209 298.66C876.411 273.261 825.598 247.893 774.798 222.497C721.834 196.02 668.882 169.516 615.922 143.03C556.179 113.151 496.433 83.2791 436.689 53.4038C403.21 36.6624 369.727 19.9277 336.266 3.14844C334.576 2.30078 333.084 1.05884 331.5 0C332.792 0 334.083 0 335.375 0C335.96 0.518282 336.466 1.19302 337.141 1.53208C349.912 7.94327 362.725 14.2711 375.467 20.739C377.485 21.7635 379.053 21.4002 380.881 20.4789C393.071 14.3365 405.298 8.26877 417.492 2.13513C418.612 1.57228 419.585 0.718328 420.626 0C421.918 0 423.209 0 424.501 0C423.214 0.889797 422.011 1.94525 420.627 2.64324C408.962 8.52936 397.26 14.3462 385.576 20.1955C384.144 20.9129 382.746 21.701 380.505 22.8979C382.453 24.0056 383.837 24.879 385.294 25.6084C409.813 37.8883 434.343 50.1488 458.869 62.4166C540.967 103.483 623.06 144.559 705.163 185.615C779.473 222.774 853.793 259.912 928.109 297.059C928.975 297.492 929.807 298.02 930.713 298.339C933.541 299.335 934.571 301.224 934.483 304.244C934.297 310.696 934.428 317.156 934.427 323.613C934.427 331.683 934.41 339.754 934.439 347.825C934.445 349.383 934.629 350.94 934.733 352.539C938.676 351.762 1226.39 208.404 1235.17 202.937C1234.38 200.881 1232.29 200.558 1230.69 199.755C1206.61 187.669 1182.5 175.649 1158.4 163.604C1062.73 115.781 967.055 67.9545 871.382 20.1282C859.693 14.2852 848.001 8.44944 836.334 2.56477C834.93 1.85661 833.671 0.862188 832.345 0.000484375C833.959 0.000484375 835.574 0.000484375 837.188 0.000484375C838.558 0.994422 839.82 2.20342 841.313 2.95178C884.417 24.5501 927.559 46.0714 970.634 67.7282C973.573 69.2061 975.839 69.1194 978.709 67.6784C1021.94 45.9687 1065.23 24.366 1108.48 2.69991C1109.86 2.00822 1111.04 0.909657 1112.31 0.00096875C1113.93 0.00096875 1115.54 0.00096875 1117.16 0.00096875C1115.65 0.90675 1114.2 1.91619 1112.64 2.70184C1095.78 11.1658 1078.91 19.5998 1062.04 28.0322C1035.5 41.2949 1008.95 54.5373 982.438 67.8397C980.851 68.636 978.803 68.993 977.953 70.9682C987.58 76.957 1107.36 136.292 1111.34 136.93C1111.34 135.118 1111.34 133.37 1111.34 131.623C1111.35 118.718 1111.19 105.811 1111.42 92.9104C1111.54 86.3195 1111.89 79.6686 1112.93 73.1707C1116.33 51.8485 1125.58 33.0111 1138.4 15.841C1142.44 10.4262 1146.83 5.27291 1151.06 0C1151.71 0 1152.35 0 1153 0C1152.15 1.29861 1151.45 2.72655 1150.44 3.87742C1136.53 19.6501 1125.2 36.9554 1118.69 57.1292C1109.05 86.9676 1112.31 115.692 1126.07 143.547C1127.19 145.799 1128.99 146.848 1131.03 147.865C1151.24 157.958 1171.44 168.07 1191.64 178.175C1206.21 185.466 1220.74 192.855 1235.4 199.964C1238.52 201.474 1239.49 203.331 1239.44 206.648C1239.26 217.299 1239.51 227.959 1239.29 238.609C1239.22 242.023 1240.39 243.739 1243.46 245.209C1276.31 260.965 1310.55 272.85 1345.79 281.927C1382.41 291.361 1419.58 297.717 1457.2 301.569C1499.68 305.918 1542.25 307.268 1584.87 304.932C1606.77 303.731 1628.6 301.239 1650.45 299.216C1652.64 299.013 1654.9 298.314 1656.88 297.334C1674.95 288.381 1692.97 279.314 1711 270.281C1711 270.927 1711 271.573 1711 272.219C1709.44 273.066 1707.91 273.96 1706.32 274.753C1654.37 300.731 1602.41 326.698 1550.46 352.677C1549.19 353.315 1547.97 354.076 1546.71 354.793C1547.02 355.274 1547.13 355.647 1547.37 355.773C1549.66 356.969 1551.93 358.193 1554.26 359.28C1591.57 376.653 1630.53 389.139 1670.64 398.078C1684.01 401.058 1697.54 403.317 1711 405.906C1711 406.552 1711 407.198 1711 407.844C1710.2 407.763 1709.39 407.734 1708.59 407.593C1685.73 403.538 1663.05 398.692 1640.65 392.527C1609.19 383.867 1578.55 372.984 1549.09 358.888C1547.75 358.248 1546.32 357.807 1544.68 357.173C1544.68 399.967 1544.68 441.995 1544.68 484.257C1546.24 484.388 1547.49 484.571 1548.74 484.585C1593.48 485.102 1637.97 488.522 1682.08 496.127C1691.76 497.795 1701.36 499.906 1711 501.813C1711 502.458 1711 503.105 1711 503.75C1701.52 501.833 1692.09 499.664 1682.56 498.041C1632.79 489.566 1582.63 485.882 1532.17 486.545C1501.49 486.949 1470.92 489.014 1440.45 492.784C1393.89 498.547 1348.18 508.104 1303.65 522.998C1269.42 534.448 1236.51 548.823 1205.91 568.136C1182.7 582.78 1161.5 599.803 1144.17 621.274C1132.71 635.463 1123.56 650.966 1118.19 668.481C1108.9 698.774 1112.62 727.799 1127.24 755.618C1138.93 777.842 1155.54 795.967 1174.78 811.794C1181.5 817.325 1188.73 822.228 1195.61 827.574C1197.98 829.423 1199.98 829.423 1202.61 828.064C1212.63 822.876 1222.82 817.981 1232.85 812.798C1235.66 811.344 1237.95 811.185 1240.91 812.67C1291.37 838.014 1341.89 863.238 1392.4 888.487C1404.96 894.764 1417.5 901.074 1430.09 907.269C1431.93 908.172 1434.01 908.835 1436.04 909.064C1449.66 910.601 1463.28 912.26 1476.95 913.373C1509.48 916.023 1542.08 916.519 1574.68 915.372C1620.57 913.758 1666.04 908.453 1711 899C1711 899.646 1711 900.292 1711 900.937C1692.57 904.094 1674.2 907.7 1655.69 910.304C1624.68 914.668 1593.47 916.925 1562.13 917.528C1522.39 918.293 1482.77 916.646 1443.3 911.855C1442.62 911.773 1441.92 911.845 1441.23 911.845C1442.66 913.541 1444.31 914.463 1446 915.306C1477.01 930.819 1508.01 946.368 1539.08 961.757C1542.01 963.209 1543.09 964.948 1542.96 968.093C1542.75 973.087 1542.86 978.096 1542.9 983.098C1542.91 984.467 1543.16 985.835 1543.33 987.571C1545 986.9 1546.2 986.502 1547.33 985.955C1587.16 966.633 1629 953.226 1672.12 943.658C1685.03 940.796 1698.04 938.414 1711 935.813C1711 936.459 1711 937.105 1711 937.75ZM44.6566 841.926C47.2781 843.313 48.8165 844.166 50.3883 844.952C86.0305 862.776 121.664 880.616 157.347 898.358C159.899 899.626 162.762 900.438 165.573 900.99C202.995 908.346 240.759 912.855 278.853 914.834C320.354 916.991 361.79 916.224 403.149 912.373C435.785 909.333 468.147 904.374 500.134 897.125C547.042 886.495 592.471 871.656 635.234 849.331C658.926 836.961 681.19 822.449 701.01 804.399C718.597 788.383 733.52 770.31 743.385 748.455C755.749 721.067 757.457 693.12 747.543 664.595C741.139 646.17 730.821 630.089 718.021 615.556C693.634 587.868 663.509 567.874 631.011 551.099C629.242 550.186 627.78 550.168 626.036 551.109C622.488 553.024 618.845 554.762 615.237 556.566C525.341 601.515 435.445 646.466 345.547 691.412C247.276 740.543 149.003 789.669 50.7317 838.8C49.0403 839.646 47.3677 840.53 44.6566 841.926ZM932.556 302.562C929.961 303.694 928.521 304.349 927.059 304.956C911.419 311.445 895.998 318.54 880.093 324.298C821.297 345.586 760.349 356.887 698.19 362.021C667.289 364.573 636.326 365.428 605.3 364.52C562.953 363.282 520.926 359.193 479.263 351.517C433.905 343.16 389.661 330.945 347.21 312.713C315.335 299.023 285.181 282.364 258.386 260.09C238.975 243.955 222.181 225.588 210.416 203.018C202.641 188.101 197.738 172.35 196.678 155.481C195.892 142.965 197.107 130.68 200.498 118.592C201.013 116.754 202.267 114.859 201.366 112.694C190.833 116.69 24.4824 200.441 21.8687 203.131C23.6382 204.055 25.3267 204.97 27.0433 205.827C76.2568 230.432 125.477 255.023 174.688 279.632C231.839 308.211 288.978 336.816 346.133 365.388C422.337 403.485 498.552 441.56 574.761 479.647C591.648 488.086 608.554 496.489 625.393 505.024C627.653 506.169 629.468 506.325 631.688 505.046C634.619 503.358 637.741 502.004 640.772 500.488C701.387 470.189 762.003 439.891 822.614 409.585C857.827 391.978 893.013 374.315 928.277 356.811C931.466 355.228 932.691 353.389 932.639 349.811C932.439 336.091 932.557 322.368 932.556 308.645C932.556 306.912 932.556 305.178 932.556 302.562ZM1236.1 527.899C1233.62 526.605 1232.22 525.822 1230.78 525.133C1205.82 513.23 1179.97 503.676 1153.47 495.83C1118.91 485.596 1083.72 478.336 1048.02 473.418C1017.12 469.162 986.098 466.384 954.926 466.003C932.985 465.736 911.005 465.936 889.093 466.979C868.963 467.937 848.849 469.855 828.819 472.152C799.305 475.538 770.138 481.075 741.3 488.264C705.198 497.265 670.096 509.118 636.429 525.056C634.889 525.785 633.425 526.677 631.268 527.851C633.261 528.979 634.577 529.804 635.959 530.495C732.358 578.713 828.799 626.846 925.082 675.295C931.457 678.503 936.121 678.252 942.325 675.134C1038.34 626.87 1134.48 578.867 1230.59 530.798C1232.13 530.029 1233.64 529.199 1236.1 527.899ZM934.637 964.302C936.664 965.38 938.038 966.174 939.465 966.86C957.375 975.466 975.793 982.832 994.611 989.184C1061.64 1011.81 1130.76 1022.75 1201.24 1025.78C1241.61 1027.52 1281.92 1026.35 1322.15 1022.25C1365.42 1017.85 1408.08 1010.21 1449.95 998.337C1478.88 990.132 1507.06 979.943 1534.22 967.004C1535.74 966.28 1537.21 965.437 1539.35 964.306C1537.07 963.044 1535.57 962.146 1534.02 961.366C1519.88 954.283 1505.73 947.225 1491.58 940.152C1408.17 898.437 1324.74 856.739 1241.37 814.935C1238.11 813.298 1235.63 813.44 1232.43 815.057C1195.39 833.721 1158.28 852.23 1121.18 870.778C1060.57 901.089 999.949 931.397 939.336 961.716C937.933 962.416 936.584 963.226 934.637 964.302ZM1540.64 396.332C1538.65 395.291 1537.27 394.514 1535.84 393.832C1506.19 379.674 1475.31 368.87 1443.64 360.283C1412.61 351.872 1381.12 345.78 1349.26 341.551C1324.44 338.258 1299.53 336.141 1274.52 335.041C1224.56 332.844 1174.8 335.175 1125.25 341.878C1085.2 347.297 1045.8 355.71 1007.26 367.966C984.474 375.212 962.195 383.746 940.641 394.124C939.315 394.762 938.072 395.573 936.272 396.599C938.029 397.61 938.972 398.218 939.969 398.717C994.378 425.926 1048.79 453.133 1103.22 480.3C1105.08 481.227 1107.08 481.976 1109.11 482.426C1138.28 488.923 1167 497.037 1194.85 507.897C1208.67 513.284 1222.1 519.643 1235.76 525.434C1238.57 526.627 1239.6 528.375 1239.43 531.359C1239.22 535.06 1239.35 538.783 1239.4 542.496C1239.41 543.723 1239.61 544.948 1239.73 546.2C1244.02 545.388 1533.27 401.333 1540.64 396.332ZM1237.18 332.445C1237.18 289.505 1237.18 247.338 1237.18 204.523C1234.77 205.653 1232.89 206.485 1231.05 207.404C1193.09 226.369 1155.12 245.335 1117.17 264.32C1044.44 300.701 971.721 337.108 898.985 373.479C811.381 417.284 723.756 461.047 636.165 504.877C628.228 508.849 629.648 506.536 629.586 515.646C629.563 518.923 629.218 522.252 630.017 525.881C631.729 525.159 632.914 524.718 634.048 524.17C660.123 511.573 687.206 501.606 714.965 493.482C744.573 484.817 774.661 478.275 805.161 473.577C832.622 469.346 860.207 466.372 887.957 465.065C901.014 464.449 914.092 464.279 927.16 463.881C928.855 463.829 930.546 463.626 932.598 463.465C932.598 461.02 932.598 459.108 932.598 457.195C932.598 438.306 932.671 419.417 932.529 400.529C932.504 397.16 933.519 395.227 936.685 393.877C946.624 389.638 956.335 384.847 966.347 380.795C1027.27 356.143 1090.9 342.893 1156.07 336.391C1181.29 333.874 1206.61 332.593 1231.97 332.446C1233.55 332.437 1235.14 332.445 1237.18 332.445ZM450.777 636.626C458.251 632.921 464.597 629.798 470.924 626.636C521.429 601.396 571.911 576.109 622.471 550.981C626.264 549.096 628.009 547.074 627.822 542.594C627.425 533.088 627.469 523.545 627.81 514.034C627.965 509.702 626.56 507.509 622.628 505.56C578.836 483.852 535.155 461.92 491.437 440.064C451.758 420.227 412.071 400.408 372.383 380.591C370.935 379.868 369.431 379.255 367.953 378.591C367.797 378.908 367.64 379.226 367.484 379.543C369.155 380.77 370.813 382.014 372.498 383.221C389.895 395.683 405.851 409.71 419.319 426.423C440.176 452.304 451.633 481.273 450.945 515.122C450.165 553.519 450.773 591.944 450.777 630.357C450.777 632.083 450.777 633.807 450.777 636.626ZM629.581 529.678C629.581 535.032 629.775 539.541 629.516 544.024C629.332 547.221 630.452 548.927 633.357 550.368C646.963 557.12 659.99 564.896 672.517 573.489C694.088 588.287 713.612 605.307 729.183 626.499C746.594 650.196 756.409 676.366 755.866 706.223C755.399 731.885 755.777 757.562 755.781 783.233C755.781 784.933 755.781 786.635 755.781 789.153C758.35 787.967 760.082 787.224 761.766 786.383C805.932 764.303 850.094 742.214 894.256 720.127C905.947 714.28 917.605 708.368 929.353 702.639C931.73 701.48 932.767 700.073 932.61 697.435C932.428 694.378 932.638 691.301 932.569 688.235C932.375 679.64 934 681.612 925.787 677.494C885.112 657.095 844.393 636.784 803.692 616.436C747.404 588.294 691.119 560.145 634.828 532.01C633.416 531.305 631.941 530.723 629.581 529.678ZM1111.33 789.109C1111.33 786.353 1111.33 784.591 1111.33 782.83C1111.33 756.2 1111.43 729.569 1111.3 702.94C1111.21 685.025 1115.1 668.063 1122.66 651.894C1132.96 629.883 1148.23 611.692 1166.16 595.584C1185.73 578.005 1207.65 563.866 1230.87 551.651C1233 550.531 1235.12 549.383 1237.52 548.094C1237.52 543.046 1237.54 538.061 1237.51 533.078C1237.5 532.163 1237.29 531.25 1237.12 529.919C1235.5 530.598 1234.18 531.074 1232.92 531.698C1220.21 538.021 1207.51 544.36 1194.82 550.71C1127.59 584.336 1060.37 617.97 993.138 651.595C974.815 660.759 956.505 669.949 938.127 679.001C935.467 680.311 934.175 681.863 934.387 684.909C934.621 688.283 934.783 691.727 934.366 695.063C933.785 699.714 935.932 701.82 939.884 703.785C995.353 731.358 1050.74 759.094 1106.15 786.781C1107.54 787.479 1109 788.065 1111.33 789.109ZM1542.56 394.855C1542.56 392.316 1542.56 390.731 1542.56 389.147C1542.57 379.945 1542.51 370.744 1542.59 361.543C1542.65 353.565 1541.32 355.203 1548.8 351.451C1579.67 335.979 1610.57 320.568 1641.45 305.123C1642.96 304.371 1644.41 303.517 1645.89 302.71C1643.8 301.991 1641.94 302.13 1640.08 302.303C1629.32 303.309 1618.56 304.431 1607.79 305.313C1572.02 308.242 1536.2 308.638 1500.37 306.772C1459.71 304.655 1419.37 299.849 1379.47 291.602C1332.53 281.902 1286.96 268.043 1243.65 247.258C1242.55 246.729 1241.35 246.409 1240.16 245.979C1238.96 251.124 1239.1 328.461 1240.37 332.438C1242 332.438 1243.76 332.396 1245.51 332.445C1258.26 332.798 1271.02 332.888 1283.75 333.586C1324.25 335.808 1364.43 340.648 1404.15 348.948C1447.87 358.082 1490.42 370.891 1531.1 389.549C1534.59 391.148 1538.06 392.771 1542.56 394.855ZM583.686 875.43C448.59 922.058 310.776 928.16 170.682 904.575C172.007 905.618 173.453 906.48 174.955 907.231C207.552 923.546 240.153 939.851 272.757 956.153C288.337 963.943 303.865 971.843 319.546 979.425C323.235 981.208 325.003 983.237 324.63 987.471C324.249 991.794 324.523 996.178 324.571 1000.53C324.584 1001.73 324.817 1002.93 325.019 1004.76C411.589 961.478 497.638 918.454 583.686 875.43ZM19.7709 290.626C21.4236 290.765 22.8215 290.967 24.2223 290.988C51.1696 291.397 78.0659 292.647 104.888 295.417C133.465 298.366 161.819 302.683 189.897 308.77C216.868 314.617 243.439 321.893 269.428 331.231C270.78 331.717 272.204 332.005 273.595 332.386C267.899 327.633 23.2681 205.788 19.7709 205.299C19.7709 233.645 19.7709 261.974 19.7709 290.626ZM1288.45 525.059C1288.58 525.412 1288.7 525.766 1288.83 526.12C1370.7 496.863 1455.49 485.292 1542.27 484.529C1542.27 455.661 1542.27 427.362 1542.27 398.142C1457.26 440.651 1372.85 482.855 1288.45 525.059ZM322.481 984.183C253.404 1018.72 185.168 1052.85 116.931 1086.97C117.058 1087.36 117.185 1087.76 117.312 1088.15C184.443 1070.09 252.905 1062.34 322.482 1061.83C322.481 1035.87 322.481 1010.6 322.481 984.183ZM1094.52 479.312C1094.62 478.926 1094.71 478.54 1094.81 478.155C1041.69 451.597 988.56 425.038 935.284 398.404C934.006 404.112 934.265 460.168 935.557 463.855C988.938 463.855 1041.99 468.932 1094.52 479.312ZM17.4328 233.982C11.1297 235.898 -115.083 299.311 -117.95 302.12C-72.877 294.6 -27.9585 291.294 17.4328 290.936C17.4328 271.645 17.4328 252.992 17.4328 233.982ZM324.82 1061.85C366.411 1062.15 407.4 1065.06 448.162 1071.08C448.249 1070.71 448.336 1070.34 448.423 1069.96C407.423 1049.47 366.422 1028.97 324.82 1008.17C324.82 1026.41 324.82 1043.75 324.82 1061.85ZM1113.37 726.572C1113.3 727.358 1113.16 728.144 1113.16 728.93C1113.15 748.279 1113.24 767.629 1113.05 786.977C1113.02 790.15 1114.73 791.129 1116.96 792.242C1141.76 804.615 1166.55 817.019 1191.35 829.397C1192.73 830.081 1194.18 830.607 1195.59 831.206C1195.76 830.917 1195.93 830.627 1196.09 830.337C1194.89 829.428 1193.69 828.519 1192.49 827.608C1186.07 822.736 1179.48 818.079 1173.27 812.952C1154.47 797.422 1138.25 779.647 1126.46 758.105C1121.01 748.157 1117.1 737.623 1113.37 726.572ZM753.803 726.681C753.556 726.689 753.309 726.696 753.062 726.704C752.746 727.603 752.363 728.485 752.124 729.405C746.829 749.76 736.594 767.51 723.375 783.647C708.75 801.5 691.33 816.259 672.377 829.294C671.429 829.946 670.59 830.756 669.699 831.493C669.86 831.721 670.02 831.948 670.18 832.176C698.07 818.23 725.96 804.284 753.802 790.362C753.803 768.857 753.803 747.769 753.803 726.681ZM1113.8 116.921C1113.59 116.94 1113.39 116.96 1113.19 116.979C1113.19 123.696 1113.16 130.414 1113.23 137.13C1113.23 137.842 1113.6 138.908 1114.13 139.195C1117.1 140.799 1119.85 143.02 1123.38 143.315C1120.11 134.329 1116.96 125.626 1113.8 116.921Z" fill="url(#paint0_linear_18468_33851)" fill-opacity="0.2"/>
<defs>
<linearGradient id="paint0_linear_18468_33851" x1="738.5" y1="380.5" x2="729.5" y2="989" gradientUnits="userSpaceOnUse">
<stop stop-color="white" stop-opacity="0"/>
<stop offset="1" stop-color="#DDDDDD"/>
</linearGradient>
</defs>
</svg>
