<svg width="1392" height="1116" viewBox="0 0 1392 1116" fill="none" xmlns="http://www.w3.org/2000/svg">
<path d="M1625 937.75C1610.62 940.647 1596.15 943.203 1581.86 946.502C1532.76 957.837 1485.37 973.91 1441.19 998.57C1414.97 1013.21 1390.77 1030.54 1370.44 1052.86C1356.05 1068.65 1344.54 1086.23 1337.81 1106.68C1336.81 1109.73 1336.16 1112.89 1335.34 1116C1334.7 1116 1334.05 1116 1333.41 1116C1333.58 1115.05 1333.69 1114.09 1333.94 1113.16C1339.22 1093.16 1349.21 1075.65 1362.13 1059.68C1363.61 1057.86 1365.11 1056.06 1366.6 1054.25C1364.62 1054.16 1363.19 1054.71 1361.82 1055.39C1327.79 1072.38 1293.76 1089.37 1259.76 1106.41C1253.58 1109.5 1247.5 1112.8 1241.38 1116C1240.08 1116 1238.79 1116 1237.5 1116C1238.84 1115.15 1240.11 1114.17 1241.52 1113.47C1283.08 1092.68 1324.63 1071.88 1366.25 1051.2C1370.68 1049 1374.27 1046.01 1377.77 1042.59C1394.12 1026.6 1412.48 1013.2 1432.18 1001.64C1438.58 997.885 1445.08 994.287 1451.67 990.88C1454.19 989.58 1455.16 988.031 1455.08 985.222C1454.89 979.145 1455.02 973.058 1455.02 966.36C1453.16 967.004 1451.96 967.291 1450.88 967.809C1407.25 988.697 1361.37 1002.64 1314.09 1012.34C1278.78 1019.59 1243.12 1024.19 1207.18 1026.54C1173 1028.78 1138.8 1028.96 1104.57 1027.08C1075.7 1025.5 1046.97 1022.59 1018.44 1017.95C961.82 1008.72 906.831 993.876 854.676 969.513C851.762 968.152 848.935 966.599 846.087 965.099C845.855 964.977 845.768 964.578 845.264 963.697C932.312 920.04 1019.44 876.644 1107.15 832.673C1105.18 831.558 1103.98 830.805 1102.72 830.175C1018.88 788.236 935.018 746.329 851.225 704.29C848.096 702.72 845.863 703.383 843.161 704.737C801.617 725.559 760.052 746.336 718.486 767.113C641.992 805.349 565.489 843.567 489.001 881.812C408.033 922.297 327.077 962.806 246.117 1003.31C244.398 1004.17 242.693 1005.05 240.094 1006.38C242.147 1007.57 243.54 1008.47 245.017 1009.21C271.713 1022.57 298.42 1035.9 325.123 1049.24C338.837 1056.09 352.639 1062.77 366.217 1069.88C371.236 1072.51 376.525 1073.46 381.911 1074.41C428.926 1082.76 474.745 1095.23 518.731 1114.03C520.048 1114.6 521.288 1115.34 522.563 1116C520.949 1116 519.334 1116 517.72 1116C511.817 1113.46 505.991 1110.72 499.998 1108.42C452.19 1090.06 402.645 1078.59 352.027 1071.52C319.725 1067.01 287.24 1064.6 254.637 1063.95C198.344 1062.84 142.463 1067.1 87.0829 1077.38C48.9611 1084.45 11.6187 1094.41 -24.6096 1108.33C-30.5805 1110.62 -36.3538 1113.43 -42.2181 1116C-43.8326 1116 -45.4475 1116 -47.0619 1116C-40.596 1113.16 -34.2521 1109.99 -27.6375 1107.55C-15.0762 1102.92 -2.24603 1099.01 10.2513 1094.22C18.507 1091.06 26.4769 1087.09 34.4018 1083.14C99.6656 1050.57 164.889 1017.93 230.121 985.3C231.544 984.588 232.928 983.797 235.026 982.668C233.136 981.6 231.825 980.782 230.45 980.094C178.782 954.25 127.104 928.425 75.4356 902.582C25.7886 877.751 -23.8463 852.896 -73.4933 828.064C-121.554 804.027 -169.622 780.004 -217.688 755.978C-263.156 733.251 -308.623 710.522 -354.102 687.819C-355.668 687.038 -357.365 686.518 -359 685.875C-359 685.23 -359 684.583 -359 683.938C-357.355 684.543 -355.635 684.998 -354.076 685.776C-290.857 717.369 -227.656 748.999 -164.445 780.607C-125.479 800.092 -86.4823 819.517 -47.5613 839.091C-44.5959 840.582 -42.3412 840.322 -39.5226 838.909C28.5612 804.783 96.6818 770.73 164.8 736.672C229.167 704.491 293.522 672.288 357.947 640.226C361.608 638.404 363.055 636.435 363.028 632.21C362.829 601.056 362.924 569.899 362.928 538.744C362.928 536.993 362.928 535.242 362.928 533.492C362.647 533.437 362.367 533.382 362.087 533.327C361.718 534.295 361.261 535.239 360.994 536.234C354.97 558.711 343.148 577.936 327.879 595.211C309.302 616.229 287.203 632.899 263.191 647.133C223.747 670.517 181.26 686.477 137.148 698.387C106.267 706.725 74.9159 712.702 43.2121 716.933C-6.36275 723.55 -56.1454 725.603 -106.07 723.324C-167.056 720.541 -227.121 711.664 -285.822 694.494C-309.228 687.647 -332.153 679.464 -354.452 669.556C-355.856 668.932 -357.478 668.799 -358.999 668.437C-358.999 667.469 -358.999 666.5 -358.999 665.531C-317.065 684.525 -273.293 697.678 -228.221 706.716C-202.736 711.826 -177.059 715.568 -151.191 718.154C-119.03 721.369 -86.8063 722.619 -54.5009 722.195C-23.6486 721.79 7.09902 719.738 37.697 715.833C90.9976 709.03 143.176 697.442 193.514 678.299C226.828 665.63 258.589 649.959 287.519 628.951C308.298 613.861 326.849 596.502 341.166 574.98C351.664 559.198 359.052 542.141 361.791 523.262C365.449 498.057 360.304 474.48 348.337 452.241C335.243 427.908 316.453 408.556 294.836 391.768C264.873 368.498 231.419 351.551 196.191 337.929C156.786 322.691 116.084 312.205 74.5008 304.935C24.4338 296.182 -26.0206 292.445 -76.8093 292.934C-109.114 293.244 -141.318 295.342 -173.359 299.464C-222.77 305.819 -271.277 316.244 -318.196 333.246C-331.977 338.241 -345.408 344.201 -359 349.719C-359 348.75 -359 347.781 -359 346.813C-357.628 346.493 -356.163 346.383 -354.897 345.823C-316.547 328.828 -276.628 316.805 -235.651 308.132C-230.446 307.03 -225.233 305.941 -219.985 305.077C-215.298 304.307 -211.065 302.532 -206.85 300.416C-163.025 278.419 -119.159 256.506 -75.3063 234.565C-73.7461 233.784 -72.2106 232.953 -69.906 231.75C-72.0048 230.559 -73.4482 229.651 -74.9658 228.892C-123.874 204.44 -172.793 180.009 -221.703 155.561C-265.851 133.493 -309.989 111.406 -354.139 89.3406C-355.722 88.5491 -357.378 87.902 -359 87.1875C-359 86.5419 -359 85.8957 -359 85.25C-357.658 85.7809 -356.267 86.2139 -354.981 86.8562C-313.412 107.623 -271.852 128.408 -230.291 149.192C-177.908 175.39 -125.526 201.59 -73.1368 227.776C-71.7655 228.461 -70.3162 228.991 -68.3061 229.848C-68.3061 222.292 -68.3739 215.529 -68.2882 208.768C-68.1894 200.951 -69.5292 202.688 -62.263 199.049C-5.27629 170.513 51.7114 141.977 108.803 113.65C114.575 110.786 119.276 107.693 120.856 101.059C121.332 99.063 122.627 97.2698 123.463 95.3478C123.867 94.4193 124.078 93.4064 124.567 91.8056C121.913 92.4076 119.898 92.8431 117.895 93.3231C97.017 98.3257 75.9384 102.291 54.7024 105.404C24.8174 109.786 -5.22252 112.418 -35.4097 113.608C-70.79 115.002 -106.105 114.073 -141.358 111.04C-173.372 108.286 -205.123 103.647 -236.568 96.9303C-277.073 88.2788 -316.528 76.3705 -354.463 59.6251C-355.914 58.9848 -357.485 58.6186 -359 58.125C-359 57.4794 -359 56.8332 -359 56.1875C-357.628 56.5857 -356.187 56.8288 -354.895 57.4048C-315.535 74.9493 -274.513 87.2161 -232.384 95.9354C-188.684 104.98 -144.51 109.969 -99.9208 111.731C-69.3998 112.936 -38.9283 112.439 -8.48382 110.353C35.6922 107.327 79.3712 100.923 122.405 90.3413C125.024 89.6976 127.031 88.8121 128.536 86.2832C141.774 64.0436 159.733 46.112 180.036 30.3558C181.69 29.0717 183.327 27.7649 184.944 26.4333C185.155 26.2589 185.192 25.8719 185.438 25.2674C184.067 24.536 182.686 23.7591 181.271 23.05C168.147 16.4741 155.011 9.92436 141.898 3.32814C139.891 2.31919 137.984 1.11406 136.031 0C137.646 0 139.261 0 140.875 0C142.154 0.894641 143.35 1.95106 144.727 2.65631C151.164 5.95539 157.649 9.16196 164.121 12.3927C172.021 16.337 179.927 20.273 187.803 24.1994C188.539 23.8259 189.131 23.5789 189.669 23.2447C200.996 16.2028 212.322 9.16002 223.628 2.08378C224.539 1.51367 225.297 0.700407 226.126 0C227.418 0 228.709 0 230.001 0C228.182 1.24 226.451 2.63645 224.533 3.69675C198.834 17.904 174.853 34.4323 154.405 55.7007C139.034 71.689 126.414 89.5353 118.961 110.602C106.734 145.16 111.518 177.945 129.932 209.12C142.766 230.849 160.219 248.412 179.96 263.827C207.138 285.047 237.32 300.987 269.109 314.018C311.542 331.412 355.587 343.073 400.705 350.966C428.871 355.893 457.216 359.283 485.728 361.156C520.064 363.413 554.423 363.633 588.806 361.744C621.555 359.945 654.092 356.398 686.372 350.657C736.587 341.725 785.446 328.164 832.05 307.115C835.725 305.455 839.339 303.662 842.966 301.9C843.381 301.699 843.696 301.295 844.375 300.713C843.225 299.96 842.275 299.193 841.209 298.66C790.411 273.261 739.598 247.893 688.798 222.497C635.834 196.02 582.882 169.516 529.922 143.03C470.179 113.151 410.433 83.2791 350.689 53.4038C317.21 36.6624 283.727 19.9277 250.266 3.14844C248.576 2.30078 247.084 1.05884 245.5 0C246.792 0 248.083 0 249.375 0C249.96 0.518281 250.466 1.19302 251.141 1.53208C263.912 7.94327 276.725 14.2711 289.467 20.739C291.485 21.7635 293.053 21.4002 294.881 20.4789C307.071 14.3365 319.298 8.26877 331.492 2.13513C332.612 1.57228 333.585 0.718328 334.626 0C335.918 0 337.209 0 338.501 0C337.214 0.889797 336.011 1.94525 334.627 2.64324C322.962 8.52936 311.26 14.3462 299.576 20.1955C298.144 20.9129 296.746 21.701 294.505 22.8979C296.453 24.0056 297.837 24.879 299.294 25.6084C323.813 37.8883 348.343 50.1488 372.869 62.4166C454.967 103.483 537.06 144.559 619.163 185.615C693.473 222.774 767.793 259.912 842.109 297.059C842.975 297.492 843.807 298.02 844.713 298.339C847.541 299.335 848.571 301.224 848.483 304.244C848.297 310.696 848.428 317.156 848.427 323.613C848.427 331.683 848.41 339.754 848.439 347.825C848.445 349.383 848.629 350.941 848.733 352.539C852.676 351.762 1140.39 208.404 1149.17 202.937C1148.38 200.881 1146.29 200.558 1144.69 199.755C1120.61 187.669 1096.5 175.649 1072.4 163.604C976.728 115.781 881.055 67.9545 785.382 20.1282C773.693 14.2852 762.001 8.44944 750.334 2.56477C748.93 1.85661 747.671 0.862188 746.345 0.000484375C747.959 0.000484375 749.574 0.000484375 751.188 0.000484375C752.558 0.994422 753.82 2.20342 755.313 2.95178C798.417 24.5501 841.559 46.0714 884.634 67.7282C887.573 69.2061 889.839 69.1194 892.709 67.6784C935.942 45.9687 979.229 24.366 1022.48 2.69991C1023.86 2.00822 1025.04 0.909657 1026.31 0.00096875C1027.93 0.00096875 1029.54 0.00096875 1031.16 0.00096875C1029.65 0.90675 1028.2 1.91619 1026.64 2.70184C1009.78 11.1658 992.909 19.5998 976.036 28.0322C949.5 41.2949 922.954 54.5373 896.438 67.8397C894.851 68.636 892.803 68.993 891.953 70.9682C901.58 76.957 1021.36 136.292 1025.34 136.93C1025.34 135.118 1025.34 133.37 1025.34 131.623C1025.35 118.718 1025.19 105.811 1025.42 92.9104C1025.54 86.3195 1025.89 79.6686 1026.93 73.1707C1030.33 51.8485 1039.58 33.0111 1052.4 15.841C1056.44 10.4262 1060.83 5.27291 1065.06 0C1065.71 0 1066.35 0 1067 0C1066.15 1.29861 1065.45 2.72655 1064.44 3.87742C1050.53 19.6501 1039.2 36.9554 1032.69 57.1291C1023.05 86.9676 1026.31 115.692 1040.07 143.547C1041.19 145.799 1042.99 146.848 1045.03 147.865C1065.24 157.958 1085.44 168.07 1105.64 178.175C1120.21 185.466 1134.74 192.855 1149.4 199.964C1152.52 201.474 1153.49 203.331 1153.44 206.648C1153.26 217.299 1153.51 227.959 1153.29 238.609C1153.22 242.023 1154.39 243.739 1157.46 245.209C1190.31 260.965 1224.55 272.85 1259.79 281.927C1296.41 291.361 1333.58 297.717 1371.2 301.569C1413.68 305.918 1456.25 307.268 1498.87 304.932C1520.77 303.731 1542.6 301.239 1564.45 299.216C1566.64 299.013 1568.9 298.314 1570.88 297.334C1588.95 288.381 1606.97 279.314 1625 270.281C1625 270.927 1625 271.573 1625 272.219C1623.44 273.066 1621.91 273.96 1620.32 274.753C1568.37 300.731 1516.41 326.698 1464.46 352.677C1463.19 353.315 1461.97 354.076 1460.71 354.793C1461.02 355.274 1461.13 355.647 1461.37 355.773C1463.66 356.969 1465.93 358.193 1468.26 359.28C1505.57 376.653 1544.53 389.139 1584.64 398.078C1598.01 401.058 1611.54 403.317 1625 405.906C1625 406.552 1625 407.198 1625 407.844C1624.2 407.763 1623.39 407.734 1622.59 407.593C1599.73 403.538 1577.05 398.692 1554.65 392.528C1523.19 383.867 1492.55 372.984 1463.09 358.888C1461.75 358.248 1460.32 357.807 1458.68 357.173C1458.68 399.967 1458.68 441.995 1458.68 484.257C1460.24 484.388 1461.49 484.571 1462.74 484.585C1507.48 485.102 1551.97 488.522 1596.08 496.127C1605.76 497.795 1615.36 499.906 1625 501.813C1625 502.458 1625 503.105 1625 503.75C1615.52 501.833 1606.09 499.664 1596.56 498.041C1546.79 489.566 1496.63 485.882 1446.17 486.545C1415.49 486.949 1384.92 489.014 1354.45 492.784C1307.89 498.547 1262.18 508.104 1217.65 522.998C1183.42 534.448 1150.51 548.823 1119.91 568.136C1096.7 582.78 1075.5 599.803 1058.17 621.274C1046.71 635.463 1037.56 650.966 1032.19 668.481C1022.9 698.774 1026.62 727.799 1041.24 755.618C1052.93 777.842 1069.54 795.967 1088.78 811.794C1095.5 817.325 1102.73 822.228 1109.61 827.574C1111.98 829.423 1113.98 829.423 1116.61 828.064C1126.63 822.876 1136.82 817.981 1146.85 812.798C1149.66 811.344 1151.95 811.185 1154.91 812.67C1205.37 838.014 1255.89 863.238 1306.4 888.488C1318.96 894.764 1331.5 901.074 1344.09 907.269C1345.93 908.172 1348.01 908.835 1350.04 909.064C1363.66 910.601 1377.28 912.26 1390.95 913.373C1423.48 916.023 1456.08 916.519 1488.68 915.372C1534.57 913.758 1580.04 908.453 1625 899C1625 899.646 1625 900.292 1625 900.937C1606.57 904.094 1588.2 907.7 1569.69 910.304C1538.68 914.668 1507.47 916.925 1476.13 917.528C1436.39 918.293 1396.77 916.646 1357.3 911.855C1356.62 911.773 1355.92 911.845 1355.23 911.845C1356.66 913.541 1358.31 914.463 1360 915.306C1391.01 930.819 1422.01 946.368 1453.08 961.757C1456.01 963.209 1457.09 964.949 1456.96 968.093C1456.75 973.087 1456.86 978.096 1456.9 983.098C1456.91 984.467 1457.16 985.835 1457.33 987.571C1459 986.9 1460.2 986.502 1461.33 985.955C1501.16 966.633 1543 953.226 1586.12 943.658C1599.03 940.796 1612.04 938.414 1625 935.813C1625 936.459 1625 937.105 1625 937.75ZM-41.3433 841.926C-38.7219 843.313 -37.1835 844.166 -35.6117 844.952C0.0305365 862.776 35.6641 880.616 71.347 898.358C73.8987 899.626 76.7618 900.438 79.5732 900.99C116.996 908.346 154.759 912.855 192.853 914.834C234.354 916.991 275.79 916.224 317.149 912.373C349.785 909.333 382.147 904.374 414.134 897.125C461.042 886.495 506.471 871.656 549.234 849.331C572.926 836.961 595.19 822.449 615.01 804.399C632.597 788.383 647.52 770.31 657.385 748.455C669.749 721.067 671.457 693.12 661.543 664.595C655.139 646.17 644.821 630.089 632.021 615.556C607.634 587.868 577.509 567.874 545.011 551.099C543.242 550.186 541.779 550.168 540.036 551.109C536.488 553.024 532.845 554.762 529.237 556.566C439.341 601.515 349.445 646.466 259.547 691.412C161.276 740.543 63.0027 789.669 -35.2683 838.8C-36.9598 839.646 -38.6323 840.529 -41.3433 841.926ZM846.556 302.562C843.961 303.694 842.521 304.349 841.059 304.956C825.419 311.445 809.998 318.54 794.093 324.298C735.298 345.586 674.349 356.887 612.19 362.021C581.289 364.573 550.326 365.428 519.3 364.52C476.953 363.282 434.926 359.193 393.263 351.517C347.905 343.16 303.661 330.945 261.21 312.713C229.335 299.023 199.181 282.364 172.386 260.09C152.975 243.955 136.181 225.588 124.416 203.018C116.641 188.101 111.738 172.35 110.678 155.481C109.892 142.965 111.107 130.68 114.498 118.592C115.013 116.754 116.267 114.859 115.366 112.694C104.833 116.69 -61.5176 200.441 -64.1313 203.131C-62.3618 204.055 -60.6733 204.97 -58.9567 205.827C-9.74321 230.432 39.4766 255.023 88.6877 279.632C145.839 308.211 202.978 336.816 260.133 365.388C336.337 403.485 412.552 441.56 488.761 479.647C505.648 488.086 522.554 496.489 539.393 505.024C541.653 506.169 543.468 506.325 545.688 505.046C548.619 503.358 551.741 502.004 554.772 500.488C615.387 470.189 676.003 439.891 736.614 409.585C771.827 391.978 807.013 374.315 842.277 356.811C845.466 355.228 846.691 353.389 846.639 349.811C846.439 336.091 846.557 322.368 846.556 308.645C846.556 306.912 846.556 305.178 846.556 302.562ZM1150.1 527.899C1147.62 526.605 1146.22 525.822 1144.78 525.133C1119.82 513.23 1093.97 503.676 1067.47 495.83C1032.91 485.596 997.72 478.336 962.016 473.418C931.119 469.162 900.098 466.384 868.926 466.003C846.985 465.736 825.005 465.936 803.093 466.979C782.963 467.937 762.849 469.855 742.819 472.152C713.305 475.538 684.138 481.075 655.3 488.264C619.198 497.265 584.096 509.118 550.429 525.056C548.889 525.785 547.425 526.677 545.268 527.851C547.261 528.979 548.577 529.804 549.959 530.495C646.358 578.713 742.799 626.846 839.082 675.295C845.457 678.503 850.121 678.252 856.325 675.134C952.336 626.87 1048.48 578.867 1144.59 530.798C1146.13 530.029 1147.64 529.199 1150.1 527.899ZM848.637 964.302C850.664 965.38 852.038 966.174 853.465 966.86C871.375 975.466 889.793 982.832 908.611 989.184C975.636 1011.81 1044.76 1022.75 1115.24 1025.78C1155.61 1027.52 1195.92 1026.35 1236.15 1022.25C1279.42 1017.85 1322.08 1010.21 1363.95 998.337C1392.88 990.132 1421.06 979.943 1448.22 967.004C1449.74 966.28 1451.21 965.437 1453.35 964.306C1451.07 963.044 1449.57 962.145 1448.02 961.366C1433.88 954.283 1419.73 947.225 1405.58 940.152C1322.17 898.437 1238.74 856.739 1155.37 814.935C1152.11 813.298 1149.63 813.44 1146.43 815.057C1109.39 833.721 1072.28 852.23 1035.18 870.778C974.567 901.089 913.949 931.397 853.336 961.716C851.933 962.416 850.584 963.226 848.637 964.302ZM1454.64 396.332C1452.65 395.291 1451.27 394.514 1449.84 393.832C1420.19 379.674 1389.31 368.87 1357.64 360.283C1326.61 351.872 1295.12 345.78 1263.26 341.551C1238.44 338.258 1213.53 336.141 1188.52 335.041C1138.56 332.844 1088.8 335.175 1039.25 341.878C999.198 347.297 959.801 355.71 921.258 367.966C898.474 375.212 876.195 383.746 854.641 394.124C853.315 394.762 852.072 395.573 850.272 396.599C852.029 397.61 852.972 398.218 853.97 398.717C908.378 425.926 962.789 453.133 1017.22 480.3C1019.08 481.227 1021.08 481.976 1023.11 482.426C1052.28 488.923 1081 497.037 1108.85 507.897C1122.67 513.284 1136.1 519.643 1149.76 525.434C1152.57 526.627 1153.6 528.375 1153.43 531.359C1153.22 535.06 1153.35 538.783 1153.4 542.496C1153.41 543.723 1153.61 544.948 1153.73 546.2C1158.02 545.388 1447.27 401.333 1454.64 396.332ZM1151.18 332.445C1151.18 289.505 1151.18 247.338 1151.18 204.523C1148.77 205.653 1146.89 206.485 1145.05 207.404C1107.09 226.369 1069.12 245.335 1031.17 264.32C958.438 300.701 885.721 337.108 812.985 373.479C725.381 417.284 637.756 461.047 550.165 504.877C542.228 508.849 543.648 506.536 543.586 515.647C543.563 518.923 543.218 522.252 544.017 525.881C545.729 525.159 546.914 524.718 548.048 524.17C574.123 511.573 601.206 501.606 628.965 493.482C658.573 484.817 688.661 478.275 719.161 473.577C746.622 469.346 774.207 466.372 801.957 465.065C815.014 464.449 828.092 464.278 841.16 463.881C842.856 463.829 844.546 463.626 846.598 463.465C846.598 461.02 846.598 459.108 846.598 457.195C846.598 438.306 846.67 419.417 846.529 400.529C846.504 397.16 847.519 395.227 850.685 393.877C860.624 389.638 870.335 384.847 880.347 380.795C941.27 356.143 1004.9 342.893 1070.07 336.391C1095.29 333.874 1120.61 332.593 1145.97 332.446C1147.55 332.437 1149.14 332.445 1151.18 332.445ZM364.777 636.626C372.251 632.921 378.597 629.798 384.924 626.636C435.429 601.396 485.911 576.109 536.471 550.981C540.264 549.096 542.009 547.074 541.822 542.594C541.425 533.088 541.469 523.545 541.81 514.034C541.965 509.702 540.56 507.509 536.628 505.56C492.836 483.852 449.155 461.92 405.437 440.064C365.758 420.227 326.071 400.408 286.383 380.591C284.935 379.868 283.431 379.255 281.953 378.591C281.797 378.908 281.64 379.226 281.484 379.543C283.155 380.77 284.813 382.014 286.498 383.221C303.895 395.683 319.851 409.71 333.319 426.423C354.176 452.304 365.633 481.273 364.945 515.122C364.165 553.519 364.773 591.944 364.777 630.357C364.777 632.083 364.777 633.807 364.777 636.626ZM543.581 529.678C543.581 535.032 543.775 539.541 543.516 544.024C543.332 547.221 544.452 548.927 547.357 550.368C560.963 557.12 573.99 564.896 586.517 573.489C608.088 588.287 627.612 605.307 643.183 626.499C660.594 650.196 670.409 676.366 669.866 706.223C669.399 731.885 669.777 757.562 669.781 783.233C669.781 784.933 669.781 786.635 669.781 789.153C672.35 787.967 674.082 787.224 675.765 786.383C719.932 764.303 764.094 742.214 808.256 720.127C819.947 714.28 831.605 708.368 843.353 702.639C845.73 701.48 846.767 700.073 846.61 697.435C846.428 694.378 846.638 691.301 846.569 688.235C846.375 679.64 848 681.612 839.787 677.494C799.112 657.095 758.393 636.784 717.692 616.436C661.404 588.294 605.119 560.145 548.828 532.01C547.416 531.305 545.941 530.723 543.581 529.678ZM1025.33 789.109C1025.33 786.353 1025.33 784.591 1025.33 782.83C1025.33 756.2 1025.43 729.569 1025.3 702.94C1025.21 685.025 1029.1 668.063 1036.66 651.894C1046.96 629.883 1062.23 611.692 1080.16 595.584C1099.73 578.005 1121.65 563.866 1144.87 551.651C1147 550.531 1149.12 549.383 1151.52 548.094C1151.52 543.046 1151.54 538.061 1151.51 533.078C1151.5 532.163 1151.29 531.25 1151.12 529.919C1149.5 530.598 1148.18 531.074 1146.92 531.698C1134.21 538.021 1121.51 544.36 1108.82 550.71C1041.59 584.336 974.366 617.97 907.138 651.595C888.815 660.759 870.505 669.949 852.127 679.001C849.467 680.311 848.175 681.863 848.387 684.909C848.621 688.283 848.783 691.727 848.366 695.063C847.785 699.714 849.932 701.82 853.884 703.785C909.353 731.358 964.739 759.094 1020.15 786.781C1021.54 787.479 1023 788.065 1025.33 789.109ZM1456.56 394.855C1456.56 392.316 1456.56 390.731 1456.56 389.147C1456.57 379.945 1456.51 370.744 1456.59 361.543C1456.65 353.565 1455.32 355.203 1462.8 351.451C1493.67 335.979 1524.57 320.568 1555.45 305.123C1556.96 304.371 1558.41 303.517 1559.89 302.71C1557.8 301.991 1555.94 302.13 1554.08 302.303C1543.32 303.309 1532.56 304.431 1521.79 305.313C1486.02 308.242 1450.2 308.638 1414.37 306.772C1373.71 304.655 1333.37 299.849 1293.47 291.602C1246.53 281.903 1200.96 268.043 1157.65 247.258C1156.55 246.729 1155.35 246.409 1154.16 245.979C1152.96 251.124 1153.11 328.461 1154.37 332.438C1156 332.438 1157.76 332.396 1159.51 332.445C1172.26 332.798 1185.02 332.888 1197.75 333.586C1238.25 335.808 1278.43 340.648 1318.15 348.948C1361.87 358.082 1404.42 370.891 1445.1 389.549C1448.59 391.148 1452.06 392.771 1456.56 394.855ZM497.686 875.43C362.59 922.058 224.776 928.16 84.6824 904.575C86.0067 905.618 87.453 906.48 88.9546 907.231C121.552 923.546 154.153 939.851 186.757 956.153C202.337 963.943 217.865 971.843 233.546 979.425C237.235 981.208 239.003 983.237 238.63 987.471C238.249 991.794 238.523 996.178 238.571 1000.53C238.584 1001.73 238.817 1002.93 239.019 1004.76C325.589 961.478 411.638 918.454 497.686 875.43ZM-66.2291 290.626C-64.5764 290.765 -63.1785 290.967 -61.7777 290.988C-34.8304 291.397 -7.93405 292.647 18.8882 295.417C47.4649 298.366 75.8188 302.683 103.897 308.77C130.868 314.617 157.439 321.893 183.428 331.231C184.78 331.717 186.204 332.005 187.595 332.386C181.899 327.633 -62.7319 205.788 -66.2291 205.299C-66.2291 233.645 -66.2291 261.974 -66.2291 290.626ZM1202.45 525.059C1202.58 525.412 1202.7 525.766 1202.83 526.12C1284.7 496.863 1369.49 485.292 1456.27 484.529C1456.27 455.661 1456.27 427.362 1456.27 398.142C1371.26 440.651 1286.85 482.855 1202.45 525.059ZM236.481 984.183C167.404 1018.72 99.1676 1052.85 30.9308 1086.97C31.0577 1087.36 31.1846 1087.76 31.312 1088.15C98.443 1070.09 166.905 1062.34 236.482 1061.83C236.481 1035.87 236.481 1010.6 236.481 984.183ZM1008.52 479.312C1008.62 478.926 1008.71 478.54 1008.81 478.155C955.686 451.597 902.56 425.038 849.284 398.404C848.006 404.112 848.265 460.168 849.557 463.855C902.938 463.855 955.989 468.932 1008.52 479.312ZM-68.5672 233.982C-74.8703 235.898 -201.083 299.311 -203.95 302.12C-158.877 294.6 -113.958 291.294 -68.5672 290.936C-68.5672 271.645 -68.5672 252.992 -68.5672 233.982ZM238.82 1061.85C280.411 1062.15 321.4 1065.06 362.162 1071.08C362.249 1070.71 362.336 1070.34 362.423 1069.96C321.423 1049.47 280.422 1028.97 238.82 1008.17C238.82 1026.41 238.82 1043.75 238.82 1061.85ZM1027.37 726.572C1027.3 727.358 1027.16 728.144 1027.16 728.93C1027.15 748.279 1027.24 767.629 1027.05 786.976C1027.02 790.15 1028.73 791.129 1030.96 792.242C1055.76 804.615 1080.55 817.019 1105.35 829.397C1106.73 830.081 1108.18 830.607 1109.59 831.206C1109.76 830.917 1109.93 830.627 1110.09 830.337C1108.89 829.428 1107.69 828.519 1106.49 827.608C1100.07 822.736 1093.48 818.079 1087.27 812.952C1068.47 797.422 1052.25 779.647 1040.46 758.105C1035.01 748.157 1031.1 737.623 1027.37 726.572ZM667.803 726.681C667.556 726.689 667.309 726.696 667.062 726.704C666.746 727.603 666.363 728.485 666.123 729.405C660.829 749.76 650.594 767.51 637.375 783.647C622.75 801.5 605.33 816.259 586.377 829.294C585.429 829.946 584.59 830.756 583.699 831.493C583.86 831.721 584.02 831.948 584.18 832.176C612.07 818.23 639.96 804.284 667.802 790.362C667.803 768.857 667.803 747.769 667.803 726.681ZM1027.8 116.921C1027.59 116.94 1027.39 116.96 1027.19 116.979C1027.19 123.696 1027.16 130.414 1027.23 137.13C1027.23 137.842 1027.6 138.908 1028.13 139.195C1031.1 140.799 1033.85 143.02 1037.38 143.315C1034.11 134.329 1030.96 125.626 1027.8 116.921Z" fill="url(#paint0_linear_1_23)" fill-opacity="0.2"/>
<defs>
<linearGradient id="paint0_linear_1_23" x1="633" y1="137" x2="633.523" y2="1044.27" gradientUnits="userSpaceOnUse">
<stop stop-color="white" stop-opacity="0"/>
<stop offset="1" stop-color="#DDDDDD"/>
</linearGradient>
</defs>
</svg>
