<svg width="1392" height="902" viewBox="0 0 1392 902" fill="none" xmlns="http://www.w3.org/2000/svg">
<path d="M1656 811.75C1641.62 814.647 1627.15 817.203 1612.86 820.502C1563.76 831.837 1516.37 847.91 1472.19 872.57C1445.97 887.209 1421.77 904.537 1401.44 926.856C1387.05 942.65 1375.54 960.229 1368.81 980.678C1367.81 983.726 1367.16 986.889 1366.34 990C1365.7 990 1365.05 990 1364.41 990C1364.58 989.052 1364.69 988.088 1364.94 987.159C1370.22 967.165 1380.21 949.65 1393.13 933.683C1394.61 931.861 1396.11 930.063 1397.6 928.254C1395.62 928.159 1394.19 928.708 1392.82 929.393C1358.79 946.384 1324.76 963.373 1290.76 980.408C1284.58 983.504 1278.5 986.797 1272.38 990C1271.08 990 1269.79 990 1268.5 990C1269.84 989.15 1271.11 988.173 1272.52 987.469C1314.08 966.677 1355.63 945.875 1397.25 925.198C1401.68 922.997 1405.27 920.013 1408.77 916.594C1425.12 900.599 1443.48 887.205 1463.18 875.641C1469.58 871.885 1476.08 868.287 1482.67 864.88C1485.19 863.58 1486.16 862.031 1486.08 859.222C1485.89 853.145 1486.02 847.058 1486.02 840.359C1484.16 841.004 1482.96 841.29 1481.88 841.809C1438.25 862.697 1392.37 876.636 1345.09 886.34C1309.78 893.589 1274.12 898.187 1238.18 900.541C1204 902.779 1169.8 902.959 1135.57 901.084C1106.7 899.501 1077.97 896.594 1049.44 891.947C992.819 882.724 937.831 867.876 885.676 843.513C882.762 842.152 879.935 840.599 877.087 839.099C876.855 838.977 876.768 838.578 876.264 837.697C963.312 794.04 1050.44 750.644 1138.15 706.673C1136.18 705.558 1134.98 704.805 1133.72 704.175C1049.88 662.236 966.018 620.329 882.225 578.29C879.097 576.72 876.863 577.383 874.161 578.737C832.617 599.559 791.052 620.336 749.486 641.113C672.992 679.349 596.489 717.567 520 755.812C439.033 796.297 358.077 836.806 277.117 877.306C275.398 878.166 273.693 879.052 271.094 880.379C273.147 881.567 274.54 882.475 276.017 883.214C302.713 896.568 329.42 909.901 356.123 923.24C369.837 930.091 383.639 936.773 397.217 943.883C402.236 946.511 407.525 947.456 412.911 948.412C459.926 956.757 505.745 969.233 549.731 988.033C551.048 988.596 552.288 989.34 553.563 990C551.949 990 550.334 990 548.72 990C542.817 987.462 536.991 984.72 530.998 982.419C483.19 964.06 433.645 952.593 383.026 945.522C350.725 941.009 318.24 938.596 285.637 937.952C229.344 936.841 173.463 941.102 118.083 951.377C79.9611 958.45 42.6187 968.414 6.39035 982.328C0.419464 984.621 -5.35382 987.429 -11.2181 990C-12.8326 990 -14.4475 990 -16.0619 990C-9.59598 987.16 -3.25208 983.989 3.36255 981.552C15.9239 976.922 28.754 973.012 41.2513 968.224C49.507 965.061 57.4769 961.092 65.4018 957.138C130.666 924.573 195.889 891.928 261.121 859.3C262.544 858.588 263.928 857.797 266.026 856.668C264.136 855.6 262.825 854.782 261.45 854.094C209.782 828.25 158.104 802.425 106.436 776.582C56.7886 751.751 7.15372 726.896 -42.4933 702.064C-90.554 678.027 -138.622 654.004 -186.688 629.978C-232.156 607.251 -277.623 584.522 -323.102 561.819C-324.668 561.038 -326.365 560.518 -328 559.875C-328 559.23 -328 558.583 -328 557.938C-326.355 558.543 -324.635 558.998 -323.076 559.776C-259.857 591.369 -196.656 622.999 -133.445 654.607C-94.4788 674.092 -55.4823 693.517 -16.5613 713.091C-13.5959 714.582 -11.3412 714.322 -8.52258 712.909C59.5612 678.783 127.682 644.73 195.8 610.672C260.167 578.491 324.522 546.288 388.947 514.226C392.608 512.404 394.055 510.435 394.028 506.21C393.828 475.056 393.924 443.899 393.928 412.744C393.928 410.993 393.928 409.242 393.928 407.492C393.647 407.437 393.367 407.382 393.087 407.327C392.718 408.295 392.261 409.239 391.994 410.234C385.97 432.711 374.148 451.936 358.879 469.211C340.302 490.229 318.203 506.899 294.191 521.133C254.747 544.517 212.26 560.477 168.148 572.387C137.267 580.725 105.916 586.702 74.2121 590.933C24.6373 597.55 -25.1454 599.603 -75.0699 597.324C-136.056 594.541 -196.121 585.664 -254.822 568.494C-278.228 561.647 -301.153 553.464 -323.452 543.556C-324.856 542.932 -326.478 542.799 -327.999 542.437C-327.999 541.469 -327.999 540.5 -327.999 539.531C-286.065 558.525 -242.293 571.678 -197.221 580.716C-171.736 585.826 -146.059 589.568 -120.191 592.154C-88.0303 595.369 -55.8063 596.619 -23.5009 596.195C7.35138 595.79 38.099 593.738 68.697 589.833C121.998 583.03 174.176 571.442 224.514 552.299C257.828 539.63 289.589 523.959 318.519 502.951C339.298 487.861 357.849 470.502 372.166 448.98C382.664 433.198 390.052 416.141 392.791 397.262C396.449 372.057 391.304 348.48 379.337 326.241C366.243 301.908 347.453 282.556 325.836 265.768C295.873 242.498 262.419 225.551 227.191 211.929C187.786 196.691 147.084 186.205 105.501 178.935C55.4338 170.182 4.97934 166.445 -45.8093 166.934C-78.1142 167.244 -110.318 169.342 -142.359 173.464C-191.77 179.819 -240.277 190.244 -287.196 207.246C-300.977 212.241 -314.408 218.201 -328 223.719C-328 222.75 -328 221.781 -328 220.813C-326.628 220.493 -325.163 220.383 -323.897 219.823C-285.547 202.828 -245.628 190.805 -204.651 182.132C-199.446 181.03 -194.233 179.941 -188.985 179.077C-184.298 178.307 -180.065 176.532 -175.85 174.416C-132.025 152.419 -88.1587 130.506 -44.3063 108.565C-42.7461 107.784 -41.2106 106.953 -38.906 105.75C-41.0048 104.559 -42.4482 103.651 -43.9658 102.892C-92.8736 78.4402 -141.793 54.0093 -190.703 29.561C-234.851 7.49284 -278.989 -14.5942 -323.139 -36.6594C-324.722 -37.4509 -326.378 -38.098 -328 -38.8125C-328 -39.4581 -328 -40.1043 -328 -40.75C-326.658 -40.2191 -325.267 -39.7861 -323.981 -39.1438C-282.412 -18.3772 -240.852 2.40787 -199.291 23.1924C-146.908 49.3898 -94.5258 75.5902 -42.1367 101.776C-40.7655 102.461 -39.3163 102.991 -37.3061 103.848C-37.3061 96.2924 -37.3739 89.5291 -37.2882 82.7677C-37.1894 74.9508 -38.5291 76.6878 -31.263 73.0491C25.7237 44.5127 82.7114 15.9767 139.803 -12.3496C145.575 -15.2137 150.276 -18.3069 151.856 -24.9409C152.332 -26.937 153.627 -28.7302 154.463 -30.6522C154.867 -31.5807 155.078 -32.5936 155.567 -34.1944C152.913 -33.5923 150.898 -33.1569 148.895 -32.6769C128.017 -27.6743 106.938 -23.7092 85.7024 -20.5956C55.8174 -16.2139 25.7775 -13.5823 -4.40976 -12.3922C-39.79 -10.9977 -75.1048 -11.9272 -110.358 -14.9599C-142.372 -17.714 -174.123 -22.3529 -205.568 -29.0697C-246.073 -37.7212 -285.528 -49.6295 -323.463 -66.3749C-324.914 -67.0152 -326.485 -67.3814 -328 -67.875C-328 -68.5206 -328 -69.1668 -328 -69.8125C-326.628 -69.4143 -325.187 -69.1712 -323.895 -68.5952C-284.535 -51.0507 -243.513 -38.7839 -201.384 -30.0646C-157.684 -21.0204 -113.51 -16.0308 -68.9208 -14.2692C-38.3998 -13.0636 -7.92825 -13.5615 22.5162 -15.6467C66.6922 -18.6726 110.371 -25.077 153.405 -35.6587C156.024 -36.3024 158.031 -37.1879 159.536 -39.7168C172.774 -61.9564 190.733 -79.888 211.036 -95.6442C212.69 -96.9283 214.327 -98.2351 215.944 -99.5667C216.155 -99.7411 216.192 -100.128 216.438 -100.733C215.067 -101.464 213.685 -102.241 212.271 -102.95C199.147 -109.526 186.011 -116.076 172.898 -122.672C170.891 -123.681 168.984 -124.886 167.031 -126C168.646 -126 170.261 -126 171.875 -126C173.154 -125.105 174.35 -124.049 175.727 -123.344C182.164 -120.045 188.649 -116.838 195.121 -113.607C203.021 -109.663 210.927 -105.727 218.803 -101.801C219.539 -102.174 220.131 -102.421 220.669 -102.755C231.996 -109.797 243.323 -116.84 254.628 -123.916C255.539 -124.486 256.297 -125.3 257.126 -126C258.418 -126 259.709 -126 261.001 -126C259.182 -124.76 257.451 -123.364 255.533 -122.303C229.834 -108.096 205.853 -91.5677 185.405 -70.2993C170.034 -54.311 157.414 -36.4647 149.961 -15.3982C137.734 19.16 142.518 51.9449 160.932 83.1203C173.766 104.849 191.219 122.412 210.96 137.827C238.138 159.047 268.32 174.987 300.109 188.018C342.542 205.412 386.587 217.073 431.705 224.966C459.871 229.893 488.216 233.283 516.728 235.156C551.064 237.413 585.423 237.633 619.806 235.744C652.555 233.945 685.092 230.398 717.372 224.657C767.588 215.725 816.446 202.164 863.051 181.115C866.725 179.455 870.339 177.662 873.966 175.9C874.381 175.699 874.696 175.295 875.375 174.713C874.225 173.96 873.275 173.193 872.209 172.66C821.411 147.261 770.598 121.893 719.798 96.4973C666.834 70.0199 613.882 43.5163 560.922 17.0297C501.179 -12.849 441.433 -42.7209 381.689 -72.5962C348.21 -89.3376 314.727 -106.072 281.266 -122.852C279.576 -123.699 278.084 -124.941 276.5 -126C277.792 -126 279.083 -126 280.375 -126C280.96 -125.482 281.466 -124.807 282.141 -124.468C294.912 -118.057 307.725 -111.729 320.467 -105.261C322.485 -104.237 324.053 -104.6 325.881 -105.521C338.071 -111.663 350.298 -117.731 362.492 -123.865C363.612 -124.428 364.585 -125.282 365.626 -126C366.918 -126 368.209 -126 369.501 -126C368.214 -125.11 367.011 -124.055 365.627 -123.357C353.962 -117.471 342.26 -111.654 330.576 -105.804C329.144 -105.087 327.746 -104.299 325.505 -103.102C327.453 -101.994 328.837 -101.121 330.294 -100.392C354.813 -88.1117 379.343 -75.8512 403.869 -63.5834C485.967 -22.5171 568.06 18.5594 650.163 59.6155C724.473 96.7743 798.793 133.912 873.109 171.059C873.975 171.492 874.807 172.02 875.713 172.339C878.541 173.335 879.571 175.224 879.483 178.244C879.297 184.696 879.428 191.156 879.427 197.613C879.427 205.683 879.41 213.754 879.439 221.825C879.445 223.383 879.629 224.94 879.733 226.539C883.676 225.762 1171.39 82.4044 1180.17 76.9368C1179.38 74.8811 1177.29 74.5585 1175.69 73.7554C1151.61 61.6692 1127.5 49.6495 1103.4 37.6035C1007.73 -10.2193 912.055 -58.0455 816.382 -105.872C804.693 -111.715 793.001 -117.551 781.334 -123.435C779.93 -124.143 778.671 -125.138 777.345 -126C778.959 -126 780.574 -126 782.188 -126C783.558 -125.006 784.82 -123.797 786.313 -123.048C829.417 -101.45 872.559 -79.9286 915.634 -58.2718C918.573 -56.7939 920.839 -56.8806 923.709 -58.3216C966.942 -80.0313 1010.23 -101.634 1053.48 -123.3C1054.86 -123.992 1056.04 -125.09 1057.31 -125.999C1058.93 -125.999 1060.54 -125.999 1062.16 -125.999C1060.65 -125.093 1059.2 -124.084 1057.64 -123.298C1040.78 -114.834 1023.91 -106.4 1007.04 -97.9678C980.5 -84.7051 953.954 -71.4627 927.438 -58.1603C925.851 -57.364 923.803 -57.007 922.953 -55.0318C932.58 -49.043 1052.36 10.292 1056.34 10.9305C1056.34 9.11792 1056.34 7.37029 1056.34 5.62267C1056.35 -7.28158 1056.19 -20.1892 1056.42 -33.0896C1056.54 -39.6805 1056.89 -46.3314 1057.93 -52.8293C1061.33 -74.1515 1070.58 -92.9889 1083.4 -110.159C1087.44 -115.574 1091.83 -120.727 1096.06 -126C1096.71 -126 1097.35 -126 1098 -126C1097.15 -124.701 1096.45 -123.273 1095.44 -122.123C1081.53 -106.35 1070.2 -89.0446 1063.69 -68.8708C1054.05 -39.0324 1057.31 -10.3079 1071.07 17.547C1072.19 19.7989 1073.99 20.8476 1076.03 21.8647C1096.24 31.9582 1116.44 42.07 1136.64 52.1755C1151.21 59.4658 1165.74 66.855 1180.4 73.9641C1183.52 75.4744 1184.49 77.331 1184.44 80.648C1184.26 91.2994 1184.51 101.959 1184.29 112.609C1184.22 116.023 1185.39 117.739 1188.46 119.209C1221.31 134.965 1255.55 146.85 1290.79 155.927C1327.41 165.361 1364.58 171.717 1402.2 175.569C1444.68 179.918 1487.25 181.268 1529.87 178.932C1551.77 177.731 1573.6 175.239 1595.45 173.216C1597.64 173.013 1599.9 172.314 1601.88 171.334C1619.95 162.381 1637.97 153.314 1656 144.281C1656 144.927 1656 145.573 1656 146.219C1654.44 147.066 1652.91 147.96 1651.32 148.753C1599.37 174.731 1547.41 200.698 1495.46 226.677C1494.19 227.315 1492.97 228.076 1491.71 228.793C1492.02 229.274 1492.13 229.647 1492.37 229.773C1494.66 230.969 1496.93 232.193 1499.26 233.28C1536.57 250.653 1575.53 263.139 1615.64 272.078C1629.01 275.058 1642.54 277.317 1656 279.906C1656 280.552 1656 281.198 1656 281.844C1655.2 281.763 1654.39 281.734 1653.59 281.593C1630.73 277.538 1608.05 272.692 1585.65 266.527C1554.19 257.867 1523.55 246.984 1494.09 232.888C1492.75 232.248 1491.32 231.807 1489.68 231.173C1489.68 273.967 1489.68 315.995 1489.68 358.257C1491.24 358.388 1492.49 358.571 1493.74 358.585C1538.48 359.102 1582.97 362.522 1627.08 370.127C1636.76 371.795 1646.36 373.906 1656 375.813C1656 376.458 1656 377.105 1656 377.75C1646.52 375.833 1637.09 373.664 1627.56 372.041C1577.79 363.566 1527.63 359.882 1477.17 360.545C1446.49 360.949 1415.92 363.014 1385.45 366.784C1338.89 372.547 1293.18 382.104 1248.65 396.998C1214.42 408.448 1181.51 422.823 1150.91 442.136C1127.7 456.78 1106.5 473.803 1089.17 495.274C1077.71 509.463 1068.56 524.966 1063.19 542.481C1053.9 572.774 1057.62 601.799 1072.24 629.618C1083.93 651.842 1100.54 669.967 1119.78 685.794C1126.5 691.325 1133.73 696.228 1140.61 701.574C1142.98 703.423 1144.98 703.423 1147.61 702.064C1157.63 696.876 1167.82 691.981 1177.85 686.798C1180.66 685.344 1182.95 685.185 1185.91 686.67C1236.37 712.014 1286.89 737.238 1337.4 762.487C1349.96 768.764 1362.5 775.074 1375.09 781.269C1376.93 782.172 1379.01 782.835 1381.04 783.064C1394.66 784.601 1408.28 786.26 1421.95 787.373C1454.48 790.023 1487.08 790.519 1519.68 789.372C1565.57 787.758 1611.04 782.453 1656 773C1656 773.646 1656 774.292 1656 774.937C1637.57 778.094 1619.2 781.7 1600.69 784.304C1569.68 788.668 1538.47 790.925 1507.13 791.528C1467.39 792.293 1427.77 790.646 1388.3 785.855C1387.62 785.773 1386.92 785.845 1386.23 785.845C1387.66 787.541 1389.31 788.463 1391 789.306C1422.01 804.819 1453.01 820.368 1484.08 835.757C1487.01 837.209 1488.09 838.948 1487.96 842.093C1487.75 847.087 1487.86 852.096 1487.9 857.098C1487.91 858.467 1488.16 859.835 1488.33 861.571C1490 860.9 1491.2 860.502 1492.33 859.955C1532.16 840.633 1574 827.226 1617.12 817.658C1630.03 814.796 1643.04 812.414 1656 809.813C1656 810.459 1656 811.105 1656 811.75ZM-10.3434 715.926C-7.72192 717.313 -6.18353 718.166 -4.61172 718.952C31.0305 736.776 66.6641 754.616 102.347 772.358C104.899 773.626 107.762 774.438 110.573 774.99C147.995 782.346 185.759 786.855 223.853 788.834C265.354 790.991 306.79 790.224 348.149 786.373C380.785 783.333 413.147 778.374 445.134 771.125C492.042 760.495 537.471 745.656 580.234 723.331C603.926 710.961 626.19 696.449 646.01 678.399C663.597 662.383 678.52 644.31 688.385 622.455C700.749 595.067 702.457 567.12 692.543 538.595C686.139 520.17 675.821 504.089 663.021 489.556C638.634 461.868 608.509 441.874 576.011 425.099C574.242 424.186 572.78 424.168 571.036 425.109C567.488 427.024 563.845 428.762 560.237 430.566C470.341 475.515 380.445 520.466 290.547 565.412C192.276 614.543 94.0027 663.669 -4.26831 712.8C-5.95975 713.646 -7.63229 714.53 -10.3434 715.926ZM877.556 176.562C874.961 177.694 873.521 178.349 872.059 178.956C856.419 185.445 840.998 192.54 825.093 198.298C766.297 219.586 705.349 230.887 643.19 236.021C612.289 238.573 581.326 239.428 550.3 238.52C507.953 237.282 465.926 233.193 424.263 225.517C378.905 217.16 334.661 204.945 292.21 186.713C260.335 173.023 230.181 156.364 203.386 134.09C183.975 117.955 167.181 99.5881 155.416 77.0176C147.641 62.1013 142.738 46.3504 141.678 29.4811C140.892 16.9648 142.107 4.68007 145.498 -7.40848C146.013 -9.2462 147.267 -11.1411 146.366 -13.3062C135.833 -9.31013 -30.5176 74.4408 -33.1313 77.1315C-31.3618 78.0552 -29.6733 78.9697 -27.9567 79.8275C21.2568 104.432 70.4766 129.023 119.688 153.632C176.839 182.211 233.978 210.816 291.133 239.388C367.337 277.485 443.552 315.56 519.761 353.647C536.648 362.086 553.554 370.489 570.393 379.024C572.653 380.169 574.468 380.325 576.688 379.046C579.619 377.358 582.741 376.004 585.772 374.488C646.387 344.189 707.003 313.891 767.614 283.585C802.827 265.978 838.013 248.315 873.277 230.811C876.466 229.228 877.691 227.389 877.639 223.811C877.439 210.091 877.557 196.368 877.556 182.645C877.556 180.912 877.556 179.178 877.556 176.562ZM1181.1 401.899C1178.62 400.605 1177.22 399.822 1175.78 399.133C1150.82 387.23 1124.97 377.676 1098.47 369.83C1063.91 359.596 1028.72 352.336 993.016 347.418C962.119 343.162 931.098 340.384 899.926 340.003C877.985 339.736 856.005 339.936 834.093 340.979C813.963 341.937 793.849 343.855 773.819 346.152C744.305 349.538 715.138 355.075 686.3 362.264C650.198 371.265 615.096 383.118 581.429 399.056C579.889 399.785 578.425 400.677 576.268 401.851C578.261 402.979 579.577 403.804 580.959 404.495C677.358 452.713 773.799 500.846 870.082 549.295C876.457 552.503 881.121 552.252 887.325 549.134C983.336 500.87 1079.48 452.867 1175.59 404.798C1177.13 404.029 1178.64 403.199 1181.1 401.899ZM879.637 838.302C881.664 839.38 883.038 840.174 884.465 840.86C902.375 849.466 920.793 856.832 939.611 863.184C1006.64 885.807 1075.76 896.746 1146.24 899.78C1186.61 901.517 1226.92 900.347 1267.15 896.252C1310.42 891.846 1353.08 884.215 1394.95 872.337C1423.88 864.132 1452.06 853.943 1479.22 841.004C1480.74 840.28 1482.21 839.437 1484.35 838.306C1482.07 837.044 1480.57 836.146 1479.02 835.366C1464.88 828.283 1450.73 821.225 1436.58 814.152C1353.17 772.437 1269.74 730.739 1186.37 688.935C1183.11 687.298 1180.63 687.44 1177.43 689.057C1140.39 707.721 1103.28 726.23 1066.18 744.778C1005.57 775.089 944.949 805.397 884.336 835.716C882.933 836.416 881.584 837.226 879.637 838.302ZM1485.64 270.332C1483.65 269.291 1482.27 268.514 1480.84 267.832C1451.19 253.674 1420.31 242.87 1388.64 234.283C1357.61 225.872 1326.12 219.78 1294.26 215.551C1269.44 212.258 1244.53 210.141 1219.52 209.041C1169.56 206.844 1119.8 209.175 1070.25 215.878C1030.2 221.297 990.801 229.71 952.258 241.966C929.474 249.212 907.195 257.746 885.641 268.124C884.315 268.762 883.072 269.573 881.272 270.599C883.029 271.61 883.972 272.218 884.969 272.717C939.378 299.926 993.789 327.133 1048.22 354.3C1050.08 355.227 1052.08 355.976 1054.11 356.426C1083.28 362.923 1112 371.037 1139.85 381.897C1153.67 387.284 1167.1 393.643 1180.76 399.434C1183.57 400.627 1184.6 402.375 1184.43 405.359C1184.22 409.06 1184.35 412.783 1184.4 416.496C1184.41 417.723 1184.61 418.948 1184.73 420.2C1189.02 419.388 1478.27 275.333 1485.64 270.332ZM1182.18 206.445C1182.18 163.505 1182.18 121.338 1182.18 78.5226C1179.77 79.6531 1177.89 80.4853 1176.05 81.4041C1138.09 100.369 1100.12 119.335 1062.17 138.32C989.438 174.701 916.721 211.108 843.985 247.479C756.381 291.284 668.756 335.047 581.165 378.877C573.228 382.849 574.648 380.536 574.586 389.646C574.563 392.923 574.218 396.252 575.017 399.881C576.729 399.159 577.914 398.718 579.048 398.17C605.123 385.573 632.206 375.606 659.965 367.482C689.573 358.817 719.661 352.275 750.161 347.577C777.622 343.346 805.207 340.372 832.957 339.065C846.014 338.449 859.092 338.279 872.16 337.881C873.855 337.829 875.546 337.626 877.598 337.465C877.598 335.02 877.598 333.108 877.598 331.195C877.598 312.306 877.671 293.417 877.529 274.529C877.504 271.16 878.519 269.227 881.685 267.877C891.624 263.638 901.335 258.847 911.347 254.795C972.27 230.143 1035.9 216.893 1101.07 210.391C1126.29 207.874 1151.61 206.593 1176.97 206.446C1178.55 206.437 1180.14 206.445 1182.18 206.445ZM395.777 510.626C403.251 506.921 409.597 503.798 415.924 500.636C466.429 475.396 516.911 450.109 567.471 424.981C571.264 423.096 573.009 421.074 572.822 416.594C572.425 407.088 572.469 397.545 572.81 388.034C572.965 383.702 571.56 381.509 567.628 379.56C523.836 357.852 480.155 335.92 436.437 314.064C396.758 294.227 357.071 274.408 317.383 254.591C315.935 253.868 314.431 253.255 312.953 252.591C312.797 252.908 312.64 253.226 312.484 253.543C314.155 254.77 315.813 256.014 317.498 257.221C334.895 269.683 350.851 283.71 364.319 300.423C385.176 326.304 396.633 355.273 395.945 389.122C395.165 427.519 395.773 465.944 395.777 504.357C395.777 506.083 395.777 507.807 395.777 510.626ZM574.581 403.678C574.581 409.032 574.775 413.541 574.516 418.024C574.332 421.221 575.452 422.927 578.357 424.368C591.963 431.12 604.99 438.896 617.517 447.489C639.088 462.287 658.612 479.307 674.183 500.499C691.594 524.196 701.409 550.366 700.866 580.223C700.399 605.885 700.777 631.562 700.781 657.233C700.781 658.933 700.781 660.635 700.781 663.153C703.35 661.967 705.082 661.224 706.766 660.383C750.932 638.303 795.094 616.214 839.256 594.127C850.947 588.28 862.605 582.368 874.353 576.639C876.73 575.48 877.767 574.073 877.61 571.435C877.428 568.378 877.638 565.301 877.569 562.235C877.375 553.64 879 555.612 870.787 551.494C830.112 531.095 789.393 510.784 748.692 490.436C692.404 462.294 636.119 434.145 579.828 406.01C578.416 405.305 576.941 404.723 574.581 403.678ZM1056.33 663.109C1056.33 660.353 1056.33 658.591 1056.33 656.83C1056.33 630.2 1056.43 603.569 1056.3 576.94C1056.21 559.025 1060.1 542.063 1067.66 525.894C1077.96 503.883 1093.23 485.692 1111.16 469.584C1130.73 452.005 1152.65 437.866 1175.87 425.651C1178 424.531 1180.12 423.383 1182.52 422.094C1182.52 417.046 1182.54 412.061 1182.51 407.078C1182.5 406.163 1182.29 405.25 1182.12 403.919C1180.5 404.598 1179.18 405.074 1177.92 405.698C1165.21 412.021 1152.51 418.36 1139.82 424.71C1072.59 458.336 1005.37 491.97 938.138 525.595C919.815 534.759 901.505 543.949 883.127 553.001C880.467 554.311 879.175 555.863 879.387 558.909C879.621 562.283 879.783 565.727 879.366 569.063C878.785 573.714 880.932 575.82 884.884 577.785C940.353 605.358 995.739 633.094 1051.15 660.781C1052.54 661.479 1054 662.065 1056.33 663.109ZM1487.56 268.855C1487.56 266.316 1487.56 264.731 1487.56 263.147C1487.57 253.945 1487.51 244.744 1487.59 235.543C1487.65 227.565 1486.32 229.203 1493.8 225.451C1524.67 209.979 1555.57 194.568 1586.45 179.123C1587.96 178.371 1589.41 177.517 1590.89 176.71C1588.8 175.991 1586.94 176.13 1585.08 176.303C1574.32 177.309 1563.56 178.431 1552.79 179.313C1517.02 182.242 1481.2 182.638 1445.37 180.772C1404.71 178.655 1364.37 173.849 1324.47 165.602C1277.53 155.902 1231.96 142.043 1188.65 121.258C1187.55 120.729 1186.35 120.409 1185.16 119.979C1183.96 125.124 1184.1 202.461 1185.37 206.438C1187 206.438 1188.76 206.396 1190.51 206.445C1203.26 206.798 1216.02 206.888 1228.75 207.586C1269.25 209.808 1309.43 214.648 1349.15 222.948C1392.87 232.082 1435.42 244.891 1476.1 263.549C1479.59 265.148 1483.06 266.771 1487.56 268.855ZM528.686 749.43C393.59 796.058 255.776 802.16 115.682 778.575C117.007 779.618 118.453 780.48 119.955 781.231C152.552 797.546 185.153 813.851 217.757 830.153C233.337 837.943 248.865 845.843 264.546 853.425C268.235 855.208 270.003 857.237 269.63 861.471C269.249 865.794 269.523 870.178 269.571 874.534C269.584 875.732 269.817 876.928 270.019 878.763C356.589 835.478 442.638 792.454 528.686 749.43ZM-35.2291 164.626C-33.5764 164.765 -32.1785 164.967 -30.7777 164.988C-3.83044 165.397 23.0659 166.647 49.8882 169.417C78.4649 172.366 106.819 176.683 134.897 182.77C161.868 188.617 188.439 195.893 214.428 205.231C215.78 205.717 217.204 206.005 218.595 206.386C212.899 201.633 -31.7319 79.7883 -35.2291 79.299C-35.2291 107.645 -35.2291 135.974 -35.2291 164.626ZM1233.45 399.059C1233.58 399.412 1233.7 399.766 1233.83 400.12C1315.7 370.863 1400.49 359.292 1487.27 358.529C1487.27 329.661 1487.27 301.362 1487.27 272.142C1402.26 314.651 1317.85 356.855 1233.45 399.059ZM267.481 858.183C198.404 892.725 130.168 926.846 61.9308 960.968C62.0576 961.363 62.1846 961.759 62.312 962.155C129.443 944.09 197.905 936.342 267.482 935.834C267.481 909.866 267.481 884.597 267.481 858.183ZM1039.52 353.312C1039.62 352.926 1039.71 352.54 1039.81 352.155C986.686 325.597 933.56 299.038 880.284 272.404C879.006 278.112 879.265 334.168 880.557 337.855C933.938 337.855 986.989 342.932 1039.52 353.312ZM-37.5672 107.982C-43.8703 109.898 -170.083 173.311 -172.95 176.12C-127.877 168.6 -82.9585 165.294 -37.5672 164.936C-37.5672 145.645 -37.5672 126.992 -37.5672 107.982ZM269.82 935.853C311.411 936.154 352.4 939.059 393.162 945.084C393.249 944.711 393.336 944.338 393.423 943.964C352.423 923.467 311.422 902.97 269.82 882.172C269.82 900.406 269.82 917.748 269.82 935.853ZM1058.37 600.572C1058.3 601.358 1058.16 602.144 1058.16 602.93C1058.15 622.279 1058.24 641.629 1058.05 660.977C1058.02 664.15 1059.73 665.129 1061.96 666.242C1086.76 678.615 1111.55 691.019 1136.35 703.397C1137.73 704.081 1139.18 704.607 1140.59 705.206C1140.76 704.917 1140.93 704.627 1141.09 704.337C1139.89 703.428 1138.69 702.519 1137.49 701.608C1131.07 696.736 1124.48 692.079 1118.27 686.952C1099.47 671.422 1083.25 653.647 1071.46 632.105C1066.01 622.157 1062.1 611.623 1058.37 600.572ZM698.803 600.681C698.556 600.689 698.309 600.696 698.062 600.704C697.746 601.603 697.363 602.485 697.124 603.405C691.829 623.76 681.594 641.51 668.375 657.647C653.75 675.5 636.33 690.259 617.377 703.294C616.429 703.946 615.59 704.756 614.699 705.493C614.86 705.721 615.02 705.948 615.18 706.176C643.07 692.23 670.96 678.284 698.802 664.362C698.803 642.857 698.803 621.769 698.803 600.681ZM1058.8 -9.07861C1058.59 -9.05972 1058.39 -9.04034 1058.19 -9.02145C1058.19 -2.30414 1058.16 4.41367 1058.23 11.1305C1058.23 11.8416 1058.6 12.9077 1059.13 13.1954C1062.1 14.7991 1064.85 17.02 1068.38 17.3155C1065.11 8.32936 1061.96 -0.374382 1058.8 -9.07861Z" fill="url(#paint0_linear_18468_32962)" fill-opacity="0.2"/>
<defs>
<linearGradient id="paint0_linear_18468_32962" x1="683.5" y1="254.5" x2="674.5" y2="863" gradientUnits="userSpaceOnUse">
<stop stop-color="white" stop-opacity="0"/>
<stop offset="1" stop-color="#DDDDDD"/>
</linearGradient>
</defs>
</svg>
