<svg width="1440" height="906" viewBox="0 0 1440 906" fill="none" xmlns="http://www.w3.org/2000/svg">
<path d="M1559.43 793.219C1547.26 795.669 1535.03 797.831 1522.94 800.621C1481.41 810.21 1441.32 823.805 1403.95 844.665C1381.77 857.048 1361.3 871.705 1344.1 890.584C1331.93 903.944 1322.19 918.813 1316.51 936.11C1315.66 938.689 1315.11 941.365 1314.42 943.996C1313.87 943.996 1313.32 943.996 1312.78 943.996C1312.93 943.194 1313.02 942.379 1313.23 941.593C1317.7 924.68 1326.15 909.864 1337.08 896.358C1338.32 894.818 1339.59 893.296 1340.85 891.766C1339.18 891.686 1337.97 892.151 1336.81 892.73C1308.03 907.102 1279.25 921.473 1250.48 935.882C1245.26 938.501 1240.11 941.287 1234.93 943.995C1233.84 943.995 1232.75 943.995 1231.65 943.995C1232.78 943.277 1233.86 942.451 1235.05 941.854C1270.21 924.268 1305.35 906.672 1340.56 889.182C1344.3 887.32 1347.34 884.796 1350.3 881.904C1364.14 868.374 1379.66 857.044 1396.33 847.262C1401.74 844.085 1407.24 841.042 1412.82 838.16C1414.94 837.06 1415.77 835.75 1415.7 833.374C1415.54 828.234 1415.65 823.085 1415.65 817.419C1414.07 817.964 1413.06 818.206 1412.15 818.645C1375.24 836.314 1336.43 848.104 1296.44 856.313C1266.57 862.444 1236.41 866.334 1206 868.324C1177.09 870.218 1148.16 870.37 1119.21 868.784C1094.79 867.445 1070.49 864.986 1046.36 861.055C998.462 853.254 951.949 840.695 907.832 820.086C905.367 818.935 902.976 817.621 900.567 816.353C900.37 816.249 900.297 815.912 899.871 815.167C973.502 778.238 1047.2 741.53 1121.39 704.337C1119.73 703.394 1118.71 702.757 1117.65 702.224C1046.73 666.749 975.792 631.301 904.913 595.741C902.267 594.413 900.378 594.974 898.092 596.119C862.951 613.732 827.792 631.307 792.633 648.881C727.929 681.224 663.216 713.551 598.517 745.902C530.028 780.148 461.55 814.413 393.068 848.671C391.614 849.398 390.171 850.148 387.973 851.27C389.71 852.275 390.888 853.043 392.137 853.668C414.719 864.964 437.309 876.242 459.897 887.525C471.497 893.32 483.172 898.972 494.657 904.986C498.903 907.209 503.376 908.009 507.933 908.818C547.702 915.877 586.459 926.43 623.665 942.332C624.779 942.808 625.828 943.437 626.907 943.995C625.541 943.995 624.175 943.995 622.809 943.995C617.816 941.849 612.889 939.53 607.819 937.583C567.38 922.054 525.471 912.354 482.654 906.373C455.331 902.556 427.853 900.514 400.275 899.97C352.658 899.03 305.389 902.634 258.545 911.325C226.299 917.308 194.712 925.737 164.067 937.506C159.016 939.446 154.133 941.821 149.172 943.995C147.807 943.995 146.441 943.995 145.075 943.995C150.545 941.594 155.911 938.911 161.506 936.849C172.131 932.934 182.984 929.626 193.555 925.576C200.538 922.9 207.28 919.543 213.983 916.198C269.188 888.653 324.359 861.039 379.537 833.44C380.741 832.838 381.911 832.168 383.686 831.213C382.087 830.31 380.979 829.618 379.816 829.036C336.111 807.176 292.398 785.331 248.693 763.471C206.698 742.467 164.713 721.443 122.718 700.438C82.0643 680.105 41.4045 659.786 0.746712 639.462C-37.7129 620.238 -76.1722 601.013 -114.642 581.808C-115.967 581.148 -117.402 580.708 -118.785 580.164C-118.785 579.618 -118.785 579.072 -118.785 578.525C-117.394 579.038 -115.938 579.422 -114.62 580.08C-61.1449 606.804 -7.68494 633.559 45.784 660.296C78.7444 676.778 111.731 693.208 144.653 709.765C147.161 711.027 149.068 710.807 151.453 709.612C209.043 680.745 266.664 651.94 324.284 623.132C378.73 595.911 433.166 568.671 487.662 541.551C490.759 540.01 491.982 538.344 491.959 534.771C491.791 508.418 491.872 482.063 491.875 455.71C491.875 454.229 491.875 452.748 491.875 451.267C491.638 451.22 491.401 451.174 491.164 451.127C490.852 451.946 490.465 452.745 490.239 453.587C485.144 472.599 475.144 488.861 462.228 503.474C446.514 521.252 427.821 535.353 407.51 547.394C374.146 567.173 338.207 580.673 300.894 590.748C274.772 597.801 248.253 602.856 221.436 606.436C179.502 612.032 137.392 613.769 95.1619 611.841C43.5756 609.487 -7.23177 601.979 -56.8858 587.454C-76.6843 581.663 -96.0756 574.741 -114.938 566.36C-116.126 565.833 -117.498 565.72 -118.784 565.414C-118.784 564.594 -118.784 563.775 -118.784 562.956C-83.3132 579.022 -46.2876 590.148 -8.16266 597.793C13.3948 602.115 35.1145 605.281 56.9952 607.468C84.199 610.187 111.456 611.245 138.783 610.886C164.88 610.543 190.889 608.808 216.771 605.505C261.856 599.75 305.993 589.948 348.572 573.755C376.751 563.039 403.617 549.784 428.089 532.013C445.665 519.249 461.357 504.566 473.467 486.361C482.347 473.011 488.596 458.583 490.913 442.614C494.007 421.293 489.656 401.35 479.533 382.539C468.457 361.956 452.563 345.587 434.278 331.387C408.933 311.703 380.635 297.368 350.837 285.845C317.505 272.956 283.076 264.086 247.902 257.937C205.552 250.533 162.874 247.372 119.913 247.785C92.5868 248.048 65.3465 249.823 38.2439 253.309C-3.55207 258.685 -44.5823 267.502 -84.2703 281.884C-95.9273 286.109 -107.288 291.151 -118.785 295.818C-118.785 294.999 -118.785 294.179 -118.785 293.36C-117.624 293.089 -116.385 292.997 -115.315 292.522C-82.8752 278.147 -49.1089 267.977 -14.4478 260.641C-10.0449 259.709 -5.63509 258.787 -1.19577 258.057C2.76868 257.405 6.34965 255.904 9.91504 254.114C46.9849 235.508 84.0904 216.972 121.184 198.412C122.504 197.752 123.803 197.049 125.752 196.032C123.977 195.024 122.756 194.256 121.472 193.614C80.1022 172.931 38.7229 152.265 -2.64905 131.585C-39.9926 112.918 -77.3284 94.2353 -114.673 75.5709C-116.013 74.9014 -117.413 74.354 -118.785 73.7497C-118.785 73.2035 -118.785 72.657 -118.785 72.1108C-117.65 72.5599 -116.474 72.9262 -115.386 73.4694C-80.2231 91.0354 -45.0686 108.617 -9.9138 126.198C34.3962 148.358 78.7047 170.52 123.019 192.67C124.179 193.25 125.405 193.697 127.105 194.422C127.105 188.031 127.048 182.31 127.121 176.591C127.204 169.979 126.071 171.448 132.217 168.371C180.421 144.232 228.625 120.094 276.917 96.134C281.8 93.7113 285.776 91.0948 287.113 85.4833C287.515 83.7948 288.611 82.278 289.318 80.6523C289.66 79.8668 289.838 79.0101 290.252 77.656C288.007 78.1653 286.303 78.5336 284.608 78.9396C266.948 83.1712 249.118 86.5252 231.155 89.1589C205.876 92.8652 180.466 95.0912 154.932 96.0979C125.004 97.2775 95.1324 96.4912 65.3129 93.926C38.2329 91.5963 11.3757 87.6724 -15.2234 81.9908C-49.485 74.6728 -82.8588 64.5998 -114.948 50.4354C-116.174 49.8937 -117.504 49.584 -118.785 49.1665C-118.785 48.6203 -118.785 48.0737 -118.785 47.5276C-117.625 47.8644 -116.406 48.0701 -115.313 48.5572C-82.0193 63.3977 -47.3197 73.7739 -11.6842 81.1492C25.2804 88.7996 62.6461 93.0201 100.363 94.5102C126.18 95.53 151.955 95.1088 177.707 93.345C215.075 90.7855 252.022 85.3681 288.423 76.4174C290.638 75.8729 292.336 75.1239 293.609 72.9847C304.806 54.1728 319.998 39.005 337.171 25.6772C338.571 24.591 339.956 23.4856 341.323 22.3593C341.502 22.2118 341.533 21.8844 341.741 21.3731C340.581 20.7544 339.413 20.0972 338.216 19.4974C327.115 13.935 316.003 8.39476 304.911 2.81519C303.214 1.96174 301.601 0.942357 299.949 0C301.315 0 302.681 0 304.046 0C305.129 0.756754 306.14 1.65035 307.305 2.24691C312.75 5.03751 318.235 7.74986 323.709 10.4827C330.392 13.8191 337.079 17.1484 343.742 20.4696C344.364 20.1537 344.865 19.9448 345.32 19.6621C354.901 13.7056 364.482 7.74823 374.045 1.76262C374.815 1.28038 375.457 0.592456 376.158 0C377.25 0 378.343 0 379.435 0C377.897 1.04888 376.433 2.23011 374.811 3.12699C353.072 15.1445 332.787 29.1254 315.491 47.1158C302.489 60.6399 291.814 75.7356 285.509 93.5552C275.167 122.787 279.214 150.519 294.79 176.889C305.646 195.269 320.409 210.126 337.107 223.164C360.096 241.114 385.627 254.597 412.516 265.62C448.409 280.333 485.666 290.196 523.83 296.873C547.655 301.041 571.631 303.909 595.748 305.493C624.793 307.401 653.856 307.588 682.94 305.99C710.641 304.468 738.163 301.468 765.468 296.611C807.944 289.056 849.272 277.586 888.694 259.78C891.802 258.377 894.859 256.86 897.927 255.369C898.278 255.199 898.545 254.858 899.119 254.366C898.146 253.728 897.343 253.08 896.441 252.629C853.472 231.144 810.491 209.686 767.52 188.205C722.719 165.808 677.929 143.389 633.131 120.985C582.596 95.7115 532.058 70.4437 481.523 45.1729C453.203 31.0117 424.881 16.8563 396.577 2.66318C395.148 1.94617 393.886 0.895649 392.546 0C393.639 0 394.731 0 395.824 0C396.318 0.438401 396.747 1.00914 397.317 1.29595C408.12 6.71901 418.958 12.0716 429.737 17.5426C431.444 18.4092 432.77 18.1019 434.316 17.3226C444.627 12.1269 454.97 6.99434 465.285 1.80605C466.231 1.32995 467.055 0.607616 467.935 0C469.028 0 470.12 0 471.213 0C470.124 0.752657 469.106 1.64544 467.936 2.23584C458.069 7.21477 448.171 12.1351 438.288 17.0829C437.076 17.6897 435.894 18.3563 433.998 19.3687C435.646 20.3057 436.817 21.0445 438.048 21.6615C458.789 32.0487 479.538 42.4196 500.284 52.7966C569.729 87.5335 639.169 122.279 708.618 157.007C771.474 188.439 834.34 219.853 897.202 251.275C897.934 251.641 898.638 252.087 899.405 252.357C901.797 253.2 902.668 254.797 902.594 257.352C902.437 262.81 902.547 268.274 902.547 273.736C902.547 280.562 902.532 287.389 902.557 294.216C902.562 295.534 902.717 296.852 902.805 298.204C906.14 297.546 1149.51 176.284 1156.94 171.659C1156.27 169.92 1154.5 169.647 1153.15 168.968C1132.78 158.745 1112.39 148.577 1092 138.388C1011.07 97.9359 930.146 57.4809 849.219 17.0259C839.331 12.0835 829.441 7.14717 819.572 2.16947C818.384 1.57046 817.319 0.729303 816.198 0.000409721C817.563 0.000409721 818.929 0.000409721 820.295 0.000409721C821.453 0.841156 822.521 1.86382 823.784 2.49684C860.244 20.7663 896.737 38.9706 933.173 57.2896C935.659 58.5396 937.576 58.4663 940.004 57.2474C976.573 38.8837 1013.19 20.6106 1049.78 2.28378C1050.94 1.6987 1051.94 0.769455 1053.02 0.000819441C1054.38 0.000819441 1055.75 0.000819441 1057.11 0.000819441C1055.84 0.766997 1054.61 1.62085 1053.29 2.28542C1039.03 9.44488 1024.76 16.5789 1010.49 23.7118C988.042 34.9303 965.587 46.1317 943.158 57.3838C941.815 58.0574 940.083 58.3594 939.364 60.0302C947.507 65.096 1048.83 115.286 1052.2 115.826C1052.2 114.293 1052.2 112.814 1052.2 111.336C1052.2 100.421 1052.06 89.5026 1052.26 78.5905C1052.36 73.0155 1052.66 67.3896 1053.54 61.8932C1056.42 43.8573 1064.24 27.9233 1075.08 13.3995C1078.5 8.81923 1082.21 4.46022 1085.79 0C1086.34 0 1086.89 0 1087.43 0C1086.72 1.09846 1086.12 2.30632 1085.26 3.27981C1073.5 16.6215 1063.92 31.2596 1058.41 48.3241C1050.26 73.5637 1053.01 97.8609 1064.66 121.423C1065.6 123.328 1067.13 124.215 1068.85 125.075C1085.94 133.613 1103.03 142.166 1120.12 150.714C1132.44 156.881 1144.73 163.131 1157.13 169.145C1159.77 170.422 1160.59 171.992 1160.55 174.798C1160.39 183.808 1160.6 192.825 1160.42 201.833C1160.37 204.721 1161.36 206.173 1163.95 207.416C1191.74 220.743 1220.7 230.797 1250.51 238.475C1281.49 246.455 1312.92 251.831 1344.75 255.09C1380.68 258.768 1416.69 259.91 1452.74 257.934C1471.26 256.919 1489.73 254.811 1508.21 253.099C1510.06 252.927 1511.98 252.336 1513.65 251.507C1528.94 243.934 1544.18 236.265 1559.43 228.624C1559.43 229.17 1559.43 229.717 1559.43 230.263C1558.11 230.98 1556.81 231.735 1555.47 232.407C1511.53 254.381 1467.58 276.345 1423.64 298.32C1422.56 298.86 1421.53 299.504 1420.46 300.11C1420.73 300.517 1420.82 300.832 1421.02 300.939C1422.95 301.951 1424.87 302.986 1426.85 303.906C1458.41 318.601 1491.36 329.163 1525.29 336.724C1536.6 339.245 1548.05 341.156 1559.43 343.346C1559.43 343.892 1559.43 344.439 1559.43 344.985C1558.75 344.916 1558.06 344.892 1557.4 344.773C1538.06 341.342 1518.87 337.243 1499.93 332.029C1473.31 324.703 1447.4 315.498 1422.47 303.574C1421.34 303.033 1420.13 302.659 1418.74 302.123C1418.74 338.321 1418.74 373.872 1418.74 409.62C1420.07 409.731 1421.12 409.886 1422.18 409.898C1460.02 410.335 1497.65 413.228 1534.97 419.661C1543.16 421.072 1551.28 422.857 1559.43 424.47C1559.43 425.017 1559.43 425.563 1559.43 426.109C1551.41 424.488 1543.43 422.653 1535.37 421.28C1493.28 414.111 1450.85 410.995 1408.16 411.556C1382.21 411.897 1356.35 413.644 1330.58 416.834C1291.19 421.708 1252.53 429.792 1214.86 442.39C1185.91 452.076 1158.07 464.235 1132.18 480.571C1112.56 492.959 1094.63 507.358 1079.96 525.52C1070.27 537.522 1062.53 550.636 1057.98 565.451C1050.13 591.075 1053.27 615.627 1065.64 639.158C1075.53 657.957 1089.58 673.288 1105.85 686.676C1111.54 691.354 1117.65 695.502 1123.47 700.023C1125.48 701.587 1127.17 701.588 1129.39 700.438C1137.88 696.05 1146.49 691.909 1154.97 687.525C1157.35 686.295 1159.29 686.16 1161.79 687.416C1204.48 708.854 1247.21 730.191 1289.94 751.549C1300.56 756.858 1311.16 762.196 1321.82 767.435C1323.37 768.2 1325.13 768.76 1326.85 768.954C1338.37 770.254 1349.89 771.657 1361.45 772.599C1388.97 774.841 1416.54 775.26 1444.12 774.29C1482.94 772.924 1521.4 768.437 1559.43 760.441C1559.43 760.987 1559.43 761.534 1559.43 762.08C1543.84 764.75 1528.3 767.8 1512.65 770.003C1486.41 773.694 1460.01 775.603 1433.51 776.113C1399.89 776.76 1366.38 775.367 1332.99 771.315C1332.41 771.245 1331.82 771.306 1331.24 771.306C1332.45 772.741 1333.84 773.52 1335.27 774.234C1361.5 787.356 1387.72 800.508 1414.01 813.526C1416.49 814.753 1417.4 816.225 1417.29 818.885C1417.11 823.109 1417.2 827.346 1417.24 831.577C1417.25 832.735 1417.46 833.892 1417.6 835.361C1419.02 834.793 1420.03 834.457 1420.98 833.994C1454.67 817.65 1490.07 806.309 1526.55 798.216C1537.46 795.795 1548.47 793.781 1559.43 791.58C1559.43 792.126 1559.43 792.673 1559.43 793.219ZM149.912 712.164C152.13 713.337 153.431 714.058 154.761 714.723C184.91 729.8 215.051 744.891 245.234 759.898C247.393 760.971 249.815 761.657 252.193 762.124C283.847 768.347 315.791 772.161 348.013 773.835C383.118 775.659 418.167 775.011 453.152 771.753C480.758 769.182 508.132 764.986 535.189 758.855C574.868 749.863 613.295 737.312 649.467 718.427C669.507 707.964 688.34 695.689 705.105 680.421C719.982 666.873 732.604 651.586 740.949 633.099C751.407 609.932 752.852 586.292 744.466 562.164C739.049 546.578 730.321 532.976 719.494 520.683C698.865 497.262 673.384 480.35 645.894 466.16C644.398 465.388 643.161 465.373 641.686 466.169C638.685 467.789 635.603 469.259 632.552 470.785C556.511 508.806 480.47 546.829 404.428 584.847C321.303 626.406 238.176 667.961 155.051 709.52C153.62 710.235 152.206 710.982 149.912 712.164ZM900.964 255.929C898.769 256.887 897.55 257.441 896.314 257.954C883.084 263.443 870.04 269.445 856.586 274.316C806.853 292.322 755.298 301.882 702.72 306.224C676.582 308.383 650.39 309.106 624.146 308.338C588.326 307.291 552.777 303.832 517.535 297.339C479.168 290.271 441.743 279.938 405.834 264.516C378.872 252.936 353.366 238.844 330.7 220.004C314.281 206.355 300.075 190.819 290.124 171.727C283.547 159.11 279.4 145.787 278.504 131.517C277.839 120.93 278.867 110.539 281.734 100.314C282.17 98.759 283.231 97.1562 282.469 95.3248C273.559 98.705 132.848 169.548 130.637 171.824C132.133 172.605 133.562 173.379 135.014 174.104C176.642 194.916 218.276 215.717 259.902 236.533C308.245 260.708 356.578 284.904 404.923 309.073C469.383 341.297 533.851 373.505 598.314 405.721C612.599 412.859 626.899 419.967 641.142 427.187C643.054 428.156 644.59 428.287 646.467 427.206C648.946 425.778 651.587 424.632 654.151 423.35C705.424 397.721 756.697 372.093 807.967 346.457C837.753 331.564 867.515 316.623 897.344 301.817C900.042 300.478 901.078 298.923 901.034 295.896C900.865 284.291 900.965 272.683 900.964 261.075C900.964 259.609 900.964 258.142 900.964 255.929ZM1157.73 446.536C1155.63 445.442 1154.44 444.779 1153.22 444.196C1132.11 434.128 1110.24 426.046 1087.83 419.41C1058.59 410.753 1028.83 404.612 998.629 400.452C972.493 396.852 946.253 394.502 919.885 394.18C901.327 393.954 882.734 394.123 864.199 395.006C847.172 395.816 830.158 397.438 813.216 399.382C788.25 402.246 763.579 406.929 739.185 413.01C708.648 420.624 678.956 430.65 650.477 444.132C649.175 444.748 647.937 445.503 646.112 446.495C647.798 447.45 648.911 448.147 650.08 448.732C731.621 489.518 813.198 530.233 894.642 571.214C900.034 573.928 903.979 573.716 909.227 571.078C990.44 530.253 1071.76 489.648 1153.06 448.989C1154.36 448.337 1155.64 447.636 1157.73 446.536ZM902.724 815.678C904.438 816.59 905.601 817.262 906.808 817.842C921.958 825.121 937.537 831.352 953.454 836.725C1010.15 855.862 1068.62 865.115 1128.23 867.681C1162.38 869.15 1196.48 868.161 1230.51 864.697C1267.12 860.97 1303.2 854.515 1338.62 844.468C1363.08 837.527 1386.92 828.909 1409.9 817.964C1411.18 817.351 1412.42 816.639 1414.23 815.682C1412.3 814.614 1411.04 813.854 1409.72 813.195C1397.76 807.204 1385.79 801.233 1373.83 795.25C1303.27 759.965 1232.71 724.694 1162.18 689.333C1159.42 687.948 1157.33 688.068 1154.62 689.436C1123.29 705.223 1091.9 720.879 1060.52 736.569C1009.25 762.208 957.97 787.845 906.699 813.491C905.512 814.083 904.371 814.768 902.724 815.678ZM1415.33 335.247C1413.64 334.367 1412.47 333.71 1411.27 333.133C1386.18 321.157 1360.07 312.017 1333.27 304.754C1307.03 297.64 1280.39 292.486 1253.44 288.91C1232.45 286.123 1211.38 284.333 1190.22 283.403C1147.96 281.544 1105.87 283.516 1063.96 289.186C1030.08 293.769 996.755 300.886 964.153 311.253C944.88 317.382 926.034 324.601 907.803 333.379C906.681 333.919 905.629 334.605 904.107 335.473C905.593 336.328 906.391 336.842 907.235 337.264C953.258 360.28 999.282 383.293 1045.32 406.273C1046.89 407.057 1048.59 407.691 1050.3 408.072C1074.98 413.567 1099.27 420.431 1122.83 429.617C1134.52 434.173 1145.88 439.552 1157.44 444.451C1159.82 445.46 1160.68 446.939 1160.54 449.463C1160.36 452.593 1160.48 455.742 1160.51 458.883C1160.53 459.922 1160.69 460.958 1160.79 462.016C1164.42 461.329 1409.09 339.478 1415.33 335.247ZM1158.64 281.207C1158.64 244.885 1158.64 209.217 1158.64 173C1156.6 173.957 1155.01 174.661 1153.45 175.438C1121.34 191.48 1089.23 207.522 1057.12 223.581C995.602 254.355 934.092 285.151 872.567 315.916C798.465 352.97 724.345 389.988 650.254 427.062C643.54 430.422 644.742 428.466 644.689 436.172C644.67 438.943 644.378 441.759 645.054 444.829C646.502 444.218 647.505 443.846 648.463 443.382C670.519 432.727 693.428 424.296 716.909 417.424C741.954 410.095 767.405 404.561 793.204 400.586C816.432 397.008 839.765 394.492 863.238 393.386C874.283 392.866 885.346 392.721 896.4 392.385C897.834 392.341 899.263 392.169 900.999 392.033C900.999 389.965 900.999 388.347 900.999 386.729C900.999 370.752 901.06 354.774 900.941 338.797C900.92 335.947 901.778 334.312 904.456 333.17C912.864 329.585 921.078 325.532 929.547 322.105C981.08 301.252 1034.9 290.044 1090.03 284.545C1111.37 282.416 1132.78 281.332 1154.23 281.208C1155.57 281.2 1156.91 281.207 1158.64 281.207ZM493.439 538.506C499.761 535.372 505.13 532.73 510.481 530.055C553.202 508.705 595.903 487.316 638.671 466.06C641.879 464.466 643.355 462.756 643.197 458.966C642.861 450.925 642.898 442.853 643.186 434.809C643.318 431.144 642.129 429.289 638.804 427.641C601.761 409.278 564.813 390.726 527.832 372.239C494.269 355.46 460.699 338.695 427.128 321.932C425.903 321.32 424.631 320.802 423.381 320.24C423.249 320.509 423.116 320.778 422.983 321.046C424.397 322.084 425.8 323.136 427.225 324.157C441.94 334.698 455.437 346.563 466.83 360.7C484.472 382.592 494.163 407.097 493.581 435.729C492.921 468.208 493.436 500.71 493.439 533.203C493.439 534.662 493.439 536.121 493.439 538.506ZM644.685 448.041C644.685 452.57 644.849 456.384 644.63 460.176C644.474 462.881 645.422 464.323 647.879 465.543C659.388 471.254 670.407 477.831 681.003 485.1C699.249 497.617 715.765 512.013 728.936 529.939C743.663 549.984 751.966 572.121 751.506 597.376C751.111 619.083 751.431 640.802 751.435 662.516C751.435 663.955 751.435 665.394 751.435 667.524C753.607 666.521 755.073 665.893 756.496 665.181C793.856 646.505 831.211 627.82 868.567 609.137C878.455 604.191 888.317 599.19 898.254 594.344C900.265 593.364 901.142 592.174 901.009 589.942C900.856 587.357 901.033 584.754 900.975 582.16C900.811 574.89 902.185 576.558 895.238 573.075C860.832 555.82 826.389 538.64 791.961 521.427C744.349 497.623 696.739 473.812 649.123 450.014C647.929 449.417 646.681 448.925 644.685 448.041ZM1052.18 667.487C1052.18 665.155 1052.18 663.665 1052.18 662.176C1052.18 639.65 1052.27 617.124 1052.16 594.599C1052.08 579.445 1055.37 565.098 1061.77 551.42C1070.48 532.802 1083.4 517.415 1098.57 503.79C1115.12 488.92 1133.66 476.96 1153.3 466.627C1155.1 465.68 1156.89 464.709 1158.93 463.619C1158.93 459.348 1158.94 455.132 1158.91 450.917C1158.91 450.143 1158.73 449.37 1158.58 448.245C1157.22 448.819 1156.1 449.222 1155.04 449.75C1144.29 455.098 1133.54 460.46 1122.8 465.831C1065.94 494.275 1009.07 522.725 952.208 551.168C936.71 558.919 921.222 566.693 905.676 574.349C903.426 575.457 902.333 576.77 902.512 579.347C902.71 582.201 902.847 585.114 902.495 587.936C902.003 591.87 903.82 593.652 907.162 595.314C954.082 618.637 1000.93 642.098 1047.8 665.518C1048.98 666.109 1050.21 666.604 1052.18 667.487ZM1416.95 333.998C1416.95 331.85 1416.95 330.51 1416.95 329.169C1416.96 321.386 1416.91 313.603 1416.97 305.82C1417.03 299.071 1415.9 300.457 1422.23 297.283C1448.34 284.196 1474.48 271.16 1500.6 258.096C1501.87 257.46 1503.1 256.737 1504.35 256.055C1502.58 255.446 1501.01 255.564 1499.44 255.711C1490.33 256.561 1481.24 257.51 1472.13 258.256C1441.87 260.734 1411.57 261.069 1381.27 259.491C1346.87 257.7 1312.75 253.634 1278.99 246.659C1239.29 238.454 1200.75 226.731 1164.11 209.149C1163.18 208.702 1162.16 208.431 1161.15 208.067C1160.14 212.419 1160.27 277.836 1161.33 281.201C1162.71 281.201 1164.2 281.165 1165.69 281.206C1176.47 281.505 1187.26 281.581 1198.03 282.172C1232.28 284.051 1266.27 288.145 1299.88 295.166C1336.85 302.892 1372.85 313.728 1407.26 329.509C1410.21 330.862 1413.15 332.235 1416.95 333.998ZM605.863 740.503C491.589 779.945 375.016 785.107 256.514 765.157C257.635 766.039 258.858 766.768 260.128 767.404C287.701 781.204 315.278 794.995 342.856 808.785C356.035 815.375 369.17 822.057 382.434 828.47C385.555 829.979 387.05 831.695 386.735 835.276C386.413 838.933 386.644 842.641 386.685 846.326C386.696 847.339 386.893 848.351 387.064 849.903C460.291 813.289 533.077 776.897 605.863 740.503ZM128.862 245.833C130.26 245.95 131.443 246.121 132.628 246.139C155.422 246.485 178.173 247.543 200.861 249.885C225.033 252.38 249.017 256.032 272.767 261.18C295.582 266.126 318.058 272.281 340.041 280.18C341.185 280.591 342.389 280.835 343.565 281.156C338.748 277.137 131.82 174.071 128.862 173.657C128.862 197.634 128.862 221.597 128.862 245.833ZM1202.01 444.134C1202.11 444.433 1202.22 444.732 1202.32 445.031C1271.58 420.284 1343.3 410.496 1416.7 409.851C1416.7 385.432 1416.7 361.495 1416.7 336.778C1344.79 372.735 1273.4 408.434 1202.01 444.134ZM384.917 832.495C326.487 861.713 268.767 890.576 211.047 919.438C211.155 919.773 211.262 920.107 211.37 920.442C268.154 905.162 326.064 898.608 384.917 898.178C384.917 876.212 384.917 854.838 384.917 832.495ZM1037.97 405.438C1038.05 405.111 1038.13 404.785 1038.21 404.459C993.274 381.994 948.336 359.529 903.271 337C902.19 341.828 902.41 389.244 903.502 392.363C948.656 392.363 993.53 396.657 1037.97 405.438ZM126.885 197.92C121.553 199.54 14.7932 253.179 12.368 255.556C50.4938 249.194 88.4892 246.398 126.885 246.095C126.885 229.778 126.885 213.999 126.885 197.92ZM386.896 898.194C422.076 898.449 456.748 900.906 491.227 906.003C491.301 905.687 491.374 905.371 491.448 905.055C456.767 887.717 422.085 870.379 386.896 852.787C386.896 868.21 386.896 882.879 386.896 898.194ZM1053.91 614.588C1053.85 615.253 1053.73 615.918 1053.73 616.583C1053.72 632.95 1053.8 649.318 1053.64 665.683C1053.62 668.367 1055.06 669.196 1056.95 670.137C1077.93 680.603 1098.9 691.096 1119.87 701.565C1121.03 702.144 1122.26 702.589 1123.46 703.096C1123.6 702.851 1123.74 702.606 1123.88 702.361C1122.87 701.592 1121.85 700.823 1120.83 700.052C1115.41 695.931 1109.83 691.992 1104.58 687.655C1088.67 674.519 1074.96 659.484 1064.98 641.261C1060.37 632.847 1057.06 623.936 1053.91 614.588ZM749.761 614.681C749.552 614.687 749.343 614.693 749.134 614.7C748.867 615.461 748.543 616.207 748.34 616.985C743.862 634.202 735.205 649.217 724.023 662.867C711.652 677.968 696.917 690.452 680.885 701.479C680.083 702.03 679.373 702.715 678.62 703.339C678.756 703.531 678.891 703.724 679.026 703.916C702.618 692.12 726.209 680.323 749.761 668.547C749.761 650.357 749.761 632.519 749.761 614.681ZM1054.27 98.9008C1054.1 98.9168 1053.93 98.9332 1053.75 98.9492C1053.75 104.631 1053.73 110.314 1053.79 115.995C1053.79 116.597 1054.11 117.498 1054.56 117.742C1057.07 119.098 1059.39 120.977 1062.37 121.227C1059.61 113.626 1056.94 106.263 1054.27 98.9008Z" fill="url(#paint0_linear_18468_37726)" fill-opacity="0.2"/>
<defs>
<linearGradient id="paint0_linear_18468_37726" x1="720.322" y1="115.885" x2="720.764" y2="883.317" gradientUnits="userSpaceOnUse">
<stop stop-opacity="0"/>
<stop offset="1"/>
</linearGradient>
</defs>
</svg>
