<svg width="696" height="1116" viewBox="0 0 696 1116" fill="none" xmlns="http://www.w3.org/2000/svg">
<path d="M1340 937.75C1325.62 940.647 1311.15 943.203 1296.86 946.502C1247.76 957.837 1200.37 973.91 1156.19 998.57C1129.97 1013.21 1105.77 1030.54 1085.44 1052.86C1071.05 1068.65 1059.54 1086.23 1052.81 1106.68C1051.81 1109.73 1051.16 1112.89 1050.34 1116C1049.7 1116 1049.05 1116 1048.41 1116C1048.58 1115.05 1048.69 1114.09 1048.94 1113.16C1054.22 1093.16 1064.21 1075.65 1077.13 1059.68C1078.61 1057.86 1080.11 1056.06 1081.6 1054.25C1079.62 1054.16 1078.19 1054.71 1076.82 1055.39C1042.79 1072.38 1008.76 1089.37 974.76 1106.41C968.581 1109.5 962.502 1112.8 956.377 1116C955.085 1116 953.793 1116 952.502 1116C953.838 1115.15 955.109 1114.17 956.518 1113.47C998.077 1092.68 1039.63 1071.88 1081.25 1051.2C1085.68 1049 1089.27 1046.01 1092.77 1042.59C1109.12 1026.6 1127.48 1013.2 1147.18 1001.64C1153.58 997.885 1160.08 994.287 1166.67 990.88C1169.19 989.58 1170.16 988.031 1170.08 985.222C1169.89 979.145 1170.02 973.058 1170.02 966.359C1168.16 967.004 1166.96 967.29 1165.88 967.809C1122.25 988.697 1076.37 1002.64 1029.09 1012.34C993.784 1019.59 958.122 1024.19 922.177 1026.54C887.997 1028.78 853.796 1028.96 819.575 1027.08C790.698 1025.5 761.97 1022.59 733.44 1017.95C676.819 1008.72 621.831 993.876 569.676 969.513C566.762 968.152 563.935 966.599 561.087 965.099C560.855 964.977 560.768 964.578 560.264 963.697C647.312 920.04 734.442 876.644 822.146 832.673C820.181 831.558 818.982 830.805 817.722 830.175C733.878 788.236 650.018 746.329 566.225 704.29C563.097 702.72 560.863 703.383 558.161 704.737C516.617 725.559 475.052 746.336 433.486 767.113C356.992 805.349 280.489 843.567 204 881.812C123.033 922.297 42.0773 962.806 -38.8826 1003.31C-40.6017 1004.17 -42.3071 1005.05 -44.9063 1006.38C-42.853 1007.57 -41.46 1008.47 -39.9832 1009.21C-13.2868 1022.57 13.4197 1035.9 40.1234 1049.24C53.837 1056.09 67.6387 1062.77 81.2167 1069.88C86.2363 1072.51 91.5248 1073.46 96.9115 1074.41C143.926 1082.76 189.745 1095.23 233.731 1114.03C235.048 1114.6 236.288 1115.34 237.563 1116C235.949 1116 234.334 1116 232.72 1116C226.817 1113.46 220.991 1110.72 214.998 1108.42C167.19 1090.06 117.645 1078.59 67.0265 1071.52C34.7255 1067.01 2.2403 1064.6 -30.363 1063.95C-86.6556 1062.84 -142.537 1067.1 -197.917 1077.38C-236.039 1084.45 -273.381 1094.41 -309.61 1108.33C-315.581 1110.62 -321.354 1113.43 -327.218 1116C-328.833 1116 -330.447 1116 -332.062 1116C-325.596 1113.16 -319.252 1109.99 -312.637 1107.55C-300.076 1102.92 -287.246 1099.01 -274.749 1094.22C-266.493 1091.06 -258.523 1087.09 -250.598 1083.14C-185.334 1050.57 -120.111 1017.93 -54.8787 985.3C-53.4556 984.588 -52.0722 983.797 -49.9744 982.668C-51.8644 981.6 -53.1747 980.782 -54.5498 980.094C-106.218 954.25 -157.896 928.425 -209.564 902.582C-259.211 877.751 -308.846 852.896 -358.493 828.064C-406.554 804.027 -454.622 780.004 -502.688 755.978C-548.156 733.251 -593.623 710.522 -639.102 687.819C-640.668 687.038 -642.365 686.518 -644 685.875C-644 685.23 -644 684.583 -644 683.938C-642.355 684.543 -640.635 684.998 -639.076 685.776C-575.857 717.369 -512.656 748.999 -449.445 780.607C-410.479 800.092 -371.482 819.517 -332.561 839.091C-329.596 840.582 -327.341 840.322 -324.523 838.909C-256.439 804.783 -188.318 770.73 -120.2 736.672C-55.8333 704.491 8.52167 672.288 72.947 640.226C76.6078 638.404 78.0547 636.435 78.0276 632.21C77.8285 601.056 77.9244 569.899 77.9279 538.744C77.9279 536.993 77.9279 535.242 77.9279 533.492C77.6474 533.437 77.3669 533.382 77.0869 533.327C76.7183 534.295 76.2611 535.239 75.9942 536.234C69.97 558.711 58.1484 577.936 42.8794 595.211C24.3017 616.229 2.203 632.899 -21.8094 647.133C-61.2526 670.517 -103.74 686.477 -147.852 698.387C-178.733 706.725 -210.084 712.702 -241.788 716.933C-291.363 723.55 -341.145 725.603 -391.07 723.324C-452.056 720.541 -512.121 711.664 -570.822 694.494C-594.228 687.647 -617.153 679.464 -639.452 669.556C-640.856 668.932 -642.478 668.799 -643.999 668.437C-643.999 667.469 -643.999 666.5 -643.999 665.531C-602.065 684.525 -558.293 697.678 -513.221 706.716C-487.736 711.826 -462.059 715.568 -436.191 718.154C-404.03 721.369 -371.806 722.619 -339.501 722.195C-308.649 721.79 -277.901 719.738 -247.303 715.833C-194.002 709.03 -141.824 697.442 -91.4863 678.299C-58.1724 665.63 -26.4114 649.959 2.51886 628.951C23.2981 613.861 41.8487 596.502 56.1658 574.98C66.6642 559.198 74.0519 542.141 76.791 523.262C80.4485 498.057 75.304 474.48 63.337 452.241C50.2429 427.908 31.4525 408.556 9.83582 391.768C-20.1271 368.498 -53.5805 351.551 -88.8091 337.929C-128.214 322.691 -168.916 312.205 -210.499 304.935C-260.566 296.182 -311.021 292.445 -361.809 292.934C-394.114 293.244 -426.318 295.342 -458.359 299.464C-507.77 305.819 -556.277 316.244 -603.196 333.246C-616.977 338.241 -630.408 344.201 -644 349.719C-644 348.75 -644 347.781 -644 346.813C-642.628 346.493 -641.163 346.383 -639.897 345.823C-601.547 328.828 -561.628 316.805 -520.651 308.132C-515.446 307.03 -510.233 305.941 -504.985 305.077C-500.298 304.307 -496.065 302.532 -491.85 300.416C-448.025 278.419 -404.159 256.506 -360.306 234.565C-358.746 233.784 -357.211 232.953 -354.906 231.75C-357.005 230.559 -358.448 229.651 -359.966 228.892C-408.874 204.44 -457.793 180.009 -506.703 155.561C-550.851 133.493 -594.989 111.406 -639.139 89.3406C-640.722 88.5491 -642.378 87.902 -644 87.1875C-644 86.5419 -644 85.8957 -644 85.25C-642.658 85.7809 -641.267 86.2139 -639.981 86.8562C-598.412 107.623 -556.852 128.408 -515.291 149.192C-462.908 175.39 -410.526 201.59 -358.137 227.776C-356.765 228.461 -355.316 228.991 -353.306 229.848C-353.306 222.292 -353.374 215.529 -353.288 208.768C-353.189 200.951 -354.529 202.688 -347.263 199.049C-290.276 170.513 -233.289 141.977 -176.197 113.65C-170.425 110.786 -165.724 107.693 -164.144 101.059C-163.668 99.063 -162.373 97.2698 -161.537 95.3478C-161.133 94.4193 -160.922 93.4064 -160.433 91.8056C-163.087 92.4077 -165.102 92.8431 -167.105 93.3231C-187.983 98.3257 -209.062 102.291 -230.298 105.404C-260.183 109.786 -290.223 112.418 -320.41 113.608C-355.79 115.002 -391.105 114.073 -426.358 111.04C-458.372 108.286 -490.123 103.647 -521.568 96.9303C-562.073 88.2788 -601.528 76.3705 -639.463 59.6251C-640.914 58.9848 -642.485 58.6186 -644 58.125C-644 57.4794 -644 56.8332 -644 56.1875C-642.628 56.5857 -641.187 56.8288 -639.895 57.4048C-600.535 74.9493 -559.513 87.2161 -517.384 95.9354C-473.684 104.98 -429.51 109.969 -384.921 111.731C-354.4 112.936 -323.928 112.439 -293.484 110.353C-249.308 107.327 -205.629 100.923 -162.595 90.3413C-159.976 89.6976 -157.969 88.8121 -156.464 86.2832C-143.226 64.0436 -125.267 46.112 -104.964 30.3558C-103.31 29.0717 -101.673 27.7649 -100.056 26.4333C-99.8447 26.2589 -99.8083 25.8719 -99.5623 25.2674C-100.933 24.536 -102.315 23.7591 -103.729 23.05C-116.853 16.4741 -129.989 9.92436 -143.102 3.32814C-145.109 2.31919 -147.016 1.11406 -148.969 0C-147.354 0 -145.739 0 -144.125 0C-142.846 0.894641 -141.65 1.95106 -140.273 2.65631C-133.836 5.95539 -127.351 9.16196 -120.879 12.3927C-112.979 16.337 -105.073 20.273 -97.1965 24.1994C-96.4612 23.8259 -95.869 23.5789 -95.3308 23.2447C-84.0037 16.2028 -72.6775 9.16002 -61.3717 2.08378C-60.4611 1.51367 -59.7031 0.700407 -58.8743 0C-57.5825 0 -56.2911 0 -54.9993 0C-56.8176 1.24 -58.5492 2.63645 -60.4669 3.69675C-86.1659 17.904 -110.147 34.4323 -130.595 55.7007C-145.966 71.689 -158.586 89.5353 -166.039 110.602C-178.266 145.16 -173.482 177.945 -155.068 209.12C-142.234 230.849 -124.781 248.412 -105.04 263.827C-77.8622 285.047 -47.6799 300.987 -15.8908 314.018C26.5419 331.412 70.5871 343.073 115.705 350.966C143.871 355.893 172.216 359.283 200.728 361.156C235.064 363.413 269.423 363.633 303.806 361.744C336.555 359.945 369.092 356.398 401.372 350.657C451.588 341.725 500.446 328.164 547.051 307.115C550.725 305.455 554.339 303.662 557.966 301.9C558.381 301.699 558.696 301.295 559.375 300.713C558.225 299.96 557.275 299.193 556.209 298.66C505.411 273.261 454.598 247.893 403.798 222.497C350.834 196.02 297.882 169.516 244.922 143.03C185.179 113.151 125.433 83.2791 65.6891 53.4038C32.2095 36.6624 -1.27332 19.9277 -34.7339 3.14844C-36.424 2.30078 -37.9158 1.05884 -39.4998 0C-38.2079 0 -36.9166 0 -35.6248 0C-35.0401 0.518282 -34.5339 1.19302 -33.8592 1.53208C-21.0881 7.94327 -8.27496 14.2711 4.46747 20.739C6.48535 21.7635 8.05286 21.4002 9.88135 20.4789C22.0711 14.3365 34.2982 8.26877 46.4924 2.13513C47.6118 1.57228 48.5849 0.718328 49.6258 0C50.9176 0 52.209 0 53.5008 0C52.2138 0.889797 51.0106 1.94525 49.6273 2.64324C37.9615 8.52936 26.2605 14.3462 14.5764 20.1955C13.1436 20.9129 11.7462 21.701 9.50549 22.8979C11.4532 24.0056 12.8375 24.879 14.2935 25.6084C38.813 37.8883 63.3428 50.1488 87.8687 62.4166C169.967 103.483 252.06 144.559 334.163 185.615C408.473 222.774 482.793 259.912 557.109 297.059C557.975 297.492 558.807 298.02 559.713 298.339C562.541 299.335 563.571 301.224 563.483 304.244C563.297 310.696 563.428 317.156 563.427 323.613C563.427 331.683 563.41 339.754 563.439 347.825C563.445 349.383 563.629 350.94 563.733 352.539C567.676 351.762 855.386 208.404 864.169 202.937C863.384 200.881 861.292 200.558 859.692 199.755C835.613 187.669 811.501 175.649 787.402 163.604C691.728 115.781 596.055 67.9545 500.382 20.1282C488.693 14.2852 477.001 8.44944 465.334 2.56477C463.93 1.85661 462.671 0.862188 461.345 0.000484375C462.959 0.000484375 464.574 0.000484375 466.188 0.000484375C467.558 0.994422 468.82 2.20342 470.313 2.95178C513.417 24.5501 556.559 46.0714 599.634 67.7282C602.573 69.2061 604.839 69.1194 607.709 67.6784C650.942 45.9687 694.229 24.366 737.484 2.69991C738.865 2.00822 740.042 0.909657 741.314 0.00096875C742.928 0.00096875 744.543 0.00096875 746.157 0.00096875C744.653 0.90675 743.202 1.91619 741.638 2.70184C724.781 11.1658 707.909 19.5998 691.036 28.0322C664.5 41.2949 637.954 54.5373 611.438 67.8397C609.851 68.636 607.803 68.993 606.953 70.9682C616.58 76.957 736.363 136.292 740.345 136.93C740.345 135.118 740.345 133.37 740.345 131.623C740.347 118.718 740.188 105.811 740.418 92.9104C740.535 86.3195 740.892 79.6686 741.929 73.1707C745.332 51.8485 754.583 33.0111 767.401 15.841C771.442 10.4262 775.833 5.27291 780.063 0C780.709 0 781.355 0 782.001 0C781.154 1.29861 780.453 2.72655 779.438 3.87742C765.528 19.6501 754.204 36.9554 747.688 57.1292C738.05 86.9676 741.31 115.692 755.074 143.547C756.187 145.799 757.994 146.848 760.03 147.865C780.238 157.958 800.437 168.07 820.639 178.175C835.213 185.466 849.74 192.855 864.402 199.964C867.517 201.474 868.494 203.331 868.437 206.648C868.255 217.299 868.506 227.959 868.292 238.609C868.223 242.023 869.394 243.739 872.459 245.209C905.315 260.965 939.548 272.85 974.788 281.927C1011.41 291.361 1048.58 297.717 1086.2 301.569C1128.68 305.918 1171.25 307.268 1213.87 304.932C1235.77 303.731 1257.6 301.239 1279.45 299.216C1281.64 299.013 1283.9 298.314 1285.88 297.334C1303.95 288.381 1321.97 279.314 1340 270.281C1340 270.927 1340 271.573 1340 272.219C1338.44 273.066 1336.91 273.96 1335.32 274.753C1283.37 300.731 1231.41 326.698 1179.46 352.677C1178.19 353.315 1176.97 354.076 1175.71 354.793C1176.02 355.274 1176.13 355.647 1176.37 355.773C1178.66 356.969 1180.93 358.193 1183.26 359.28C1220.57 376.653 1259.53 389.139 1299.64 398.078C1313.01 401.058 1326.54 403.317 1340 405.906C1340 406.552 1340 407.198 1340 407.844C1339.2 407.763 1338.39 407.734 1337.59 407.593C1314.73 403.538 1292.05 398.692 1269.65 392.527C1238.19 383.867 1207.55 372.984 1178.09 358.888C1176.75 358.248 1175.32 357.807 1173.68 357.173C1173.68 399.967 1173.68 441.995 1173.68 484.257C1175.24 484.388 1176.49 484.571 1177.74 484.585C1222.48 485.102 1266.97 488.522 1311.08 496.127C1320.76 497.795 1330.36 499.906 1340 501.813C1340 502.458 1340 503.105 1340 503.75C1330.52 501.833 1321.09 499.664 1311.56 498.041C1261.79 489.566 1211.63 485.882 1161.17 486.545C1130.49 486.949 1099.92 489.014 1069.45 492.784C1022.89 498.547 977.178 508.104 932.651 522.998C898.419 534.448 865.506 548.823 834.905 568.136C811.702 582.78 790.505 599.803 773.167 621.274C761.708 635.463 752.556 650.966 747.186 668.481C737.899 698.774 741.617 727.799 756.243 755.618C767.928 777.842 784.544 795.967 803.776 811.794C810.496 817.325 817.728 822.228 824.605 827.574C826.984 829.423 828.978 829.423 831.605 828.064C841.635 822.876 851.815 817.981 861.847 812.798C864.662 811.344 866.954 811.185 869.911 812.67C920.373 838.014 970.894 863.238 1021.4 888.487C1033.96 894.764 1046.5 901.074 1059.09 907.269C1060.93 908.172 1063.01 908.835 1065.04 909.064C1078.66 910.601 1092.28 912.26 1105.95 913.373C1138.48 916.023 1171.08 916.519 1203.68 915.372C1249.57 913.758 1295.04 908.453 1340 899C1340 899.646 1340 900.292 1340 900.937C1321.57 904.094 1303.2 907.7 1284.69 910.304C1253.68 914.668 1222.47 916.925 1191.13 917.528C1151.39 918.293 1111.77 916.646 1072.3 911.855C1071.62 911.773 1070.92 911.845 1070.23 911.845C1071.66 913.541 1073.31 914.463 1075 915.306C1106.01 930.819 1137.01 946.368 1168.08 961.757C1171.01 963.209 1172.09 964.948 1171.96 968.093C1171.75 973.087 1171.86 978.096 1171.9 983.098C1171.91 984.467 1172.16 985.835 1172.33 987.571C1174 986.9 1175.2 986.502 1176.33 985.955C1216.16 966.633 1258 953.226 1301.12 943.658C1314.03 940.796 1327.04 938.414 1340 935.813C1340 936.459 1340 937.105 1340 937.75ZM-326.343 841.926C-323.722 843.313 -322.184 844.166 -320.612 844.952C-284.969 862.776 -249.336 880.616 -213.653 898.358C-211.101 899.626 -208.238 900.438 -205.427 900.99C-168.005 908.346 -130.241 912.855 -92.1475 914.834C-50.6457 916.991 -9.21033 916.224 32.149 912.373C64.7848 909.333 97.1469 904.374 129.134 897.125C176.042 886.495 221.471 871.656 264.234 849.331C287.926 836.961 310.19 822.449 330.01 804.399C347.597 788.383 362.52 770.31 372.385 748.455C384.749 721.067 386.457 693.12 376.543 664.595C370.139 646.17 359.821 630.089 347.021 615.556C322.634 587.868 292.509 567.874 260.011 551.099C258.242 550.186 256.78 550.168 255.036 551.109C251.488 553.024 247.845 554.762 244.237 556.566C154.341 601.515 64.4452 646.466 -25.4529 691.412C-123.724 740.543 -221.997 789.669 -320.268 838.8C-321.96 839.646 -323.632 840.53 -326.343 841.926ZM561.556 302.562C558.961 303.694 557.521 304.349 556.059 304.956C540.419 311.445 524.998 318.54 509.093 324.298C450.297 345.586 389.349 356.887 327.19 362.021C296.289 364.573 265.326 365.428 234.3 364.52C191.953 363.282 149.926 359.193 108.263 351.517C62.9054 343.16 18.6611 330.945 -23.7905 312.713C-55.6653 299.023 -85.8186 282.364 -112.614 260.09C-132.025 243.955 -148.819 225.588 -160.584 203.018C-168.359 188.101 -173.262 172.35 -174.322 155.481C-175.108 142.965 -173.893 130.68 -170.502 118.592C-169.987 116.754 -168.733 114.859 -169.634 112.694C-180.167 116.69 -346.518 200.441 -349.131 203.131C-347.362 204.055 -345.673 204.97 -343.957 205.827C-294.743 230.432 -245.523 255.023 -196.312 279.632C-139.161 308.211 -82.0221 336.816 -24.8672 365.388C51.3371 403.485 127.552 441.56 203.761 479.647C220.648 488.086 237.554 496.489 254.393 505.024C256.653 506.169 258.468 506.325 260.688 505.046C263.619 503.358 266.741 502.004 269.772 500.488C330.387 470.189 391.003 439.891 451.614 409.585C486.827 391.978 522.013 374.315 557.277 356.811C560.466 355.228 561.691 353.389 561.639 349.811C561.439 336.091 561.557 322.368 561.556 308.645C561.556 306.912 561.556 305.178 561.556 302.562ZM865.105 527.899C862.621 526.605 861.223 525.822 859.779 525.133C834.819 513.23 808.967 503.676 782.47 495.83C747.907 485.596 712.72 478.336 677.016 473.418C646.119 469.162 615.098 466.384 583.926 466.003C561.985 465.736 540.005 465.936 518.093 466.979C497.963 467.937 477.849 469.855 457.819 472.152C428.305 475.538 399.138 481.075 370.3 488.264C334.198 497.265 299.096 509.118 265.429 525.056C263.889 525.785 262.425 526.677 260.268 527.851C262.261 528.979 263.577 529.804 264.959 530.495C361.358 578.713 457.799 626.846 554.082 675.295C560.457 678.503 565.121 678.252 571.325 675.134C667.336 626.87 763.478 578.867 859.587 530.798C861.127 530.029 862.636 529.199 865.105 527.899ZM563.637 964.302C565.664 965.38 567.038 966.174 568.465 966.86C586.375 975.466 604.793 982.832 623.611 989.184C690.636 1011.81 759.757 1022.75 830.237 1025.78C870.608 1027.52 910.922 1026.35 951.146 1022.25C994.423 1017.85 1037.08 1010.21 1078.95 998.337C1107.88 990.132 1136.06 979.943 1163.22 967.004C1164.74 966.28 1166.21 965.437 1168.35 964.306C1166.07 963.044 1164.57 962.146 1163.02 961.366C1148.88 954.283 1134.73 947.225 1120.58 940.152C1037.17 898.437 953.744 856.739 870.374 814.935C867.11 813.298 864.635 813.44 861.427 815.057C824.392 833.721 787.278 852.23 750.184 870.778C689.567 901.089 628.949 931.397 568.336 961.716C566.933 962.416 565.584 963.226 563.637 964.302ZM1169.64 396.332C1167.65 395.291 1166.27 394.514 1164.84 393.832C1135.19 379.674 1104.31 368.87 1072.64 360.283C1041.61 351.872 1010.12 345.78 978.257 341.551C953.439 338.258 928.53 336.141 903.523 335.041C853.557 332.844 803.8 335.175 754.248 341.878C714.198 347.297 674.801 355.71 636.258 367.966C613.474 375.212 591.195 383.746 569.641 394.124C568.315 394.762 567.072 395.573 565.272 396.599C567.029 397.61 567.972 398.218 568.969 398.717C623.378 425.926 677.789 453.133 732.219 480.3C734.076 481.227 736.084 481.976 738.108 482.426C767.283 488.923 795.997 497.037 823.852 507.897C837.667 513.284 851.1 519.643 864.76 525.434C867.574 526.627 868.596 528.375 868.426 531.359C868.215 535.06 868.353 538.783 868.4 542.496C868.415 543.723 868.612 544.948 868.729 546.2C873.021 545.388 1162.27 401.333 1169.64 396.332ZM866.182 332.445C866.182 289.505 866.182 247.338 866.182 204.523C863.769 205.653 861.888 206.485 860.049 207.404C822.086 226.369 784.122 245.335 746.169 264.32C673.438 300.701 600.721 337.108 527.985 373.479C440.381 417.284 352.756 461.047 265.165 504.877C257.228 508.849 258.648 506.536 258.586 515.646C258.563 518.923 258.218 522.252 259.017 525.881C260.729 525.159 261.914 524.718 263.048 524.17C289.123 511.573 316.206 501.606 343.965 493.482C373.573 484.817 403.661 478.275 434.161 473.577C461.622 469.346 489.207 466.372 516.957 465.065C530.014 464.449 543.092 464.279 556.16 463.881C557.855 463.829 559.546 463.626 561.598 463.465C561.598 461.02 561.598 459.108 561.598 457.195C561.598 438.306 561.671 419.417 561.529 400.529C561.504 397.16 562.519 395.227 565.685 393.877C575.624 389.638 585.335 384.847 595.347 380.795C656.27 356.143 719.897 342.893 785.068 336.391C810.295 333.874 835.606 332.593 860.967 332.446C862.553 332.437 864.139 332.445 866.182 332.445ZM79.7767 636.626C87.2511 632.921 93.5974 629.798 99.9238 626.636C150.429 601.396 200.911 576.109 251.471 550.981C255.264 549.096 257.009 547.074 256.822 542.594C256.425 533.088 256.469 523.545 256.81 514.034C256.965 509.702 255.56 507.509 251.628 505.56C207.836 483.852 164.155 461.92 120.437 440.064C80.758 420.227 41.0712 400.408 1.38293 380.591C-0.0653687 379.868 -1.56879 379.255 -3.04663 378.591C-3.20306 378.908 -3.35956 379.226 -3.51648 379.543C-1.8454 380.77 -0.18689 382.014 1.49823 383.221C18.8946 395.683 34.8508 409.71 48.3194 426.423C69.1761 452.304 80.6326 481.273 79.9448 515.122C79.1649 553.519 79.7728 591.944 79.7772 630.357C79.7767 632.083 79.7767 633.807 79.7767 636.626ZM258.581 529.678C258.581 535.032 258.775 539.541 258.516 544.024C258.332 547.221 259.452 548.927 262.357 550.368C275.963 557.12 288.99 564.896 301.517 573.489C323.088 588.287 342.612 605.307 358.183 626.499C375.594 650.196 385.409 676.366 384.866 706.223C384.399 731.885 384.777 757.562 384.781 783.233C384.781 784.933 384.781 786.635 384.781 789.153C387.35 787.967 389.082 787.224 390.766 786.383C434.932 764.303 479.094 742.214 523.256 720.127C534.947 714.28 546.605 708.368 558.353 702.639C560.73 701.48 561.767 700.073 561.61 697.435C561.428 694.378 561.638 691.301 561.569 688.235C561.375 679.64 563 681.612 554.787 677.494C514.112 657.095 473.393 636.784 432.692 616.436C376.404 588.294 320.119 560.145 263.828 532.01C262.416 531.305 260.941 530.723 258.581 529.678ZM740.326 789.109C740.326 786.353 740.326 784.591 740.326 782.83C740.329 756.2 740.435 729.569 740.301 702.94C740.212 685.025 744.1 668.063 751.665 651.894C761.962 629.883 777.231 611.692 795.162 595.584C814.731 578.005 836.651 563.866 859.87 551.651C862 550.531 864.115 549.383 866.523 548.094C866.523 543.046 866.541 538.061 866.507 533.078C866.501 532.163 866.288 531.25 866.117 529.919C864.504 530.598 863.177 531.074 861.922 531.698C849.213 538.021 836.512 544.36 823.816 550.71C756.589 584.336 689.366 617.97 622.138 651.595C603.815 660.759 585.505 669.949 567.127 679.001C564.467 680.311 563.175 681.863 563.387 684.909C563.621 688.283 563.783 691.727 563.366 695.063C562.785 699.714 564.932 701.82 568.884 703.785C624.353 731.358 679.739 759.094 735.15 786.781C736.545 787.479 737.995 788.065 740.326 789.109ZM1171.56 394.855C1171.56 392.316 1171.56 390.731 1171.56 389.147C1171.57 379.945 1171.51 370.744 1171.59 361.543C1171.65 353.565 1170.32 355.203 1177.8 351.451C1208.67 335.979 1239.57 320.568 1270.45 305.123C1271.96 304.371 1273.41 303.517 1274.89 302.71C1272.8 301.991 1270.94 302.13 1269.08 302.303C1258.32 303.309 1247.56 304.431 1236.79 305.313C1201.02 308.242 1165.2 308.638 1129.37 306.772C1088.71 304.655 1048.37 299.849 1008.47 291.602C961.53 281.902 915.962 268.043 872.649 247.258C871.548 246.729 870.347 246.409 869.156 245.979C867.955 251.124 868.105 328.461 869.365 332.438C870.998 332.438 872.758 332.396 874.514 332.445C887.261 332.798 900.022 332.888 912.75 333.586C953.246 335.808 993.428 340.648 1033.15 348.948C1076.87 358.082 1119.42 370.891 1160.1 389.549C1163.59 391.148 1167.06 392.771 1171.56 394.855ZM212.686 875.43C77.5902 922.058 -60.2237 928.16 -200.318 904.575C-198.993 905.618 -197.547 906.48 -196.045 907.231C-163.448 923.546 -130.847 939.851 -98.2433 956.153C-82.6629 963.943 -67.1353 971.843 -51.4542 979.425C-47.7646 981.208 -45.9971 983.237 -46.3701 987.471C-46.7509 991.794 -46.4772 996.178 -46.4288 1000.53C-46.4157 1001.73 -46.1826 1002.93 -45.9807 1004.76C40.5893 961.478 126.638 918.454 212.686 875.43ZM-351.229 290.626C-349.576 290.765 -348.178 290.967 -346.778 290.988C-319.83 291.397 -292.934 292.647 -266.112 295.417C-237.535 298.366 -209.181 302.683 -181.103 308.77C-154.132 314.617 -127.561 321.893 -101.572 331.231C-100.22 331.717 -98.796 332.005 -97.4053 332.386C-103.101 327.633 -347.732 205.788 -351.229 205.299C-351.229 233.645 -351.229 261.974 -351.229 290.626ZM917.451 525.059C917.576 525.412 917.7 525.766 917.825 526.12C999.704 496.863 1084.49 485.292 1171.27 484.529C1171.27 455.661 1171.27 427.362 1171.27 398.142C1086.26 440.651 1001.85 482.855 917.451 525.059ZM-48.5188 984.183C-117.596 1018.72 -185.832 1052.85 -254.069 1086.97C-253.942 1087.36 -253.815 1087.76 -253.688 1088.15C-186.557 1070.09 -118.095 1062.34 -48.5183 1061.83C-48.5188 1035.87 -48.5188 1010.6 -48.5188 984.183ZM723.522 479.312C723.619 478.926 723.715 478.54 723.811 478.155C670.686 451.597 617.56 425.038 564.284 398.404C563.006 404.112 563.265 460.168 564.557 463.855C617.938 463.855 670.989 468.932 723.522 479.312ZM-353.567 233.982C-359.87 235.898 -486.083 299.311 -488.95 302.12C-443.877 294.6 -398.958 291.294 -353.567 290.936C-353.567 271.645 -353.567 252.992 -353.567 233.982ZM-46.1797 1061.85C-4.58936 1062.15 36.3999 1065.06 77.1616 1071.08C77.2487 1070.71 77.3359 1070.34 77.4231 1069.96C36.4227 1049.47 -4.57819 1028.97 -46.1797 1008.17C-46.1797 1026.41 -46.1797 1043.75 -46.1797 1061.85ZM742.373 726.572C742.299 727.358 742.16 728.144 742.16 728.93C742.145 748.279 742.236 767.629 742.053 786.977C742.023 790.15 743.729 791.129 745.96 792.242C770.764 804.615 795.552 817.019 820.354 829.397C821.726 830.081 823.177 830.607 824.591 831.206C824.759 830.917 824.927 830.627 825.095 830.337C823.893 829.428 822.69 828.519 821.489 827.608C815.071 822.736 808.475 818.079 802.268 812.952C783.469 797.422 767.252 779.647 755.458 758.105C750.013 748.157 746.097 737.623 742.373 726.572ZM382.803 726.681C382.556 726.689 382.309 726.696 382.062 726.704C381.746 727.603 381.363 728.485 381.124 729.405C375.829 749.76 365.594 767.51 352.375 783.647C337.75 801.5 320.33 816.259 301.377 829.294C300.429 829.946 299.59 830.756 298.699 831.493C298.86 831.721 299.02 831.948 299.18 832.176C327.07 818.23 354.96 804.284 382.802 790.362C382.803 768.857 382.803 747.769 382.803 726.681ZM742.797 116.921C742.593 116.94 742.389 116.96 742.185 116.979C742.185 123.696 742.158 130.414 742.226 137.13C742.233 137.842 742.602 138.908 743.135 139.195C746.101 140.799 748.851 143.02 752.376 143.315C749.115 134.329 745.956 125.626 742.797 116.921Z" fill="url(#paint0_linear_18468_31754)" fill-opacity="0.2"/>
<defs>
<linearGradient id="paint0_linear_18468_31754" x1="367.5" y1="380.5" x2="358.5" y2="989" gradientUnits="userSpaceOnUse">
<stop stop-color="white" stop-opacity="0"/>
<stop offset="1" stop-color="#DDDDDD"/>
</linearGradient>
</defs>
</svg>
