<svg width="48" height="48" viewBox="0 0 48 48" fill="none" xmlns="http://www.w3.org/2000/svg">
<mask id="mask0_18468_33936" style="mask-type:alpha" maskUnits="userSpaceOnUse" x="0" y="0" width="48" height="48">
<rect width="48" height="48" fill="#D9D9D9"/>
</mask>
<g mask="url(#mask0_18468_33936)">
<path d="M21.9 25.4L19.1 22.6C18.7 22.2001 18.2333 22 17.7 22C17.1667 22 16.7 22.2001 16.3 22.6C15.9 23 15.7 23.475 15.7 24.025C15.7 24.575 15.9 25.05 16.3 25.45L20.5 29.7C20.9 30.1 21.3667 30.3 21.9 30.3C22.4333 30.3 22.9 30.1 23.3 29.7L31.8 21.2C32.2 20.8 32.4 20.325 32.4 19.775C32.4 19.225 32.2 18.75 31.8 18.35C31.4 17.95 30.925 17.75 30.375 17.75C29.825 17.75 29.35 17.95 28.95 18.35L21.9 25.4ZM23.35 43.75C23.15 43.7167 22.95 43.6667 22.75 43.6C18.25 42.1 14.6667 39.3251 12 35.275C9.33333 31.225 8 26.8667 8 22.2V12.75C8 11.9167 8.24167 11.1667 8.725 10.5C9.20833 9.83338 9.83333 9.35005 10.6 9.05005L22.6 4.55005C23.0667 4.38338 23.5333 4.30005 24 4.30005C24.4667 4.30005 24.9333 4.38338 25.4 4.55005L37.4 9.05005C38.1667 9.35005 38.7917 9.83338 39.275 10.5C39.7583 11.1667 40 11.9167 40 12.75V22.2C40 26.8667 38.6667 31.225 36 35.275C33.3333 39.3251 29.75 42.1 25.25 43.6C25.05 43.6667 24.85 43.7167 24.65 43.75C24.45 43.7834 24.2333 43.8 24 43.8C23.7667 43.8 23.55 43.7834 23.35 43.75Z" fill="#FFAB13"/>
</g>
</svg>
