<svg width="256" height="256" viewBox="0 0 256 256" fill="none" xmlns="http://www.w3.org/2000/svg">
<rect width="256" height="256" fill="#10172A"/>
<path d="M127.62 155.006C133.245 155.004 138.758 153.563 143.545 150.842C148.332 148.122 152.205 144.229 154.73 139.599H135.018V133.497H157.148C157.66 131.502 157.925 129.46 157.939 127.41H135.018V121.367H157.891V115.207H135.018V109.105H157.891V103.018H135.018V96.9021H157.891V90.7859H135.018V84.7133H157.891C157.856 82.6621 157.575 80.6207 157.054 78.6263H135.018V72.51H154.572C151.485 66.9347 146.451 62.4788 140.28 59.8599C134.11 57.241 127.162 56.6115 120.556 58.0729C113.95 59.5342 108.07 63.0012 103.863 67.9157C99.6557 72.8302 97.3666 78.906 97.3642 85.1648V127.192C97.4058 134.567 100.609 141.628 106.276 146.838C111.943 152.047 119.614 154.983 127.62 155.006Z" fill="#FFAB13"/>
<path d="M176.439 128.541V115.785C175.388 115.783 174.347 115.972 173.376 116.342C172.404 116.711 171.522 117.254 170.779 117.939C170.036 118.623 169.447 119.436 169.045 120.331C168.644 121.226 168.439 122.185 168.441 123.153V127.187C168.407 137.152 164.094 146.7 156.444 153.745C148.793 160.791 138.427 164.76 127.61 164.787C116.787 164.768 106.412 160.802 98.7551 153.756C91.0978 146.71 86.7804 137.157 86.747 127.187V123.153C86.7472 121.214 85.9175 119.353 84.4379 117.973C82.9583 116.594 80.9481 115.808 78.8432 115.785V128.541C78.8844 139.615 83.3425 150.288 91.3693 158.531C99.3962 166.774 110.432 172.012 122.377 173.248V189.499H92.1374C91.0935 189.559 90.1136 189.983 89.3973 190.685C88.681 191.388 88.2822 192.315 88.2822 193.278C88.2822 194.242 88.681 195.169 89.3973 195.871C90.1136 196.574 91.0935 196.998 92.1374 197.057H162.955C163.532 197.09 164.111 197.013 164.654 196.832C165.198 196.651 165.696 196.369 166.117 196.005C166.538 195.64 166.873 195.199 167.103 194.71C167.332 194.221 167.45 193.694 167.45 193.162C167.45 192.629 167.332 192.102 167.103 191.614C166.873 191.125 166.538 190.684 166.117 190.319C165.696 189.954 165.198 189.673 164.654 189.492C164.111 189.311 163.532 189.234 162.955 189.266H132.494V173.248C144.514 172.099 155.649 166.899 163.76 158.647C171.871 150.395 176.387 139.673 176.439 128.541Z" fill="#FFAB13"/>
</svg>
